<svg version="1.2" xmlns="http://www.w3.org/2000/svg" viewBox="0 0 101 69" width="101" height="69"><style>.a{fill:#ffd600}</style><path class="a" d="m47 41c6.6 0 12 5.4 12 12 0 6.6-5.4 12-12 12-6.6 0-12-5.4-12-12 0-6.6 5.4-12 12-12zm15.3-41c2.7-0.5 1.4 2.8 1.4 2.8l-1.4 12.1c-1 3-4 2.7-4 2.7l-35.9 1.4c-1.8-0.3-1.3-1.4-1.3-1.4l6.6-10.8z"/><path fill-rule="evenodd" d="m32 21.2c3.6 0.2 7.2 0.4 10.8 0.5 1.2 0 2.3-0.3 3.5-0.4 3.8-0.3 7.6-0.6 11.5 0 1.1 0.1 2.3 0.5 3.4 0.9 0.5 0.2 0.8 0.6 1.2 1-3-1.2-6.2-1.1-9.4-1.1q-3.2 0-6.3 0c2.2 0.4 4.1 1.5 5.8 2.8-0.5-0.2-1-0.3-1.5-0.5-2.7-1.4-5.7-1.8-8.6-1.8-4.4 0-8.8 0-13.1 0.2-3.1 0-6.2 0.1-9.2 0.4-2.9 0.3-5.6 0.9-8.4 1.4q-0.3 0-0.5 0.2 1.9-0.3 3.7-0.4c4.5-0.5 9-0.7 13.5-0.2 1.4 0.1 2.7 0.5 4.1 0.9 0.9 0.3 1.7 0.9 2.2 1.8 0.1 0.4 0.3 0.4 0.6 0.4 5.8-0.3 11.6-0.1 17.4 0.3q2.9 0.1 5.7 0.5c-7.8 0.3-15.6-0.1-23.3-0.6q0.4 1.9 0.7 3.6c0.4-0.4 0.8-0.9 1.2-1.4q1.4-1.5 3.4-1.4c4.8 0.2 9.7 0.3 14.5 0.5q6.6 0.3 13.2 0.7c2.9 0.1 5.8 0.4 8.7 0.5q0.2 0 0.4 0c0-0.2 0-0.5 0-0.8 0.4 0.3 0.3 1.2 1.1 0.9q-0.3-2.6-0.7-5.2c-4-0.5-8.1-1-12.2-1.4 0-0.3 0-0.5-0.1-0.6 1-0.5 1-0.5 0.8-1q-0.1 0.2-0.2 0.4c-0.5-0.1-0.1-4.5 0.5-5.7 0.1 0.8 0.2 1.5 0.2 2.1 0 1 0.5 1.6 1.6 1.8 1.1 0.2 1.9-0.1 2.2-1 0.2-0.9 0.3-1.8 0.2-2.7 0-0.9-0.3-1.8-0.5-2.6-0.1-0.3-0.4-0.4-0.6-0.6q-0.1 0-0.1 0c-1.7-0.2-1.7-0.2-2.3 1.4q-0.3 0.5-0.6 1c0-0.9 0.1-1.8 0.5-2.7q0.2-0.4 0.2-0.8c0.2-1.4 0.2-2.7 0.4-4.1 0.1-1.3 0.7-1.8 1.9-1.7q2.4 0.2 4.8 0.7c1.4 0.2 2 1.3 2.1 2.6q0.1 1.3 0.2 2.6 0.1 2.5 0.3 4.9 0 0.9 0 1.8c-0.1 0.9-0.5 1.3-1.3 1.4-1.1 0-2.1-0.1-3.2-0.1q0-0.1 0-0.2 1-0.1 2-0.1c1.7-0.2 1.9-0.4 1.7-2.1-0.3-2.5-0.5-5.1-0.8-7.6 0-0.3-0.1-0.6-0.2-0.9-0.2-0.7-0.5-1.1-1.2-1.2-0.5-0.1-0.9-0.2-1.4-0.4 0.2 1.7 0.4 3.3 0.4 5 0.1 1.6-0.1 3.2-0.2 4.8q-0.1 0-0.2 0c-0.1-1.6-0.3-3.2-0.3-4.9-0.1-1.6 0-3.2 0-5q-1.4-0.2-2.9-0.4c-0.5 0-0.8 0.2-0.9 0.7-0.3 1.5-0.6 2.9-0.9 4.3q1.2 0 2.4 0c0.5 0 0.9 0.2 1.1 0.7 1.1 2.1 1.4 4.3 0.7 6.5-0.5 1.6-1.7 2.2-3.4 1.8-0.6-0.2-1.3-0.5-2-0.9 0.1 0.2 0 0.5 0.2 0.6 0.6 0.7 0.7 1.1 0.1 1.8q5.4 0.2 11 0.5c-0.3-5.3-0.3-10.6-1.1-15.8 0.2 0.5 0.4 1 0.5 1.5 0.7 2.7 1 5.5 1.2 8.3q0.2 3 0.5 6.1c3.5 0.4 7.1 0.8 10.6 1.2q0-0.8 0-1.6 0 0 0.1 0 0.2 0.8 0.4 1.6 3.8 0.6 7.6 1.1c-0.1-4.6 0-9.2-0.8-13.8q0.2 0.4 0.4 0.8 0.1 0.5 0.2 1c0.1 0.3 0.2 0.6 0.3 1 0.2 2.2 0.5 4.5 0.7 6.8 0.2 4.7 0.4 9.4 0.7 14 0.1 2.8 0 5.6-0.5 8.3q0 0.3-0.1 0.7-0.1 0-0.2 0.1c0.1-1.4 0.2-2.8 0.2-4.2 0-1.4-0.1-2.8-0.2-4.3-0.1-1.4-0.3-2.8-0.4-4.2-2.8-0.1-5.5-0.2-8.3-0.3-0.1 0.7-0.1 1.4-0.2 2.1 0 1.4-0.3 2.7-0.7 4-0.9 2.9-1.7 5.9-2.5 8.8-0.2 0.6-0.2 1.1-0.3 1.7 0.7-0.1 1.3-0.4 1.5-1.1 0.6-1.8 1.2-3.7 1.8-5.5 0.4-1 1-2 1.5-3 0.3-0.6 0.8-0.9 1.5-0.9 0.5 0 1 0 1.6 0 1.1 0.1 1.9 0.7 2.3 1.8q0.6 1.8 0.9 3.7c0.2 0.9 0.5 1.7 1.6 2-0.8 0.1-1.2-0.1-1.5-0.8-0.3-0.5-0.4-1.1-0.6-1.6q-0.6-1.7-1.3-3.4-0.3-1-1.4-0.9c-0.3 0-0.7 0-1.1 0-0.9-0.1-1.4 0.3-1.7 1.1-0.1 0.4-0.3 0.8-0.5 1.3 2.3-0.4 3.7 0.8 4.8 2.6 1.3 2 1.4 4.3 1.3 6.6-0.1 0.9 0 1.8 0 2.7 0.1 0 0.2 0 0.3 0 1.9-0.1 2.1-0.3 2.1-2.2 0-1 0.1-2 0.5-3.1 0.4-1 0.6-2 0.9-3.1 0.3-1.3 0.1-2.5-1.3-3.1 0.8-0.3 1.6 0 1.8 0.8 0.2 1 0.4 2 0.3 2.9-0.1 1.2-0.5 2.4-0.8 3.6-0.1 0.8-0.4 1.7-0.4 2.6-0.2 1.7-0.9 2.3-2.5 2q-0.4-0.1-0.8-0.1c-0.1 1.1-0.2 2.2-0.5 3.3-0.2 0.9-0.5 1.8-0.9 2.6-2.2 4.1-8.4 4-10.7 0.3-1.3-2.1-1.8-4.5-1.9-7q0-0.3 0-0.7c-0.6 0-1 0-1.1 0.8q0 0.1-0.1 0.2c-0.2 0.5-0.3 0.9-0.8 0.9-0.6 0.1-0.8-0.3-1-0.7-0.4-1.2-1-1.2-2.1-1.1-0.7 0.1-1.5 0.1-2.2 0.2-0.1 0-0.3 0.1-0.4 0.3-0.5 0.5-0.9 1.2-1.5 1.7-1 0.9-1.8 0.9-2.8 0-0.8-0.7-1.5-1.6-2.3-2.4-0.2-0.2-0.6-0.3-0.9-0.4-0.2 0-0.4 0-0.6 0-0.5 0-1.1-0.2-1.4 0.1-0.7 0.7-1.4 1.5-1.4 2.6q0 1.2-0.1 2.5c-0.1 1.6-0.7 2.1-2.3 2q-0.2 0-0.3 0c-0.3 1-0.5 1.9-0.9 2.8-1.6 3.7-4.2 6.4-8.1 7.4-1.8 0.4-3.5 0.2-5.2-0.4q-0.9-0.3-1.8-0.5c-7.1-1.4-9.5-7.4-9.2-12.1 0-0.6 0.1-1.1 0.2-1.7q-1 0-2 0c-0.1 0-0.2 0.1-0.3 0.3-0.7 1-1.6 1.6-2.9 1.5-0.7-0.1-1.2 0.3-1.6 0.8-0.8 1.1-1.7 1.6-3 1.4-0.7 2.2-2.2 3.5-4.1 4.4-3.5 1.7-7 1.8-10.6 0.3-3.8-1.7-6.1-5.9-5.8-10.3q0-0.4 0-0.8-1.7-0.6-3.5-1.2 0.1-0.1 0.1-0.2 1.6 0.4 3.2 0.7 5.6 1.1 11.3 1.2 9.7 0.3 19.4 0.4c1 0 1.9-0.2 2.9-0.2 0.7 0 1.1-0.4 1.4-1.1q0.5-1.6 1-3.2c0.3-1.5 0.7-3.1 1-4.7-0.6-0.1-1.2-0.2-1.9-0.2-5.2-0.1-10.5-0.2-15.7-0.2-6.3 0-12.7-0.2-19-0.9-1.3-0.1-2.7-0.2-4-0.3-0.6 0-1 0.2-1.1 0.7-0.2 0.9-0.4 1.8-0.4 2.6-0.1 1.4 0.1 2.7 0.1 4.1-0.1-0.3-0.3-0.6-0.3-0.9-0.5-1.8-0.5-3.7-0.1-5.5q0.2-0.6 0.5-1.1 0.3-0.6 1-0.6c0.8 0 1.5 0 2.3 0q-0.2-0.7-0.5-1.4c-0.8-1.8-0.9-3.7-0.3-5.5 0.4-1 0.3-1.9 0.3-2.9 0-0.6 0-1.3 0.1-1.9 0.1-1.4 0.8-2.4 2-3.2 3-2 6.5-2.8 10-3.5q6.4-1.3 12.9-1.4c0.4 0 0.5-0.2 0.6-0.5q0.6-1.6 1.2-3.2c-1.4 0.3-1.5 1.3-1.6 2.3 0 0.4-0.2 0.8-0.4 1.3-0.7-1-0.8-2.7-0.2-3.5 0.4-0.5 1.1-0.6 2.2-0.2q1.5-4 3.4-7.9c0.5-1.2 1.4-2 2.6-2.4 3.8-1.5 7.7-2.4 11.6-3.1q7.8-1.6 15.8-2c3.7-0.3 7.3 0.1 10.9 1 5 1.2 10 2.3 14.9 3.7 1.8 0.5 3.6 1.4 5.3 2.2 0.7 0.4 1.3 1 1.9 1.5-0.1 0.1-0.1 0.1-0.2 0.1-2.6-2.1-5.7-2.9-8.8-3.6-5-1.1-10.1-2.1-15.1-3.1-5-1-10.2-0.8-15.3-0.3q-2.8 0.3-5.7 0.8c1.5-0.1 3-0.3 4.5-0.4q4.9-0.2 9.8-0.2c0.9 0 1.4 0.4 1.5 1.4q0.1 0.8 0 1.7c-0.6 4-1 8-2.2 11.9-0.8 2.7-1.9 5.4-3.4 7.8q-0.2 0.2-0.3 0.4 0 0-0.1 0c0.6-1.5 1.3-2.9 1.8-4.4 1.5-3.7 2.4-7.6 2.8-11.5q0-0.8 0.1-1.6-0.3 2-0.6 4c-0.3 1.6-0.6 3.2-1.3 4.7-0.7 1.4-1.7 2.1-3.2 2.1-2.6 0-5.2-0.1-7.8 0-4.9 0.1-9.9 0.2-14.8 0.4-0.4 0-0.7 0.2-1.1 0.3-0.3 0-0.6-0.2-0.9-0.2q-2.3 0.2-4.7 0.3-0.2 0-0.5 0c0.5-0.1 1-0.3 1.5-0.3 1.2-0.2 2.4-0.3 3.6-0.5-0.4-0.5-0.9-0.5-1.4-0.5-0.5 0-1-0.1-1.4-0.2q-0.7-0.1-1.4-0.2c2.4-0.6 4.7-0.5 7.1 0q-1.1 0.2-2.2 0.3-0.1 0.1-0.1 0.2c0.3 0.1 0.5 0.3 0.8 0.3q6.6-0.4 13.2-0.9c0.1 0 0.2 0 0.4 0-2.9-1.3-5.8-0.6-8.6-1.1 1.5-0.9 6.3-1.1 7.8-0.4q-0.3 0.1-0.7 0.2c0.8 0.4 1.5 0.8 2.3 1.3 0.1 0 0.2 0 0.4 0q4.4 0 8.9-0.1c0.6 0 1.2-0.3 1.5-0.9 0.3-0.7 0.7-1.5 0.9-2.2 0.4-2.3 0.7-4.7 1-7 0.1-0.8 0-1.7 0.1-2.6-0.4 0-0.6-0.1-0.9-0.1-1.6 0.1-3.3 0.1-4.9 0.2-7.6 0.9-15.2 1.9-22.8 2.7-0.4 0.1-0.6 0.3-0.8 0.6-1.5 2-2.4 4.3-3.2 6.6q-0.8 2-1.6 3.9-0.1 0-0.1-0.1c0.9-3.1 2-6.1 3.3-9.1-0.2 0.2-0.3 0.3-0.4 0.5q-2.1 4.6-4.3 9.2c0 0.1 0 0.2-0.1 0.4 0.8-0.1 1.4-0.1 2.1-0.2q0 0 0 0 0 0 0 0c0.2 0.1 0.4 0.1 0.7 0.1zm34.5-15.6c0.1-0.6-0.1-0.8-0.7-0.7-4.2 0.2-8.4 0.3-12.6 0.7-5.9 0.5-11.6 1.6-17.3 2.9-0.8 0.2-1 0.5-1.2 1.2 0.4-0.7 1.1-1.1 1.9-1.1 0.5-0.1 1-0.2 1.5-0.3 7.4-1 14.8-2 22.2-3 1.6-0.2 3.3 0 5 0.1 0.8 0 1 0.4 1 1.2 0 0.9-0.1 1.9-0.1 2.9q0.1-1.9 0.3-3.9zm19.7 44.1c-0.2 0-0.3 0.3-0.3 0.5-0.1 2 0.1 4 0.8 6 0.6 1.9 1.8 3.3 3.7 4.2q1.5 0.7 2.8-0.5c1-0.9 1.7-2.2 2-3.5 0.8-3.6 0.8-7.2-0.5-10.7-0.3-0.8-0.7-1.5-1.2-2.1-0.7-0.9-1.7-1.3-2.9-1.2-0.4 0.1-0.8 0.2-1 0.6q-0.6 2.3-1.2 4.6c0.3-0.6 0.5-1.1 0.9-1.7 1.1-1.6 3-1.7 4.2-0.1 0.8 1 1 2.2 1.1 3.3q0.1 0.7 0 1.3c-0.3-0.8-0.5-1.6-0.8-2.4-0.3-0.6-0.6-1.2-1-1.7-0.7-1-1.8-1-2.5 0-0.3 0.3-0.5 0.8-0.7 1.2q-1.1 3.6-0.1 7.3 0.2 0.5 0.4 1c0.9 1.5 2.6 1.5 3.4 0.1 0.5-0.8 0.7-1.8 1.1-2.7 0.1-0.3 0.1-0.5 0.1-0.8 0.6 1.9-0.4 4.4-2 5.2-1.2 0.5-2.2 0.3-3-0.8-1-1.2-1.3-2.7-1.5-4.2-0.3-1.6 0-3.2 0.3-4.8-0.4 0.9-1.1 1.6-2.1 1.9zm-44.1-8.5c0 0.7 0.6 0.2 0.8 0.5 0.3-0.8 0.6-1.6 0.9-2.4 1-2.2 2.6-3.6 5-4.1 2.4-0.4 4.7-0.4 7.1-0.1 1.6 0.2 3 0.9 3.7 2.5q0 0 0.2 0.1c-0.3-0.7-0.6-1.2-0.7-1.8-0.3-0.9-1-1.4-1.9-1.5-2.1-0.1-4.3-0.4-6.5-0.4-1.4 0-2.8 0.3-4.3 0.6-0.6 0.1-1.1 0.5-1.4 1.1q-0.7 1.2-1.3 2.5-0.8 1.5-1.6 3 0 0 0 0zm0 0q0 0 0 0 0 0 0 0 0 0 0 0zm2-5.5c0.5-1.2 1.4-1.9 2.6-2.1 1.5-0.3 3-0.5 4.6-0.7 2.2-0.1 4.5-0.1 6.7 0.4 1 0.3 1.7 0.8 2.1 1.7 1.6 3.5 3.1 7 4.1 10.7 0.3 1 1 1.6 1.9 2 0-0.5 0-0.8 0-1.2q0-0.6 0.1-1.2c-1.3-0.3-1.9-0.9-1.8-1.7 0.1-0.4 0.3-0.8 0.5-1.1 0.3-0.2 0.8-0.3 1.3-0.5q-0.3-5.5-0.5-10.9c0-0.4-0.2-0.4-0.5-0.4q-7.9-0.4-15.7-0.9c-2.9-0.1-5.7-0.3-8.6-0.5-2.4-0.2-4.3 1.2-4.7 3.6-0.5 2.7-0.1 5.4 0.3 8.1 0.1 0.1 0.4 0.3 0.5 0.3q2.3 0.1 4.6 0.2c0.2 0 0.3-0.2 0.5-0.3 0.7-1.8 1.3-3.7 2-5.5zm22.1 6.3q0 0 0 0 0 0 0 0 0 0 0 0 0 0 0 0zm-26.8 11.9c0 0.4 0 0.7 0 1.1 0.4 3.9 2.2 7 5.1 9.4 5.7 4.6 11.5 1.7 13.9-2.6 0.8-1.3 1.3-2.7 1.8-4 0.3-0.8 0.5-1.6 0.8-2.3q0.1 0 0.1 0 0 1.3 0 2.6c1.5-0.4 1.7-0.7 1.6-2-0.3-1.6 0.3-3.8 2.1-4.7 0.1-0.1 0.1-0.1 0.1-0.2-1.2-0.2-2-1-2.5-2.2-0.2-0.5-0.3-1-0.5-1.5q-1.5-4.5-3-8.9c-0.5-1.4-1.5-2.2-2.9-2.5-2.3-0.4-4.5-0.3-6.8-0.1-1.2 0.1-2.3 0.3-3.2 1.1-1.5 1.2-2.1 3-2.9 4.5 0.5 0.3 0.9 0.6 1.3 0.8 4.2-2.1 8.4-2.5 12.3 0.6 2.8 2.3 4.6 6.8 3.9 9.3-0.8-1.4-1.5-2.8-2.3-4.2q-1.7-3-4.9-4.5c-2.8-1.3-5.6-1-8.5-0.5-0.1 0.1-0.3 0.2-0.3 0.3-0.3 0.6-0.5 1.3-0.7 2-0.5 1.8-0.8 3.6-1.3 5.4-0.5 1.6-1.3 3-3.2 3.1zm40.1-22.5c0.2 1.4 0.4 2.8 0.4 4.2 0.1 1.4-0.1 2.9-0.2 4.3-0.1-0.1-0.2-0.1-0.2-0.2q0-0.3 0-0.6c0-2.5-0.1-4.9-0.8-7.3-0.1-0.4-0.3-0.5-0.7-0.4-0.1 2.7-0.2 5.4-1 8-0.8 2.6-2 5-3.2 7.4 0.7-2.5 1.5-5 2.2-7.5 0.8-2.6 1.2-5.2 1.3-8q-5.7-0.3-11.3-0.6-0.1 0.2-0.1 0.2c1.5 4.2 1.6 8.5 1.3 12.9-0.1 1.2-0.3 2.4-0.4 3.6-0.1 0.4 0.1 0.6 0.5 0.6 1.5 0.1 3 0.2 4.5 0.2 3.9-0.2 7.8-0.5 11.7-0.7 0.6-0.1 1.3 0 2 0q0-0.2 0-0.4c0.3-3.3 1.1-6.5 2.2-9.7 0.5-1.8 0.5-3.6 0.8-5.5q-4.6-0.3-9-0.5zm-44.2 5.2c0-0.8 0-1.6 0-2.4-0.1-2-0.4-3.9-1.1-5.7-0.5-1.4-1.4-2.3-2.8-2.5-1.4-0.3-2.8-0.5-4.2-0.5q-8.5 0.3-16.9 0.7c-1.3 0.1-2.5 0.5-3.7 0.7q-1 0.3-1.7 1.3c1.1-0.2 1.9 0.1 2.6 0.7 1.6 1.5 1.6 4.3-0.1 5.7-1.1 0.9-2.6 0.7-3.4-0.5-0.1-0.2-0.2-0.3-0.4-0.6 0 0.9 0 1.8 0 2.8 0.5-0.8 0.9-1.3 1.7-1.1 1.4 0.3 2.3 1.7 2.1 3.1-0.1 0.4 0 0.6 0.4 0.7 1.2 0.2 2.4 0.5 3.7 0.5 5.7-0.1 11.5-0.3 17.3-0.5q1.1-0.1 2.3-0.1c-0.2-1.2-0.3-2.4 0.8-3.1 1.3-0.9 2.4-0.2 3.4 0.8zm-9.2 21.5c-1.2-0.4-2.1-0.9-2.4-2.3-0.6 2.1-2 3.1-3.9 3.5q-1.7 0.4-3.3 0c-2.5-0.7-4.3-2.1-4.9-4.8-0.1-0.6-0.1-1.2-0.2-1.8q-2-0.3-4.1-0.7c0.4 4.5 3.8 8.9 7.7 9.9 4.2 1.1 9-0.6 11.1-3.8zm62.6-27.1c0.2-1.7 0.4-3.4 0.7-5-3.6-0.4-7.1-0.7-10.7-1 0.1 1.8 0.3 3.5 0.4 5.2 3.2 0.3 6.4 0.5 9.6 0.8zm8.7-4.7q-3.8-0.1-7.5-0.3c-0.1 1.7-0.2 3.4-0.4 5.1q4.1 0.4 8.1 0.8c0-1.9-0.1-3.7-0.2-5.6zm-93.1 14.8c10.7 1 21.4 0.5 32.1 0.2q-0.2-0.9-0.5-1.8-0.1-0.2-0.1-0.5-0.1 0.1-0.2 0.2c-0.9 1.4-2.1 1.6-3.5 0.7-0.2-0.1-0.4-0.1-0.5-0.1q-2.7 0.3-5.4 0.5c-4.6 0.4-9.1 0.7-13.7 0.5-2 0-4-0.1-5.8-1.1-0.6 1-1.5 0.8-2.4 0.4q0 0.5 0 1zm8.8 11.8c1.6 3.6 3.9 4.3 6.8 3.5 1-0.3 1.7-1 2.1-2 0.1-0.5 0-0.7-0.5-0.8-0.4 0-0.9 0-1.3-0.1q-3.5-0.3-7.1-0.6zm69.7-2.5c0.2 1.2 0.4 2.4 0.7 3.6 0.4 1.8 0.9 3.5 2 5 1.1 1.6 2.5 2.5 4.5 2.7-4.6-2.8-5-7.1-4.5-11.8-0.9 0.2-1.7 0.3-2.7 0.5zm-19.9-3.9q0.2 0.6 0.4 1.2c0.6 1.8 1.3 2.3 3.1 2.2q2.2 0 4.5-0.1 6.1-0.3 12.1-0.7c0.9-0.1 1.7-0.3 2.5-0.4 0-0.4 0-0.7 0-0.9q-0.3 0-0.6 0c-3.3 0.4-6.5 0.8-9.8 1.1-2.4 0.2-4.8 0.4-7.1 0.4-2.1 0-4.2-0.5-5.1-2.8zm-29.2 7.6c-3.7-0.1-7.3-0.2-10.8-0.4q0.7 0.8 1.3 1.6c0.3 0.3 0.6 0.8 0.9 1.1 0.8 0.8 2.5 0.8 3.1 0 0.7-1.1 1.6-1.4 2.7-1.3 1.1 0 2-0.2 2.8-1zm8.5 11.1c-0.5-0.9-1.2-1.7-1.7-2.6-1.4-2.7-2.5-5.5-1.6-8.7q-1.2 0.1-2.4 0.2c0.7 4.4 1.7 8.5 5.7 11.1zm-34.7-33.5c0-0.9-0.3-1.7-0.9-2.3q-0.9-1-1.7 0c-0.6 0.7-0.8 1.5-0.9 2.4-0.2 0.9 0.2 1.5 0.7 2 0.6 0.7 1.3 0.7 1.9 0.1 0.6-0.6 0.9-1.4 0.9-2.2zm15 22.6c-0.1 2.1-2.4 3.4-4.3 3.5-2.9 0.2-4.6-1.4-5.5-4.9q-0.5-0.1-1-0.2c0.6 3.3 2.8 5.2 6.2 5.6 2.1 0.3 3.8-0.3 5-2.2 0.6-0.9 0.5-1.1-0.4-1.8zm12.5-16.8c0-1.1-0.5-1.5-1.7-1.5-1 0-1.6 0.6-1.6 1.6 0 1.2 0.6 1.8 1.6 1.8 0.9 0 1.7-0.9 1.7-1.9zm39.3 13.7q-3 0.1-6 0.2c0.5 0.4 0.9 0.7 1.4 1 0.4 0.4 0.8 0.8 1.2 1.2 0.6 0.5 1.1 0.5 1.7-0.1 0.4-0.5 0.7-1 1.1-1.5q0.2-0.4 0.6-0.8zm-67.7-13.3c0-1-0.7-1.9-1.6-1.9-0.7-0.1-1.2 0.6-1.3 1.6 0 0.7 0.9 1.6 1.6 1.6 0.7 0.1 1.3-0.5 1.3-1.3zm71.9 13c1.2 0.2 1.6 1.2 2 2.2 0.4-0.9 0.6-2 2-1.4 0.1-0.5 0.1-0.9 0.2-1.3q-2.2 0.3-4.2 0.5zm-71.6 3.7c0-0.9 0-1.8 0-2.7q-0.3-0.1-0.7-0.2c0.2 0.9 0.4 1.7 0.6 2.5q0 0.2 0.1 0.4zm59.2-10.1c0.2-1.1 0.2-1.4-0.3-1.5-0.2 1.1-0.2 1.3 0.3 1.5zm-61.7 1.2q-0.1-0.1-0.3-0.1-0.1 0-0.1 0 0 0 0.1 0 0.1 0 0.3 0.1zm-2.6-0.5c-0.2 0-0.4 0.4-0.5 0.6-0.1 0.2-0.1 0.5-0.1 0.7-0.4-1.3 0-1.9 1.3-1.7 1.4 0.2 2.8 0.5 4.2 0.8 1.3 0.2 2.6 0.5 3.9 0.5q6.4 0.4 12.7 0.6c0.7 0 1.4-0.2 2.1-0.5 1.9-0.8 3.9-1.2 6.1-0.9 2.2 0.4 3.5 2.9 2.5 5.1-0.3 0.6-0.9 0.9-1.5 1-1.3 0.2-2.5 0.4-3.9 0.4-4.7 0.2-9.5-0.1-14.2-0.6-3.5-0.4-7-0.9-10.6-1.4q-0.7-0.1-1.3-0.4c-0.2 0-0.4-0.2-0.7-0.5 0.7 0 1.3 0.1 1.9 0 0.8 0 0.9-0.3 0.7-1q0-0.2-0.1-0.4c-0.1-0.2-0.1-0.6-0.3-0.7-0.4-0.2-0.9-0.3-1.3-0.4-0.1 0-0.2 0.1-0.3 0.2-0.1 0.2-0.2 0.4-0.3 0.6-0.3-1.3 0.1-1.8 1.4-1.6q0.2 0 0.5 0c-0.8-0.1-1.5-0.3-2.2-0.4zm3.3 4.3c4 0.7 21.6 1.5 23.2 1.1-0.1-0.3-0.1-0.5-0.2-0.9 0.3 0.2 0.5 0.4 0.7 0.4q1-0.1 2.1-0.2c0.5-0.1 0.8-0.5 0.8-1.1-0.1-0.5-0.3-0.9-0.9-0.9-0.2 0-0.3-0.1-0.5-0.1-1.4-0.3-1.4-0.3-2.1 0.9q-0.1 0-0.1 0c-0.4-0.8 0-1.6 0.9-1.8 0.7-0.1 1.5 0 2.3 0-1.6-0.5-4.7 0-6 0.9 0.6 0.2 1.2 0.3 1.7 0.6 0.3 0.1 0.6 0.6 0.6 0.9 0 0.2-0.4 0.6-0.7 0.7-0.2 0.2-0.5 0.3-0.9 0.3-1.7 0.1-3.5 0.2-5.2 0.1-4.4-0.1-8.8-0.8-13.1-1.6-0.2 0-0.5-0.3-0.5-0.5-0.1-0.2 0.1-0.6 0.4-0.7 0.5-0.4 1.1-0.2 1.7-0.1-0.6 0.2-1.3 0-1.8 0.8 6.2 0.5 12.3 1.2 18.4 0.8-3.8-0.7-7.6-0.7-11.4-1.3q1.8 0 3.6 0-0.3-0.2-0.7-0.2-2.7-0.2-5.4-0.4c-2.2-0.2-4.4-0.4-6.5-1.3-0.3-0.2-0.7-0.2-1.1-0.2 1.2 0.4 1.7 2.6 0.7 3.8zm91.2-38.7c-0.5-0.1-1-0.1-1.5-0.2-8.9-1.7-17.6-4.2-26.5-5.5 1.1 0 2.3-0.1 3.4 0 8.4 0.7 16.5 2.7 24.5 5.5q0.1 0 0.1 0.1 0 0 0 0.1zm-9.4 10.6c-0.5-2-1.1-4-1.7-6.1-0.4-1.4-0.9-2.8-1.4-4.2-0.2-0.5-0.5-0.9-1.1-1.1-0.8-0.3-1.7-0.6-2.5-0.8-0.9-0.2-1.2 0.1-1.2 1q0.3 4.8 0.5 9.6c0.1 0.7 0.4 1.2 1.1 1.3 1.5 0.4 3 0.7 4.6 1 0.3 0.1 0.6 0.1 0.9 0.1q0 0.1 0 0.2c-0.7 0-1.4 0-2.1-0.1q-1.5-0.1-3-0.3c-1.4-0.3-2-0.8-2.2-2.3q-0.3-2-0.4-4c-0.2-2-0.3-4-0.3-6 0-1.1 0.5-1.5 1.6-1.5 1.5 0 2.9 0.5 4.1 1.5 0.4 0.3 0.7 0.8 0.8 1.3q0.9 2.9 1.6 5.7c0.3 1.6 0.6 3.1 0.9 4.7q-0.1 0-0.2 0zm9.5-2.6q0.2 1.8 0.4 3.6c0 0.5-0.3 0.7-0.6 0.7-1 0-2.1 0.2-3.1 0.1-1.1-0.2-2.3-0.5-3.4-0.8-0.8-0.1-1.3-0.6-1.6-1.4-0.8-2.7-1.6-5.3-2.4-8-0.1-0.5-0.1-1 0-1.5q0.1-1.4 1.4-1.4 0.6 0 1.2 0.1 2.6 0.5 5.2 1.1c1.7 0.4 2.2 0.9 2.5 2.7q0.1 1 0.1 2.1-0.3-1.3-0.6-2.5c-0.3-0.8-0.7-1.3-1.6-1.5q-3.2-0.5-6.5-1.1-0.7-0.1-0.7 0.5c0 0.5-0.1 1 0 1.5 0.5 2.2 1.2 4.4 1.7 6.6 0.3 1.4 1.2 2.3 2.6 2.5q2.3 0.3 4.7 0.6c0.5 0 0.7-0.2 0.7-0.8q0-1.6 0-3.1 0 0 0 0zm1.1 24.8c-0.2-0.6-0.3-1.2-0.5-1.7q-0.5-1.6-1.1-3.1c-0.3-0.9-1-1.4-1.9-1.4-0.9 0-1.9 0.1-2.8 0.1-0.5 0-0.7 0.4-0.8 0.8q-1.3 3-2.6 5.9-0.3 0.9-0.7 1.7-0.1-0.1-0.2-0.1c0.6-1.8 1.1-3.7 1.6-5.5 0.3-0.9 0.6-1.8 0.9-2.7 0.3-0.7 0.8-1.1 1.5-1.3q1.9-0.5 3.9 0.1c1 0.3 1.6 1 2 2 0.6 1.6 0.7 3.4 0.7 5.2zm-14.9-23.1c-0.5-3.5-1-7-0.8-10.5 1 3.4 1.1 6.9 0.8 10.5zm-6.5 6.4q-0.9 0.2-1.9 0.3 0 0.1 0 0.2c0.6 0 1.3 0 2-0.1-0.1 0.2-0.2 0.5-0.4 0.6-0.7 0.5-1.4 0.7-2.2 0.5-0.5-0.1-0.9-0.4-1-0.9 0-0.6 0.3-1 0.8-1.1 1-0.4 1.9 0 2.7 0.5zm-17.1-0.3c0.5 1 1.2 1 2 0.9-0.1 0.3-0.2 0.5-0.3 0.5-1 0.7-2.6 0.2-2.9-1.2-0.1-0.3 0.2-0.7 0.4-0.8 0.8-0.5 1.7-0.5 2.5-0.1 0.3 0.2 0.5 0.5 0.3 0.9-0.3-0.1-0.6-0.3-0.9-0.3-0.4 0-0.7 0.1-1.1 0.1zm5.8 2.2c-0.8-2.2-0.9-4.2-0.1-6.3 0.9 2 0.8 4.1 0.1 6.3zm-8.2 28.3c0 0.5 0 1.1-0.2 1.6-1 3.5-4.2 5.2-7.9 4.2-5.1-1.5-7.7-6.6-5.9-11.8 0.6-1.6 1.4-3 2.8-4.1 2.1-1.7 5.1-1.8 7.6-0.4 2.5 1.4 3.9 3.9 3.6 6.7-0.2-0.5-0.3-0.8-0.4-1.1-0.6-1.1-1.1-2.2-1.8-3.2-2.5-3-7.1-2.6-9.2 0.7-2 3.2-1.5 7.9 1 10.3 1.5 1.4 3.2 2 5.1 1.9 2.2-0.2 3.7-1.6 4.6-3.5 0.2-0.5 0.4-0.9 0.6-1.4q0.1 0.1 0.1 0.1zm-4.1-4.5c-0.9-0.6-1.6-1.2-2.7-0.9-0.6 0.2-1.2 0.5-1.6 1-0.9 0.9-0.5 3.3 0.5 4.3 0.9 0.9 2.1 0.6 4-0.9q0 0.1 0.1 0.1c-0.1 0.4-0.2 0.8-0.4 1.1-1.6 1.9-4.1 1.8-5.5-0.2q-1.2-1.7-0.7-3.8c0.5-2 3.3-3.3 5.1-2.4 0.7 0.3 1 0.9 1.2 1.7zm-0.6 2.6c-0.2 0.8-0.5 1.4-1.2 1.5-0.8 0.1-1.4-0.4-1.9-1-0.4-0.5-0.4-1.2-0.1-1.7 0.3-0.4 0.6-0.7 0.9-0.9 0.4-0.3 0.9-0.5 1.4-0.2 0.4 0.3 0.5 0.7 0.5 1.3-0.3-0.2-0.5-0.3-0.8-0.5-0.4-0.2-0.7-0.1-0.8 0.4-0.1 0.4-0.1 0.8 0.1 1.1 0.2 0.6 0.6 0.7 1.2 0.4 0.2-0.1 0.4-0.2 0.7-0.4zm27-11.2c0.3 0.2 0.6 0.4 1.1 0.7 0-0.6 0.1-1.1 0.1-1.5-0.1-0.4-0.2-0.4-0.9-0.3-0.1-0.6 0.2-1 0.8-0.8 0.7 0.2 1.1 0.7 1.3 1.4 0.2 0.6 0 1.2-0.5 1.6-0.4 0.4-0.9 0.5-1.4 0.2q-0.8-0.4-0.5-1.3zm-69.7-8.9c0.1 0.8 0.7 1.1 1.4 1.2 1 0.1 2.1 0.3 3.1 0.3 3.1 0 6.1-0.1 9.2-0.2 0.4 0 0.9-0.2 1.3-0.3 0.3-0.1 0.6-0.3 0.8-0.5 0.5-0.5 0.6-1.1 0.4-1.7-0.1-0.6-0.6-0.6-1.1-0.6-3.1-0.2-6.3-0.4-9.5-0.4-1.9-0.1-3.8 0.2-5.5 1q-0.1-0.1-0.1-0.2c0.5-0.2 0.9-0.6 1.4-0.7 1.6-0.3 3.3-0.7 4.9-0.9 3-0.3 6-0.4 8.9 0 1.6 0.2 2.1 0.7 2.3 1.9 0.3 1.2-0.3 2.4-1.5 2.9-0.6 0.3-1.3 0.5-1.9 0.5-4.2 0.4-8.4 0.2-12.5-0.6q-0.6-0.1-1.1-0.3c-0.5-0.3-0.7-0.8-0.6-1.4q0 0 0 0 0 0 0.1 0zm15.8-7.3c-5.1-0.8-10.1-1.4-15.2 0.5 0.4-0.3 0.7-0.7 1-0.8 1.2-0.4 2.5-0.8 3.7-1 3.2-0.5 6.4-0.5 9.6 0q0.6 0 1.1 0.2c1.2 0.4 1.6 1.7 0.7 2.5-0.6 0.5-1.3 0.9-2 1.1-2 0.6-4.1 0.7-6.2 0.6-2-0.2-3.9-0.4-5.9-0.7-0.6-0.1-1.2-0.4-1.7-0.8 3.3 0.8 6.6 0.8 9.9 0.5 1.4-0.1 2.7-0.5 4-0.8 0.5-0.1 0.9-0.5 1-1.3zm2.8 3.7c0.7 0.6 1.2 1.3 1.9 1.7 0.9 0.7 1.8 0.5 2.5-0.5 0.7-1 0.8-2.1 0.5-3.3-0.2-0.9-0.7-1.5-1.7-1.5-1-0.1-1.9 0-2.5 1q-0.2 0.4-0.4 1c-0.4-0.8-0.1-1.7 0.6-2.4 2-1.6 4.9-0.6 5.5 1.9 0.2 1.2 0.2 2.3-0.4 3.4-0.7 1.2-1.9 1.9-3.1 1.7-1.3-0.2-2.6-1.3-2.9-2.5 0-0.2 0-0.3 0-0.5zm65 18q-0.1 0-0.2 0c-1.4-0.3-2 0.1-1.9 1.6 0.1 0.6 0.3 1.3 0.5 1.9 0.4 0.9 0.9 0.9 1.7 0.4q0.2-0.1 0.5-0.3c-0.2 1-1.2 1.6-2.1 1.2-1-0.6-1.5-1.5-1.6-2.7-0.1-1.1 0.3-2 1.2-2.6 0.8-0.6 1.7-0.3 1.9 0.5zm0.2 1.7c-0.1-0.1-0.2-0.3-0.4-0.4-0.1-0.1-0.3-0.1-0.5-0.2-0.1 0.2-0.2 0.4-0.2 0.6-0.1 0.8 0.2 1.1 0.9 1.2-0.2 0.1-0.3 0.3-0.5 0.3-0.5 0.1-1.1-0.7-1.2-1.4-0.1-0.6 0.2-1.2 0.7-1.3 0.3-0.1 0.8 0 1 0.2 0.3 0.2 0.3 0.6 0.4 0.9q-0.1 0.1-0.2 0.1zm-6.8-23q1-0.1 2-0.1c0.1 0 0.3 0 0.4 0.1 0.1 0.1 0 0.3-0.1 0.4-0.6 0.8-2.9 0.9-3.6 0.3-0.6-0.6-0.5-1.4 0.3-1.7 1.1-0.4 2.1 0 3.1 0.6q-1.1 0.1-2.1 0.2 0 0.1 0 0.2z"/></svg>