<svg version="1.2" xmlns="http://www.w3.org/2000/svg" viewBox="0 0 160 83" width="160" height="83"><style>.a{fill:#ffd600}</style><path class="a" d="m65.6 44.3c0 0-4.3 1.4-19.6 2.6-15.2 1.1-11.1-2.1-11.1-2.1 0 0 0.1-15.8 0.7-21.8 0.5-5.9-2.2-6 5.9-9.8 8.1-3.8 50.3-5.5 56.5-3.2 6.2 2.3 1 21 1 21z"/><path fill-rule="evenodd" d="m148.8 83q-2.3 0-4.7 0c-0.1 0-0.1-0.1-0.2-0.1q-1.8-0.1-3.6-0.2-0.5 0-1-0.1c-1.6-0.3-3.1-0.5-4.8-0.4-0.7 0-1.5 0-2.2 0q-0.8 0-1.7 0.1c-0.7 0-1.5 0.2-2.2-0.2-0.2 0-0.4 0-0.6 0-0.2 0-0.4 0.1-0.5 0-1.9-0.1-3.7-0.3-5.5-0.4-2.6-0.1-5.1 0.1-7.7-0.1-1.1-0.2-2.2-0.2-3.3-0.2q-2.5-0.2-5-0.3-3.3-0.2-6.6-0.4-3.5-0.1-7.1-0.3c-0.9 0-1.8 0-2.6 0-1.1 0-2.1-0.2-3.2-0.2-2.4 0.1-4.8 0.1-7.3 0.2q-0.1-0.1-0.5-0.3c0.1 0.3 0.1 0.5 0.2 0.8-0.3 0-0.5 0.1-0.7 0.1q-2.8-0.1-5.7-0.3-1.8-0.2-3.7-0.2c-1.2 0-2.5 0.1-3.7 0.1-2.2-0.1-4.3-0.1-6.5-0.2q-1.8 0-3.7-0.1-3.2-0.1-6.5-0.3-0.3 0-0.5 0-0.3 0.3-0.5 0.4c-1.1 0.3-2.2 0.2-3.2 0.2q-2.9-0.2-5.7-0.3-0.3 0-0.6-0.1c-2.2-0.2-4.5-0.1-6.7 0-1.8 0-3.6 0.1-5.4 0.2-1.9 0-3.8 0-5.6 0-1.1 0-2.3 0-3.4 0.1-1.8 0.2-3.6 0.5-5.5 0.7-0.1-0.2-0.1-0.3-0.2-0.5 0.8-0.5 1.7-0.4 2.5-0.5-0.7-0.4-1.4-0.2-2.1-0.1 0.1-0.3 0.2-0.6 0.3-0.9-0.2 0-0.4 0-0.5 0q0.1 0.2 0.2 0.3c-0.2 0.2-0.2 0.5-0.6 0.4q-0.1-0.3-0.2-0.6c-0.3-0.2-0.6 0-0.9 0-0.8-0.2-1.6-0.2-2.4-0.1-2 0-3.9-0.2-5.8 0.1-0.3 0-0.6 0-0.9 0-0.2 0-0.4-0.1-0.4-0.4 0.1-0.1 0.2-0.2 0.3-0.2q1-0.1 1.9-0.1 1.5-0.1 2.9-0.1c1.7 0.1 3.3 0.1 4.9 0.1 0.5 0.1 1 0.1 1.5 0-0.6-0.6-1.1-1.1-1.5-1.7q-0.6-1-1-2.1c-0.3-0.7-0.4-1.4-0.5-2.1q-0.1 0-0.2 0c0 0.6 0 1.3-0.1 1.8-0.5 0.9-1.2 1.2-2 1.2-0.9-0.1-1.9-0.1-2.7-0.3-1.5-0.2-2.5-1-2.9-2.5-0.5-1.6-0.8-3.2-0.6-4.9 0.1-1.1 0.2-2.3 1.3-3.1q0 0 0.1-0.1c0-0.4 0-0.8-0.2-1.2-0.1-0.3-0.1-0.7-0.1-1.1q0-0.4 0.1-0.9c0.2-1.4 0.4-2.8 0.9-4.1 0.6-1.4 1.3-2.5 2.6-3.1 0.9-0.5 1.6-1.1 2.4-1.6q0.3-0.2 0.5-0.3c-0.6-0.7-0.9-1.4-0.9-2.1q0.1-1.6 0.2-3.2c0-0.9 0.2-1.8 0.6-2.6 0.2-0.4 0.4-0.7 0.9-0.8 1.2-0.2 2.4-0.6 3.6 0 0.5-1.2 1-2.4 1.6-3.5 0.5-1.1 1.2-2.2 1.8-3.4-0.3-0.1-0.5-0.2-0.7-0.4-1.2-0.7-2.5-1.4-3.5-2.4q-0.9-1-2-1.9c-0.9-0.7-1.7-1.5-2.3-2.5q-0.7-1-0.7-2.2c-0.1-1.1 0.3-2.1 0.8-3.1 0.6-0.9 1.1-1.8 1.6-2.8 1.1-2 2.5-3.8 4.3-5.2 0.7-0.6 1.5-1.1 2.3-1.6 0.1-0.1 0.4-0.3 0.6-0.2 0.6 0 1.1-0.3 1.6-0.5 2.2-0.6 4.4-1.3 6.6-1.9 0.5-0.1 0.9-0.4 1.2-0.8q0.1-0.3 0.3-0.6c0.3-0.4 0.7-0.8 1.1-0.9q1.4-0.4 2.7-0.8 0.6-0.1 1.1-0.2c1.2-0.3 2.3-0.5 3.5-0.7 0.8-0.2 1.6-0.2 2.4 0.4 0.1 0.1 0.3 0.2 0.5 0.3q0.4-0.1 0.9-0.2 2.7-0.5 5.4-1 1.7-0.4 3.4-0.6c0.4-0.1 0.7-0.2 0.9-0.5 0.5-0.4 0.9-0.9 1.4-1.4 0.6-0.7 1.5-1.2 2.4-1.5 2.5-1 5.1-1.3 7.7-1.6 0.8-0.1 1.6-0.1 2.5-0.2 1.6-0.3 3.2-0.6 4.8-0.8q0.4-0.1 0.7-0.1c2.3-0.1 4.6-0.3 6.8-0.5 2.1-0.2 4.2-0.2 6.3-0.3 1.2-0.1 2.4 0 3.7-0.1 0.2 0 0.5-0.1 0.7-0.1q0.4 0 0.8 0c0.3 0.1 0.5 0.1 0.8 0.1 0.4 0.1 0.9 0.1 1.4 0.2q1.8 0.2 3.6 0.4c1.3 0.1 2.6 0.4 3.7 1.2q0.7 0.5 1.3 1c0.5 0 1 0 1.4 0 1.6 0 3.1 0.1 4.7 0.2 1.3 0.1 2.6 0.3 4 0.4 0.4 0 0.8 0.1 1.2 0.1q2 0.2 4.1 0.4c0.8 0.1 1.6 0.1 2.4 0.2 1.6 0.1 3.2 0.2 4.8 0.5 1.5 0.2 2.9 0.6 4.4 0.9 1.2 0.2 2.1 1 2.6 2q0.4 0.7 0.8 1.4c1.4-0.6 2.9-1 4.5-0.9 1 0.1 1.9 0.5 2.3 1.4 0.1 0.2 0.3 0.4 0.4 0.7 0.3-0.2 0.6-0.3 0.8-0.4 1.1-0.8 2.3-0.6 3.4-0.2 0.6 0.3 1 0.7 1.2 1.3 0.4 1.3 0.9 2.6 0.9 4 0 1.6 0 3.2 0 4.9-0.1 3.2-0.2 6.5-0.3 9.8q-0.1 4.1-0.2 8.3-0.1 2.5-0.2 4.9-0.2 2.4-0.3 4.7-0.1 0.4-0.1 0.7-0.1 1.8-0.2 3.6-0.1 1-0.2 2.1-0.2 1.9-0.3 3.8c0 0.3 0 0.5 0 0.7-0.2 1.9-0.2 3.7-0.1 5.5 0.1 1-0.1 1.9-0.3 2.9 0 0.2-0.1 0.4-0.2 0.6-0.2 0.4-0.7 0.5-1.1 0.4-0.4-0.1-0.5-0.4-0.5-0.7q0-0.3 0-0.7c0.1-0.4 0.2-0.9 0.2-1.4q0.1-1.8 0.2-3.6c0-0.1 0-0.2-0.1-0.4-0.2 0-0.4 0-0.6 0-0.1 1.3-0.3 2.5-0.2 3.8 0.2 1.2-0.2 2.4-0.2 3.5 0.6 0.1 1.1 0.2 1.6 0.3 0.5 0.1 0.8 0.6 0.9 1.1 0.8 0 1.6 0.1 2.4 0.2 0.4 0 0.8 0.1 1.1 0.2 0.6 0.1 1.1 0.1 1.7 0.1 0.6 0.1 0.9 0.3 1 0.9 0.1 0.3 0.1 0.5 0.1 0.7 0 1.1 0 2.1-0.2 3.1 0 0.7-0.3 1.4-0.8 2-0.3-0.1-0.5-0.2-0.7-0.1-1.6 0.4-3.2 0.5-4.8 0.8q-2.5 0.4-5.1 0.2c-0.7-0.1-1.5 0-2.2 0-0.5 0-1 0-1.4 0q-1.6 0-3.1-0.1-1.8-0.1-3.6-0.2-2.4-0.1-4.8-0.3c-1.4-0.1-2.9-0.1-4.4-0.5-0.2-0.1-0.5-0.1-0.7-0.1-0.3 0.5-0.5 0.9-0.8 1.3-0.3 0.4-0.6 0.7-1.1 1.1 0.4 0 0.7 0 1 0q2.9 0 5.9 0 0.8 0 1.6 0 3.5 0.3 6.9 0.6c0.2 0 0.4 0.1 0.5 0 1.2-0.2 2.4-0.3 3.7-0.3q0.6 0 1.2-0.1c1.1-0.2 2.3-0.2 3.5-0.2q3.6 0.2 7.2 0.3c1.4 0 2.9-0.1 4.4-0.1 0.1 0 0.3 0 0.5 0.1 0.7 0 1.4 0.1 2.2 0.1 1.7 0 3.4 0 5.1 0q0.1 0 0.2 0 0.1 0 0.3 0.1c-0.1 0.2-0.1 0.3-0.2 0.6-0.8 0-1.6-0.1-2.4-0.1-1.9 0-3.7 0-5.6-0.1-2.1 0-4.2 0.1-6.4-0.1-2.1-0.1-4.2-0.1-6.4-0.1-1.1 0-2.3 0.2-3.5 0.3q1.1 0.2 2.3 0.2c0.6 0 1.3 0 1.9 0 0.7 0.1 1.4 0.2 2.1 0.2 1.6-0.1 3.3-0.2 4.9-0.3q0.2 0 0.4 0 1.8 0.1 3.7 0.2c1.1 0.1 2.2 0.1 3.3 0.1q1.8 0.1 3.5 0.2c0.4 0 0.7 0 1.1 0q2.6 0.1 5.2 0.3 0.7 0 1.4 0.1c0 0.2 0.1 0.3 0.1 0.5-0.2 0-0.4 0.1-0.5 0-0.6 0-1.2-0.1-1.7-0.1-0.7 0-1.4 0-2.1 0-1.4-0.1-2.8-0.4-4.2-0.2-0.2 0-0.5 0-0.7 0-0.8-0.1-1.6-0.3-2.4-0.3-2 0-4 0-6-0.1-0.9-0.1-1.8-0.1-2.7 0.2 0.7 0.1 1.3 0.2 1.9 0.2 2.1 0.1 4.1 0 6.2 0.1 0.9 0 1.7 0 2.6 0.1 0.4 0 0.8 0.1 1.2 0 0.3 0 0.6 0 0.9 0q0.4 0 0.4 0.4c-0.1 0.1-0.2 0.2-0.3 0.2q-1.3 0-2.6 0c-0.9 0-1.7-0.1-2.6-0.1-0.6 0.1-1.2 0.1-1.7 0-0.9-0.2-1.8-0.2-2.7-0.1-0.4 0.1-0.9 0.1-1.3 0-1.6-0.3-3.3-0.3-4.9-0.2-0.4 0-0.8 0-1.2-0.1-1.5-0.4-3.1-0.5-4.7-0.6-0.5 0-1.1 0.1-1.6 0-1.1-0.1-2.2 0.1-3.3 0.3q0.4 0.1 0.9 0.2c0.9 0.1 1.8 0 2.7 0.2 0.6 0.1 1.3 0 2 0q2.6 0 5.2 0.1 0.2 0 0.4 0 2.2 0.5 4.5 0.5 2.7 0 5.5 0 0.6 0 1.3 0.1c0.3 0 0.5 0 0.5 0.3q-0.1 0.2-0.2 0.4zm-21.7-44.9q0 0 0.1 0-0.1 0-0.1 0 0 0 0 0 0 0 0 0zm-1.2-0.4c-1.7 2.2-3.1 4.5-5.1 6.5 0.5-0.1 1.1-0.1 1.6-0.1-0.2-0.6 0.1-1 0.4-1.4 1.1-1.2 2.3-2.5 3.1-3.9 0.2-0.5 0.6-0.8 1.2-0.7q-0.6-0.2-1.2-0.4zm1 0.9c-0.4 0.3-0.6 0.8-0.9 1.2q-0.6 0.8-1.2 1.7c-0.5 0.5-0.9 1.1-1.4 1.6-0.2 0.3-0.4 0.6-0.6 0.9q1.2 0.3 2.3 0.5c0.5-0.7 1-1.3 1.4-1.9q0.7-1.1 1.3-2.2c0.4-0.7 0.9-1.2 1.2-2.1-0.3 0-0.6 0-0.8-0.1-0.9 2.2-2.2 4-3.7 5.8-0.2-0.1-0.3-0.2-0.5-0.4 1.5-1.7 2.8-3.4 3.5-5.5-0.2 0-0.3 0-0.4 0 0 0.2 0 0.4-0.2 0.5zm-105.4 36.4q0 0 0 0 0 0 0 0 0.2 0.2 0.3 0.5c-0.1 0-0.2 0.1-0.3 0.1-0.9 0.2-1.8 0.4-2.7 0.3-0.3-0.1-0.6 0-0.9 0-0.3 0-0.7 0-0.7-0.5 0.5-0.4 1-0.3 1.5-0.2 1 0.2 1.9 0.1 2.8-0.2q0 0 0 0 0 0 0 0 0 0 0 0zm-0.7-0.1c-1 0.2-2 0.1-3 0.1-0.1 0-0.2 0-0.4-0.1 0-0.3 0-0.6-0.1-1q1.1-0.2 2-0.4-0.2-0.2-0.4-0.2c-0.3 0-0.6 0.1-0.8 0.1-0.3 0-0.5-0.1-0.4-0.4 0.3-0.4 0.8-0.1 1.2-0.4 0-0.1-0.1-0.2-0.1-0.2-0.5 0-1 0-1.4 0q-0.1 0.2-0.1 0.4-0.2 1.3-0.9 2.5-0.6 1-1.8 1c-0.5 0-0.9-0.1-1.3-0.3q-1.2-0.7-2-1.8c-1.1-1.4-1.4-3-1.1-4.8 0.2-1.3 0.7-2.5 1.5-3.5 0.8-0.9 1.8-1.1 2.9-0.5q0.2 0.1 0.5 0.2c0-0.3-0.1-0.5-0.2-0.7-0.1-0.2-0.1-0.4-0.2-0.6-2.6-0.5-4.5 1.2-5 3-0.3 1-0.6 1.9-0.5 3 0 1.9 0.2 3.7 1.1 5.5q1 1.8 2.8 2.9c1.5 0.9 3.2 1 4.9 0.9 0 0 0.1-0.1 0.1-0.1 0.1-0.2 0.1-0.4 0.1-0.5-0.1-0.3-0.2-0.4-0.3-0.7 0.9-0.2 1.7-0.2 2.5-0.2-0.8-0.2-1.7-0.3-2.6-0.4-0.3 0-0.6-0.1-0.9-0.1-0.1-0.1-0.2-0.3-0.4-0.4 0.2-0.1 0.3-0.2 0.3-0.2 0.9 0.1 1.8 0.1 2.6 0.3 0.7 0.1 1.5 0.1 2.2 0 0.1 0 0.2-0.1 0.3-0.3-0.2 0-0.4-0.1-0.5-0.1-0.6 0-1.1 0-1.6 0q-1 0-1.9-0.1c-0.4-0.1-0.6-0.2-0.5-0.7q1.2 0.1 2.3 0.2c0.7 0 1.5-0.1 2.2 0.2 0.3-0.6 0.3-0.7 0.4-1.3q-0.4-0.1-0.8-0.2c-0.2-0.2-0.4-0.2-0.7-0.1zm101.4-54.3c1.1-1.1 2.2-2.2 3.1-3.4 0.9-1.3 1.5-2.7 2-4.1 0.2 0 0.3 0 0.4 0q0.1 0.1 0.2 0.2c-0.8 3-2.8 5.3-5 7.6 0.4 0 0.7 0.1 1 0.1 1.9-1.6 3.2-3.6 4.2-5.9 0.2-0.7 0.5-1.4 0.9-2.1 0.1 0.2 0.3 0.3 0.4 0.4-1 2.9-2.4 5.6-4.7 7.8q0.4 0.1 0.6 0.2c0.3-0.4 0.5-0.6 0.8-0.9 1.1-1 2-2.2 2.6-3.5 0.5-0.9 0.8-1.9 1.1-2.9 0.1-0.2 0.2-0.5 0.5-0.6 0.4 0.3 0.2 0.6 0.1 0.8-0.3 0.9-0.5 1.7-0.9 2.6-0.8 1.5-1.7 3-3.1 4.2-0.1 0.1-0.2 0.3-0.4 0.5 0.9 0.1 1.7 0.3 2.5 0.5 1.6-2.2 2.9-4.5 3.5-7.1 0.5 0.1 0.5 0.4 0.4 0.7-0.1 0.4-0.2 0.9-0.3 1.3-0.6 1.4-1.2 2.8-2.1 4.1q-0.3 0.4-0.6 0.9c0 0.1 0 0.2 0.1 0.5 1.6-1.7 2.6-3.4 2.9-5.6q0.3-0.1 0.5-0.2c0.2-1.7-0.2-3.3-0.4-5-0.7-0.2-1.3-0.5-1.9-0.7q-2.1-0.5-4.2-1-2.1-0.4-4.1-0.7c-1.5-0.3-3.1-0.4-4.6-0.7-2.8-0.6-5.5-1.3-8.3-1.9-1.2-0.3-2.4-0.5-3.7-0.8 0.3 0.6 0.6 1 0.9 1.5q0.3 0.7 0.6 1.5c0.2 0.5 0.4 1 0.6 1.5 0.3-0.5 0.5-0.9 0.7-1.3 0.3 0.2 0.4 0.4 0.3 0.6q-0.3 0.5-0.7 1c-0.3 0.3-0.3 0.3 0 0.8 0.3-0.4 0.6-0.8 0.9-1.1 0.3-0.3 0.3-0.9 0.8-1.2 0.1 0.2 0.2 0.3 0.2 0.4-0.2 0.3-0.2 0.7-0.4 0.9-0.5 0.8-1.1 1.5-1.7 2.3q0 0.1 0.1 0.4c1.1-0.7 2-1.6 2.5-2.8 0.1-0.4 0.4-0.8 0.7-1.1q0.1 0 0.2 0.1c0.1 0 0.1 0.1 0.1 0.1-0.8 1.9-1.8 3.5-3.6 4.6 0.1 0.4 0.2 0.7 0.3 1.2 0.3-0.3 0.4-0.5 0.6-0.7q0.4-0.5 0.8-1c0.7-1 1.4-1.9 1.8-3q0.1-0.2 0.3-0.5 0.1-0.2 0.3-0.4c0.2-0.1 0.4-0.1 0.5 0.1q-0.5 1-0.9 1.8-0.2 0.4-0.4 0.7c-0.9 1.3-1.7 2.7-3 3.8 0 0.3 0.1 0.5 0.1 1 0.4-0.5 0.7-0.8 1-1.1 1.2-1.4 2.5-2.9 3.1-4.8 0.2-0.5 0.6-0.8 1.1-0.9 0.1 0 0.3 0.1 0.5 0.1q0 0.1 0.1 0.2c-1 0.2-1.1 1-1.5 1.7q-0.7 1.4-1.7 2.7-1.3 1.6-2.7 3.1c0.1 0.3 0.1 0.6 0.1 1 0.4-0.4 0.6-0.7 0.9-1 1.8-1.7 3.3-3.8 4.5-6 0.2-0.5 0.6-0.9 0.9-1.4 0.1-0.2 0.3-0.2 0.5 0-1.6 3.6-4.1 6.6-6.9 9.4q0 0.2 0.1 0.7c0.1-0.1 0.2-0.2 0.3-0.3 1.7-1.6 3.1-3.5 4.6-5.3q1.3-1.6 2.2-3.4c0.1-0.4 0.4-0.7 0.7-0.9 0.1 0 0.3 0 0.5 0.1-0.4 0.6-0.7 1.2-1 1.7q-1.1 2-2.6 3.7c-1.3 1.5-2.6 3-3.9 4.6-0.2 0.2-0.5 0.4-0.9 0.6-0.1 0.6-0.1 0.6 0.1 1 0.6-0.4 1.1-1 1.6-1.5 0.2-0.2 0.4-0.4 0.8-0.7 0.2-0.7 0.7-1.3 1.3-1.9 0.8-0.8 1.5-1.6 2.3-2.4 0.9-0.9 1.7-2 2.2-3.2q0.3-0.6 0.6-1.2c0.1-0.1 0.3-0.2 0.4-0.3 0.4 0.3 0.2 0.5 0.1 0.7-0.7 1.3-1.2 2.6-2.2 3.6q-0.5 0.5-0.9 1c-0.6 0.8-1.3 1.5-1.9 2.3 0.3 0 0.7 0.1 1 0.1q0.5-0.5 1.1-1.1c0.4-0.5 0.9-0.9 1.4-1.5 1.1-1.3 2-2.8 2.6-4.5 0.1-0.1 0.1-0.3 0.2-0.3 0.1-0.1 0.3-0.1 0.5-0.2 0 0.2 0.1 0.4 0 0.5q-0.8 2.3-2.4 4.2c-0.7 0.9-1.5 1.8-2.3 2.7 0 0.1-0.1 0.2-0.2 0.4 0.5 0 0.9 0.1 1.3 0.1 1.2-1.1 2.2-2.3 3.1-3.7 0.8-1.3 1.5-2.8 2.3-4.2q0.1 0.1 0.4 0.2c-0.1 0.3-0.1 0.6-0.3 0.8q-0.3 0.9-0.8 1.7c-0.4 0.8-0.8 1.5-1.3 2.2-0.8 1-1.6 2-2.4 2.9 0 0.1 0 0.1 0 0.2q0.3 0.1 0.6 0.2-0.1-0.1-0.1-0.2c0.2-0.2 0.5-0.3 0.7-0.5 0.7-0.8 1.5-1.6 2.2-2.4 1.1-1.4 2.1-2.8 2.6-4.5q0.1-0.3 0.3-0.6c0.1-0.2 0.3-0.2 0.5 0-0.8 3.4-3.1 5.8-5.5 8.3q0.6 0.1 0.8 0.2c0.5-0.6 0.9-1 1.4-1.5 0.4-0.4 0.8-0.9 1.2-1.3q0.6-0.8 1.2-1.5 0.6-0.8 1-1.6c0.4-0.5 0.6-1.1 0.9-1.7 0.2 0.1 0.3 0.2 0.4 0.3-0.1 0.5-0.3 1-0.5 1.4-1.2 1.7-2.3 3.5-3.9 5-0.3 0.3-0.5 0.6-0.9 1.1 0.4 0 0.7 0.1 1 0.1q0 0 0 0 0 0 0 0c0.5 0.3 1 0.3 1.5 0.3zm-108.6 12.6c2 0.2 3.8-0.3 5.7-0.5 1.7-0.2 3.4-0.7 5.2-1q2.1-0.3 4.2-0.6c0.5 0 1.1 0 1.6 0.3 0.3 0.4 0.4 0.8 0.4 1.2q-0.1 1.7-0.2 3.5-0.1 2.8-0.2 5.7 0 0 0 0.1c-0.3 1.5-0.1 3.1-0.1 4.6 0.1 1.4 0.2 2.8 0.2 4.2 0 1.2-0.1 2.4-0.2 3.5 0 0.5 0 0.9 0 1.4 0.1 0.3 0.1 0.6 0.1 1-0.1 1.1-0.1 2.2-0.4 3.3-0.2 0.8-0.2 1.6-0.3 2.5 0.5-0.1 1-0.1 1.4-0.2q2.5-0.3 5-0.6c1.3-0.1 2.5-0.3 3.8-0.5q2.3-0.2 4.6-0.3 3.9-0.2 7.7-0.4 2.6-0.1 5.3-0.3 0 0 0.1 0 3.1-0.1 6.2-0.3c1.5 0 2.9-0.1 4.4-0.1 2.6-0.2 5.3-0.4 7.9-0.5 2.6-0.1 5.2-0.2 7.8-0.3q3.5-0.2 6.9-0.3c2.4-0.2 4.8-0.2 7.1-0.4 0.2 0 0.3 0.1 0.5 0.1 0.3-0.3 0.6-0.3 1-0.2q0.1 0.2 0.2 0.3c0.1-0.1 0.2-0.3 0.4-0.5q0.2 0.5 0.3 0.6c0.4 0 0.7-0.1 0.9-0.1q0.1-0.1 0.2-0.3 0 0.1 0.1 0.2 0.2-0.1 0.5-0.3c0.2 0.1 0.3 0.2 0.4 0.4 0.1-0.2 0.2-0.3 0.2-0.4q0.1 0.2 0.2 0.3c0.1-0.1 0.2-0.2 0.3-0.4q0.2 0.3 0.3 0.5c-0.1 0.2-0.2 0.4-0.2 0.6q0 1.4 0 2.7 0 0.2-0.1 0.5-0.1 1.4-0.2 2.8-0.1 0.7-0.1 1.4c0 0.3 0 0.4 0.4 0.4q0-0.2 0-0.4 0.2-1.3 0.3-2.5c0.1-1.4 0.2-2.8 0.3-4.3 0.1-0.6 0.1-1.3 0.5-1.9 0.6 0.1 0.6 0.1 0.7 0.7-0.4 0.2-0.5 0.6-0.5 1q-0.1 1.6-0.3 3.3c-0.1 0.7 0 1.3 0.2 1.9 0.2 0.3 0.4 0.6 0.8 0.7 1.5 0.4 2.9 0.7 4.5 0.6 0.9-0.1 1.4-0.5 1.5-1.4q0.1-0.9 0.2-1.8 0.1-1.1 0.1-2.2c0-0.5 0.1-1 0-1.5-0.2 0-0.3 0.1-0.5 0.1q0 2.6-0.1 5.1c-0.4 0.4-0.8 0.6-1.2 0.7q-1.9 0.3-3.8-0.1c-0.4-0.1-0.7-0.3-0.9-0.8-0.1-0.2-0.2-0.6-0.2-0.9q0.1-1.5 0.2-3 0.1-0.8 0.1-1.5c0.1-0.1 0.2-0.2 0.2-0.3 0.2 0.1 0.4 0.2 0.6 0.3q-0.1 1.6-0.2 3.1c-0.1 0.6-0.1 1.2-0.1 1.8 0 0.5 0.2 0.6 0.7 0.6 0-0.9 0-1.9 0-2.8 0-0.9-0.2-1.8 0.3-2.8 0.2 0.2 0.4 0.2 0.5 0.4q1.1 0.9 2.3 0.2 0.8-0.5 1.5-0.9 0.4 0.2 0.7 0.3c0.6-0.3 0.6-0.3 0.5-1.1-0.2-0.1-0.4-0.3-0.5-0.4 0-0.6 0-1.1 0-1.6 0.3-0.1 0.6-0.1 0.9-0.1q0.3-0.3 0.6-0.6c0.2 0 0.4 0.1 0.6 0.2-0.4 0.5-0.7 1-1.4 1.1 0 0.2 0.1 0.3 0.2 0.6 0.7-0.8 1.6-1.3 1.8-2.3-0.6 0.2-0.6 0.2-0.9 0 0.1-0.5 0.6-0.3 1-0.6 0-0.2 0-0.5 0-0.8-0.3 0-0.6-0.1-0.9-0.1 0.4-0.5 0.8-0.9 1.1-1.4q0.1 0.1 0.1 0.1 0.1-0.4 0.2-0.8-0.1-0.1-0.2-0.1c-0.6 0.7-1.2 1.4-1.9 2.2-0.3 0.2-0.7 0.2-1.2 0-0.1-0.5-0.1-1-0.2-1.5-0.2-0.7-0.5-1.4-1.2-1.8-0.8-0.4-1.6-0.7-2.5-0.7-0.6 0-1.1-0.3-1.6-0.7q0.4-2.6 0.7-5.3c0.1-1.1 0.3-2.1 0.2-3.2 0-1.6 0.2-3.2 0.3-4.8 0-1.6 0.2-3.1 0.2-4.7 0.1-1.7 0-3.4 0-5.1q0.1-3.9 0.2-7.8 0-0.4 0-0.9c-0.2-1.1-0.4-2.3-0.3-3.4 0-0.8-0.1-1.6-0.3-2.4-0.3-1.3-0.8-2.6-1.6-3.8-0.2-0.2-0.4-0.4-0.6-0.6 0 0.3 0.1 0.4 0.2 0.6 0.2 0.5 0.5 1.1 0.7 1.7 0.7 1.9 0.9 3.8 0.9 5.8 0.1 4.1 0.1 8.2-0.1 12.3-0.1 1.5 0 3 0 4.5-0.1 1.9-0.3 3.7-0.3 5.6-0.1 1.6-0.2 3.3-0.2 4.9q-0.2 2-0.3 4.1-0.1 1.7-0.2 3.4c0 0.1-0.1 0.2-0.1 0.3-0.1 0.6-0.1 1.1 0 1.7 0.2-0.5 0.4-0.8 0.5-1.2 1.2-0.1 2.3-0.1 3.4 0 0.8 0.1 1.2 0.6 1.4 1.3 0.1 0.6 0.2 1.3 0.3 1.9 0 0.9 0 1.9 0 2.8 0 0.5-0.1 1-0.1 1.7-0.3-0.2-0.5-0.4-0.8-0.5 0-0.4 0-0.8 0-1.2-0.1 0.2-0.3 0.3-0.4 0.4 0.1 0.3 0.2 0.6 0.3 0.9-0.2 0.1-0.4 0.1-0.6 0.2-0.1-0.2-0.2-0.4-0.3-0.6q-0.4 0.2-0.8 0.5-0.7 0-1.5 0 0-0.5 0-0.9 0.2-0.3 0.4-0.6c0.1-0.2 0.2-0.3 0.4-0.4q0.7-0.4 1.4-0.7c0-0.6 0-1.2 0-1.8q0-0.1 0.2-0.4-0.2-0.1-0.3-0.3-0.6 0.4-1 0.7c-0.4 0.1-0.7 0.1-1 0.1 0 0-0.1-0.1-0.2-0.2q0-0.2 0.1-0.4-0.2-0.3-0.4-0.6c0.5-0.4 1-0.8 1.6-1.4-0.7 0.1-1.1-0.2-1.6 0-0.1 0.2-0.1 0.4-0.1 0.6-0.4 1-0.5 2.1-0.4 3.2 0 0.9-0.1 1.8-0.1 2.7q0 0.1 0 0.2c-0.2 0.2-0.3 0.3-0.5 0.5 0.2 0 0.4 0 0.7 0-0.4 0.2-0.7 0.3-0.8 0.4-0.1-0.4-0.2-0.9-0.1-1.3 0.1-1.2 0-2.5 0.5-3.6-0.2-0.2-0.3-0.4-0.5-0.6-0.1 0.4-0.2 0.7-0.3 1.2-0.2-0.4-0.3-0.7-0.4-1 0.1-0.8 0-1.6 0.2-2.4 0.3-1.5 0.3-3 0.4-4.5 0.1-1.5 0.2-3.1 0.2-4.7q0.1-1.4 0.2-2.8c0.1-2.1 0.3-4.2 0.4-6.3q0.1-3.6 0.2-7.1 0-3.8 0-7.5c0-2.3 0-4.7-0.5-7-0.2-1-0.5-2-0.9-3-0.4-1-1.2-1.6-2.3-1.7-0.8 0-1.6-0.2-2.3-0.3q-2.2-0.2-4.3-0.3c-1.4-0.1-2.8-0.1-4.3-0.2-0.4 0-0.9-0.1-1.3-0.1q-2-0.1-3.9-0.2c-2.5 0-4.9-0.1-7.4-0.1-2.6 0-5.1 0.1-7.6 0.1q-0.5 0-1.1 0.1-1.6 0.2-3.2 0.4-2.2 0.3-4.4 0.5-2.2 0.3-4.3 0.6c-1.6 0.1-3.2 0.3-4.7 0.5-2.5 0.4-5 0.8-7.5 1.2-2.1 0.4-4.1 0.6-6.1 1q-4.2 0.9-8.3 1.9c-2 0.5-4.1 1.2-6.1 1.8q-2.2 0.6-4.4 1.3c-1.6 0.5-3.4 0.8-4.9 1.7-0.4-0.3-0.7-0.1-1 0.1q-0.5 0.3-1 0.7c-0.7 0.5-1.5 1.1-2.1 1.7-0.9 1-1.6 2.1-2.4 3.2-0.7 1-1.3 2.2-1.8 3.3-0.3 0.5-0.6 1.1-0.7 1.7-0.2 0.5-0.3 1-0.2 1.6q0.3 1.4 1.3 2.4c0.6 0.7 1.3 1.3 2 2q1.1 1 2.2 2c0.3 0.3 0.6 0.5 1 0.5 0.3 0 0.7 0 1 0q2.1-0.2 4.2-0.5c1.6-0.3 3.3-0.6 4.9-0.9q1.5-0.2 2.9-0.4c0.7-0.1 1.4-0.3 2-0.3 0.2-0.1 0.5 0 0.8 0.1 0 1 0.1 1.9 0.1 2.8 0 2.9-0.2 5.9-0.4 8.8q-0.1 2.4-0.1 4.8c-0.1 1.1 0.1 2.2 0.1 3.2 0 0.8 0.3 1.7-0.2 2.4-0.1 0.1-0.1 0.3-0.1 0.4q-0.1 1.4-0.2 2.8 0 0.9-0.1 1.9-0.2 1.3-0.3 2.5c0 0.1 0.1 0.1 0.1 0.2q0.3 0 0.7-0.1 0.1-0.5 0.2-1 0.2-2.2 0.5-4.4c0-0.4 0-0.9 0-1.3 0-0.3-0.1-0.6-0.1-0.9 0.1-1.1 0.2-2.1 0.2-3.2q0.1-1.8 0.1-3.6 0-0.1 0-0.3c-0.3-1.8-0.4-3.7-0.2-5.6q0.1-1.6 0.2-3.2 0.1-2.6 0.2-5.2 0-0.6 0-1.1c0-0.3 0-0.5-0.1-0.7-0.6-0.2-0.8-0.3-1.3-0.2-2 0.3-4.1 0.5-6.1 1-2.1 0.5-4.3 0.7-6.5 1.1-0.8 0.1-1.6 0.1-2.5 0.2-0.2-0.1-0.5-0.3-0.7-0.6q-1.2-1.1-2.4-2.3-0.4-0.5-0.8-0.9c-0.7-0.8-1.5-1.5-1.9-2.7 0.2-0.6 0.3-1.3 0.6-2 0.8-1.8 1.9-3.5 3-5.1 0.9-1.3 2.1-2.3 3.1-3.3 0.9-0.9 1.9-1.3 3-1.5q0.1 0 0.1-0.1 2.3-0.5 4.5-1.1c1.3-0.3 2.6-0.8 3.9-1.1 1.3-0.3 2.6-0.6 3.9-0.9 2.7-0.7 5.3-1.5 8.1-2.1 1.8-0.3 3.6-0.7 5.4-1.1 0.9-0.2 1.8-0.2 2.7-0.4 2.2-0.3 4.4-0.8 6.6-1.1q3-0.5 5.9-1c1.1-0.1 2.2-0.4 3.3-0.4 2.4-0.3 4.8-0.4 7.2-0.6 0.9 0 1.7 0 2.5-0.2 2.3-0.3 4.6-0.3 6.9-0.4q1.2 0 2.4-0.1 0.8 0 1.6 0 2.2 0.1 4.4 0.3c1 0.1 2 0.2 3.1 0.2q2.1 0.2 4.2 0.2c1.4 0.1 2.8 0.1 4.2 0.1q0.4 0 0.7 0 1.9 0.3 3.8 0.7c0.4 0 0.8 0.2 1.1 0.6q0.1 0.5 0.2 0.9 0.4 1.8 0.8 3.7c0.2 0.8 0.4 1.5 0.4 2.3q0.2 2.8 0.2 5.6c0 0.6-0.1 1.3-0.2 2-0.1 0.7-0.2 1.4-0.3 2.1q-0.1 1.1-0.2 2.1c-0.1 1.5-0.3 2.9-0.4 4.4-0.1 1.4-0.1 2.8-0.2 4.2q-0.2 2.3-0.3 4.6 0 0.6-0.1 1.1c-0.1 1.1-0.2 2.3-0.2 3.4-0.1 1.5 0 3-0.1 4.5 0 1.4 0 2.7-0.1 4-0.2 0.3-0.4 0.6-0.6 0.9 0-1.3 0-2.4 0.1-3.6q0-0.6 0-1.2c0-0.6-0.1-1.2-0.1-1.8q0.2-2.9 0.3-5.8 0.1-1.6 0.2-3.3 0.2-3.4 0.5-6.9 0-0.5 0-0.9 0.2-2.2 0.4-4.3 0.2-1.9 0.5-3.7c0.2-1.2 0.2-2.4 0.1-3.6q0-0.3 0-0.6c0.1-1.2 0-2.4-0.2-3.6-0.3-1.9-0.8-3.6-1.2-5.4-0.1-0.4-0.2-0.7-0.3-0.9-1.4-0.3-2.6-0.6-3.9-0.7-1.8-0.2-3.5-0.1-5.3-0.2-0.6 0-1.2 0-1.8 0-1.2-0.1-2.4-0.2-3.7-0.3q-1.2-0.1-2.5-0.2c-1.5-0.1-3-0.2-4.5-0.3-0.6 0-1.2 0.2-1.8 0.2-1.2 0-2.3 0.1-3.4 0.1-2.1-0.1-4.1 0.3-6.1 0.4-0.9 0-1.7 0-2.6 0.2q-1.9 0.2-3.8 0.3-1 0-2.1 0.1-2.7 0.4-5.3 0.8-3.5 0.6-7 1.2-2.4 0.4-4.7 0.8c-0.8 0.1-1.6 0.2-2.3 0.3q-2.2 0.5-4.5 1-1.9 0.4-3.8 0.9c-1.7 0.4-3.3 0.9-4.9 1.3-1.6 0.4-3.2 0.8-4.8 1.2-2.2 0.7-4.5 1.3-6.7 1.8-0.7 0.2-1.4 0.4-1.9 0.7-1.3 1-2.5 2.2-3.5 3.5-1.2 1.6-2.2 3.3-3.2 5.1q-0.2 0.4-0.3 0.8c-0.4 0.9-0.2 1.7 0.5 2.5 0.9 0.9 1.7 1.9 2.6 2.8 0.6 0.6 1.2 1.1 1.8 1.6zm13.8 2.3c0.1 1.2 0.2 2.2 0.2 3.2-0.1 1-0.3 2-0.3 3 0 1.5-0.1 3-0.3 4.5-0.2 1.2-0.5 2.3-0.9 3.3q-0.4 1.2-1.6 1.4-0.9 0.1-1.7 0.2-2.2 0.2-4.3 0.4-0.4 0-0.7 0.1-1.5 0.2-2.9 0.4c-0.3 0-0.7 0.1-1 0.1-0.6-0.2-1.1 0-1.6 0-0.2 0.3-0.3 0.5-0.4 0.7q-1 0.9-2 1.8c-0.1 0.1-0.3 0.1-0.6 0.1 0.3-0.5 0.5-0.9 0.7-1.2q-0.9-0.3-1.9-0.5c-1.2 1.1-2.9 1.8-4.2 2.9 0.4 0.6 0.5 1.1 0.5 1.7q-0.2 1.4-0.4 2.9c-0.1 1.1-0.5 2.1-1.6 2.6-0.1 0.1-0.2 0.2-0.2 0.2 0 0.7 0 1.3 0 1.9 2.6 0.1 5.1-0.4 7.8-0.4q0.1-0.1 0.2-0.3c0.4-0.9 1.2-1.6 2-2.2 0.2-0.1 0.5-0.3 0.8-0.4 1.2-0.1 2.3-0.1 3.3 0.7 0.6 0.4 1 0.8 1.5 1.1 0.9-0.1 1.8-0.1 2.7-0.2q2.8-0.3 5.7-0.7 0.5-0.1 1.1-0.2 0.1-0.2 0.1-0.3 0.3-3 0.5-5.9c0.1-0.8 0.1-1.7 0.4-2.5q0.1-0.2 0.1-0.5-0.2-1.9-0.3-3.7 0-0.6 0-1.2 0.1-1.7 0.2-3.5c-0.6-0.2-0.7-0.6-0.6-1.1 0-0.9 0-1.7 0.1-2.5 0-0.5 0.1-1.1 0.1-1.6q-0.1-1.7-0.2-3.4c0-0.2 0-0.5 0-0.7 0-0.1-0.2-0.1-0.3-0.2zm101-26.5c0.2 0.1 0.3 0.1 0.3 0.1q0.2 0 0.4 0c1-0.3 1.9 0 2.7 0.5 0.7 0.3 1.1 0.9 1.2 1.6 0.3 1.2 0.5 2.5 0.6 3.7 0 2.1 0.1 4.1-0.1 6.1q0 0.4 0 0.9c-0.1 2-0.3 4-0.4 6 0 3.3 0 6.6 0 9.9 0 1-0.1 2.1 0.1 3.1 0.1 0.1 0 0.2 0 0.3 0 0.3-0.1 0.5-0.1 0.7q0 3.3 0 6.6 0 0.7 0 1.4 0.2 2.7 0.3 5.4 0 0.6 0 1.1c-0.1 0.5-0.1 1.1-0.2 1.6 0 0.8 0.1 1.6 0.1 2.4-0.1 2-0.1 4-0.1 6 0 0.1 0.1 0.3 0.1 0.4q0.4-0.5 0.4-1c0-0.8 0.3-1.6 0.1-2.4-0.1-0.2-0.1-0.5 0-0.7 0.1-0.8 0.2-1.5-0.1-2.2 0.6-0.2 2.3-0.3 3.2-0.1 0.1 0.2 0.2 0.5 0.2 0.8q-0.1 1.8-0.2 3.7c0 0.6-0.1 1.2-0.2 1.8 0 0.1 0.1 0.3 0.1 0.4q0.4-0.3 0.4-0.7c0.1-0.6 0.2-1.3 0.2-1.9q0.1-1.9 0-3.8c-0.1-2.3 0.2-4.5 0.3-6.8 0.2-1.7 0.4-3.3 0.5-5 0.2-2.3 0.4-4.7 0.5-7 0.1-3.1 0.2-6.2 0.3-9.3 0-1.2 0-2.5 0.1-3.8 0-2.7 0.1-5.4 0.2-8.1 0-1.3-0.1-2.6 0-3.8 0.2-1.9-0.1-3.8-0.7-5.7-0.1-0.5-0.5-0.9-1.1-1.1-1.2-0.5-2.3-0.2-3.4 0.6 0 0 0 0.2-0.1 0.4 0.3-0.1 0.4-0.2 0.6-0.3 0.3-0.2 0.5-0.4 0.8-0.5 0.6-0.3 1.2-0.4 1.7 0.1 0.8 0.6 1.2 1.5 1.1 2.5-0.6 0.1-1.1 0-1.6 0q-1.1-0.2-2.2-0.3c-0.6 0-1-0.2-0.9-0.8 0-0.6-0.2-1-0.4-1.5-0.3-0.6-0.6-1.3-1.4-1.4-1.1-0.3-2.1-0.2-3.3 0.1zm-14 60.4c0.2-3.4 0.5-6.7 0.8-10 0.6-0.1 1.2-0.1 1.8-0.2 0.2 0 0.4 0.1 0.6 0.1 0.9 0 1.7-0.1 2.6-0.1 1.9 0 3.8-0.1 5.7 0.1 0.7 0.1 0.8 0.1 1 0.8q0.1 0.3 0.1 0.7c-0.1 0.3-0.2 0.6-0.1 0.9 0.1 1.1 0 2.1-0.1 3.2q-0.2 1.5-0.2 3 0 0.7 0 1.4c0.3 0 0.4 0 0.7 0.1 0-0.4 0-0.7 0-1-0.1-0.4-0.1-0.8-0.1-1.2q0-5 0.1-9.9 0-0.2 0-0.3 0.1-1.5 0.1-2.9c0-0.3 0.1-0.6 0.1-1 0.1 0.2 0.2 0.3 0.3 0.5 0.3-0.3 0.2-0.5 0.1-0.8-0.2 0-0.3 0-0.5 0.1 0-0.3-0.1-0.5-0.1-0.7 0.1-1.3-0.2-2.6-0.5-3.8q-0.2-1.2-0.9-2.2c-0.4-0.7-1-1.1-1.7-1.3-1.7-0.3-3.3-0.2-4.9 0.3-1.2 0.3-2.1 1-2.6 2.1q-0.3 0.7-0.5 1.3-0.7 2.1-1.2 4.2-0.3 0.2-0.6 0.5c0.2 0.2 0.3 0.5 0.4 0.7-0.1 0.1-0.2 0.2-0.2 0.3 0 0.7 0.1 1.4 0 2.1-0.2 1.6-0.4 3.2-0.6 4.7q-0.4 3.2-0.7 6.3c-0.1 0.6-0.1 1.2-0.1 1.8 0.4 0.1 0.7 0.2 1.2 0.2zm-58.7 4.3c-0.4-0.7-0.7-1.3-0.6-2.1q0.3 0.1 0.4 0.1 0.4 0.9 0.7 1.6c0.4 0.1 0.8 0.2 1.1 0.4-0.2-0.8-0.5-1.5-0.4-2.2q0.3 0 0.4 0c0.7 2 0.7 2 1.4 2.1-0.2-0.5-0.4-1-0.6-1.5-0.1-0.3-0.1-0.5 0.4-0.6 0.1 0.1 0.2 0.3 0.3 0.5 0.1 0.2 0.1 0.5 0.2 0.7 0.2 0.3 0.3 0.7 0.8 0.9 0-0.7-0.7-1.3-0.4-2.1 0.2 0.2 0.4 0.3 0.5 0.4 0.1 0.2 0.2 0.5 0.3 0.7 0.1 0.3 0.2 0.6 0.4 0.9 0.2 0.2 0.4 0.2 0.6 0-0.2-0.6-0.6-1.1-0.5-1.8q0.3 0 0.5 0c0.1 0.2 0.1 0.5 0.3 0.7q0.3 0.6 0.8 1.2c0.1 0.1 0.4 0.2 0.6-0.1-0.2-0.6-0.7-1.1-0.6-1.8 0.5-0.1 0.6 0.2 0.7 0.5q0.3 0.6 0.6 1.2c0.1 0.1 0.2 0.2 0.5 0.3-0.3-0.7-0.8-1.2-0.4-1.8 0.4 0 0.5 0.2 0.5 0.4 0 0.4 0.3 0.8 0.6 1.1q0.1-0.1 0.2-0.1 0.1-0.1 0.1-0.2c-0.3-1-0.3-1-0.1-1.4 0.4 0 0.3 0.6 0.7 0.7 0.4-0.4 0.5-0.9 0.3-1.4q-0.5 0-1.1 0-4.2 0-8.5 0-4.1 0-8.2 0-1.8 0-3.5 0.1c-1.8 0-3.6 0.1-5.4 0-1.6-0.1-3.2 0-4.9 0-1.4 0-2.9 0.1-4.3 0.2-0.6 0-1.1 0-1.6 0.1q-2.6 0.1-5.2 0.2c-0.5 0.1-0.9 0.1-1.4 0.1-0.5 0-1 0-1.6 0q-0.4 0-0.9 0c0.2 1.3 0.9 2.1 1.9 2.2-0.4-0.5-0.8-1-0.8-1.7q0.2 0 0.3-0.1 0.9 1.3 1.6 2.4c0.2 0 0.3 0 0.5 0-0.2-0.4-0.5-0.8-0.6-1.2q-0.2-0.5-0.2-1c0-0.3 0.2-0.4 0.5-0.3 0.2 0.9 0.3 1.8 1.4 2.4-0.2-0.7-0.4-1.2-0.5-1.8 0.1-0.1 0.2-0.1 0.3-0.1q0.1 0 0.3 0 0.1 0.4 0.3 0.9c0 0.2 0.1 0.5 0.3 0.8 0.1 0.2 0.2 0.5 0.7 0.5-0.6-0.9-0.8-1.7-0.8-2.6 0.2-0.1 0.3-0.1 0.6-0.1 0 0.3 0.1 0.7 0.2 1 0 0.6 0.2 1.1 0.7 1.5q0.4 0.3 0.7 0c-0.7-1.3-0.8-1.8-0.7-2.4q0.4-0.1 0.6 0.2c0 0.2 0.1 0.5 0.1 0.7 0.2 0.7 0.5 1.2 1.3 1.5-0.4-0.9-1-1.6-0.8-2.6q0.4 0.1 0.5 0.1c0.1 0.4 0.2 0.8 0.3 1.1 0.1 0.5 0.4 0.9 0.8 1.2 0.2 0.2 0.5 0.2 0.7 0-0.7-1.4-0.7-1.7-0.3-2.3 0.4 0.3 0.3 0.8 0.5 1.2q0.3 0.6 0.6 1.1c0.3 0.1 0.6 0.1 0.8-0.1-0.8-1.5-0.8-1.6-0.5-2.3q0.2 0 0.4 0.1c0.3 1.7 0.7 2.2 1.6 2.3-0.1-0.3-0.2-0.5-0.3-0.7-0.1-0.4-0.3-0.8-0.4-1.2-0.1-0.2 0-0.4 0.4-0.4q0.1 0.2 0.2 0.4c0.2 0.5 0.4 1 0.7 1.5 0.1 0.2 0.4 0.4 0.8 0.3-0.9-1.4-1.1-1.8-1-2.4 0.3-0.1 0.5 0 0.6 0.3q0.2 0.4 0.4 0.8 0.3 0.8 1 1.3c0.3 0 0.7 0.2 1 0-1-1-1.5-2-1.1-2.4q0.1 0 0.4 0.1c0.1 1 0.8 1.7 1.6 2.2-0.3-0.7-0.7-1.4-0.7-2.3 0.2 0 0.4 0 0.5 0q0.2 0.6 0.4 1.2c0.2 0.6 0.2 0.6 0.7 0.8-0.3-0.6-0.7-1.2-0.4-2q0.2 0 0.5 0 0 0.3 0 0.5c0 0.6 0.3 1.1 0.7 1.5 0.2 0.3 0.5 0.5 1 0.3-0.5-0.8-0.9-1.5-0.6-2.4 0.5 0.1 0.5 0.1 0.5 0.5q0.1 1.2 1 1.8c0.1 0 0.3 0 0.5 0-0.4-0.7-0.8-1.3-1.1-2.2 0.3 0.1 0.6 0.1 0.7 0.2 0.1 0.2 0.2 0.4 0.4 0.7 0.2 0.3 0.3 0.7 0.5 1 0.3 0.4 0.6 0.5 1 0.3-0.4-0.7-0.9-1.3-1-2.1 0.4-0.2 0.6 0 0.7 0.2 0.2 0.4 0.3 0.8 0.5 1.1 0.2 0.4 0.5 0.6 1 0.7-0.2-0.5-0.3-0.8-0.4-1.2q-0.1-0.4 0-0.8c0.1-0.3 0.3-0.3 0.6-0.2q0 0.4 0 0.7c0 0.5 0.2 0.9 0.5 1.3 0.3 0.4 0.6 0.5 1 0.3q-0.7-1.7-0.3-2.2 0.2 0 0.5 0c0 0.3 0 0.5 0 0.7 0.1 0.3 0.2 0.6 0.3 0.9 0.2 0.3 0.4 0.6 0.8 0.6q-0.7-1.1-0.7-2.1c0.3-0.2 0.5 0 0.6 0.2q0.2 0.5 0.3 0.9c0.2 0.6 0.5 0.9 1.1 0.9-0.3-0.7-0.7-1.4-0.6-2.2 0.4 0 0.6 0.1 0.6 0.5q0.1 0.4 0.3 0.9c0.2 0.6 0.5 0.8 1.2 0.8 0.2 0 0.4 0 0.7 0-0.7-0.8-1.2-1.5-1-2.6q0.3 0 0.4 0.1c0.2 0.5 0.3 1 0.6 1.5 0.2 0.4 0.6 0.8 1.2 1-0.5-0.8-0.8-1.5-0.5-2.4 0.4 0 0.5 0.2 0.5 0.5 0.1 0.7 0.3 1.2 0.7 1.7 0.1 0.1 0.3 0.1 0.5 0.2-0.7-1.7-0.7-1.7-0.4-2.3 0.3 0 0.4 0.2 0.4 0.4q0.2 0.5 0.3 1c0.2 0.3 0.4 0.6 0.8 0.8-0.4-1.8-0.4-1.8 0-2.3 0.4 0.2 0.3 0.6 0.4 0.9 0.1 0.5 0.2 1 0.7 1.4 0.2-0.1 0.4-0.1 0.8-0.1zm-8.3 4.7c0.9-0.1 1.7-0.1 2.5-0.1 1.2-0.1 2.4-0.2 3.6-0.2 1.4 0 2.8 0.1 4.2 0.1q0.5 0 0.9 0 1.3 0.1 2.6 0.1 0.7 0 1.4 0c0.5 0 1.1 0 1.7 0q2 0 4.1-0.1c0.2 0 0.4 0 0.7-0.1-1.2-1.6-1.6-3.5-2.2-5.3-0.2 0.1-0.5 0.2-0.7 0.3q-0.1 0.1-0.2 0.2c-0.6 0.8-1.4 1.2-2.3 1.1q-0.2 0-0.3 0-1.6 0-3.3 0c-0.7 0-1.4 0.1-2.1 0.1-0.9-0.1-1.8-0.1-2.7-0.1-2.1 0.1-4.1 0.2-6.2 0.3q-0.1 0-0.3 0.1c-0.3 1.2-0.5 2.5-1.4 3.6zm51-5.2q-0.4 0.1-0.7 0.2c-1.2 0.3-2.4 0.5-3.6 0.5q-1.4 0-2.8 0c-1.5 0.1-3 0.1-4.4 0.2-1 0.1-2-0.1-3-0.1-0.3 0-0.6-0.1-0.9-0.1-0.2 1.7-0.8 3.2-1.8 4.6 0.7 0 1.3 0 1.9-0.1 1.3 0 2.6-0.1 4-0.2 0.9 0 1.8 0.1 2.8 0.1q1.4 0.1 2.8 0.1 3.4-0.1 6.8-0.1c0.2 0 0.4 0 0.7-0.1-1.1-1.5-1.4-3.2-1.8-5zm13-39.1c0.3 0.2 0.6 0.4 0.9 0.5q1.2 0.4 2.5 0.6c1.1 0.2 2.2 0.3 3.3 0.5 1.1 0.1 2.2 0.2 3.2 0.4 2.4 0.5 4.8 1 7.2 1.4 0.7 0.1 1.4 0.3 2.2 0.2 0.4-0.5 0.6-1.1 0.8-1.7 0.2-1.2 0.2-2.5 0.1-3.8q-0.1-1.1-0.1-2.1c0-1.4 0-2.8 0-4.2-0.1-0.7-0.1-1.4-0.5-2-0.3-0.2-0.5-0.4-0.9-0.6-0.8-0.2-1.6-0.5-2.5-0.7q-3.3-0.8-6.5-1.5c-1.4-0.3-2.8-0.6-4.2-0.8-1.5-0.3-2.9-0.4-4.4-0.6-0.2-0.1-0.5 0-0.7 0-0.5 0.8-0.7 1.6-0.8 2.5 0 1-0.1 2.1-0.1 3.1 0.1 2.9 0.3 5.8 0.5 8.8zm-94.1 5.6c-1 2.2-2.2 6.9-2.1 7.8 0.4-0.4 0.7-0.9 1.1-1.3 0.6-0.7 1.2-1.4 2.1-1.7 1.3-0.5 2.5-0.3 3.4 0.7 0.3 0.3 0.6 0.7 0.9 1.1q0.2 0.3 0.5 0.7 1.5-0.6 3.1-1.2c0.1-0.7 0.3-1.3 0.2-1.9-0.3 0.1-0.6 0.2-0.8-0.2 0.1-0.7 1.1-0.9 0.8-1.9-0.5 0.8-0.9 1.4-1.4 2-0.4-0.2-0.4-0.2-0.4-0.3q0.1-0.2 0.2-0.4c0.5-0.8 1-1.6 1.8-2.3-0.1-0.3 0.1-0.7-0.1-1.1-0.3 0.4-0.6 0.7-0.8 1.1-0.2 0.4-0.4 0.8-0.7 1.2-0.2 0.3-0.2 0.8-0.7 1-0.1-0.2-0.2-0.3-0.2-0.4 0.6-1.5 1.4-2.8 2.6-3.9 0-0.3 0-0.6 0-1-0.7 0.9-1.3 1.7-1.8 2.6-0.5 0.9-1 1.8-1.4 2.6-0.4 0-0.4-0.3-0.3-0.5 0.2-0.5 0.3-1 0.6-1.5 0.7-1.1 1.5-2.2 2.3-3.4 0.1-0.2 0.4-0.5 0.6-0.8 0-0.3 0-0.6-0.3-0.9q-0.3 0.1-0.6 0.1c0.2 0.7-0.2 1.2-0.5 1.7-0.9 1.5-2 2.9-2.6 4.6q-0.2 0-0.4-0.1c-0.2-0.5 0.1-0.9 0.3-1.3 0.7-1.1 1.5-2.3 2.2-3.4 0.2-0.3 0.4-0.6 0.4-1.2-0.7 0.4-1 0.9-1.3 1.4q-0.5 0.7-1 1.5c-0.3 0.5-0.5 1-0.9 1.5-0.3 0.5-0.3 1.2-0.8 1.6-0.4-0.1-0.3-0.4-0.2-0.7 0.2-0.5 0.4-1 0.7-1.5 0.6-1 1.2-1.9 1.8-2.9q0.1-0.2 0.3-0.4c-0.5-0.2-0.7 0.1-0.9 0.4-0.7 1.2-1.5 2.4-2.1 3.8-0.1 0.1-0.2 0.2-0.3 0.4-0.2-0.1-0.3-0.2-0.5-0.3 0.3-0.6 0.6-1 0.8-1.5q0.4-0.6 0.7-1.3c0.3-0.4 0.6-0.8 0.8-1.4-0.3 0.1-0.4 0.2-0.5 0.3-1 1.1-1.5 2.5-2.1 3.8-0.5-0.2-0.4-0.5-0.3-0.8 0.2-0.6 0.5-1.1 0.8-1.7 0.1-0.3 0.4-0.6 0.4-1.1-0.8 1.1-1.3 2.2-2 3.2-0.1-0.1-0.3-0.2-0.4-0.4q0.4-0.7 0.7-1.4 0.4-0.7 0.9-1.3c-0.1-0.1-0.2-0.1-0.2-0.1-0.9 0.7-1.1 1.8-1.9 2.5q-0.2 0-0.5-0.1zm64.4 36.4c-0.2-0.1-0.3-0.1-0.4-0.1-1.5 0.3-3-0.1-4.6-0.1-0.3 0-0.4-0.1-0.3-0.6 0.3-0.2 0.7-0.1 1.1 0 1.5 0.2 3 0.2 4.5-0.1q0-0.2 0-0.4c-0.6-0.2-1.2-0.1-1.8-0.1-0.9 0.1-1.8 0.1-2.7 0.1q-0.3 0-0.5 0c-0.1-0.2-0.1-0.3-0.1-0.5 1.1-0.3 2.3 0.1 3.4-0.3-0.2-0.3-0.4-0.3-0.6-0.3q-0.8 0-1.7 0c-0.3 0-0.7 0-1-0.3-0.1 0.1-0.1 0.2-0.2 0.3-0.4 0.6-0.7 1.2-1.2 1.8-0.4 0.6-0.9 0.9-1.6 1-0.9 0.1-1.7-0.2-2.4-0.7-1-0.7-1.9-1.6-2.6-2.7-0.3-0.3-0.4-0.8-0.4-1.2 0-1.3 0.3-2.4 0.7-3.5 0.7-1.7 1.7-2.8 3.5-3.1q0 0 0.1-0.1 0.1-0.2 0.1-0.5 0.3-0.1 0.5-0.2c-0.5-0.1-1.1-0.1-1.6-0.1-0.5 0-1.1 0.3-1.5 0.6q-0.7 0.7-1.3 1.5c-0.7 0.9-1 1.9-1.2 3-0.2 1.1-0.3 2.3-0.1 3.4 0.2 1.2 0.7 2.3 1.1 3.5 0.2 0.5 0.6 1.1 1 1.5 1.1 1.1 2.6 1.6 4 1.9 1 0.1 1.9 0.1 2.9 0q0.1-0.1 0.2-0.1 0.1-0.2 0.1-0.5c0.6-0.1 1.2-0.1 1.8 0.1 0.2-0.1 0.4-0.2 0.7-0.4-0.4 0-0.6-0.1-0.8-0.1q-0.5 0-1.1 0c-0.3 0-0.5-0.1-0.5-0.5 1.1-0.4 2.3 0.1 3.5-0.4 0.1-0.1 0.2-0.2 0.3-0.4-0.8 0-1.5 0-2.2 0q-1.1-0.1-2.3-0.2 0-0.2 0-0.4c0.5-0.3 1-0.2 1.4-0.2 1 0 1.9 0 2.8 0 0.3 0 0.5 0.1 0.8 0.1q0-0.3 0.2-0.7zm-43.4 1.9c-0.4-1-0.8-2-1.2-3-2 0-3.9 0-5.9 0-1.5 0.1-3 0.2-4.5 0.3q-0.7 0.1-1.5 0.1c-0.3 0-0.7 0.1-1.1 0.1-0.3 0-0.7-0.1-1-0.1-0.3 0.5-0.3 1.1-0.5 1.6-0.2 0.5-0.5 1-0.8 1.5 0.1 0.1 0.2 0.1 0.2 0.1q1.4-0.1 2.8-0.1 4.1-0.2 8.2-0.3c1.2-0.1 2.4 0 3.6 0 0.6 0 1.1-0.1 1.7-0.2zm63.4-5.8c-0.8-1.2-1-1.5-0.9-2.1 1.2-0.1 3.2-1.4 3.9-2.6-0.3 0-0.6 0-0.9 0-0.2 0.9-0.9 1.2-1.7 1.5-0.9 0.3-1.8 0.3-2.7 0.4-1.1 0-2.2 0-3.3 0q-1.4 0-2.8 0.1c-1.1 0.1-2.2 0.3-3.3 0.3-2 0.1-4 0.1-6 0.1-0.9-0.4-1.7 0-2.5 0-0.8 0.1-1.5 0.3-2.3 0.5 0.1 0.3 0.1 0.5 0.2 0.8 0.3-0.2 0.5-0.5 0.8-0.2 0.3 0.5 0.4 1.2 1.2 1.5 0-0.6-0.4-1.2-0.2-1.8q0.3 0 0.5 0c0.2 0.8 0.2 1.6 0.8 2.2-0.2-1.8-0.2-1.8 0.1-2.4 0.1 0.2 0.3 0.3 0.3 0.4 0.1 0.3 0.1 0.5 0.1 0.8 0.1 0.4 0.1 0.8 0.3 1.1 0.1 0.4 0.3 0.5 0.8 0.4-0.6-1.9-0.7-2.2-0.3-2.8 0.4 0.3 0.4 0.3 0.4 0.6q0.1 1.1 0.6 2c0.2 0.3 0.5 0.5 1 0.3-0.2-0.4-0.4-0.9-0.6-1.3-0.2-0.4-0.3-0.9-0.1-1.4 0.4-0.1 0.5 0.1 0.5 0.5 0.1 0.7 0.4 1.3 0.8 1.9 0.1 0.1 0.3 0.2 0.4 0.3 0-0.5-0.2-0.9-0.4-1.3-0.2-0.4-0.5-0.8-0.2-1.3 0.4 0 0.4 0.3 0.5 0.5q0.5 1 0.9 1.9c0.1 0.1 0.3 0.1 0.5 0.2-0.2-0.6-0.4-1-0.5-1.4-0.2-0.4-0.3-0.9-0.2-1.4 0.1 0 0.2 0 0.3 0 0.1 0.1 0.2 0.1 0.3 0.2 0.1 0.9 0.3 1.8 1 2.6q0.3-0.1 0.5-0.2c-0.3-0.9-0.7-1.7-0.8-2.7 0.4-0.1 0.5 0 0.6 0.2 0.1 0.2 0.1 0.4 0.2 0.6 0.1 0.5 0.3 1.1 0.6 1.6 0.2 0.2 0.4 0.4 0.7 0.3-0.4-0.9-0.9-1.7-0.9-2.6 0.3-0.2 0.5-0.1 0.6 0.1 0 0.2 0.1 0.3 0.1 0.5 0.3 0.6 0.5 1.1 0.7 1.6 0.2 0.3 0.6 0.6 1 0.5-0.2-0.5-0.5-0.9-0.7-1.3-0.2-0.4-0.5-0.8-0.2-1.4 0.2 0.1 0.3 0.2 0.4 0.3 0.1 0.1 0.2 0.3 0.2 0.5 0.2 0.7 0.7 1.3 1.2 1.8 0.1 0 0.3 0 0.5 0.1-0.6-0.9-1.2-1.6-1.3-2.5 0.3-0.2 0.5-0.2 0.6 0q0.2 0.4 0.4 0.7c0.3 0.7 0.7 1.3 1.4 1.8 0.2-0.1 0.5-0.1 0.9-0.2-1.1-0.7-1.8-1.5-1.8-2.7q0.2-0.1 0.3-0.1c0 0 0.1 0.1 0.2 0.1 0.3 1.2 1.2 1.9 2.1 2.6q0.1 0 0.3 0c-1.4-1.7-1.5-2-1.3-2.9 0.4 0 0.5 0.2 0.5 0.5 0.2 0.6 0.5 1.2 1.2 1.6-0.2-0.6-0.8-1.2-0.4-1.9 0.4 0.3 0.4 0.3 0.5 0.6q0.4 0.9 1.1 1.5c0.1 0.1 0.3 0.1 0.5 0.2-0.4-0.9-0.9-1.6-1-2.4 0.4-0.1 0.5 0.1 0.7 0.4 0.2 0.3 0.3 0.7 0.6 1q0.2 0.4 0.5 0.7c0.2 0.1 0.5 0.1 0.7-0.1-1.1-1.4-1.2-1.7-0.6-2.2 0.2 0.4 0.4 0.9 0.7 1.3 0.3 0.3 0.5 0.8 1.2 1zm-4.3-5c0.2-1 0.7-1.8 1.2-2.5q0.7-1.1 1.5-2.1c0.6-0.7 0.9-1.5 1.7-2 0.3 0.2 0.2 0.4 0.1 0.7-0.7 0.9-1.4 1.9-2.1 2.8q-1 1.3-1.6 2.8c0 0 0 0.1 0 0.2q0.3 0 0.7 0c0.4-1.4 1.3-2.4 2.2-3.5 0.2 0.1 0.4 0.2 0.6 0.3-0.1 0.2-0.2 0.3-0.3 0.4-0.7 0.8-1.3 1.6-1.8 2.5 0 0.1 0 0.2 0 0.3q0.3 0 0.6-0.1c0.1-0.7 0.4-1.2 1.1-1.4 0.3 0.2 0.1 0.5 0 0.7-0.2 0.2-0.4 0.3-0.4 0.7q0.5 0 1-0.1c0.1-0.3 0.1-0.5 0.1-0.8q0.2-2 0.4-4c0.1-1.1 0.1-2.2 0-3.4q-0.2 0-0.3 0c-2.1 2.8-4.3 5.5-6.3 8.4-0.3-0.5-0.3-0.5-0.1-0.8q0.3-0.6 0.7-1.2c0.7-0.9 1.4-1.8 2-2.6 0.9-1.2 1.6-2.3 2.6-3.3 0.1-0.1 0.1-0.3 0.2-0.4-0.8 0-1.6 0-2.1 0-0.4 0.4-0.6 0.7-0.9 1-0.6 0.7-1.2 1.3-1.8 2-1.1 1.5-2.1 3-3.2 4.6-0.1 0.1-0.3 0.2-0.4 0.3-0.3-0.2-0.4-0.4-0.2-0.6 0.1-0.3 0.3-0.5 0.4-0.7 0.8-1 1.6-2 2.3-3.1 0.7-0.9 1.3-1.8 2.2-2.6 0.2-0.2 0.4-0.5 0.6-0.8-0.6-0.1-1.1 0-1.5 0.5-0.7 0.9-1.5 1.8-2.3 2.7-1.2 1.5-2.6 3.1-3.6 4.8 0 0.2-0.1 0.3-0.1 0.5q1.6-0.1 3-0.2c0.1-0.3 0.2-0.7 0.3-0.9 0.3-0.5 0.7-1 1-1.5q2-2.5 4.1-5c0.3-0.4 0.6-0.8 1.1-1q0.2 0.1 0.3 0.3c-0.1 0.2-0.1 0.2-0.2 0.3q-0.8 0.9-1.5 1.9-0.9 1-1.8 2.1-1.1 1.3-2.1 2.7c-0.3 0.3-0.5 0.7-0.6 1.2 1.1-0.1 2.2-0.1 3.2-0.1zm-6.4-64.7c-0.7-0.1-1.3-0.2-2-0.3-0.6 0-1.3-0.1-2-0.1q-3.5 0-7 0c-2.9 0-5.7 0.3-8.6 0.7q-2.7 0.2-5.3 0.5c-2.2 0.3-4.3 0.5-6.4 0.8q-3.1 0.4-6.1 0.9c-0.9 0.1-1.8 0.4-2.4 1.3 0.4-0.1 0.7-0.1 1-0.1q1.6-0.2 3.1-0.5 1.9-0.2 3.8-0.4 1.4-0.2 2.8-0.3 2.4-0.3 4.8-0.6c1.7-0.2 3.3-0.4 5-0.5 1.9-0.1 3.8-0.1 5.7-0.1 0.9 0 1.8-0.1 2.7-0.4 0.3-0.1 0.7-0.1 1.1-0.2q0.7-0.1 1.3-0.2c0.8-0.1 1.6-0.2 2.3-0.3 1.6 0 3.1 0 4.6 0 0.5 0 1.1 0.1 1.6-0.2zm-41.1 4q0.5-0.5 0.9-1c0.7-0.7 1.6-1 2.6-1.1q2.7-0.5 5.4-0.8c2.5-0.4 5.1-0.7 7.7-0.9 1.3-0.1 2.7-0.3 4-0.4 1.3-0.2 2.5-0.4 3.7-0.5 2.5-0.2 4.9-0.4 7.4-0.4 3 0 6-0.1 9 0.3 1.1 0.2 2 0.4 2.8 1.1q1.2 0.8 2.3 1.6c0.3 0 0.5 0 0.9 0-0.2-0.2-0.3-0.4-0.4-0.5-0.6-0.7-1.4-1.2-2.1-1.7q-1.2-0.7-2.5-0.8-0.8 0-1.7-0.2c-1.6-0.3-3.3-0.4-5-0.4-2.5 0-5 0.1-7.6 0.2q-0.1 0-0.3 0c-1.7 0.1-3.5 0.3-5.3 0.4-1.5 0.1-3 0.1-4.5 0.2q-0.6 0-1.3 0.2c-1.8 0.4-3.6 0.6-5.4 0.8-1.2 0.1-2.5 0.2-3.7 0.5-1.4 0.2-2.8 0.4-4.2 0.8-1.6 0.5-2.9 1.3-4 2.5-0.1 0.1-0.2 0.2-0.3 0.4 0.6-0.1 1-0.2 1.6-0.3zm5.9 62.6c1-0.1 1.9-0.1 2.8-0.2 0-0.5 0.3-0.7 0.6-1q1.2-1.4 2.4-2.8c0.7-0.8 1.4-1.6 2.1-2.3 0.7-0.8 1.5-1.4 2.2-2.1 0.1-0.1 0.1-0.1 0.1-0.2q-0.7 0-1.4 0c0 0.2 0.1 0.3 0.2 0.4-0.4 0.3-0.7 0.6-1 0.9q-2 2.2-4 4.4c-0.6 0.7-1.2 1.5-1.8 2.2-0.3 0.3-0.4 0.3-0.8-0.1 0.6-0.9 1.5-1.7 2.3-2.6 0.7-0.9 1.5-1.7 2.2-2.6 0.8-0.9 1.6-1.7 2.5-2.7-1.1 0.1-2 0.1-2.7 0.2-1.6 1.2-2.7 2.7-3.9 4.1-1.2 1.4-2.6 2.7-3.6 4.3 0.5 0.3 0.5 0.3 1 0.1 0.6-1 1.3-1.8 2.1-2.6 1.5-1.6 2.8-3.3 4.2-4.9q0.2-0.3 0.5-0.5c0.1-0.1 0.3 0 0.5 0-0.1 0.3-0.2 0.5-0.3 0.6q-1.7 2.1-3.4 4.1c-0.5 0.6-1.1 1.1-1.6 1.7-0.4 0.5-0.7 1-1.2 1.6zm41.8-64.8q0 0.1 0 0.2 0.8 0.1 1.6 0.2 1.2 0.1 2.4 0.2c0.9 0.1 1.7 0.2 2.6 0.2 0.6 0 1.2 0.1 1.9 0.2q0.3 0.1 0.6 0.2 2.8 0.4 5.6 1.2c1.1 0.3 2.3 0.6 3.4 0.8 2.5 0.5 5.1 0.9 7.6 1.3 0.2 0 0.5 0.1 0.8 0q0-0.1 0-0.2-0.1-0.1-0.2-0.2c-0.5-0.7-1.2-1.1-2-1.3-1.4-0.4-2.8-0.8-4.2-0.9q-1-0.1-1.9-0.2c-1.5-0.2-3-0.4-4.5-0.5-1.4-0.2-2.8-0.3-4.3-0.4q-0.7-0.1-1.5-0.1-1-0.1-2-0.2-0.7-0.1-1.5-0.2-0.5 0-0.9-0.1-1.7-0.1-3.5-0.2zm-31.5 65.3c-2.1 0-4.2-0.1-6.2 0q-2 0-3.9 0.2c-0.9 0.1-1.8 0.1-2.7 0q-0.2 0-0.3 0-1.7 0-3.3 0.1c-1.2 0-2.4 0-3.5 0-0.9 0-1.8 0.1-2.7 0.1q-2.5 0.1-5.1 0.2-0.2 0-0.5-0.1c-0.4 0-0.9 0-1.3 0q-2.8-0.1-5.6-0.1-1.5 0-2.9 0.1c-1 0-2 0.2-2.9 0.3-1.3 0.1-2.5 0.1-3.8 0.2-0.7 0-1.4 0.1-2.1 0.2 0.1 0.1 0.3 0.1 0.4 0.1 0.4 0 0.9-0.2 1.3 0 0.5 0.1 1 0.1 1.4 0.1 0.5-0.1 1-0.1 1.5-0.1q3-0.1 5.9-0.2c1-0.1 2.1-0.2 3.2-0.2q3.2-0.1 6.4-0.1c0.7 0 1.4 0.1 2.1 0.1 1.8 0 3.6-0.1 5.3-0.1q3.5-0.1 7-0.2c1.6 0 3.2 0.1 4.8 0.1 1 0 2.1 0 3.2 0q1.9-0.1 3.8-0.1 0.2 0 0.5 0c0-0.2 0-0.4 0-0.6zm-2.8-1.2c0.1-0.2 0.2-0.4 0.2-0.5 0.6-0.7 1.1-1.5 1.7-2.2 1.3-1.5 2.8-2.9 4-4.6 0.2-0.3 0.4-0.5 0.7-0.9-0.3 0-0.5 0-0.7 0-0.1 0.2-0.1 0.4-0.3 0.5-0.4 0.5-0.8 0.9-1.3 1.3-2 1.6-3.6 3.6-5 5.6-0.3 0.4-0.6 0.8-0.9 1.3 1.6 0 3 0 4.5 0q0.2-0.7 0.3-1.3 0 0-0.1-0.1-0.4 0.6-0.7 1.1c-0.5 0-0.5-0.3-0.4-0.5q0.2-0.5 0.5-0.8 0.9-1.2 1.9-2.4c0.1-0.1 0.3-0.2 0.4-0.3 0.4-0.3 0.9-0.6 1.1-1.1 0.2-0.5 0.5-0.8 0.8-1.1 0.7-0.7 1.3-1.4 1.8-2.3-0.3 0-0.6 0-0.9 0q-1 1.2-2 2.4-0.3 0.4-0.7 0.8c-0.6 0.6-1.2 1.2-1.8 1.9-0.8 1-1.6 2.1-2.4 3.2q-0.1 0.1-0.2 0.3c-0.2-0.1-0.3-0.2-0.5-0.3zm66 6c-0.3-0.2-0.2-0.4-0.1-0.5q0.4-0.5 0.8-1c0-0.1 0-0.1 0-0.2q-0.3 0-0.5 0-0.2 0.7-1.3 1.5c-0.4-0.1-0.1-0.5-0.2-0.7-0.4 0.2-0.6 0.6-1.1 0.5q-0.1-0.2-0.2-0.4c-0.3 0.2-0.6 0.4-0.9 0.7-0.2-0.3-0.3-0.5-0.4-0.7-0.2 0.1-0.3 0.3-0.5 0.4-0.1 0-0.3-0.1-0.5-0.1 0.3-0.4 0.6-0.7 0.8-1-0.4-0.2-0.7 0-1.1 0.1 0 0.9-0.4 1.8 0.1 2.7q1.6 0 3.2 0 1.6-0.1 3.3 0 1.6 0 3.2 0c0-0.7 0.1-1.3 0.1-1.9-0.2 0.1-0.4 0.2-0.5 0.2-0.6-0.6 0.2-0.8 0.4-1.3-0.8 0.4-1.2 0.8-1.8 1.3-0.1-0.2-0.3-0.4-0.4-0.6q-0.4 0.3-0.8 0.6c-0.6-0.6 0.2-0.8 0.4-1.3-0.9 0.4-1.2 1.4-2 1.7zm-80.2-5.2c0.2-0.3 0.3-0.5 0.4-0.7q1.2-1.4 2.4-2.7c0.8-0.9 1.6-1.7 2.4-2.7 0.7-0.8 1.7-1.5 2.6-2.3 0.1 0.3 0.2 0.4 0.3 0.6-1.5 1.1-2.7 2.4-3.8 3.7-1.2 1.2-2.5 2.5-3.5 4.1q0.8 0.1 1.3 0c0.1-0.3 0.2-0.6 0.4-0.8q0.6-0.8 1.2-1.5c0.5-0.5 1-1 1.5-1.5 0.7-0.8 1.3-1.6 2-2.3 0.6-0.7 1.2-1.3 1.9-1.9 0.1-0.1 0.1-0.2 0.2-0.4-1.1 0-2.1 0-3.1 0-0.1 0.2-0.2 0.4-0.3 0.5-0.7 0.5-1.2 1.2-1.7 1.8-1.3 1.3-2.6 2.6-3.8 4q-0.7 0.7-1.3 1.5c-0.1 0.2-0.2 0.4-0.3 0.6 0.5 0 0.9 0 1.2 0zm53.8-1.4q0-0.1-0.1-0.2-0.2 0-0.5 0c-0.7 0.1-1.4 0.2-2.1 0.2q-2.5 0.1-5.1 0.2c-0.9 0-1.8 0-2.6 0-1.5 0.1-2.9 0.2-4.3 0.2-2.3 0.1-4.6 0.2-6.9 0.6-0.7 0.1-1.4 0.3-2.2 0.4 0 0.2 0.1 0.3 0.1 0.5q0.2-0.1 0.4-0.1c2-0.6 4.2-0.6 6.3-0.5 1.5 0 3.1 0.1 4.6 0 2.3-0.3 4.6-0.5 6.9-0.5q1.4 0 2.9 0c0.9-0.1 1.8-0.3 2.6-0.8zm-49.1-6.8c-2.9 2.5-5.4 5.3-7.9 8.2-0.2-0.2-0.3-0.4-0.4-0.5 2.2-2.7 4.7-5.1 7-7.6-0.5-0.1-1 0-1.4 0.4q-0.5 0.6-1.1 1.2-2.7 2.8-5.3 5.6c-0.3 0.3-0.5 0.6-0.8 1 0.4 0 0.6 0.1 0.9 0.1q0.9-0.1 1.8-0.2 0.4 0 0.8 0c-0.2-0.4-0.1-0.7 0.2-0.9 0.3-0.4 0.6-0.8 1-1.2 1.2-1.3 2.4-2.5 3.6-3.8 0.7-0.7 1.4-1.5 2.1-2.3-0.2 0-0.4 0-0.5 0zm58.1-9.9c0.5-0.5 0.9-1.1 1.4-1.5 1.5-1.4 2.9-2.9 4.1-4.4q2-2.4 3.9-4.8 1.1-1.4 2.2-2.8c0.1-0.1 0.1-0.2 0.1-0.3q-0.5-0.1-1-0.2c-0.6 0.7-1.2 1.4-1.7 2.1-1 1.3-2 2.7-3 4-0.8 1-1.5 2.1-2.4 3-1 0.9-1.9 1.9-2.8 2.8-0.4 0.5-0.8 0.9-1 1.5q0.1 0.3 0.2 0.6zm9-14.4c-0.5 0.7-0.9 1.3-1.4 1.8-0.4 0.5-0.8 1-1 1.6-0.2 0.4-0.5 0.7-0.9 1.1q-0.9 0.7-1.7 1.6c-1.2 1.4-2.3 2.8-3.5 4.1q-0.9 1-1.8 2.1c0.2 0.2 0.4 0.4 0.7 0.6 0.4-0.4 0.7-0.8 1.1-1.2 1.9-1.9 3.8-3.6 5.2-5.8 0.4-0.6 0.9-1.1 1.2-1.7 0.6-1 1.4-1.9 2.2-2.8 0.3-0.4 0.5-0.8 0.9-1.2-0.4-0.1-0.7-0.1-1-0.2zm-45.4 34.4c0.1-1.3-0.3-1.9-1.3-2.4q-0.3-0.2-0.7-0.4c-0.3-0.2-0.6-0.2-1 0.1-1.5 1.3-1.5 3.5 0.1 4.8 1.2 0.9 2.5 0.1 2.7-0.9 0.2-0.5 0.2-0.9 0.2-1.2zm3-3.8c1.8-2.8 3.8-5.2 6-7.8-1.2 0.1-2.1 0.1-3.1 0.2-1.4 1.5-2.7 3.1-4 4.8 0.1 0.3 0.2 0.6 0.4 1 1-1.7 2.2-3 3.3-4.4 0.3-0.4 0.8-0.8 1.3-1.1 0.2-0.2 0.5-0.3 0.9 0q-0.3 0.2-0.5 0.4c-0.3 0.2-0.7 0.5-0.9 0.8q-1 1.1-2 2.3-0.6 0.9-1.3 1.8c-0.2 0.3-0.3 0.6-0.5 1 0.1 0.3 0.2 0.5 0.4 1zm38.2 6c0.3 0.2 0.5 0.3 0.7 0.4-0.4 0.3-0.7 0.4-1 0.6q-0.2-0.1-0.4-0.3-0.3 0.2-0.5 0.4c-0.4-0.2-0.5-0.5-0.4-0.9q0-0.5 0.1-1c0-0.1-0.1-0.2-0.1-0.3q-0.8 1.5-0.3 3.1c0.9 0 1.7 0.1 2.5 0.2 0.8 0 1.6 0.3 2.4 0 0.1-0.7 0.2-1.4 0.3-2.2 0-0.4-0.1-0.8-0.1-1.3-0.4 0-0.6 0.1-0.9 0.1q-0.3 0-0.5 0c-0.5 0-0.9 0-1.3 0-0.2 0-0.4 0.1-0.4 0.3 0.1 0.4 0.6 0.2 0.7 0.6-0.3 0.1-0.5 0.2-0.8 0.3zm-103-5.7c-0.9 0.4-1.3 1.1-1.5 1.9-0.1 1.2 0 2.3 0.4 3.4 0.1 0.5 0.5 0.9 1 1.1 0.4 0.2 1 0.1 1.2-0.2 0.3-0.6 0.6-1.3 0.7-1.9 0.1-0.8 0.1-1.6-0.1-2.4-0.1-1-0.7-1.6-1.7-1.9zm62 5.4c-0.1 0.2-0.1 0.3-0.2 0.3-1.1 1.2-2.5 1.2-3.6 0.1-0.6-0.6-1-1.3-1.3-2.1-0.4-0.2-0.8-0.3-1.2-0.4-0.2 0.8-0.1 1.6 0.4 2.2q0.9 1 1.9 2c0.4 0.3 0.8 0.4 1.3 0.6 0.5 0.2 1.1 0.2 1.6-0.2q1-0.8 1.5-2c-0.1-0.2-0.2-0.3-0.4-0.5zm-59.5-34.4q-0.1-0.3-0.1-0.5c-0.1-0.2-0.1-0.3-0.1-0.5-1.6 2.3-2.6 4.8-3.6 7.2-0.1 0.3-0.1 0.7-0.1 1q-0.1 1.3-0.2 2.6 0 0.2 0 0.4c0.1-0.1 0.2-0.1 0.2-0.1q2-5.1 3.9-10.1zm93.7 10.1q0.5-0.5 1-1c1-1.1 2.1-2.2 3-3.4 1.1-1.3 2.2-2.7 3.5-3.8 0.3-0.2 0.4-0.5 0.5-0.7 0.4-0.8 0.9-1.6 1.5-2.3q0.4-0.4 0.7-0.8c-0.3-0.2-0.5-0.1-0.7 0-0.2 0.2-0.5 0.4-0.7 0.7-0.6 0.7-1.1 1.6-1.7 2.3q-0.5 0.8-1.1 1.4c-0.4 0.6-1 1.1-1.4 1.6q-1.1 1.4-2.4 2.6-1.1 1-2.2 2c-0.3 0.3-0.6 0.7-0.9 1.1 0.3 0.1 0.6 0.2 0.9 0.3zm-49.1 20.2c1.1-1.6 2.3-3.1 3.5-4.4 1.2-1.4 2.6-2.7 3.9-4.1-0.4-0.1-0.8 0-1.1 0-1 1-1.9 1.8-2.8 2.7q-1.4 1.4-2.5 2.9c-0.8 1-1.9 1.7-2.6 2.9 0.6 0 1.1 0 1.6 0zm46-21c0.1-0.1 0.2-0.1 0.3-0.1 0.6-0.7 1.2-1.3 1.9-2 1-0.9 2-1.8 2.8-2.9 0.7-0.8 1.2-1.6 2-2.3 1.4-1.1 2.3-2.5 3.3-3.9 0.1-0.1 0.1-0.3 0.1-0.5-0.6 0.1-0.6 0.1-0.8 0.4-1 1.5-2.3 2.8-3.5 4-1.9 2.1-3.9 4.2-6 6.3q0 0.4-0.1 1zm-23.1 19.9c1.1-1.5 2.2-2.9 3.2-4.3 1-1.5 2-2.9 3.4-4.2-0.4 0-0.7 0-1 0-0.4 0.5-0.9 1-1.3 1.4-0.4 0.4-0.9 0.9-1.3 1.3-0.4 0.5-0.7 1-1.1 1.5q-0.6 0.7-1.1 1.4-0.6 0.8-1.1 1.5c-0.4 0.5-0.9 0.8-1 1.5q0.7-0.1 1.3-0.1zm13.4-64.2q0.2 0.1 0.4 0.1 3.1 0.2 6.3 0.5c1.7 0.1 3.5 0.3 5.2 0.5 0.8 0 1.7 0 2.5 0.1 2.2 0.3 4.4 0.6 6.6 0.8 1.5 0.1 2.9 0.5 4.3 1 0.9 0.2 1.6 0.7 2.1 1.6q0.3 0.3 0.6 0.7c0.1 0.2 0.3 0.3 0.6 0.2-0.5-1.7-1.6-2.7-3.3-3-2-0.4-4-0.9-6-1-1.4-0.1-2.9-0.3-4.3-0.4-0.6-0.1-1.2 0-1.8-0.1-1.1-0.1-2.2-0.3-3.4-0.4-2.4-0.3-4.8-0.5-7.3-0.7-0.8-0.1-1.7 0.1-2.5 0.1zm-15.8 64.5c0.4-0.6 0.7-1 1-1.4 0.5-0.7 1-1.3 1.5-2 1.2-1.6 2.4-3.2 3.9-4.6q0.3-0.3 0.5-0.6c0.1 0 0-0.1 0-0.2-0.2 0-0.4 0-0.8 0-0.4 0.5-0.9 1-1.4 1.5-0.7 0.7-1.3 1.5-1.9 2.3-1.2 1.4-2.4 2.8-3.4 4.4-0.1 0.2-0.3 0.4-0.3 0.7 0.4 0 0.7-0.1 0.9-0.1zm-31-6.8c-0.4-0.2-0.7 0.1-1 0.3q-0.8 0.6-1.5 1.3c-0.8 0.7-1.5 1.5-2.2 2.2-0.8 0.8-1.7 1.7-2.5 2.6-0.5 0.5-1 0.9-1.3 1.6 0.6 0.1 1.1 0 1.5 0 0.1-0.3 0.2-0.6 0.3-0.7q1.2-1.5 2.5-2.8c1.2-1.3 2.4-2.5 3.6-3.8q0.3-0.3 0.6-0.7zm68-1c-0.1 0.5-0.1 1-0.1 1.4q-0.3 2.3-0.6 4.5-0.1 0.4-0.1 0.8c0 0.1 0.1 0.2 0.2 0.3 0.4-2.4 0.9-4.8 0.9-7.3-0.7 0-1.3-0.1-1.9 0-0.3 2.4-0.4 4.8-0.4 7.2q0.3 0 0.5 0 0.1-0.2 0.1-0.3 0.2-2.1 0.5-4.3 0.1-1 0.2-1.9c0-0.4 0.2-0.6 0.7-0.4zm-32.7 7.3c2.1-2.9 4.3-5.6 6.6-8.4-0.4 0-0.6 0-1 0-0.7 0.9-1.6 1.6-2.3 2.5-1.3 1.8-2.6 3.6-3.9 5.4-0.1 0.1-0.2 0.3-0.4 0.5 0.4 0 0.7 0 1 0zm4.3-0.2c0.2-0.4 0.2-0.7 0.4-1 1-1.7 2.3-3.2 3.6-4.7q1-1.2 2-2.4c0-0.1 0-0.1 0.1-0.3-0.3 0-0.5 0-0.8 0-0.8 0.9-1.7 1.7-2.4 2.6-1.3 1.7-2.6 3.4-3.9 5.1-0.2 0.2-0.3 0.5-0.5 0.8q0.9 0 1.5-0.1zm47.2 7.7c1.2 0.2 2.3 0.5 3.4 0.3 0.4-1.1 0.6-2.7 0.3-3.6-0.5 0-1.1-0.2-1.7 0.3q0.3 0.4 0.5 0.8-0.1 0.1-0.2 0.3 0 0.2 0.1 0.4-0.2 0.2-0.3 0.4c-0.1 0.1-0.2 0.3-0.4 0.5-0.1-0.3-0.3-0.5-0.4-0.8-0.2 0.2-0.3 0.3-0.5 0.5-0.5-0.6-0.3-1.3-0.2-2.1q-0.3 0.1-0.5 0.1c0 1-0.1 1.9-0.1 2.9zm-49.7-7.6c2.3-2.8 4.4-5.6 6.6-8.3-0.3 0-0.6 0-0.7 0-2.1 1.8-3.5 4.1-5.2 6.1-0.5 0.6-0.9 1.2-1.4 1.9q-0.1 0.1-0.1 0.2 0 0 0 0.1c0 0 0 0 0.1 0.1 0.2 0 0.5 0 0.7-0.1zm-34.2 1.6c0.3-0.4 0.4-0.7 0.6-1q0.3-0.4 0.6-0.8 1.8-2 3.6-4 1.1-1.3 2.2-2.5 0 0 0.1-0.2c-0.2 0-0.4 0-0.7 0q-0.8 0.9-1.7 1.7c-0.7 0.8-1.5 1.5-2.2 2.3-1 1.1-1.9 2.3-2.9 3.4-0.4 0.3-0.6 0.7-1 1.2 0.6 0 1-0.1 1.4-0.1zm54.5-21c0.6 0.1 0.6 0 0.8-0.2q0.5-0.6 1.1-1.1c1.4-1.3 2.9-2.6 4.1-4.1 0.6-0.7 1.3-1.4 2-2.2q0.3-0.3 0.5-0.6 0.6-0.9 1.2-1.8 0.6-0.8 1.1-1.6c-0.5 0-0.5 0-0.7 0.3-1 1.5-2.1 3-3.4 4.2-0.6 0.5-1.1 1.1-1.6 1.7-1 1.2-2 2.3-3.1 3.3-0.6 0.5-1.1 1-1.6 1.5-0.1 0.1-0.2 0.3-0.4 0.6zm-28 19.6c0.9-1.2 1.8-2.5 2.8-3.7 1-1.3 2.1-2.5 3.2-3.8 0.1-0.2 0.3-0.4 0.5-0.7-0.3 0-0.4 0-0.5 0q-0.2 0-0.4 0c-2.3 2.8-4.6 5.4-6.5 8.5 0 0.1 0.1 0.3 0.2 0.5 0.3-0.1 0.6-0.2 0.9-0.2 0-0.2-0.1-0.3-0.2-0.6zm-37.5-6.1c-0.4 0.3-0.6 0.5-0.8 0.7-0.4 0.3-0.8 0.6-1.2 1q-2.5 2.4-4.9 5c-0.2 0.2-0.4 0.4-0.7 0.6-0.2 0-0.3 0.2-0.5 0.5q0.8 0 1.2 0c0.3-0.5 0.5-0.8 0.8-1.1q3.4-3.3 6.7-6.5c0.1 0 0.1-0.1 0.1-0.2q-0.5 0-0.7 0zm1.5-0.1c-0.2 0.3-0.2 0.6-0.4 0.8q-0.8 0.8-1.6 1.6-2.4 2.3-4.8 4.5c-0.3 0.3-0.5 0.6-0.9 0.9q0.8 0 1.1 0c0.3-0.4 0.5-0.7 0.8-1 0.9-0.8 1.7-1.6 2.6-2.5 1.1-1.2 2.2-2.5 3.7-3.3 0.4-0.3 0.8-0.7 1.2-1-0.7 0-1.2 0-1.7 0zm-27 10c-0.4 0-0.4 0.3-0.5 0.5q-0.3 0.9-0.7 1.9c-0.1 0.2-0.3 0.5-0.6 0.6-0.5 0.3-1.1 0.3-1.7-0.1q-1.2-0.6-1.5-2-0.1-1.1-0.4-2.3-0.1-0.1-0.4-0.2c0 0.2-0.1 0.3-0.1 0.5-0.1 1.5 0.5 2.7 1.3 3.9 0.5 0.5 1 1 1.7 1.3 0.7 0.2 1.4 0.1 1.8-0.5 0.8-1 1.1-2.2 1.1-3.6zm97.2-35.7c-0.6 0.6-1.2 1.2-1.8 1.9-1.3 1.4-2.5 2.8-3.8 4.1-0.2 0.3-0.5 0.5-0.9 0.8q0 0.2 0.1 0.7c0.7-0.6 1.2-1.1 1.8-1.6 0.7-0.7 1.4-1.3 2.1-2q1.7-1.6 3.3-3.3c0.1-0.1 0.2-0.2 0.4-0.4-0.5-0.1-0.8-0.2-1.2-0.2zm-103.2 10.2q0.1 0.1 0.1 0.2-0.4 0.9-0.9 1.7c-0.3 0.5-0.7 1-0.8 1.6q0.2-0.2 0.4-0.5 0.4-0.7 0.9-1.4c0.1-0.2 0.3-0.4 0.6-0.1-0.4 1.2-1.2 2.1-1.7 3.3 0.3-0.4 0.6-0.8 0.8-1.2q0.4-0.6 0.9-1.2c0.2 0 0.3-0.1 0.6-0.1 0-0.7 0-1.4 0-2.1 0-0.7 0.2-1.4-0.2-2-0.7-0.1-1.3-0.2-1.9 0.1-0.3 1-0.3 1.3-0.2 1.8 0.2-0.2 0.4-0.8 1-0.5-0.1 0.3-0.2 0.5-0.3 0.7 0.3-0.1 0.5-0.2 0.7-0.3zm28.2 23.4c2.5-2.8 5.2-5.4 8-8q-0.5 0-0.6 0c-0.3 0.3-0.5 0.5-0.7 0.7q-0.8 0.7-1.7 1.3c-0.9 0.6-1.7 1.4-2.5 2.2-0.8 0.9-1.7 1.8-2.6 2.7-0.3 0.3-0.6 0.6-1 1.1 0.5 0 0.8 0 1.1 0zm68.2-23.7c1.2-1.2 2.3-2.2 3.4-3.3 1.3-1.4 2.5-2.7 3.8-4.1 0.3-0.4 0.6-0.8 1-1.2 0-0.1 0.1-0.3 0.1-0.4-0.3 0.1-0.5 0.3-0.7 0.5-1 1.1-2.1 2.2-3.2 3.2q-1.9 1.8-3.8 3.5c-0.6 0.5-0.7 1.1-0.6 1.8zm25.3-7.9q-0.1 0-0.2 0c-0.1 0.2-0.3 0.4-0.4 0.6-0.3 0.6-0.7 1.2-1.1 1.7-0.9 1.1-1.6 2.2-2.4 3.2q-0.7 1-1.5 1.9c-0.1 0.1-0.2 0.2-0.2 0.3-0.1 0.1 0 0.3 0 0.4 2.6-1.9 4.3-4.5 5.8-7.2q0-0.5 0-0.9zm-12.8 6.6c1-1.1 2.1-2.1 3-3.2 0.9-1.1 1.7-2.4 2.6-3.6q-0.5-0.1-0.8-0.1-0.6 0.7-1.1 1.4c-0.9 1.1-1.8 2.2-2.7 3.2-0.6 0.8-1.2 1.5-1.8 2.5 0.3-0.1 0.6-0.2 0.8-0.2zm-78.6 24.9c0.3-0.4 0.5-0.8 0.8-1.1 1.7-2.1 3.7-3.9 5.7-5.8q0.5-0.5 1-1c0 0 0 0 0-0.1q-0.3 0-0.6 0-2.2 1.8-4.1 3.9c-1.3 1.3-2.7 2.5-3.9 4.1q0.7 0 1.1 0zm8.5 10q0 0.1 0 0.1 3.6 0.2 7.2 0.3c0.1-0.1 0.3-0.2 0.6-0.3q0.4-0.1 0.8-0.1c2.8 0 5.6 0 8.4 0.1q1.7 0 3.4-0.1c0.1 0 0.2-0.1 0.5-0.2-0.3-0.1-0.5-0.1-0.6-0.1q-3.3 0-6.5 0c-2.2 0-4.3-0.1-6.4 0.2-0.6 0-1.2 0-1.7 0q-2.4 0.1-4.8 0.1-0.4 0-0.9 0zm73.4-2.4c0-0.3 0-0.5 0-0.7q0-1.8 0.1-3.7c0-0.3 0-0.7 0.4-0.9q0.1 0.2 0.2 0.4c0.1 0 0.1 0.1 0.2 0.3 0.1-0.4 0.2-0.7 0.3-1-0.4 0-0.8 0-1.3 0 0 0.4-0.1 0.8-0.1 1.1-0.1 1-0.1 2-0.2 3-0.1 0.4-0.1 0.9-0.4 1.2-0.5-0.1-0.5-0.4-0.4-0.7 0.4-1.4 0.2-2.8 0.4-4.2 0.1-0.1 0-0.3-0.1-0.4-0.2 0.6-0.4 1.2-0.5 1.8q-0.1 0.9-0.2 1.7c-0.1 0.6 0 1.2-0.2 1.8-0.4 0-0.6-0.2-0.6-0.5q0-0.4 0-0.8c-0.2 0.5-0.3 0.9-0.5 1.4 1 0.1 1.9 0.1 2.9 0.2zm8.2-38.5c-0.5 0-0.9 0-1.3 0q-0.8 1.3-1.7 2.6-0.8 1.4-1.7 2.8-0.3 0.5-0.6 1c0 0 0 0.1 0 0.1q0.1 0.1 0.3 0.2c1.8-2.1 3.3-4.4 5-6.7zm-130.1 32.6c0.4 0.1 0.5-0.2 0.7-0.4q1.5-1.9 3-3.8 0.3-0.4 0.7-0.7c0.2-0.1 0.4-0.1 0.5 0.2-2.8 3.2-3.4 3.9-3.5 4.6 0.1 0 0.1 0 0.2 0q2-2.5 4.1-5.1c-0.5-0.2-1.2-0.1-2 0.1-0.2 0.4-0.3 0.7-0.6 1-0.4 0.5-0.9 1-1.4 1.6q-0.8 0.8-1.6 1.7c-0.2 0.3-0.4 0.5-0.1 0.8zm120.3-3.7c0-0.2-0.1-0.3-0.1-0.4q0.4-3.3 0.8-6.6c-0.1 0-0.2-0.1-0.4-0.2-0.1 0.5-0.2 0.8-0.2 1.2 0 0.5 0 1-0.1 1.5-0.1 1.3-0.4 2.6-0.4 3.9 0 0.2-0.2 0.3-0.2 0.5-0.4-0.1-0.5-0.4-0.5-0.6q0.1-0.8 0.1-1.5 0.3-2.2 0.6-4.5c0-0.1 0-0.3 0-0.5-0.2 0-0.3 0.1-0.5 0.1-0.2 2.4-0.4 4.7-0.7 7.1q0.8 0 1.6 0zm11.1-22.9q0-0.3-0.1-0.8c-1.5 2-3.1 3.9-4.6 5.9q0.1 0.2 0.1 0.6c2.1-1.5 3.3-3.6 4.6-5.7zm-56.2 18.3c0.5-0.6 0.9-1 1.4-1.5 0.4-0.4 0.8-0.9 1.3-1.4-0.3 0-0.5 0-0.7 0-0.7 1.1-2 1.7-2.5 2.9 0.4 0.4 0.9 0.8 1.3 1.2 1.2-1.4 2.3-2.7 3.4-4.1-0.1-0.1-0.2-0.1-0.3-0.1-0.1 0-0.2 0-0.3 0-1 1.1-2 2.2-3 3.4-0.2-0.1-0.3-0.2-0.6-0.4zm-55.5-16.7c-1.3 0.8-2.8 1.1-4.2 1.9q-2 1.1-4.1 2.3c0 0.2 0.1 0.3 0.2 0.5 2.5-1.5 5-2.7 7.6-3.9 0.5-0.2 0.9-0.5 1.4-0.8-0.3-0.3-0.5-0.7-1-0.6 0.1 0.2 0.1 0.3 0.1 0.6zm116.8 25.3q0 0 0-0.1-1.3 0.1-2.7 0.2c0 1.2-0.1 2.4-0.1 3.6 0.3-0.9 0.5-1.8 0.4-2.8 0-0.2 0-0.5 0.3-0.7 0.1 0.1 0.2 0.1 0.3 0.1 0 0.7 0 1.2 0 1.8-0.1 0.5-0.1 1.1-0.2 1.6-0.2 0.5-0.1 1.1-0.5 1.6-0.2 0-0.4-0.1-0.6-0.2 0 0.3 0 0.4 0 0.7 0.8 0 1.7 0.1 2.6-0.2-0.5-0.4 0.1-1-0.6-1.4q-0.1 0.7-0.3 1.2-0.5 0.2-0.5-0.3 0-0.2 0-0.4c0.3-0.8 0.4-1.6 0.4-2.5 0-0.5 0.1-1 0.1-1.6q0.7-0.3 1.4-0.6zm-14.9-11c-0.3 2.4-0.5 4.7-0.8 7q0.4 0 0.8 0c0.1-0.6 0.1-1.2 0.2-1.8 0.2-1.7 0.6-3.3 0.4-5q-0.2-0.1-0.6-0.2zm-14.9-22.8c-0.1 0.8-0.2 1.6 0 2.5 0.6-0.4 4.3-4.4 4.2-4.7q-0.2-0.1-0.4-0.2-0.3 0.4-0.5 0.7-1.1 1.2-2.2 2.5c-0.1 0.2-0.2 0.3-0.4 0.4-0.3 0.1-0.5 0-0.5-0.4q0.1-0.1 0.1-0.1 1.3-1.5 2.6-2.9c0.1-0.2 0.3-0.3 0-0.6-0.3 0.2-0.5 0.5-0.7 0.7q-0.6 0.8-1.2 1.5c-0.3 0.3-0.6 0.6-1 0.6zm-81.8-25.9c2-0.5 3.9-1 5.8-1.5 0.4-0.2 0.6-0.4 0.7-1q-0.4 0.1-0.7 0.2c-1.5 0.3-3 0.6-4.4 1.1-0.6 0.2-1.1 0.5-1.4 1.2zm-16.3 41.1c-0.3-0.4-0.6-0.8-0.9-1.3q-0.4-0.9-0.5-1.9c0-1.4 0-2.9 0.4-4.3 0-0.2 0-0.4 0.1-0.7-0.3 0.2-0.4 0.3-0.5 0.4-0.2 0.6-0.4 1.1-0.5 1.7-0.1 1.2-0.1 2.4-0.1 3.5 0 1.4 0.7 2.3 2 2.6zm91.2 25.2c0.6 0 1.1 0 1.6 0 0.4 0 0.9 0.1 1.3 0.1q2.4 0.1 4.8 0.1c0.6 0 1.2 0 1.8 0q0.1-0.1 0.3-0.3c-0.1-0.1-0.2-0.1-0.3-0.1q-2.1-0.1-4.3-0.2-1.6-0.1-3.3-0.1-1-0.1-1.9-0.1c-0.1 0-0.2 0.1-0.3 0.1q0.2 0.3 0.3 0.5zm-81.6-8.8c0.6-1 1.1-1.9 1.7-2.8 0.6-0.8 1.3-1.6 2.1-2.5-0.8 0.1-1.5 0.2-2 0.3-0.5 0.4-1 0.8-1.3 1.1-0.4 0.5-0.7 0.9-1 1.4 0.1 0.2 0.1 0.3 0.2 0.6 0.2-0.2 0.3-0.4 0.4-0.5q0.8-1 1.6-2 0.2-0.3 0.5-0.4c0.2-0.1 0.3-0.1 0.4 0.2-0.1 0.1-0.3 0.3-0.4 0.5q-1.1 1.4-2.1 2.9c-0.2 0.3-0.3 0.7-0.1 1.2zm63-65.3c2.1 0.1 4.1 0.2 6.1 0.2 0.1 0 0.3 0 0.4-0.1 0.5-0.3 1.1-0.3 1.6-0.3q1.2-0.1 2.3-0.1c0.2 0 0.3 0 0.5-0.1-0.2-0.1-0.2-0.2-0.3-0.2q-0.9 0-1.8 0-2.9 0-5.7 0.1c-0.8 0.1-1.6 0.1-2.5 0.2-0.1 0-0.3 0.2-0.6 0.3zm30.3 53.1c-0.4 0.5-0.3 1 0 1.5 0.3 0.2 0.7 0.2 0.9 0.7-0.1 0.1-0.2 0.3-0.3 0.4-0.1 0.8-0.1 1.4-0.2 2.1q-0.2 2.2-0.4 4.3c-0.1 0.5 0.1 0.9 0.1 1.3q0.6-4.7 1.1-9.4-0.2 0-0.3 0c-0.2-0.7 0.8-1 0.5-1.8q-0.6 0.6-1.2 1.1c-0.1-0.1-0.2-0.2-0.2-0.2zm-92.2 22.8c0.2 0 0.3 0.1 0.4 0.1 1.3-0.1 2.6-0.1 4-0.1q4.1 0 8.2-0.3c-1.1-0.1-2.3-0.2-3.5-0.2q-2.8-0.1-5.6 0c-0.6 0-1.3 0.1-2 0.1-0.3 0.1-0.7 0.3-1 0.1-0.1 0-0.3 0.1-0.5 0.3zm112.1-29.3c-1 0.1-1.7 0.6-2 1.5-0.2 0.8-0.4 1.7-0.4 2.5 0 1.9 0 3.9 0 5.9 0 0.1 0.1 0.2 0.2 0.3 0.1-0.2 0.1-0.4 0.2-0.6 0-1.6-0.1-3.1 0-4.6 0-1.1 0.1-2.1 0.4-3.1 0.2-0.6 0.6-1 1.2-1q0.2 0 0.4 0c0-0.3 0-0.6 0-0.9zm-8.2 17.1c-0.1-0.4-0.1-0.6-0.1-0.9q0.1-1 0.3-2 0.3-1.8 0.2-3.5c0-0.2-0.1-0.3-0.2-0.5-0.3 0.3-0.1 0.6-0.2 0.9 0 0.3 0 0.8-0.2 1-0.2 0.3-0.2 0.7-0.3 1q-0.1 0.6-0.2 1.2c-0.1 0.9-0.3 1.8-0.2 2.8q0.5 0 0.9 0zm-118.5 7.6c-0.4-1.2-0.5-1.7-0.2-1.9q0.2 0.1 0.4 0.2c0.2 1.3 0.3 1.6 0.9 1.5-0.1-0.5-0.2-0.9-0.3-1.3 0-0.3 0.1-0.5 0.4-0.5 0.5 0.4 0.1 1 0.7 1.4 0.3-0.7 0.1-1.4 0.1-2.2q-0.4 0.1-0.7 0.1-0.6 0.1-1.3 0.2-0.6 0.1-1.3 0.2c0.4 0.2 0.3 0.6 0.3 0.9 0.1 0.5 0.2 1.1 1 1.4zm21.5-11.7c-0.4 0.1-0.7 0.4-1 0.7q-0.6 0.8-1.2 1.6-1.3 1.7-2.6 3.5c-0.1 0.1-0.2 0.3-0.3 0.5 0.4 0 0.6 0 0.9 0 1-2.3 3-4.1 4.2-6.3zm109.6 7.1q0-0.1 0-0.1-1.4-0.1-2.8-0.2c-1-0.1-2-0.2-3 0q-1.2 0.1-2.4 0.1c-1.1 0.1-2.3 0.1-3.5 0.1q-0.3 0-0.6 0c1.5 0.2 2.9 0.2 4.4 0.2 0.4 0 0.9 0 1.3 0 1.5 0 3 0.1 4.5 0.1 0.7 0 1.4-0.1 2.1-0.2zm-121.8-19.4c1 0.1 1.9-0.1 2.3-0.3q1.7-1 3.5-2.1 0.7-0.4 1.5-0.9c0.1 0 0.1-0.1 0.3-0.3-0.3 0-0.4 0-0.6 0.1-2.3 1.1-4.6 2.2-7 3.5zm110.8 18c-0.5 0-0.9 0-1.3 0q-2.9 0.1-5.7 0.2c-0.2 0-0.4 0-0.5 0.1q-0.3 0-0.5 0.1c2.7 0.2 5.3 0.5 8 0.1 0-0.1 0-0.3 0-0.5zm-101.9-5.4c-0.8 0.9-1.7 1.8-2.4 2.8-0.7 1-1.3 2.1-1.9 3.2q-0.2 0.1-0.4 0.1 0 0.1 0 0.2c0.3 0 0.6 0 0.8-0.1 0.3-0.4 0.4-0.8 0.7-1.2q1.8-2.4 3.7-4.8 0.1-0.1 0.1-0.2c-0.2 0-0.3 0-0.6 0zm-18 6.9q1.4-2.6 3.5-4.6c0.1-0.1 0.1-0.2 0.2-0.4q-0.5 0-0.9 0c-1.1 1.7-2.7 3.1-3.6 5 0.3 0 0.5 0 0.8 0zm104.9 5c-0.4-0.7-0.6-1.3-0.7-2 0-0.7 0-1.4 0-2.1-0.5 0.2-0.9 0.5-1 0.9-0.2 0.8-0.2 1.6 0.1 2.4 0.2 0.2 0.4 0.5 0.6 0.7 0.3 0.2 0.6 0.4 1 0.1zm-3.1-7.9c-0.3 0-0.5 0-0.6 0-0.2 0.2-0.3 0.4-0.5 0.6-0.5 0.6-0.9 1.2-1.6 1.7-0.8 0.6-1.7 1-2.7 1.4-0.1 0-0.1 0.1-0.2 0.1q0 0.1 0.1 0.2 0.1 0.2 0.2 0.3c1.7-0.3 4.4-2.4 5.3-4.3zm-105.7-5.1c0.6-0.3 1-0.7 1.1-1.2q0.2-0.7 0.3-1.3 0.2-1.3 0.3-2.5c0-0.3 0.1-0.6-0.3-0.9-0.5 0.9-0.7 1.8-0.9 2.7q0.1 0.2 0.2 0.3-0.1 0.2-0.1 0.3 0.2 0.2 0.5 0.4c-0.2 0.3-0.8 0.2-0.9 0.6 0.2 0.2 0.4 0.4 0.6 0.6-0.3 0.1-0.5 0.2-0.8 0.3q0 0.2 0 0.3c0 0.1 0 0.2 0 0.4zm105.3 10.7q-0.1-0.4-0.1-0.8c-0.2-0.8 0.3-2 1.1-2.2 1-0.4 2.1-0.8 3.2-0.5 0.2 0 0.4-0.1 0.5-0.1-0.6-0.2-1.2-0.2-1.9-0.2-0.8 0.1-1.5 0.3-2.3 0.4-0.6 0.1-1.1 0.5-1.2 1.1q-0.1 0.5-0.3 1c-0.1 0.8 0.1 1.1 1 1.3zm-106.3-1.6c0.4 0.5 0.7 0.6 1 0.5q0.9 0 1.8-0.1c1-0.1 2-0.1 2.9-0.2 0.4 0 0.8-0.1 1.1-0.6-2.3-0.1-4.4 0.2-6.8 0.4zm23.9-2c-0.1-0.5 0.1-0.8 0.3-1.2q0.9-1.2 1.8-2.4 0-0.5 0.1-1.2c-1 0.9-3 3.8-3.3 4.8 0.3 0.1 0.7 0 1.1 0zm86.5 6.6c-0.3 0.1-0.6 0.3-0.8 0.3-1 0-2-0.2-3 0-2.3-0.3-4.6-0.1-6.9-0.2-0.2 0-0.4 0.1-0.6 0.1q0 0 0 0.1c3.7 0.2 7.4 0.3 11 0.4 0.3-0.2 0.5-0.4 0.3-0.7zm2.3-3.6c-0.5 0.4-1 0.1-1.4 0.4 0.4 0.2 0.9 0 1 0.6q-0.5 0.1-0.9 0.2c-0.1 0.5 0 0.9 0.3 1.2 0.5 0 1 0.2 1.4 0 0-1 0-2 0-3-0.4 0-0.7 0-1 0.1 0.2 0.2 0.3 0.3 0.6 0.5zm-100.9-21.3q0.7 0 1.3 0 0.1 0 0.2-0.1 0-0.2 0-0.6 3.9-1.9 7.8-3.9c-0.1-0.3-0.3-0.2-0.4-0.1-0.6 0.3-1.1 0.6-1.6 0.8-2.5 1.1-4.9 2.4-7.3 3.9zm8 18.4c0.5 0 0.5 0 0.7-0.2q1.3-1.9 2.6-3.7c0.6-0.8 1.2-1.5 1.8-2.3-0.2-0.1-0.3-0.1-0.4-0.1q-0.8 1-1.7 2-0.8 1-1.6 2.1c-0.5 0.7-1 1.3-1.4 2.2zm-20-0.2c1.2-1.2 2.4-2.3 3.4-3.7-0.3 0-0.6 0-0.7 0-1 0.9-1.9 1.7-2.8 2.5 0 0.4-0.1 0.7 0.1 1.2zm131.6-23.8c-0.7 1-1.4 1.9-2.1 2.8-0.7 0.8-1.5 1.6-2.3 2.5q0 0.1 0 0.6c0.6-0.6 1.1-1.1 1.6-1.6 1-1 2-1.9 2.6-3.3 0.1 0 0.2-0.1 0.2-0.2 0-0.2 0-0.4 0-0.8zm9 29.5c0.6 0 0.8-0.3 1-0.8q0.3-1.1 0.3-2.3c-0.5-0.4-0.5-0.4-1.1-0.3q0 0.8 0 1.6-0.1 0.9-0.2 1.8zm-14.2-28.2c1.7-2.1 3.7-3.9 5.2-6q0-0.4 0-1c-0.6 0.9-1.1 1.6-1.6 2.4q-0.9 1.1-1.9 2.2c-0.6 0.7-1.3 1.3-2 1.9 0.1 0.2 0.2 0.3 0.3 0.5zm-8.2 20.2q0.1-0.7 0.1-1.4c0.1-0.5 0.3-0.9 0.3-1.4q0.1-0.8 0.1-1.5c0.1-0.5 0.1-1 0.1-1.4 0-0.5 0.2-1 0-1.4-0.4 0.4-0.4 0.5-0.4 1.1q-0.2 1.6-0.3 3.1-0.2 1.4-0.3 2.8 0.2 0.1 0.4 0.1zm-6-31.7c-0.1 0-0.3 0-0.4 0.1-0.8 0.8-1.6 1.6-2.4 2.5-0.8 1-1.6 1.9-2.6 2.7 0 0.2 0 0.4 0 0.7 2-1.8 3.6-4 5.4-6zm-4.1 19.7c0.1 0.1 0.3 0.3 0.5 0.4q0.7-0.6 1.3-1.2 0-0.7 0-1.4c-0.2-0.1-0.4-0.3-0.6-0.4q-0.3 0.2-0.6 0.4c0.1 0.2 0.1 0.3 0.1 0.3-0.1 0.5-0.2 0.9-0.3 1.3q0 0 0.1 0c-0.2 0.2-0.3 0.4-0.5 0.6zm-0.7-23.2q1.1-1.2 2.1-2.2c0-0.7 0-1.4 0-2.1-0.7 0.7-1.3 1.3-1.9 1.9-0.2 0.2-0.4 0.4-0.2 0.7 0.6-0.4 1-1 1.5-1.5 0.3 0.1 0.4 0.2 0.3 0.4q-0.1 0.3-0.3 0.5-0.6 0.6-1.3 1.2c-0.2 0.3-0.5 0.5-0.2 1.1zm1 46.9q0-0.1 0-0.2-0.9-0.1-1.8-0.1-0.9 0-1.8 0-1-0.1-1.9 0c-0.6 0-1.2-0.2-2 0.1 0.6 0.3 1 0.5 1.4 0.7q0.5-0.4 1.1-0.5c0.4 0 0.9 0 1.4 0.1 1 0 1.9 0.1 2.9 0.1 0.2 0 0.5-0.1 0.7-0.2zm-76.9-11.4c0.4 0.4 0.9 0.4 1.5 0.4 0.9-0.2 1.5-0.8 1.9-1.6 0.2-0.6 0.1-1.2-0.4-1.5q-0.6-0.5-1.2-0.8c-0.6-0.3-1.3-0.3-1.9 0.1 0.6 0 1.5 0.1 1.9 0.2 0.7 0.3 1.2 0.9 1.1 1.5q0 1.1-1.1 1.5-0.8 0.4-1.8 0.2zm95.7 1.9c1.5 0.2 3-0.2 4.5-0.1 1.5 0.1 3 0.1 4.6 0.2q-0.4-0.5-1-0.5-2 0-4 0-1.3 0-2.5 0-0.8 0-1.6 0c0 0.2 0 0.3 0 0.4zm-26.6 1c0.2 0.2 0.3 0.2 0.4 0.3q0.6-0.2 1.3-0.4 2-0.8 3.1-2.6c0 0 0-0.1 0-0.2q-0.4 0-0.7 0c-0.8 1.3-2.8 2.8-4.1 2.9zm26.7-9.4c-0.1 0.1-0.1 0.2-0.1 0.3q-0.1 2.9-0.1 5.8c0 0.1 0.1 0.2 0.2 0.3 0.1-0.3 0.1-0.5 0.2-0.7 0-0.7 0-1.4 0.1-2 0.2-1.1 0.2-2.1 0-3.2 0-0.2 0-0.4-0.3-0.5zm-16 14.7c-0.1-0.6-0.2-1.1-0.4-1.6 0-0.4-0.1-0.8-0.2-1.1-0.2-0.4-0.2-0.8-0.1-1.2 0.1-0.2 0.3-0.4 0.1-0.7-0.5 0.3-0.7 0.6-0.7 1.1-0.1 1.2 0.1 2.3 0.6 3.3q0.4 0.1 0.7 0.2zm0.2-16.5c-0.1 0.3-0.2 0.6-0.2 1q-0.2 2-0.3 4.1-0.1 0.9-0.6 1.5c-0.3 0.3-0.3 0.7-0.4 1.2 0.3 0 0.6 0 0.9 0 0.2-2.6 0.7-5.2 0.6-7.8zm17.9 6.5c0.8 0.3 1.4 0.6 2.2 0.7 0-0.2 0-0.3 0-0.4-0.7-0.2-1.3-0.3-1.8-0.7-0.1-0.2-0.1-0.2-0.1-0.3q0-1.4 0-2.8c0-0.2 0-0.5-0.1-0.7 0-0.1-0.1-0.2-0.3-0.3-0.3 0.9-0.2 2 0.1 4.5zm-105.2-18.7q0 0 0-0.1-0.2 0.1-0.3 0.1c-0.5 0.1-0.9 0.6-1.3 0.8q-1.7 1-3.4 2c-0.5 0.3-1 0.6-1.5 0.9 1.2 0.1 1.2 0.1 2-0.6q0.5-0.4 1-0.7c0.8-0.6 1.7-1.1 2.5-1.6q0.5-0.4 1-0.8zm85.3-14.2c-0.5 1.2-1.5 2-2.4 3-0.1 0.2-0.2 0.5-0.1 0.9 0.3-0.3 0.6-0.5 0.8-0.8q0.8-0.9 1.7-1.9c0.5-0.6 0.5-1.1 0.2-1.9q-0.3 0.2-0.7 0.5c0.2 0.1 0.3 0.1 0.5 0.2zm24.7 28.2c-0.2 0-0.3 0-0.5 0q0 1.5 0 3c0 1.1 0 2.2-0.6 3.2 0 0 0.1 0.1 0.1 0.2q0.2 0 0.6 0c0.1-0.6 0.2-1.2 0.2-1.7 0.1-1 0-1.9 0.1-2.9 0-0.6 0-1.2 0.1-1.8zm-88.5 15.9q0.1-0.1 0.1-0.2-2-0.1-3.9-0.2c-0.5 0-1 0-1.5 0.2-0.3 0.2-0.8 0.2-1.1 0.1-0.5-0.2-0.9-0.1-1.5-0.1 0.1 0.2 0.1 0.3 0.2 0.5 0.6-0.1 1.2-0.2 1.8-0.2 1.4-0.1 2.8 0 4.1 0 0.6 0 1.2-0.1 1.8-0.1zm0.4 0.6q-0.2 0-0.5 0c-0.4 0-0.7 0.1-1.1 0.1-0.9 0-1.7 0-2.6 0-1.1 0-2.1 0.1-3.2 0.2-0.1 0-0.1 0.1-0.3 0.2q0.2 0.2 0.3 0.2c0.5-0.1 0.8-0.2 1.1-0.2 0.9 0 1.7 0 2.5 0q1.7 0 3.3-0.1c0.2 0 0.5-0.1 0.5-0.4zm-42.6-6.9c0.6-1.2 1.4-2.2 2.2-3.2q0.7-0.9 1.5-1.8c0 0-0.1 0-0.1-0.1q-0.1 0-0.3 0-1 1.2-2 2.5c-0.7 0.9-1.5 1.6-2.1 2.8 0.4-0.1 0.6-0.2 0.8-0.2zm126.9-27q-1.4 1.4-2.7 2.9-0.5 0.5-0.9 1c-0.2 0.2-0.2 0.5 0 0.7 1.5-1.3 2.6-2.9 3.6-4.6zm-102.2 23.9q0.1 0.1 0.1 0.1 0.1-0.1 0.3-0.1c0.3-0.2 0.5-0.5 0.8-0.6 0.1-0.1 0.3 0 0.5 0.1-0.3 0.3-0.5 0.5-0.7 0.7q-0.5 0.4-0.9 0.9c-0.2 0.2-0.3 0.3-0.1 0.6q0.2 0 0.4 0c0.4-0.8 0.9-1.4 1.7-1.8-0.2-0.5-0.4-1-0.6-1.6q-0.8 0.9-1.5 1.7zm-3-20.3c-1.7 1.1-3.3 2.1-5 3.2 0.7 0.1 1.1-0.1 1.5-0.4 0.9-0.6 1.8-1.2 2.7-1.8 0.2-0.1 0.4-0.2 0.6-0.3 0.1-0.2 0.1-0.4 0.2-0.7zm110.7-36.5c-0.7-0.2-1.2 0-1.6 0.5 0.5 0.3 1.1 0.6 1.7 1 0.2 0 0.4 0.1 0.7-0.1 0-0.6-0.4-1-0.8-1.4zm-65.8 51.6q0.1 0.1 0.1 0.2 0.5-0.2 1-0.4-0.1 0-0.1-0.1c0.6-0.7 1.3-1.3 2-2.1q-0.6 0-1.1 0-1 1.2-1.9 2.4zm50 8q-0.2 0-0.4 0c-1.4-0.1-2.8-0.3-4.3-0.3-0.9-0.1-1.9-0.1-2.8 0.2 0.9 0.3 5 0.4 7.5 0.1zm-91.4-6.7c-0.3 0.5-0.6 0.9-0.3 1.6 0.1-0.2 0.3-0.2 0.4-0.4 0.2-0.6 0.7-0.9 1.2-1.4 0.1-0.2 0.3-0.4 0.5-0.6-1.2 0-1.8 0.1-2.1 0.4q0.1 0.2 0.3 0.4zm98.6-10.8c0.8-0.7 1.5-1.3 2-2 0.2-0.3 0.4-0.4 0.6-0.6 0.3-0.2 0.5-0.4 0.7-0.6q0.5-0.5 0.9-1.1c0.1-0.1 0.1-0.1 0-0.4-1.2 1.3-2.5 2.6-3.8 3.9-0.2 0-0.3 0-0.6 0 0.1 0.3 0.2 0.5 0.2 0.8zm-80.2 23.1c-0.7-0.3-4.2-0.5-5.2-0.3-0.1 0-0.2 0.1-0.3 0.2 0.9 0.2 4.6 0.3 5.5 0.1zm-9.2-14.1c-0.2 0.3-0.4 0.6-0.6 0.8-0.3 0.4-0.7 0.7-1.1 1.1q-0.4 0.4-0.8 0.9c-0.1 0.1-0.1 0.3-0.1 0.3 0.7-0.5 1.3-1 1.8-1.5 0.6-0.6 1.2-1 1.8-1.6-0.5 0-0.7 0-1 0zm36.4 0.5c0.6-1.1 1.5-1.8 2.4-2.6q-0.6 0-0.8 0c-0.9 0.8-1.6 1.5-2.5 2.3 0.4 0.2 0.6 0.2 0.9 0.3zm35.3 8.1q0 0 0-0.1c-0.6 0.1-1.1 0.2-1.6 0.4-1 0.4-1.3 1.6-0.6 2.8 0.1-0.7 0.1-1.4 0.5-1.9 0.5-0.6 1.1-0.8 1.7-1.2zm22.5-52.4c-0.3 0.8-0.6 1.6-1 2.3-0.4 0.7-0.9 1.4-1.4 2.1 0.1 0.1 0.2 0.1 0.4 0.2 0.8-0.9 1-2.2 2-2.8 0-0.6 0-1.2 0-1.8zm-17.5 30.4q0 0-0.1 0-1.2 1.2-2.4 2.6c-0.2 0.2-0.4 0.4-0.7 0.4 0 0-0.1 0.1-0.1 0.2 0 0.2 0 0.4 0.1 0.7 0.9-1.3 1.9-2.1 3-3q0.1-0.4 0.2-0.9zm-98 19.9c0.3-0.1 0.6-0.1 0.9-0.2-0.1-0.2-0.1-0.3-0.2-0.4q-0.5 0.1-1 0.2c0.1 0.9 0.3 1.7 0.4 2.5 0.3 0 0.6 0 0.9 0q0-0.4 0-0.6c-0.2-0.3-0.8 0.1-0.7-0.6q0.3-0.1 0.7-0.3c-0.3-0.3-0.9 0.2-1-0.6zm92.9-46.8c-0.7 0.7-1.4 1.3-2 1.9q-0.4 0.4 0 0.8 1.1-0.9 2-1.8c0-0.3 0-0.6 0-0.9zm15.5 40.1c0.1 0.3 0.1 0.6 0.2 0.9 0 0.2 0 0.5 0 0.8-0.1 0.7-0.2 1.4-0.1 2.2 0.4-1.4 0.3-2.7 0.3-3.9 0-0.3 0-0.6 0-0.9-0.4 0-0.6 0-0.9 0q0 0.6 0 1.1c0.1-0.1 0.3-0.1 0.5-0.2zm6.8-1.6q-0.5-0.2-1-0.3c-0.1-1.1-0.1-1.1-0.5-1.7-0.2 0.5 0.1 0.9 0 1.3 0 0.4 0 0.8 0 1.3q0.7 0 1.5 0c0-0.2 0-0.3 0-0.6zm-7.4 7.1c0-0.8 0-1.6 0-2.3q0.1-1.1 0.2-2.2-0.1 0-0.1 0-0.4 2.4-0.7 4.8c0.5 0 0.8 0 1.2 0.1q0-0.2 0-0.3c-0.1 0-0.3 0-0.6-0.1zm-18.2-3.8c0.8-0.6 1.6-1.2 2.3-1.8 0.3-0.3 0.5-0.7 0.8-1.1 0.1 0 0-0.2 0-0.3-1.1 1-2.1 1.9-3.2 2.8 0.1 0.1 0.1 0.2 0.1 0.4zm2.1 12.4q0-0.1 0-0.2c-0.1 0-0.2 0-0.3-0.1q-0.8 0-1.5 0-1.6 0-3.1 0c-0.3 0-0.6 0.1-0.9 0.1q0 0.1 0.1 0.2 2.8 0 5.7 0zm-66.2-0.9q0 0 0 0.1 2.4 0.1 4.9 0.1c0.1 0 0.1 0 0.2-0.1-0.1-0.1-0.2-0.3-0.3-0.3-0.4 0-0.8 0.1-1.2 0.1q-0.7 0-1.3 0c-0.6 0-1.3-0.1-1.9-0.1-0.1 0-0.3 0.1-0.4 0.2zm-7.4-10.5c0.5-0.5 0.9-0.8 1.2-1.2q0.6-0.5 1.2-1-0.1-0.1-0.1-0.2-0.6 0.1-1.2 0.2c0.1 0.2 0.1 0.3 0.1 0.4-0.5 0.5-1.1 0.8-1.4 1.5 0 0.1 0.1 0.1 0.2 0.3zm-34.2 1.5c-0.2 0.7-0.5 1.2-0.4 1.9 0.6-0.6 1.3-1.1 1.7-1.9-0.5 0-0.9 0-1.3 0zm131.8 2.2q-0.9 0-1.7 0c-0.6 0-1.2 0-1.8 0-0.5 0-1.1-0.1-1.8 0.2 0.3 0.1 0.4 0.1 0.5 0.1 1.6 0 3.2 0.2 4.8-0.3zm-104.6-28.7c0.3-0.9 0.3-3.5 0-4.1 0 0.1-0.1 0.1-0.1 0.2-0.1 1.3-0.1 2.6 0.1 3.9zm80 29.6c0.4-0.4 0.7-0.8 1-1.2-0.4-0.2-0.7-0.2-1.1-0.1q-0.2 0.4-0.4 0.7c-0.1 0.3-0.4 0.5-0.4 0.8 0.3-0.1 0.6-0.1 0.9-0.2zm-76.9-5.4c0.7-0.1 1.3-0.3 2-0.4 0.2-0.1 0.5-0.3 0.7-0.6q0 0 0-0.1-1.1 0.1-2.1 0.2-0.3 0.4-0.6 0.9zm-0.2 5.6q0.4-0.4 0.9-0.8c-0.3-0.2-0.6-0.3-0.9-0.5-0.4 0.4-0.8 0.8-1.3 1.3 0.5 0 0.9 0 1.3 0zm78.8-38.4c-0.7 0.6-1.2 1.6-2.2 2 0 0.3 0 0.3 0.1 0.6q0.8-0.6 1.5-1.3c0.3-0.3 0.5-0.6 0.7-0.9 0.2-0.1 0.2-0.3-0.1-0.4zm19.1 32.2c-0.1 1.5-0.6 2.9-0.3 4.4 0.5-0.6 0.1-1.4 0.5-2.1q-0.1-1.1-0.2-2.3zm1.9-5.2c0.3-0.9 0.4-1.7 1.1-2.3-0.2-0.2-0.3-0.3-0.4-0.4q-0.4 0.1-0.8 0.2 0 0.9 0 1.8c0 0.2 0.1 0.3 0.1 0.7zm-26.4 16.9c0.8 0.2 3.4 0.3 3.7 0.1q-0.1-0.3-0.2-0.5c-0.4-0.3-0.6 0-0.8 0.2-0.9 0.1-1.8-0.1-2.7 0.2zm-72.3-9.9c-0.5 0.5-0.6 0.7-0.6 1.1 0 0.2 0 0.4 0.3 0.6q0-0.6 0.1-1.1 0.3-0.2 0.6-0.3 0.3 0.1 0.6 0.2 0.3 0.1 0.7 0.2c0.1 0.3 0.1 0.5 0.2 0.9 0.2-1.1-0.2-1.6-1.2-1.6-0.2 0-0.4 0-0.7 0zm96.5-55c1.1 0.4 2.1 0.7 3.1 1-0.7-1-1.9-1.4-3.1-1zm-54.4 50.2c-0.3 0.9-1.3 1.1-1.6 2q0.3 0 0.5 0.1c0.3-0.4 0.6-0.8 0.9-1.1 0.3-0.3 0.7-0.6 1-1-0.3 0-0.6 0-0.8 0zm57.6-29.7q0 0 0.1 0 0.1-1.3 0.1-2.6 0.1-1.2 0.1-2.6-0.2 0.1-0.3 0.1 0 2.6 0 5.1zm-11.6 40.9c0 1.2 0 2.4 0 3.5 0.2-1.1 0.6-2.3 0.6-3.5-0.2 0-0.3 0-0.6 0zm-111.9-3.4q-0.1 0-0.2-0.1c-0.6 0.9-1.3 1.7-1.8 2.8 0.2 0 0.4 0 0.5 0 0.1-0.8 0.6-1.3 1.3-1.6q0.1-0.6 0.2-1.1zm99.5-41.8c0.7-0.7 1.3-1.3 1.8-1.8 0.2-0.2 0.2-0.4 0.1-0.6-0.7 0.4-1.1 1.2-2 1.5 0.1 0.2 0.1 0.5 0.1 0.9zm2-0.8q-0.1 0-0.1-0.1-0.8 0.7-1.5 1.4-0.2 0-0.5 0c0 0.3 0 0.5 0 0.9 0.9-0.5 1.4-1.1 2-1.7 0.1-0.1 0.1-0.3 0.1-0.5zm-2 3.9c0.5-0.6 1-0.9 1.3-1.5 0.2-0.3 0.4-0.4 0.7-0.5 0-0.2-0.1-0.3-0.1-0.5-0.7 0.6-1.3 1.1-2 1.7 0 0 0 0.1 0 0.3 0 0.1 0 0.2 0.1 0.5zm-18.7 50.6c-0.8-0.3-4.2-0.4-5-0.3-0.1 0-0.1 0-0.4 0.2 0.3 0 0.5 0 0.6 0q1-0.1 2.1-0.1c0.2 0 0.5 0 0.7 0q1 0.1 2 0.2zm43.2-58.8c-0.4 0.9-0.8 1.6-1.3 2.5 0.6-0.1 0.9-0.4 1.1-0.7 0.5-0.5 0.3-1.1 0.2-1.8zm-57.8 45.6c-0.5 0.4-0.6 0.9-0.7 1.5q0.3 0.1 0.5 0.2c0.3-0.4 0.6-0.7 0.9-1.1-0.3-0.2-0.5-0.4-0.7-0.6zm34.4-6.5c-0.6 0.1-0.9 0.2-1.8 1.1-0.2 0.3-0.6 0.5-0.6 1 1-0.6 1.7-1.2 2.4-2.1zm19.9-3c0-0.4 0-0.7 0-1-0.5 0.2-0.8 0.6-1.1 0.9 0 0.3 0 0.5 0 0.8q0.6-0.4 1.1-0.7zm-13.6 5.3c0.2 1.7-0.4 3.4-0.3 5.1 0.3-0.6 0.5-3.4 0.3-5.1zm-95.9 2.1q0-0.1-0.1-0.2c-0.5 0.1-1-0.1-1.5 0.3 0.2 0.4 0.3 0.7 0.4 1.1 0.5-0.5 0.8-0.8 1.2-1.2zm112.8-2.5c-0.5 0.5-0.9 0.9-1.3 1.3q0 0.2 0 0.4c0.5-0.2 0.9-0.4 1.3-0.6 0-0.3 0-0.6 0-1.1zm-55.5 11.2c0.4 0 0.8 0 1.1 0 0.3-0.1 0.7 0.1 1-0.2-0.2-0.3-0.2-0.3-0.5-0.3-0.3 0.1-0.7 0.2-1.1-0.1q0-0.2-0.1-0.5-0.1 0-0.2 0c-0.1 0.3-0.1 0.6-0.2 1.1zm-43.6-29.5c0-1.5 0-2.9 0-4.2q0-2.8 0-5.5c0-2 0.4-3.9 1.1-5.9 0.4-0.1 0.9-0.4 1.3-0.5q2.9-0.7 5.7-1.3 0.8-0.2 1.6-0.3c1.3-0.1 2.5-0.1 3.8-0.2 1.3-0.1 2.6-0.2 3.9-0.3q0.7-0.1 1.5-0.2c1.2-0.1 2.5-0.1 3.8-0.3 1.2-0.2 2.1 0.3 2.6 1.3 0.6 1 0.9 2.1 0.9 3.3 0 2.1 0 4.1-0.1 6.2-0.1 1.3-0.5 2.6-0.7 4-0.1 0.5-0.5 0.8-1 0.9q-1.5 0.2-3.1 0.5c-0.8 0.1-1.6 0.3-2.4 0.4-1.7 0.2-3.4 0.4-5.1 0.5-2.4 0.1-4.8 0.6-7.3 1-0.6 0.1-1.2 0.1-1.9 0.2q-1.2 0.1-2.4 0.3-0.7 0.1-1.3 0.1c-0.3 0-0.6 0-0.9 0zm24.7-3.8c0.1-0.5 0.1-1 0.2-1.4 0.1-0.8 0.3-1.5 0.4-2.2 0.2-2.3 0.2-4.7 0.2-7.1 0-0.9-0.3-1.7-0.7-2.5-0.6-1-1.1-1.2-2.1-1-1.1 0.2-2.1 0.3-3.1 0.3q-1.6 0.1-3.2 0.2-2.9 0.2-5.8 0.4c-0.8 0.1-1.6 0.2-2.3 0.3q-2.9 0.6-5.6 1.3c-0.4 0.1-0.7 0.3-1 0.5-0.2 0.5-0.5 0.9-0.6 1.3-0.3 1.3-0.4 2.6-0.5 3.8 0 2.7 0 5.4 0.1 8.1 0 0.4 0.1 0.7 0.1 1.1 0.5 0 1 0 1.4-0.1q1.5-0.2 3-0.4 2.3-0.3 4.6-0.6c1-0.1 2-0.3 3-0.4 1.8-0.2 3.7-0.4 5.5-0.6 1.3-0.1 2.5-0.3 3.8-0.5 0.8-0.2 1.6-0.3 2.6-0.5zm24.6-6.2c0-2 0-3.7 0-5.4 0-1.2 0.3-2.3 0.7-3.4 0.3-1 1-1.9 2.2-2.1 0.2-0.1 0.5-0.1 0.8-0.1q2.2-0.3 4.4-0.7 1-0.1 2-0.2c2.3-0.3 4.6-0.4 6.9-0.3 0.3 0.1 0.7 0.2 1 0.2 0.6 0.1 1 0.5 1.1 1 0.2 1 0.3 2 0.2 3-0.1 1.5-0.1 2.9-0.2 4.3q-0.1 1.7-0.3 3.5c-0.1 0.5-0.3 0.9-0.8 1.1-0.5 0.2-0.9 0.4-1.4 0.5q-1.9 0.3-3.8 0.5c-2.7 0.3-5.4 0.6-8.1 1.4-1 0.3-2.1 0.3-3.1 0-0.7-0.2-1.2-0.6-1.4-1.4-0.1-0.7-0.2-1.4-0.2-1.9zm2.1-9.8c-0.6 0.8-1 1.7-1.2 2.7q-0.2 1.1-0.2 2.2-0.1 1.4 0 2.8 0 1.7 0.1 3.4c0.1 1 0.6 1.4 1.6 1.4 0.9 0.1 1.8 0.1 2.8-0.2q1.1-0.4 2.4-0.6c2.1-0.3 4.2-0.5 6.3-0.8q1.5-0.2 3-0.5c0.9-0.2 1.2-0.6 1.2-1.4q0.2-1.1 0.2-2.3 0.1-1.3 0.2-2.7c0.1-1.3 0.1-2.5 0.1-3.8 0-0.5-0.1-1.1-0.5-1.6-0.6-0.2-1.3-0.3-2-0.3-1.6-0.1-3.2 0-4.8 0.2q-1.4 0.1-2.9 0.3c-0.6 0-1.1 0.2-1.7 0.3-1.5 0.2-3 0.3-4.6 0.9zm-18.6 31.9c-0.6 0.9-1.3 1.3-2.4 1.3-1.4 0-2.9 0.1-4.3 0.1-1.4 0-2-0.5-2.1-1.8q-0.1-1.7-0.1-3.3-0.1-1.5-0.2-2.9c0-0.3 0-0.5-0.1-0.7q0.5-0.9 1.5-1 1.5-0.2 3-0.4 0.5-0.1 1-0.1c0.2 0 0.4 0 0.7 0 1.1-0.4 1.9 0.1 2.8 0.6 0.5 1.2 0.6 5.3 0.2 8.2zm-1.9-6.8q-0.3 0-0.5 0c-0.9 0.1-1.7 0.2-2.6 0.2q-1.2 0.1-2.4 0.4c-0.4 2 0.2 3.7 0.6 5.5 1.2 0.6 4.2 0.7 5.3 0.2 0.1-0.5-0.2-5.6-0.4-6.3zm-6.2 0.1c0.7-0.2 1.4-0.3 2-0.4 1.3-0.1 2.5-0.1 3.7-0.3q0.2 0 0.4 0c0.5 0 0.8 0.3 0.9 0.9 0 0.3 0 0.6 0 0.8 0 0.7 0 1.3 0.1 2q0.2 1.4 0.2 2.8 0 0.3 0.1 0.6c0.2-1 0.2-2 0.3-3q0.1-2-0.2-4c0-0.3-0.1-0.6-0.4-0.7-0.6-0.2-1.1-0.5-1.7-0.2-0.2 0-0.4 0-0.6 0-0.6 0-1.1 0.1-1.6 0.1-0.8 0.1-1.6 0.3-2.4 0.4-0.5 0-0.9 0.2-1.1 0.6-0.2 1.8 0.1 3.5 0.2 5.3q0 0.7 0.1 1.3c0.1 0.9 0.4 1.3 1.4 1.3q0.9 0 1.8-0.1 1.5 0 2.9-0.1-0.8-0.2-1.6-0.2c-1 0.1-2-0.1-3-0.3-0.5-0.1-0.9-0.4-0.9-0.9q-0.1-1-0.4-1.9c-0.4-1.3-0.2-2.6-0.2-4zm-28.8-22.2c-1.9 0.6-4 0.8-6 1-1.7 0.2-3.4 0.4-5.1 0.6q-1.4 0.2-2.8 0.3c-1.4 0.1-2.6-0.9-2.9-2.1q-0.2-0.9-0.1-1.9c0.1-0.9 0.2-1.8 0.7-2.6 0.4-0.8 1.1-1.4 2-1.6q1.6-0.4 3.2-0.7 2.3-0.6 4.7-1.2c1.4-0.4 2.8-0.7 4.3-0.9 0.2 0 0.4 0 0.6-0.1 0.7-0.1 1.3 0.1 1.8 0.6q0.5 0.7 0.7 1.5c0.2 1.5 0.1 3-0.1 4.5-0.2 0.9-0.3 1.8-1 2.6zm-15.3-4.9c-0.9 1-1.2 3.9-0.7 4.8 0.3 0.8 0.8 1.3 1.7 1.3 0.7 0 1.4 0 2.1-0.1 1.3-0.2 2.7-0.4 4-0.5 1.6-0.2 3.2-0.3 4.8-0.6 1-0.1 2-0.3 3-0.5 0.2-0.4 0.4-0.8 0.5-1.2 0.4-1.7 0.6-3.5 0.3-5.2-0.1-0.8-0.4-1.4-1.3-1.6-0.9 0.1-1.8 0.2-2.7 0.4-1.3 0.3-2.6 0.6-3.9 0.9-1.1 0.3-2.1 0.6-3.2 0.8-1.1 0.3-2.3 0.5-3.4 0.8-0.2 0.1-0.5 0.3-0.7 0.4q0 0 0 0 0 0 0 0c-0.2 0.1-0.4 0.2-0.5 0.3zm61.5 4c-0.3 0.2-0.5 0.4-0.7 0.5-1.1 0.4-2.1 0.7-3.3 0.8-0.3 0-0.7 0.1-1.1 0.1q-0.9 0.1-1.7 0.2-1.9 0.1-3.7 0.1-0.3 0.1-0.6 0c-1.1-0.1-1.7-0.8-1.4-1.9q0-0.3 0-0.6c-0.1-1.4-0.2-2.8-0.2-4.3 0.1-1.2 0.1-2.4 0.1-3.6q0-0.3 0-0.7c0.1-0.6 0.3-1.1 1-1.2 0.7-0.1 1.4-0.3 2.1-0.4 1.3-0.2 2.6-0.5 3.9-0.6 1.3-0.1 2.6-0.5 3.8-0.4 0.3 0 0.5 0 0.7 0.1 1.1 0.2 1.3 0.5 1.3 1.6-0.1 1.8-0.2 3.7-0.3 5.6 0 1.3 0.1 2.6 0.1 3.9q0 0.3 0 0.8zm-11.9 0.4c0 0.1 0.1 0.3 0.2 0.5 0.8 0.3 1.6 0.2 2.4 0.2 1.7-0.2 3.4-0.4 5.2-0.5 0.9 0 1.8-0.3 2.7-0.6 0.3-0.1 0.4-0.3 0.6-0.4 0-0.1 0.1-0.2 0.1-0.3q0-4.5 0.1-9.1 0-0.3 0.1-0.6c0-0.6-0.1-0.7-0.6-0.8-0.7-0.1-1.3-0.1-1.9 0q-3.2 0.4-6.3 0.8c-0.8 0.1-1.7 0.2-2.6 0.7 0 0.2-0.1 0.4-0.1 0.7q-0.1 2.8 0 5.5 0 1.1 0.1 2.2c0 0.5 0 1 0 1.7zm39.3 31.3c-0.5-1.5-0.2-2.9-0.2-4.2q0.1-0.1 0.2-0.1 0 0.3 0.1 0.5c0 0.2 0 0.5 0.1 0.6 0.4 0.9 0.1 1.9 0.1 2.8 0 0.1-0.1 0.2-0.3 0.4zm4.5-4.6c0.5 1.5 0.4 1.7-0.5 2.2q-0.2-0.1-0.4-0.2 0.4-0.4 0.7-0.8c-0.1-0.3-0.2-0.5-0.2-0.8 0-0.1 0.2-0.2 0.4-0.4zm-94.5 1.1c-1 0.8-2 1.6-2.5 2.8q0.2-0.2 0.5-0.4c0.4-0.4 0.8-0.9 1.3-1.3 0.3-0.3 0.4-0.3 0.8-0.1-0.4 0.7-1.2 1-1.6 1.9 0.6-0.2 0.9-1.1 1.7-0.6-1 1-2.1 1.9-2.9 3 0.6-0.4 1.2-0.8 1.7-1.3 0.5-0.4 0.7-0.4 1.4-0.2q-0.9 0.7-1.7 1.3c-0.5 0.4-1 1-1.6 1.3-0.2-0.3-0.4-0.6-0.6-1q0.1-0.3 0.3-0.8c-0.2 0-0.4 0-0.5 0q-0.9 0.1-1.8 0.3-0.4 0-0.8 0c-0.4 0-0.6-0.2-0.7-0.6-0.2-0.3 0-0.7 0.3-0.9 0.2-0.2 0.4-0.3 0.7-0.5 1-0.2 1.9 0 2.7 0.8 0.2-0.2 0.3-0.3 0.6-0.5q-0.2-0.1-0.3-0.2-0.1-0.1-0.2-0.3c0.4-1.2 1.3-1.9 2.3-2.6 0.2-0.2 0.5-0.4 0.9-0.1zm-4.1 3.9c-0.9-0.7-1.9-0.6-2.3 0.3 0.8 0.1 1.5-0.1 2.3-0.3zm16.5-4.4c0.2 0.6 0 0.9-0.5 1.1-1.1 0.4-2.3 0.5-3.4 0.1-0.3-0.1-0.6-0.3-0.7-0.7 0.8-1.1 3.4-1.4 4.6-0.5zm-0.8 0.2c-0.9-0.1-1.9-0.2-2.8 0.4 0.9 0.3 2.2 0.2 2.8-0.4zm-12-0.7c-1 1.1-2 2.1-3 3.2q-0.1-0.1-0.3-0.3c0.1-0.2 0.1-0.3 0.2-0.4 0.6-1 1.4-1.7 2.3-2.4 0.2-0.1 0.4-0.4 0.8-0.1zm108.1-33.3q0.2-0.2 0.4-0.4c1.6-1.4 3-2.9 4-4.7 0.3-0.6 0.5-1.2 0.7-1.8 0.1-0.3 0.2-0.6 0.4-0.9q0.3 0.1 0.4 0.2c-0.2 1.7-1 3-2 4.3-0.9 1.2-1.8 2.4-3 3.4-0.2 0.2-0.4 0.4-0.8 0.4q0-0.2-0.1-0.5zm10.9-6.1q0.2 0.2 0.2 0.3c-0.5 3-1.9 5.6-3.9 7.8-0.4-0.1-0.4-0.4-0.3-0.6q0.1-0.2 0.3-0.4c0.8-0.9 1.3-1.9 1.9-2.9 0.5-0.9 0.9-1.8 1.1-2.8 0.1-0.5 0.3-0.9 0.7-1.4zm2.3 10.5c1.4 0.3 2.7 0.6 4 0.9 0.3 0.8 0.4 3.7 0 4.7-0.6 0.2-1.2 0-1.8-0.2q-1-0.3-1.9-0.7c-0.2-0.1-0.4-0.3-0.5-0.4-0.2-0.6-0.3-1.1-0.1-1.7 0.2-0.6 0.2-1.3 0.2-1.9 0.1-0.2 0.1-0.4 0.1-0.7zm3.4 1.4q-0.1 0-0.2 0c-0.1 0.2-0.2 0.3-0.2 0.5-0.2 1 0.1 2 0.2 3 0 0.1 0.1 0.1 0.2 0.2 0.2-1.3 0.3-2.5 0-3.7zm-3.6 10.2c0.6-0.2 1.2-0.1 1.7 0.1q1.3 0.3 2.5 0.6c0.1 0 0.1 0.1 0.2 0.2-0.4 1.6-0.1 3.3-0.2 5.1-0.2 0-0.3 0.1-0.5 0.1q-1.5-0.4-3-0.9-0.6-0.1-0.6-0.7c0-0.8 0.1-1.6 0.1-2.4 0-0.5-0.1-1-0.1-1.5q-0.1-0.3-0.1-0.6zm3.5 1.3q-0.1 0-0.5-0.2c0 0.9 0 1.8 0 2.6q0 0.6 0.1 1.3c0 0.1 0.1 0.3 0.4 0.2 0-1.2 0-2.5 0-3.9zm-1.2 3.8c0-0.4 0.1-0.7 0.1-0.9q-0.1-0.8-0.1-1.6c0-0.5 0-1 0-1.5 0-0.1-0.1-0.1-0.2-0.3-0.1 0.2-0.1 0.2-0.1 0.3 0 0.9 0.1 1.8-0.1 2.7-0.1 0.3 0 0.7 0.1 1 0 0.1 0.1 0.1 0.3 0.3zm2.1-10.1c0.1 0.1 0.1 0.2 0.1 0.3-0.2 1.6 0.1 3.2-0.3 4.7-0.1 0-0.2 0.1-0.3 0.1q-1.8-0.5-3.7-1.1c-0.3-0.7-0.3-1.4-0.2-2.1 0.1-0.7 0.2-1.3 0-1.9-0.1-0.2 0-0.4 0-0.6 0.8-0.3 1.5 0 2.2 0.1 0.7 0 1.5 0.3 2.2 0.5zm-0.9 4.3c0.5-1.2 0.1-2.5 0.3-3.7-0.2-0.1-0.3-0.1-0.5-0.2 0 0.7-0.1 1.4-0.1 2.1 0 0.4 0.1 0.8 0 1.3 0 0.2-0.1 0.4 0.3 0.5zm-1.1-4.2c-0.1 0.1-0.2 0.2-0.2 0.3q0 1.7 0 3.3c0 0.1 0.1 0.1 0.3 0.3 0-1.2 0.1-2.2 0.1-3.2q0-0.2 0-0.4 0-0.1 0-0.1c0-0.1-0.1-0.1-0.2-0.2zm-2.1-12.6c0.2 0 0.3 0 0.4 0 1.4 0.2 2.8 0.5 4.3 0.7-0.2 1.7-0.3 3.4-0.4 5.1-0.3 0-0.6 0.1-0.8 0q-1.5-0.3-2.9-0.7-0.8-0.3-0.7-1.2c0-0.6 0.1-1.2 0.2-1.8 0-0.6 0-1.2-0.1-1.7q0-0.2 0-0.4zm3.3 1.2c-0.3 1.3-0.1 2.5-0.1 3.8 0.1 0.1 0.2 0.1 0.4 0.1 0.1-1.3 0.2-2.5 0.3-3.8-0.2-0.1-0.4-0.1-0.6-0.1zm-1 3.7c0.1-0.3 0.2-0.4 0.2-0.6q0-1.5 0-3.1c0 0-0.1-0.1-0.2-0.2-0.1 0.1-0.1 0.2-0.1 0.3q-0.2 1.5-0.3 3.1c0 0.1 0 0.2 0 0.2 0.1 0.1 0.2 0.2 0.4 0.3zm-1.8-10.2c1.5 0.3 2.8 0.5 4.2 0.7 0 1.6 0 3.1 0 4.6-0.2 0.1-0.4 0.1-0.6 0.1q-0.7-0.2-1.3-0.4c-0.9-0.3-1.7-0.6-2.6-0.9-0.3-0.3-0.3-0.9-0.2-1.4 0.1-0.7 0.2-1.5 0-2.3-0.1-0.1 0-0.1 0-0.2 0.2-0.1 0.4-0.2 0.5-0.2zm3.5 1.1c-0.3 0-0.5 0-0.8 0-0.1 1.2 0 2.3 0.2 3.4 0.2 0.1 0.4 0.2 0.6 0.3 0.2-1.3 0.2-2.4 0-3.7zm-1.9-0.3c0 0.3 0 0.5 0 0.7q0.1 0.9 0.1 1.8c0 0.2 0 0.4 0 0.6 0.1 0.1 0.2 0.2 0.3 0.3 0-1 0-2 0-3 0-0.1-0.2-0.2-0.4-0.4zm-0.6 1c-0.2-1-0.2-1-0.7-1q-0.1 1.1-0.1 2.2c0.3-0.4 0.5-0.8 0.8-1.2zm-1.6 31.9c0.9-0.1 2.9 0.3 3.9 0.8-0.3 1.4-0.1 2.8-0.3 4.3-1.2-0.1-2.3-0.4-3.4-0.5-0.3-0.7-0.4-1.4-0.4-2.1 0-0.4 0-0.8 0-1.2-0.1-0.6-0.1-0.6 0.2-1.3zm2.9 4.2q0.1-1.5 0.2-3c-0.2-0.1-0.3-0.2-0.4-0.2-0.1 0-0.1 0-0.2 0-0.2 0.5-0.2 2.6-0.1 3.1 0.1 0.2 0.2 0.3 0.5 0.1zm-1.3-3.3q0 0-0.1 0c0 0.5 0.1 1.1 0 1.6-0.1 0.5-0.4 0.9-0.7 1.5 0.3 0 0.5 0.1 0.8 0.2 0-1.2 0-2.3 0-3.3zm-1.8-5.5c1.6-0.2 2.9 0.4 4.2 0.6 0.3 0.3 0.2 0.5 0.2 0.7q-0.2 1.1-0.3 2.3c0 0.3-0.1 0.7-0.4 1-1.1-0.3-2.1-0.5-3.4-0.8-0.6-1.1-0.2-2.4-0.3-3.8zm3.4 3.8c0.1-0.9 0.1-1.7 0.2-2.6-0.2-0.1-0.4-0.2-0.7-0.3-0.1 1-0.2 1.9-0.1 2.8 0.2 0.1 0.4 0.1 0.6 0.1zm-1.8-0.2c0.3-0.2 0.4-0.3 0.4-0.5q0.1-1.1 0.2-2.2c-0.2 0-0.3-0.1-0.5-0.1 0 0.9-0.3 1.7-0.1 2.8zm-1.6 9.6c0-1.1 0-2.1 0-3 1.3-0.6 2.4 0 3.6 0 0.4 0.8 0.3 3-0.2 3.8-1.1-0.1-2.2-0.7-3.4-0.8zm2.9 0.1c0.4-0.8 0.2-1.6 0.2-2.4q-0.3 0-0.5 0c-0.1 0.8-0.2 1.7 0 2.1 0 0.1 0.1 0.1 0.3 0.3zm-2.8 4.2c-0.1-0.2-0.1-0.3-0.1-0.4q0-1.2 0-2.4c0.2-0.6 0.7-0.7 1.3-0.5 0.6 0.1 1.2 0.2 1.9 0.2 0.3 0.5 0 1.1 0 1.6 0 0.5-0.1 1-0.1 1.5-0.6 0.3-1.8 0.3-3 0zm-18-0.6q-0.2-0.2-0.4-0.4 0-0.1 0-0.1c0.4-1 0.5-1.9 0.6-2.9 0.2-1.2 0.2-2.3 0.4-3.5 0-0.5 0.2-1.1 0.6-1.5 0.1 0 0.2 0 0.2 0 1.1 0.2 2.2 0.1 3.3 0.1 0.3 0 0.7-0.1 1.1-0.1q0.7-0.1 1.5 0c0.7 0 1.3 0.1 2 0.1 0.5 0 1 0.1 1.4 0.4 0.3 0.8 0.3 1.6-0.3 2.2-0.1-0.5-0.2-1.1-0.3-1.7-0.3-0.3-0.7-0.3-1.1-0.2q-0.9 0.8-1.9 1.8-0.1-0.2-0.3-0.4c0.3-0.5 0.7-0.9 1.1-1.4-0.2-0.1-0.3-0.1-0.5-0.2-0.7 0.6-1.5 1.2-2.3 1.9-0.4 0.9-1.3 1.6-2.1 2.4-0.2-0.6 0.1-0.9 0.4-1.3q1.1-1.2 2.3-2.3c0.1-0.2 0.3-0.4 0.5-0.6-0.7-0.1-1.1 0.3-1.5 0.7-0.5 0.5-1.1 1-1.6 1.6-0.2-0.7-0.2-0.7 0.1-1.1 0.4-0.3 0.7-0.6 1.1-1.1-0.4 0-0.6 0-0.8-0.1-0.4 0.4-0.7 0.8-1 1.1-0.4 0.4-0.8 0.8-1.2 1.3-0.1 0.1-0.1 0.2-0.2 0.5 0.8-0.3 1.1-0.9 1.7-1.2 0 0.3 0 0.5 0 0.8-0.5 0.5-1.1 0.9-1.7 1.5-0.1 0.3-0.3 0.8-0.1 1.4 0.6-0.6 1.1-1.1 1.7-1.7 0.1 0.4 0.2 0.7-0.1 0.9q-0.5 0.5-0.9 1c-0.2 0.3-0.5 0.6-0.9 0.5-0.1 0.3-0.1 0.4-0.2 0.6 0.1 0 0.2 0.1 0.3 0q0.2-0.1 0.4-0.3 1.7-1.5 3.3-3c0.2-0.1 0.3-0.2 0.6-0.3-0.1 0.5-0.3 0.9-0.6 1.2q-1.1 0.9-2 1.8-0.2 0.2-0.4 0.3 0 0.1 0 0.1c0.3 0 0.5 0 0.7 0 1.1-0.8 2.1-1.7 3.1-2.5 0.4-0.1 0.7-0.2 1.2-0.4-0.8 1.1-1.8 1.8-2.7 2.7q0.5-0.1 1.1-0.2 0-0.1 0-0.1 1.2-1 2.4-2c0.8-0.1 1.1-0.5 1.2-1.3 0-0.2 0.4-0.5 0.6-0.8 0.3 0.4 0.6 0.4 1 0.2 0 1.6 0.5 3.1 0 4.6-3.7-0.3-7.2 0.5-10.8 1zm7.8-1.8c0.6-0.6 1.2-1.1 1.8-1.7 0.6-0.5 0.7-0.8 0.4-1.7-0.8 1.4-2 2.3-3.2 3.4 0.4 0 0.7 0 1 0zm2.1-7.1c-1-0.3-2-0.2-3.1-0.1-0.6 0-1.3 0-1.9-0.1-1-0.1-2 0.2-2.9 0.2-0.2 0-0.3 0.1-0.5 0.1-0.4 0-0.7-0.3-0.6-0.7 0.3-1.2 0.7-2.5 1.8-3.4 0.2-0.2 0.5-0.3 0.7-0.3 1-0.2 2-0.4 3-0.5 0.7 0 1.3 0.2 1.9 0.3 0.6 0.2 1 0.6 1.3 1.2 0.3 0.8 0.7 1.5 0.8 2.3 0.1 0.4 0.1 0.8-0.5 1zm-5.1-0.8c0.4-0.4 0.7-0.7 1-0.9q0.9-0.9 1.7-1.9c0.1-0.1 0.2-0.2 0.2-0.3q-0.4-0.3-0.7 0-0.3 0.2-0.5 0.4-0.8 0.9-1.6 1.8c-0.3 0.2-0.6 0.5-0.9 0.8 0.4 0 0.6 0.1 0.8 0.1zm3.7-2.9c-0.9 1-1.8 1.9-2.7 2.9q0.5 0 0.8 0c0.4-0.4 0.8-0.8 1.2-1.2 0.4-0.3 0.9-0.6 1.2-1.2q-0.3-0.2-0.5-0.5zm-3-0.3c-0.6 0.6-1.1 1.1-1.6 1.7-0.5 0.5-1.1 0.9-1.6 1.6 0.3 0 0.5 0 0.6-0.1 1-1.1 2.4-1.9 3.2-3.2q-0.3 0-0.6 0zm-1.1 0.3c-1.3 0-2.1 0.7-2.3 2.3 0.8-0.8 1.4-1.5 2.3-2.3zm-6-25.9c0.8 0.2 1.7 0.4 2.6 0.7q1.9 0.7 3.9 0.8c1.1 0 2.3 0.1 3.4 0.5 0.8 0.2 1.6 0.5 2.5 0.7 0.4 0.1 0.9 0.1 1.3 0.1 1.2 0 2.2 0.4 2.8 1.4 0.1 0.3 0.2 0.6 0.2 1 0.1 2 0.2 4 0.1 6 0 1.1 0.1 2.3-0.4 3.3q-0.2 0.3-0.3 0.7-0.3 0.4-0.9 0.5c-0.9 0.1-1.9 0.1-2.8-0.2-1.8-0.4-3.5-0.6-5.3-0.8-2.1-0.3-4.2-0.7-6.1-1.4q-0.8-0.3-1.5-0.5-1-0.4-1.2-1.4c-0.4-2.6-0.6-5.1-0.4-7.7 0-0.6 0.1-1.2 0.3-1.8 0.2-0.9 0.7-1.5 1.8-1.9zm3.8 5.7c0.3 0.4 0.3 0.5 0.2 0.7-0.3 0.3-0.6 0.6-0.8 1q-1.6 2.2-3.1 4.4c0 0.1 0 0.2-0.1 0.4q0.3 0.1 0.5 0.1c0.4-0.7 0.8-1.4 1.3-2q1.6-2.3 3.3-4.5c0.2-0.2 0.4-0.4 0.6-0.6q0.2 0.2 0.4 0.3c-0.4 0.5-0.7 0.9-1 1.4q-0.9 1.2-1.9 2.4c-0.7 1-1.4 2-1.9 3.1-0.1 0.1 0 0.1 0 0.3q0.2 0 0.4 0c0.4-0.5 0.7-1 1.1-1.4 1.4-1.9 2.9-3.6 4.1-5.6 0.1-0.1 0.2-0.1 0.3-0.2q0.2 0.2 0.4 0.4c-0.6 0.8-1.1 1.6-1.7 2.4-0.9 1.2-1.8 2.3-2.7 3.5-0.3 0.3-0.5 0.7-0.6 1.2q0.1 0.1 0.3 0.2 0.1-0.1 0.2-0.2 1.5-2.2 3.3-4.1c0.6-0.7 1.1-1.4 1.4-2.3q0.1-0.3 0.3-0.5c0.1-0.3 0.4-0.4 0.7-0.2-0.2 0.5-0.4 0.9-0.6 1.3q-0.5 0.9-1.1 1.7c-0.3 0.6-0.8 1-1.2 1.5-0.7 1-1.4 1.9-2.2 2.9 0.2 0.1 0.3 0.2 0.5 0.2q0.2-0.3 0.5-0.6c1.7-2 3.4-4 4.7-6.4 0.1-0.2 0.2-0.3 0.4-0.4 0.4 0.3 0.2 0.6 0 0.8-0.4 0.8-0.8 1.5-1.2 2.2-1 1.3-2.1 2.6-3.1 3.9-0.2 0.2-0.3 0.4-0.4 0.6q0.6 0.2 1.2 0.2c-0.1-0.1-0.2-0.2-0.4-0.4 0.5-0.6 0.9-1.1 1.3-1.5q1-1.2 2-2.4c0.6-0.8 1-1.7 1.4-2.7q0.2-0.3 0.3-0.6c0.2 0 0.4 0.1 0.5 0.2q0 0.2-0.1 0.5c-0.5 1.5-1.4 2.8-2.4 4q-1.1 1.3-2.1 2.6c-0.1 0.1-0.3 0.2-0.5 0.4q0.3 0 0.5 0c1-1.3 2-2.6 3-3.8 0.9-1.4 1.8-2.7 2.8-4.1q0.2 0.2 0.4 0.4c-0.1 0.2-0.2 0.4-0.3 0.6-0.9 1.4-1.8 2.8-2.9 4.1-0.7 0.9-1.3 1.8-1.9 2.7-0.1 0-0.1 0.1-0.1 0.2q0.4 0.1 0.7 0.1c0.8-0.9 1.6-1.9 2.4-2.8q1.5-1.6 2.2-3.6c0.1-0.5 0.4-1.1 0.6-1.6q0.5 0.1 0.4 0.6-0.1 0.4-0.3 0.8c-0.5 1.5-1.2 2.8-2.2 4-0.7 0.7-1.3 1.6-2 2.4 0 0.1 0 0.2-0.1 0.3q0.3 0.1 0.6 0.2c0.7-0.9 1.3-1.6 1.9-2.4 1.1-1.3 1.9-2.8 2.6-4.4 0.1-0.1 0.2-0.3 0.2-0.4q-0.1-1.6-0.3-3.1c0-0.2-0.1-0.4-0.2-0.7q-0.4 0-0.8 0c-0.4 0-0.8 0.1-1.1-0.1-0.8-0.3-1.7-0.4-2.5-0.7-1.1-0.4-2.3-0.4-3.4-0.5-1.5-0.1-2.9-0.4-4.3-0.9-0.8-0.2-1.5-0.3-2.2-0.5-0.8 0.3-1.1 0.9-1.2 1.6-0.3 1.3-0.4 2.6-0.3 3.9 0 0.2 0.1 0.3 0.2 0.5 0.2-0.4 0.4-0.7 0.7-1 0.1-0.2 0.3-0.2 0.4 0.1-0.3 0.8-1.1 1.4-1.2 2.6 0.8-1 1.1-2.1 2.2-2.7 0 0.2 0.1 0.3 0 0.4-0.1 0.3-0.3 0.5-0.4 0.8q-0.8 1.3-1.5 2.6c-0.1 0.2 0 0.3-0.1 0.5 0.6-0.7 1.1-1.5 1.6-2.2 0.6-0.7 1-1.5 1.8-2.1 0.1 0.1 0.2 0.2 0.3 0.4q-0.5 0.5-0.9 1.1c-1 1.2-1.7 2.5-2.4 3.9-0.1 0.2-0.2 0.4 0.1 0.7 0.7-1 1.4-2.1 2.1-3.1 0.8-1 1.5-2 2.4-3zm10.8 3.5c-0.1 0.3-0.2 0.4-0.3 0.5q-0.8 1.3-1.7 2.6c-0.5 0.7-1 1.3-1.5 1.9 0 0.1 0 0.2 0 0.3q0.3 0 0.5 0 0.2-0.4 0.5-0.7 1.1-1.5 2.3-2.9c0.4-0.5 0.5-1 0.2-1.7zm-1.8 5.7q1-1.2 1.8-2.1c0-0.5 0-0.7 0-1.1-1.3 1.5-2.2 2.8-2.1 3.1q0.1 0 0.3 0.1zm-53.8 34.3c0.7 0.2 1.2 0.5 1.3 1.2q0 0.7-1.1 1c-1-0.5-1.1-1.3-0.2-2.2zm-59.2 0c0.5 0.3 0.9 0.5 1.1 1q0.3 0.6-0.1 1.1c-0.4 0.3-1 0.5-1.4 0.3-0.4-0.2-0.7-0.5-0.6-1 0-0.6 0.3-1.1 1-1.4zm21.6-40.4c0.5-0.2 0.9-0.4 1.3-0.6q0.3-0.1 0.7-0.2c1.5-0.4 3-0.7 4.6-0.8 1.5-0.2 3-0.4 4.5-0.6q0.7-0.1 1.4-0.2 3.1-0.3 6.3-0.5 0.7 0 1.3 0c1.1 0.1 1.4 0.4 1.7 1.3 0.4 1.3 0.5 2.7 0.6 4q0.2 1.6 0.1 3.3c0 1.3-0.3 2.6-1 3.7-0.3 0.4-0.6 0.6-1.1 0.6q-1.2 0.1-2.3 0.2-1.7 0.1-3.3 0.2-1.4 0.1-2.7 0.2-0.2 0-0.4 0-2.3 0.3-4.5 0.7-0.9 0.1-1.7 0.3c-1.2 0.3-2.5 0.3-3.7 0.3-0.4 0-0.7 0-1.1 0-0.7 0-1-0.3-1.1-1q-0.1-0.9-0.1-1.9c-0.1-1.2-0.2-2.4-0.1-3.7 0-1.3 0-2.7 0.2-4.1 0.1-0.4 0.3-0.8 0.4-1.2zm13.5 9.8c0.5 0 0.5 0 0.8-0.5 1-1.9 2.1-3.9 2.9-5.9 0.2-0.5 0.5-0.8 0.8-1.2 0.3-0.3 0.4-0.2 0.8 0.1-0.6 0.3-0.8 0.9-1.1 1.5q-1.2 2.5-2.5 5.1c-0.1 0.2-0.3 0.4-0.3 0.8q0.6 0 1.1 0c0.7-1.1 1.3-2.3 1.6-3.5 0.2-0.7 0.4-1.4 0.7-2.1 0.1-0.5 0.4-0.9 0.7-1.4 0.1-0.2 0.4-0.3 0.6 0 0 0.1 0 0.2-0.1 0.2-0.4 0.5-0.6 1.2-0.8 1.8q-0.4 1.5-0.9 2.9c-0.2 0.6-0.5 1.1-0.8 1.7 0 0.1 0 0.1 0 0.2q0.4 0 0.7 0c0.7-1.6 1.4-3.1 1.7-4.8q0.1-0.8 0.4-1.5c0.2-0.3 0.3-0.5 0.6-0.7 0.1-0.2 0.4-0.2 0.6 0-0.6 0.7-0.8 1.4-1 2.2q-0.5 1.7-1 3.5c-0.1 0.4-0.3 0.7-0.4 1.2q0.5 0 0.9 0c0.1-0.4 0.1-0.8 0.2-1.2 0.6-1.3 0.9-2.6 1.1-3.9 0.1-0.5 0.3-1 0.4-1.5 0.2-0.1 0.4-0.2 0.6-0.3-0.3-1.5-0.2-3.1-0.9-4.6-0.3 0-0.7-0.1-1-0.1q-0.8 0-1.7 0-1.6 0.1-3.1 0.2c-0.8 0.1-1.6 0.1-2.4 0.2-1.3 0.2-2.6 0.4-3.9 0.6-1.2 0.1-2.5 0.3-3.7 0.4-1 0-1.9 0.3-2.8 0.6-0.6 1.3-0.8 2.3-0.6 4.3q0.2 0.2 0.4 0.3c-0.2 0.6-0.6 1.1-0.3 1.8q0.2-0.3 0.3-0.5 0.4-0.8 0.9-1.6c0.1-0.2 0.3-0.4 0.7-0.2-0.1 0.1-0.1 0.2-0.1 0.3-0.7 0.9-1.1 2-1.6 3.1-0.1 0.3-0.1 0.3 0.1 0.8 0.4-0.9 0.8-1.7 1.3-2.5 0.2-0.5 0.5-0.9 0.8-1.3 0.1-0.1 0.2 0 0.4 0-0.3 0.7-0.6 1.3-1 1.9q-0.7 1.4-1.5 2.9c0 0.1 0 0.2 0 0.4 0.2-0.3 0.4-0.6 0.6-0.8q1-1.8 2.1-3.5 0.3-0.5 0.7-1c0.2-0.2 0.5-0.4 0.9-0.1-1 1-1.7 2.2-2.4 3.4-0.7 1.2-1.4 2.3-1.8 3.7q0.3 0.1 0.5 0.1c0.2-0.5 0.3-0.8 0.6-1.1q1.6-2.6 3.2-5.2 0.3-0.4 0.6-0.8c0.1-0.3 0.3-0.4 0.6-0.1-0.4 0.8-0.9 1.5-1.4 2.3q-0.8 1.2-1.5 2.4c-0.4 0.7-0.9 1.5-1.2 2.3 0.2 0 0.3 0 0.4-0.1q0.9-1.4 1.7-2.7c0.9-1.5 1.9-2.8 2.5-4.4 0.1-0.2 0.3-0.3 0.4-0.5 0.3-0.1 0.5-0.1 0.6 0.1-0.3 0.5-0.6 1-0.8 1.4-0.2 0.4-0.3 0.7-0.5 1.1q-1.2 1.8-2.4 3.7c-0.2 0.4-0.4 0.8-0.7 1.2q0.5 0 0.7 0c0.6-0.9 1.2-1.9 1.8-2.8 0.8-1.4 1.8-2.7 2.5-4.2 0.1-0.2 0.3-0.4 0.5-0.6 0.2 0.1 0.2 0.1 0.4 0.2-1.1 2.6-3 4.6-4.2 7.2 0.4-0.1 0.7-0.1 1-0.2 0.6-1.1 1.2-2.2 1.9-3.2 0.5-0.9 1.1-1.9 1.5-2.9 0.1-0.3 0.2-0.6 0.4-0.8 0.2-0.2 0.5-0.2 0.7 0-0.6 1.2-1.1 2.3-1.7 3.4-0.6 1.1-1.4 2.1-1.9 3.2 0.5 0.3 0.6 0.1 0.8-0.2q1.6-3 3.2-5.9c0.1-0.2 0.3-0.5 0.5-0.7 0.1-0.2 0.3-0.3 0.5 0-1 2.3-2.3 4.5-3.6 6.8 0.4 0 0.6-0.1 0.8-0.1 1.3-2.1 2.7-4.1 3.6-6.4q0.1-0.3 0.3-0.5c0.2-0.2 0.4-0.3 0.6 0-0.8 2.4-2.3 4.4-3.5 6.7 0.4 0 0.8 0 1.1 0q0.1-0.3 0.2-0.5 1.5-3.2 3.1-6.3c0.1-0.3 0.4-0.5 0.6-0.7 0.1-0.2 0.3-0.2 0.4 0q-0.9 1.8-1.8 3.6c-0.6 1.2-1.2 2.5-1.7 3.8zm8.3-6.2q-0.1 0-0.2 0 0 0.3-0.1 0.6c-0.2 1-0.4 2-0.7 2.9-0.2 0.7-0.4 1.3-0.6 1.9 0 0.1 0 0.2 0.1 0.3q0.2-0.1 0.5-0.2c-0.1-0.2-0.1-0.4-0.1-0.6 0.2-1.2 0.7-2.2 1.1-3.3q0-0.8 0-1.6zm29.2-9c0.9 0 2 0.1 3 0q1.4 0 2.7-0.3c1.3-0.2 2.5-0.6 3.8-0.8 0.8-0.1 1.6-0.1 2.4-0.1 0.7 0.1 1.3 0.4 1.4 1.2 0.1 0.6 0.2 1.3 0.2 2 0.1 1.2 0.1 2.5 0 3.8 0 1.1 0 2.2-0.6 3.2q-0.1 0.2-0.2 0.3c-0.6 0.3-1.1 0.3-1.7 0.3q-1.8 0.2-3.6 0.4-0.6 0-1.1 0-3.1 0.2-6.2 0.4-0.2 0-0.4 0c-1.2 0-1.6-0.5-1.7-1.5-0.1-1.5-0.3-2.9-0.3-4.4 0-1.1 0.3-2 0.7-3 0.3-0.6 0.8-1.1 1.6-1.5zm4.9 9.3c0.5 0 0.7 0 0.9 0 0.2-0.6 0.5-1.1 0.7-1.7q0.4-1 0.9-2c0.1-0.4 0.2-0.8 0.4-1.2 0.2-0.3 0.4-0.7 0.8-0.9q0.1 0.1 0.2 0.2c-0.2 0.5-0.5 1-0.7 1.5-0.3 1.1-0.7 2.2-1.3 3.2-0.1 0.3-0.2 0.6-0.2 1q0.6-0.1 1.1-0.2c-0.1-0.8-0.1-1 0.3-1.7q0.9-1.6 1.5-3.4 0.1-0.3 0.3-0.6c0-0.2 0.1-0.3 0.3-0.5 0.1 0.2 0.2 0.3 0.3 0.3-0.1 0.3-0.2 0.5-0.3 0.7-0.4 1.3-0.8 2.5-1.5 3.7-0.2 0.4-0.2 0.8-0.3 1.2 0 0.1 0 0.2 0.1 0.3q0.2-0.1 0.5-0.1 0.1-0.4 0.2-0.8 0.8-2.1 1.6-4.3c0.2-0.3 0.4-0.6 0.6-0.9 0.1-0.2 0.3-0.2 0.5 0-1.2 2.5-2 5.1-2.1 5.9 0.2 0 0.3 0 0.6 0q0.4-1.4 0.9-2.8c0.2-0.7 0.3-1.4 0.6-2q0.1-0.4 0.4-0.8c0-0.1 0.2-0.1 0.3-0.1 0.1 0.1 0.1 0.2 0.1 0.2q-0.8 2.6-1.6 5.1c0 0.1 0 0.2 0 0.3q0.3 0 0.5 0 0.4-1.3 0.9-2.6 0.2-0.5 0.4-1.1c0.1-1.8 0.2-3.7-0.3-5.5-0.7-0.3-1.1-0.4-1.8-0.3-1.5 0.3-3 0.7-4.6 0.9-1.1 0.2-2.2 0.3-3.3 0.4-0.6 0-1.2 0-1.9 0-0.2 0.5-0.4 0.9-0.5 1.3-0.3 1-0.2 2-0.2 3 0 0.6 0 1.2 0.3 1.8 0.2-0.3 0.3-0.6 0.5-0.9 0.1-0.2 0.1-0.4 0.3-0.6 0.1-0.2 0.3-0.2 0.5 0.1q-0.5 1.1-1.1 2.3c-0.1 0.2-0.2 0.4 0 0.7 0.5-0.9 1-1.8 1.4-2.6q0.3-0.6 0.7-1.1c0.1-0.1 0.3-0.1 0.4 0.1q-1.2 2.4-2.3 4.8c0.1 0 0.1 0.1 0.2 0.1 0.1 0 0.1-0.1 0.1-0.1 1-1.8 1.6-3.7 2.9-5.4 0.1 0.1 0.2 0.2 0.3 0.2-1.5 2.9-2.4 5-2.2 5.2q0.2 0 0.5 0 1.1-2.5 2.2-5 0.2-0.5 0.5-1c0.1-0.2 0.3-0.3 0.6-0.1q-0.3 0.8-0.7 1.6-0.5 1.2-1 2.5-0.4 0.8-0.8 1.7c0 0.1 0.1 0.1 0.1 0.2q0.3 0 0.6 0 0.9-2 1.7-4c0.2-0.4 0.3-0.9 0.5-1.3 0.2-0.3 0.5-0.6 0.7-0.8 0.1-0.1 0.3 0 0.5 0-1.2 1.9-1.7 3.9-2.7 5.9zm-28.1 18.6c-0.2-0.2-0.5-0.3-0.7-0.5-0.2-0.2-0.3-0.4-0.1-0.7 0.2-0.3 0.4-0.6 0.7-0.5q0.2 0 0.4 0c0.3 0.1 0.6 0.3 0.7 0.7 0.1 0.3-0.1 0.6-0.5 0.8-0.1 0.1-0.3 0.1-0.5 0.2zm-47.8-30.3q2-0.5 4-0.9c1.1-0.3 2.3-0.7 3.4-0.9 1.2-0.2 2.3-0.7 3.6-0.7 0.1 0 0.3 0 0.5-0.1 0.5-0.1 1.1-0.1 1.5 0.2 0.7 1 0.6 2.1 0.5 3.2 0 0.8-0.2 1.6-0.4 2.3-0.2 0.9-0.5 1.1-1.3 1.1-1.4 0.1-2.8 0.2-4.1 0.4q-2.9 0.3-5.8 0.8c-0.5 0.1-1.1 0.3-1.6 0.5-0.9 0.2-1.2 0-1.6-0.7-0.9-1.8-0.9-3.5 0.3-5.1 0.3 0 0.7-0.1 1-0.1zm12.3 0.7c-0.5 0.9-1.2 1.8-1.7 2.9 0.4 0 0.6 0 0.8 0 0.2-1.1 0.7-2 1.4-2.7 0.2-1.5 0.2-2-0.3-2.9-0.9 0.1-2 0.1-2.9 0.3-1.1 0.3-2.1 0.6-3.2 0.8q-2.9 0.7-5.7 1.4c-0.5 0.7-0.7 1.5-0.4 1.7q0.3-0.1 0.6-0.1c0.1 0.6-0.9 0.8-0.5 1.6 0.2-0.3 0.3-0.5 0.5-0.8q0.5-0.6 1.1-1.1c0.2-0.1 0.4-0.2 0.6 0q0 0.1 0 0.2c0.3-0.1 0.5-0.6 1-0.4-0.1 0.2-0.1 0.3-0.1 0.5 0.4-0.3 0.5-0.9 1.1-1 0.1 0.2 0.1 0.3 0.1 0.4-0.1 0.2-0.2 0.3-0.3 0.5-0.6 0.8-1.1 1.6-1.8 2.5q0.4 0 0.6 0c0.5-0.8 1-1.6 1.5-2.4 0.2-0.3 0.5-0.6 0.8-1 0.1-0.1 0.3-0.2 0.5 0.1q-0.2 0.3-0.4 0.6-0.7 1.2-1.4 2.4c-0.1 0 0 0.1 0 0.2q0.3 0 0.5-0.1c0.5-1.1 1.1-2.1 1.7-3 0.2-0.4 0.4-0.6 0.9-0.5-0.3 0.6-0.6 1.1-0.9 1.6q-0.4 0.8-0.8 1.6c0.3 0.2 0.4 0 0.5-0.2q0.8-1.3 1.6-2.5c0.1-0.3 0.3-0.5 0.7-0.3 0 0.2-0.1 0.4-0.1 0.7 0.5-0.4 0.6-1.1 1.5-1-0.7 1.1-1.4 2-1.9 3.2 0.2 0 0.3 0 0.3 0q0.2 0 0.2-0.1c0.5-1.1 1.7-2.8 2.3-3.2q0.1 0.1 0.3 0.2c-0.6 1-1.2 1.9-1.9 2.9 0.3 0 0.5 0 0.7 0q0.7-1.2 1.4-2.4 0.2-0.4 0.5-0.7c0.2-0.2 0.4-0.2 0.6 0.1zm36.8-5.9c0.6 0 1.1-0.1 1.7-0.1q2.1 0 4.1-0.6c0.7-0.2 1.5-0.3 2.2-0.3q0.3 0 0.6 0.1c0.6 0.1 0.9 0.4 0.9 1.1 0 0.5 0 1.1 0 1.6 0 1.1 0 2.2 0 3.3 0 0.9-0.1 1.7-0.2 2.6 0 0.2-0.1 0.4-0.2 0.6q-0.2 0.5-0.7 0.5c-0.5 0.1-0.9 0.1-1.4 0.1-1.4 0.1-2.8 0.2-4.2 0.5-0.5 0.1-1 0.1-1.5 0.2-0.9 0.1-1.2-0.2-1.3-1.1-0.1-0.9-0.2-1.8-0.3-2.8-0.1-0.3-0.1-0.6-0.1-0.9 0-1.1-0.2-2.2 0-3.3 0-0.5 0.2-1 0.4-1.5zm3 3.1q0.1 0.1 0.1 0.1c0 0.8-0.6 1.4-0.8 2.4 0.5-0.9 1-1.6 1.4-2.4 0.1-0.1 0.2-0.3 0.4-0.5 0.1-0.1 0.3-0.2 0.4 0.1q-0.3 0.7-0.7 1.4-0.8 1.3-1.5 2.7c-0.2 0.3-0.3 0.6 0 1q0.2-0.2 0.2-0.3 1-2 2-4 0.3-0.5 0.6-0.9c0.2-0.1 0.4-0.1 0.5 0.1-1 1.9-1.9 3.9-2.9 5.9q0.7-0.1 1-0.2c0.1-0.5 0.2-1 0.4-1.4q0.8-2 1.7-3.9c0.1-0.3 0.4-0.5 0.6-0.7 0.1-0.2 0.4-0.2 0.5 0-0.3 0.6-0.7 1.1-0.9 1.7q-0.7 1.5-1.3 3-0.2 0.5-0.3 1c-0.1 0 0 0.1 0 0.2q0.4-0.1 0.7-0.1 0-0.2 0-0.2c0.7-1.6 1.4-3.2 1.8-4.8 0.1-0.5 0.4-0.8 0.9-1 0.1 0 0.2 0.1 0.4 0.1-0.6 0.6-0.8 1.3-1 2q-0.4 1.1-0.8 2.2c-0.1 0.5-0.4 0.9-0.5 1.4-0.1 0 0 0.1 0 0.3q0.3-0.1 0.6-0.1 0.1-0.4 0.2-0.7 0.7-1.9 1.4-3.8c0.1-0.3 0.3-0.6 0.6-1 0.2-0.8 0.2-2.2 0-2.9q-1.3-0.3-2.6 0.1-1.7 0.5-3.5 0.6c-0.2 0-0.4 0.1-0.6 0.1 0 0.3 0.1 0.5 0 0.7-0.3 0.4-0.1 0.9-0.1 1.4-0.1 0.2 0 0.5 0 0.8 0.1 0.3 0 0.6 0.1 0.9 0.4-0.4 0.4-1.1 1-1.3zm4.9 5c0-0.3 0-0.5 0-0.8 0.2-0.3 0.3-0.6 0.5-0.9 0.5-0.7 0.5-1.5 0.2-2.4-0.3 1.5-1.1 2.7-1.4 4.1q0.4 0 0.7 0z"/></svg>