<svg version="1.2" xmlns="http://www.w3.org/2000/svg" viewBox="0 0 169 100" width="169" height="100"><style>.a{fill:#ffd600}</style><path class="a" d="m101.5 57c11.9 0 21.5 9.6 21.5 21.5 0 11.9-9.6 21.5-21.5 21.5-11.9 0-21.5-9.6-21.5-21.5 0-11.9 9.6-21.5 21.5-21.5z"/><path class="a" d="m155 47c7.7 0 14 8.3 14 18.5 0 10.2-6.3 18.5-14 18.5-7.7 0-14-8.3-14-18.5 0-10.2 6.3-18.5 14-18.5z"/><path fill-rule="evenodd" d="m82.2 75.4c-1.4-0.3-2.7-0.5-4-0.8 0 1.2 0 2.4 0 3.5 0.3 5.3-2.1 9.3-6.1 12.6-2.2 1.8-4.9 2.5-7.8 2.2-2.9-0.4-5.8-0.3-8.7 0.4-1.7 0.4-3.4 0.4-5.1 0.4-2.8-0.1-5.5-0.3-8.4-0.5q0-0.6-0.1-1.3c-2.4-0.3-5 0.8-7.7-0.5 0.5-0.7 0.9-1.3 1.3-2-1.4 0.1-2.7 0.1-4 0.2-0.7 0.1-1.4 0.2-2.2 0.2-1 0-1.9-0.2-1.5-1.6-1 0.1-1.8 0.1-2.6 0.2-0.5 0-0.9 0.1-1.4 0.1-1.6-0.2-2-0.9-1.4-2.4-1.1 0.1-2.2 0.3-3.3 0.4-1.1 0.1-2.2 0.2-3.2-0.7q0.1-0.6 0.3-1.3c-2.1-0.2-4.1 0.9-6.3 0.1q-0.1-0.7-0.1-1.4c-2-0.5-4.3 1.4-6.2-0.7-1.2 0.2-2.7 1-3.7-0.9 1.9-1.5 3.9-2.6 5.9-2.9 0.9-1.3 1.6-2.4 2.4-3.5 2.8-3.6 5.8-7.1 8.4-10.8 0.9-1.2 1.4-2.7 1.7-4.2 0.5-2.7 0.7-5.5 1-8.2 0.1-0.4 0.1-0.7 0.2-1.3q10.4 0 20.7 0c1.8-2.9 4.7-3 7.4-3 2.5 0 4.9 0.2 7.4 0.3 0.8-0.9 0.9-2 0.8-3.1 0-4-0.2-8.1-0.3-12.1 0-0.8-0.1-1.7 0-2.5 0.3-2 1.5-3 3.5-2.9 1.4 0.1 2.3 0.5 3.9 1.9q1.6 0 3.3 0c1.1 0 2-0.1 3-0.6 1.1-0.5 2.4-0.5 3.6-0.5q6.3 0.2 12.5 0.6c1.3 0.1 2.5 0.5 3.7 0.8 0.2 0 0.3 0.1 0.5 0.1 2.1-0.3 3.7 0.9 5.3 1.9q0.3-2.3 0.5-4.5c0.4-3.9 0.8-7.8 1.2-11.3-0.8-2.1-1.5-3.8-2.3-5.7-0.2 1.3-0.4 2.4-0.7 3.5-0.4 1.6-2.3 2.5-3.7 1.7-0.5-0.2-0.9-0.9-0.8-1.4 0.3-2.4 0.1-5 2.1-7.1 0.8-0.9 1.5-1.1 2.5-0.9 0.8 0.1 1.6 0.4 2.3 0.6 0.3-1.5 0.6-2.8 1-4.4 0.7-0.1 1.4-0.3 2.1-0.3q3.9 0 7.7 0.1c3.5 0.2 7 0.3 10.3-0.9 4.6-1.5 9.1-1.2 13.6 0.2 2.3 0.7 4.6 1.2 7 1.8 0.5 0.1 1 0.2 1.5 0.4q2.3 1.1 1.6 3.5c-0.1 0.4-0.2 0.7-0.4 1.1 1.7 0.7 1.9 2.1 1.9 3.6q0.2 9.5 0.4 19c0 0.4 0 0.8 0 1.3 2.1 0.7 4.1 1.4 6.2 2 2.3 0.6 3.4 1.9 3.4 4.3q0 1 0 2c0.8 0.5 1.6 0.8 2.3 1.3 0.4 0.4 0.9 1 0.8 1.4-0.1 0.4-0.7 0.8-1.2 1.1-0.6 0.3-1.2 0.5-1.9 0.7 0 2.1 0 4 0 5.8 1.4 1.1 2.7 2.1 4.4 3.4 0.9 0.1 2.3 0.4 3.7 0.6 2 0.4 2.9 1.5 2.5 3.5-0.5 2.2-1.4 4.2-3.5 5.5-0.1 1.9-0.2 3.9-0.3 5.8-0.3 3.9-1.4 7.6-2.8 11.2-1.2 3-3.4 4.4-6.6 4.6-1.9 0.1-3.8 0-5.7 0-2.5 0-4.3-1.1-5.7-3.1-1.6-2.2-2.7-4.7-2.7-7.2-0.7-0.7-1.1-1.2-1.8-1.9-0.5 0.1-1.3 0.1-2.1 0.3-3.2 0.7-6.4 1.5-9.8 1-0.2 0-0.4 0-0.7 0.1-0.3 1.5-0.5 3.1-1 4.6-0.8 2.3-1.6 4.6-2.7 6.6-2.5 4.7-6.4 7.5-11.8 8.3-4.8 0.6-9.4-0.1-13.8-2.2-5.1-2.5-7.6-7-8.9-12.3-0.3-1.3-0.5-2.6-0.8-3.9zm56.9 4.8q0 0 0 0 0 0-0.1-0.1 0 0.1 0 0.1 0.1 0 0.1 0zm-1.3-0.8c0.5 0.3 0.9 0.5 1.2 0.7 0.1-0.6-0.1-0.9-1.2-0.7zm2.6 0.4c-0.6 0.2-1 0.3-1.3 0.4 0.5 0.7 0.5 0.7 1.3-0.4zm-83.1-45.9q0 0 0 0 0 0 0-0.1 0 0.1 0 0.1 0 0 0 0zm0.4-0.9c-0.2 0.3-1.2 0.2-0.4 0.8q0.2-0.4 0.4-0.8zm-0.8 2.7c0.6-0.4 0.8-0.6 1-0.8-0.2-0.1-0.4-0.2-0.5-0.3q0.2-0.3 0.4-0.7c-0.2 0-0.4 0-0.5 0-0.1 0.5-0.2 1-0.4 1.8zm55.9-3.5q0 0 0 0 0 0 0 0 0 0 0 0 0 0 0 0zm-0.4 1.1c0.7-0.6 1.1-0.9 1.6-1.2q-0.1-0.1-0.2-0.2-0.5 0.1-1 0.3c-0.1 0.3-0.2 0.5-0.4 1.1zm1.4-2.5c-1.3 0.5-1.3 0.5-1 1.4q0.5-0.7 1-1.4zm-32.4 39q0 0 0 0 0 0 0 0 0 0 0 0 0 0 0 0zm0.5 2q0.2-0.1 0.4-0.2-0.5-0.9-0.9-1.8c-1.1 1.1 0.5 1.2 0.5 2zm0.3-1.9q0-0.8 0-1.4-0.1-0.1-0.2-0.1-0.3 0.7-0.6 1.4 0.4 0 0.8 0.1zm36.8-57.9q0 0.1 0 0.2-0.1 0.2-0.1 0.4 0.1-0.2 0.1-0.3 0-0.1 0-0.3zm-0.9 3.4q0.2 0 0.4 0.1 0.2-1.5 0.4-2.9-0.4 1.4-0.8 2.8zm1.5-5.8q-0.2 0-0.4 0-0.1 1.2-0.2 2.4 0.3-1.2 0.6-2.4zm3.8 50q0 0 0 0 0 0 0 0 0 0 0-0.1 0 0 0 0.1zm-0.7 1.1q0.1 0 0.2 0.1 0.9-0.6 1.8-1.2-0.1-0.1-0.2-0.2-0.5 0.1-1.1 0.2-0.4 0.5-0.7 1.1zm1.5-2.2c-0.8 0.2-1.7 0.3-1.9 1.4 0.5-0.2 0.8-0.3 1.1-0.3q0.4-0.6 0.8-1.1zm19.4 3.3q0 0 0 0 0 0 0 0 0 0 0 0 0 0 0 0zm1.3-0.9q0-0.2-0.1-0.3-1 0.1-2 0.2c0.3 0.4 0.6 0.7 0.8 1q0.7-0.4 1.3-0.9zm-2.2 0.9q0 0.3 0 0.5c0.4 0.2 0.8 0.5 0.9-0.5q-0.5 0-0.9 0zm-23.5-13.6q0 0 0 0 0 0 0 0 0 0 0 0 0 0 0 0zm1.3-1.3c-0.6 0.1-1.1 0.4-1.5 0.8-0.1 0.1 0.1 0.3 0.2 0.5q0.7-0.7 1.3-1.3zm-1.8 2.3c0.9-0.4 1.8-0.5 2.2-1.6-0.7 0.2-1.2 0.4-1.7 0.6-0.2 0.3-0.3 0.6-0.5 1zm1.5 0.6q0 0 0-0.1 0 0 0 0 0 0.1-0.1 0.1 0.1 0 0.1 0zm0.8-0.9q-0.1-0.1-0.1-0.2-1 0.5-1.9 1.1 0.1 0.1 0.1 0.2 0.6-0.2 1.1-0.3 0.4-0.4 0.8-0.8zm-1.6 2q0.1 0.1 0.1 0.2 1-0.6 2-1.2 0-0.1-0.1-0.3-0.6 0.1-1.2 0.2-0.4 0.6-0.8 1.1zm3.1 3.6q0 0 0 0-0.1 0-0.1 0 0 0 0 0 0 0 0.1 0zm0.2-0.8q-0.1-0.1-0.2-0.2-1 0.6-2 1.2 0.1 0.1 0.1 0.3 0.9-0.2 1.8-0.5 0.1-0.4 0.3-0.8zm-1.6 2.6c0.6-0.2 1.2-0.4 1.7-0.6 0.2-0.5 0.5-1-0.3-1.2-0.2 0.8-1.7 0.5-1.4 1.8zm1.7-0.6q0 0 0 0 0 0 0 0 0 0 0 0zm-1 0.9c-0.2 0.2-0.1 0.6-0.2 1.2 0.9-0.6 1.4-0.9 2.1-1.4-0.4-0.3-0.7-0.5-0.9-0.7q0 0 0 0c-0.4 0.3-0.8 0.6-1 0.9zm-15.6-17.1q-0.3-0.6-0.5-1.1-0.2 0.1-0.4 0.2 0.4 0.5 0.7 1c0.7 1.7 2.1 0.6 3 0.9-0.1-0.4-0.2-0.7-0.3-1-0.3 0.2-0.7 0.5-0.9 0.6-0.3-0.3-0.5-0.5-0.7-0.7 0.1-0.2 0.2-0.4 0.5-0.9-0.6 0.5-1 0.7-1.4 1zm8.9 3.2q0 0 0 0 0 0 0 0 0 0 0 0 0 0 0 0zm-1.2 1.2q0.2 0.2 0.3 0.3 1.2-0.7 2.5-1.4-0.1-0.2-0.2-0.4-0.7 0.2-1.4 0.3-0.6 0.6-1.2 1.2zm1.4-2c-1.7-0.1-2.5 1.1-3.5 2.1q0.8-0.1 1.5-0.4 0.9-0.4 1.8-0.9c0-0.2 0.1-0.4 0.2-0.8zm40.8 33q0 0 0 0 0 0 0 0 0-0.1 0-0.1 0 0.1 0 0.1zm0.6 0.3c0-0.7-0.1-1.6 0.2-1.9 1.2-1.1 0.5-2.1 0-3.4-0.3 1.8-0.5 3.4-0.8 5 0.2 0.1 0.3 0.2 0.6 0.3zm-0.9 3.1c0.7-1.1 0.3-2.3 0.3-3.4-1 1-0.6 2.2-0.3 3.4zm-61.1-41.7q-0.1 0-0.2 0.1 0 0-0.1 0.1 0.1-0.1 0.1-0.1 0.1-0.1 0.2-0.1zm-6.2 3.9q0.1 0.2 0.2 0.3c2-1.2 4.1-2.2 5.7-4q-2.9 1.8-5.9 3.7zm7.5-4.5q-0.1-0.2-0.2-0.3-0.6 0.4-1.1 0.9 0.6-0.3 1.3-0.6zm48.3 16c-0.5-0.2-1-0.4-1.8-0.6 0.6 0.6 1 1.1 1.4 1.5 0.9 0.6 1.8 1.3 2.8 2-0.1-0.4-0.2-0.5-0.2-0.7 1.2-0.3 0-1.1 0.2-1.6q-1-0.6-2-1.3-0.7-0.5-1.5-1-0.2 0.3-0.4 0.5 0.7 0.6 1.5 1.2zm-0.4 0.9q0 0 0 0 0 0 0 0 0.1 0 0.1 0-0.1 0-0.1 0zm-1.6-0.6q0 0.1-0.1 0.2 1.9 1.8 3.7 3.6 0.2-0.1 0.4-0.3c-0.3-0.4-0.5-0.9-0.8-1.2-0.5-0.6-1-1.1-1.6-1.7q-0.8-0.3-1.6-0.6zm4.4 0.3q0.4 0.1 0.8 0.2 0-0.6 0-1.1 0 0 0 0 0 0 0-0.1 0 0 0 0.1 0 0 0 0c-1.1-0.8-2-1.5-3.1-2.2-0.2-0.1-0.6-0.1-1-0.2q0 0.1 0 0.3 1.7 1.5 3.3 3 0 0 0 0zm0.8-1c0.3-0.1 0.5-0.2 0.9-0.3-0.5-0.6-0.9-1.1-1.3-1.6q0.8 0.4 1.5 0.7c1-0.7 0-1.1-0.2-1.6-0.8-0.5-1.6-1-2.5-1.4-0.5-0.3-1-0.9-1.7-0.2q0.4 0.5 0.7 1-0.6 0-1.1 0.1c1.3 1.2 2.5 2.2 3.7 3.3q0 0 0 0zm0.9-2.8q0.5 0.1 1 0.1 0.1-0.1 0.2-0.2-1-0.9-1.9-1.9 1 0.5 2.1 1 0.1-0.1 0.1-0.2-1-1.2-2.1-2.3c-0.8 0-1.6-0.8-2.6-0.3 0.7 0.5 1.3 0.9 1.9 1.3q-1.1-0.2-2.2-0.5 0 0.1-0.1 0.3 1.8 1.3 3.6 2.7 0 0 0 0 0 0 0.1 0-0.1 0-0.1 0 0 0 0 0 0 0 0 0zm-0.6-3.6c0.8 0.6 1.5 1.1 2.4 1.6q0.2-0.6 0.3-1-0.4-0.6-0.8-1.1c-1.3-0.3-2.5-1.3-4.2-0.8 0.9 0.5 1.6 1 2.3 1.4q0 0 0-0.1zm1.9-0.6c0.4 0.2 0.7 0.3 1.2 0.5q0.2-0.5 0.4-1.1-1.9-0.7-3.8-1.4c-0.5-0.2-1.1-0.5-1.4 0.5 0.7 0.2 1.4 0.3 2 0.6 0.6 0.2 1.1 0.6 1.6 1q0-0.1 0-0.1zm1.6-0.6c0.3-0.1 0.6-0.3 0.9-0.5-0.3-0.3-0.5-0.4-0.7-0.6q-0.3-0.2-0.5-0.4c-1.3-0.4-2.6-1-3.9-0.8q2.1 1.2 4.2 2.3 0 0 0 0zm-0.3-1.5q0 0 0 0 0-0.1 0-0.1 0 0 0 0 0 0 0 0.1zm1.8 0.6q0.1-0.1 0.1-0.2c-0.6-0.4-1.3-0.8-2.2-1.3 0.2 0.5 0.3 0.6 0.3 0.8q0.9 0.4 1.8 0.7zm-1.5 0.9q0 0 0 0 0 0.1 0.1 0.1 0 0-0.1-0.1zm-1.6 0.7q0 0 0 0 0 0 0 0 0 0 0 0zm-1.9 0.6q0 0 0 0 0 0 0 0 0 0 0 0zm-1.1 7.3q0 0 0 0 0.1 0.1 0.1 0.1 0 0-0.1-0.1zm-50-0.7q-0.6 0.9-1.3 1.9c-2 0.8-2 0.9-2 3q1.1 0.7 2.4 1.5 0.4-0.6 0.6-0.9c-0.7-0.7-1.3-1.3-2-1.9 0.5-0.6 0.8-1.1 1.2-1.6 1.4-0.8 2 0.6 3 1.1 0.3-0.1 0.6-0.3 1-0.5-0.8-0.6-1.4-0.8-1.8-1.2-0.4-0.4-0.6-0.8-1-1.3q1-0.3 2-0.5c-0.8-0.3-1.5-0.5-2.1 0.4zm2.1-0.4q0 0 0.1 0 0 0 0 0 0 0-0.1 0 0 0 0 0zm1.9-0.4c1-1.4 2.6-1.1 4.1-1.1-0.2-0.2-0.3-0.4-0.5-0.4-1.4 0.1-2.9 0.2-4.3 0.4-0.7 0.1-1.1 0.7-1.1 1.5q0.9-0.2 1.8-0.4zm34.2-9q0 0 0-0.1 0 0 0.1 0-0.1 0-0.1 0 0 0.1 0 0.1zm0.3-0.4c0.5-0.3 1.2-0.9 1.5-0.8 0.6 0.2 0.9 0.9 1.2 1.5 0.3 0.5 0.3 1.1 0.4 1.7 0.1-1.2 0.2-2.4-0.2-3.4-0.4-1.4-1.6-1.5-2.5-0.4-0.3 0.5-0.4 1.1-0.6 1.7q0.1-0.2 0.2-0.3zm-0.7 1.6q0.2 0 0.4 0 0-0.6 0-1.2-0.2 0.6-0.4 1.2zm-75.6 2.7q0-0.1 0-0.1 0-0.2 0-0.4 0 0.2 0 0.3 0 0.1 0 0.2zm0.5-5.4c0-2.5-0.2-5-0.3-7.5 0-1.1 0-2.1 0-3.2-0.1 2.6-0.1 5.2-0.1 7.9q-0.1 3.9-0.1 7.7c0.2-1.6 0.5-3.3 0.5-4.9zm-1 7.4q0.2 0 0.5 0.1 0-1.1 0-2.1-0.3 1-0.5 2zm97.1 15.7q0-0.2 0-0.3 0 0-0.1 0 0 0 0 0.1 0 0.1 0.1 0.2zm-0.8-2.7c-1-1.1-1.8-0.9-2.7 0.5 1.7-0.3 2.8 0.5 3.4 1.9 0.3-1-0.1-1.7-0.7-2.4zm0.4 10.5c-0.2 2-1.2 3.8-3.6 4 0.8 1.7 1.8 1.9 2.7 0.3 0.6-1.1 1.1-2.4 1.3-3.7 0.2-2.2 0.2-4.4 0.2-6.6 0-0.6-0.1-1.2-0.2-1.8-0.1 2.6-0.1 5.2-0.4 7.8zm-80.4-19.3c0.1-0.8-1.1-1.3-0.3-2.2 0.3 0.6 0.6 1.1 0.8 1.6q0.1-0.1 0.2-0.1 0-0.7 0-1.4 0.1 0 0.2 0 0.4 0.9 0.8 1.8 0.1 0 0.2-0.1 0-0.7 0-1.5 0.2 0 0.3 0c0.1 0.4 0.3 0.8 0.6 1.4 0.4-1.6 0.7-2.9 1-4.3-1.6 0-3 0-4.4 0-2.1 0-3 1.4-2.1 3.5 0-0.2 0.1-0.3 0.2-0.6 0.3 0.5 0.5 1 0.8 1.4 0.1 0.1 0.4 0 0.6 0q-0.3-0.5-0.5-1.1 0.2-0.1 0.3-0.1 0.2 0.5 0.4 1.1c0.3 0.2 0.6 0.4 0.9 0.6zm37.9-5.1q0 0 0 0 0 0-0.1 0 0.1 0 0.1 0zm0.9-0.2c-0.5-0.5-0.8-0.7-1.3-1.2 0.2 0.7 0.3 1.1 0.4 1.4 0.1-0.1 0.3-0.1 0.9-0.2zm-0.9 0.2q-0.1 0-0.2 0c0 0-0.1 0.1-0.1 0.1 0.6 1.5 0.8 3.3 1.8 4.4 1.8 2 3.6 3.9 4.9 6.3 0.5 0.1 0.9 0.1 1.6 0.1-1.4-3.7-2.8-7.2-4.2-10.8-0.4 0.5-0.7 0.8-0.8 1-0.7-0.2-1.2-0.3-1.8-0.5-0.4-0.1-0.8-0.4-1.2-0.6q0 0 0 0zm-47.3 5.6q0 0 0 0 0-0.1 0-0.1 0 0 0 0 0 0 0 0.1zm-0.1 1.1q0.1 0 0.2 0.1 0.4-0.7 0.8-1.4-0.1-0.1-0.3-0.2-0.3 0.2-0.6 0.3-0.1 0.6-0.1 1.2zm-0.2-2c-1.2-0.7-2.4-1.8-3.6-2-2.9-0.2-5.9 0-8.9 0-0.4 0-0.8 0.4-1.2 0.6-0.4 0.3-0.7 0.6-1.1 1 1.3 0.1 2.4 0.4 3.4 0.4 1 0.1 2.1 0.3 2.9-0.5 0 0 0.2 0.1 0.3 0.2q-0.2 0.4-0.3 0.7c0.5 0.1 1.1 0.2 1.6 0.3q0.6-0.5 1.3-1 0.1 0.1 0.2 0.2c-0.3 0.3-0.5 0.7-0.8 1.1 1.3 0.3 1.3-1.2 2.4-1.6-0.4 0.7-0.7 1.2-1 1.8 1 0.5 1.1-0.4 1.4-0.8 0.1-0.1 0.3-0.1 0.4-0.2-0.1 0.5-0.1 0.8-0.2 1.1q0.1 0.1 0.2 0.1 0.4-0.5 0.8-1 0 0 0.1 0.1c-0.1 0.4-0.2 0.7-0.3 1.5 0.6-0.5 1-0.8 1.4-1.2 0 0.4 0 0.7-0.1 1.3 0.6-0.6 1-0.9 1.4-1.2-0.1-0.3-0.1-0.8-0.3-0.9zm25.4 5.2q0 0 0 0 0 0.1 0 0.1 0 0 0 0 0 0 0-0.1zm-3.1 1.4c0.2 1 0.6 1.8 0.5 2.6-0.2 0.9-0.8 1.6-1.3 2.4-0.5-0.2-0.8-0.4-1.2-0.5-0.1 0.4-0.2 0.8-0.3 1.1 0.6 0.6 1.1 1.2 1.8 1.9-0.6 0.7-1.1 1.4-1.6 2-0.5-0.2-0.9-0.3-1.3-0.5-0.1 0.5-0.2 0.8-0.3 1.1 1.9 1.4 2 2 1.1 4.2q-0.7-0.1-1.3-0.1-0.1 0.1-0.2 0.2c0.4 0.4 0.9 0.7 1.4 1.1 1.2 0.7 1.5 1.6 1.1 2.9-0.2 0.5-0.4 0.9-0.6 1.3-0.3 0.1-0.6 0.1-1.2 0.1 0.9 0.6 1.5 1 2.1 1.4 0.3 0.4 0.8 0.9 0.7 1.3-0.1 0.8-0.6 1.7-1.1 2.8 0.1 1.1 1.4 0.4 2 0.7 0.7 1.2 0 2.7 1.2 3.6q1.4 1.1 2.9 2.3 0.1-0.2 0.3-0.3c-0.1-0.4-0.1-0.9-0.1-1.3-2.5-1.1-2.5-1.1-2.3-3.7-0.1-0.1-0.1-0.2-0.2-0.3q-0.5-0.3-1.1-0.7c-1-0.7-1.3-1.2-0.8-2.3 0.4-0.9 0.3-1.5-0.4-2.2-0.8-0.7-0.9-1.6-0.3-2.5 0.4-0.6 0.5-1.2 0-1.8-1.2-1.4-1-2.8 0.2-4.1 0.6-0.7 0.6-1.5 0.1-2.2-0.8-1.2-0.5-2.2 0.4-3.1 0.4-0.4 0.7-1.2 0.5-1.7-0.5-1.5 0.1-2.3 1.3-3.1 0.7-0.4 1-1 0.9-1.9-0.1-0.7 0.1-1.3 0.2-2-0.9 0.8-1.7 1.6-3.1 1.3zm5.2-2.2c0.1-0.7 0.2-1.3 0.3-1.9-1.2 0.2-2.3 0.5-3.6 0.8 0.5 0.8 0.9 1.4 1.2 1.9q1.1-0.4 2.1-0.8zm27.4-19.5q0 0 0 0 0 0 0 0 0 0 0 0 0 0 0 0zm1 0.9q2.3 0.2 4.7 0.4c0 0.9 0 1.5 0 2.2 0.1 0.7 0.2 1.4 0.3 2.3 0.8-0.9 1.1-6.3 0.8-12.2-1.7 0.1-3.3 0.3-4.9 0.5-1.7 0.1-3.4 0.2-5 0.3 0 1.5 0 2.9 0 4.2 1.1 0.5 2.6 0 3.1 1.4q0.5 0.4 1 0.9zm-4.1-1.5c0 0.5 0 1 0 1.6 1.1-0.1 2.1-0.1 3.1-0.2 0-0.3 0-0.6 0-0.8-1-0.4-1.9-1.1-3.1-0.6zm35.3 47.3q0.1-1.7 0.3-3.2 0.1 0 0.3 0 0 1.3 0 2.6c0.4-1.5-0.2-3.2 1.5-4.3 0 1.1 0 2 0 3q0.1 0 0.2 0 0-1.9 0-3.9c-2.4 0.7-3.4 0.2-4.2-2.1q-0.1-0.6-0.2-1.3c-0.6-3.7-0.8-7.5 0.1-11.2 0.3-1.1 0.9-2.1 1.5-3.1 0.4-0.6 1-1 1.5-1.5q0.1 0.3 0.2 0.6 0.2 0 0.3-0.1 0-1.5 0-3.1 0.1 0 0.2 0 0.2 1.6 0.4 3.2 0.1 0 0.2 0 0.2-1.3 0.3-2.6 0.2 0 0.4 0-0.1 1.7-0.3 3.3 0.2 0 0.4 0.1 0.2-0.9 0.5-1.8c-0.2 2.5 0.6 4.7 2.4 6.4q-0.3-0.9-0.7-1.8c0.9-1.2-0.5-2-0.6-3.2 0.3 0.2 0.6 0.4 0.8 0.5q-0.4-2.2-1.4-4.1c-0.7-1.5-1.3-1.6-2.9-0.8-0.2 0.1-0.5 0.1-0.8 0.1-0.6-1.2-0.6-2.8-2.6-2.7 2.2 1.6 2.4 3.5 0.5 4.6 0 0.2 0 0.4 0 0.7-0.4 1.8-0.9 2.1-2.6 1.6-0.7-0.3-1.5-0.4-2.3-0.6-0.2 0.5-0.3 0.9-0.4 1.5 1.4 0.3 2.7 0.5 4.2 0.9-0.7 0.7-1.2 1.1-1.6 1.4-1-0.2-1.9-0.5-2.9-0.7-0.3 0.6-0.4 1.2-0.7 1.8 0.8 0.3 1.5 0.6 2.1 0.8q1 0.4 1.9 0.7c-0.4 1.8-0.7 2-2.2 1.8q-0.5 0-1-0.1c-0.8-0.2-1 0.2-1.1 1.1 1.3 0.4 2.6 0.7 4.1 1.1-0.2 0.5-0.2 1.1-0.6 1.5-1.3 1.2-2.6-0.1-3.9-0.2-0.1 2 1 2.9 2.9 2.4 0.7-0.1 1.3-0.7 2.1 0 0.3 1.5-1.1 1.8-1.9 2.4-1.3 1.2-2.1-0.6-3.4-0.8 0 0.4-0.1 0.9 0.1 1 1.5 1.2 3.2 1.6 4.9 0.5 0.7 0.8 0.5 1.4 0 2-1.3 1.6-2.9 0.6-4.4 0.4 0.2 2 2.3 2.2 4.9 0.7 0.1-0.5 0.1-1 0.2-1.7 1.2 3 1.3 5.4 0.4 7q0.7-0.3 1.4-0.7 0 0 0-0.1 0 0.1 0.1 0.1h-0.1c0.5 0 0.9-0.1 1.5-0.1zm-20.3-44.5q0 0 0 0 0 0-0.1 0 0 0 0 0 0 0 0.1 0zm1 0.3c0-2.4 0-4.7 0-7.1q-1.2-0.1-2.5-0.3 0-0.1 0-0.2 1.3 0 2.5 0c0.1-0.5 0.2-0.8 0.3-1.1 0.3 0 0.5 0 0.7 0 1.3-0.1 1.7 0.2 1.7 1.6 0 0.4-0.1 0.8-0.2 1.2 0 1.1-0.1 2.2 0 3.3q0.3 0 0.5 0 0.1-1.3 0.2-2.7 0.1 0 0.2 0c0.1 0.7 0.2 1.4 0.3 2.2q1-0.6 1.5-0.9c0-7.1 0-14.1 0-21.2-0.7 0.2-1.2 0.3-1.6 0.5q-0.1-0.1-0.1-0.2 0.8-0.5 1.5-1c-0.6 0-1.2 0.2-1.7 0.4q-0.7 0.2-1.5 0.4 0-0.1-0.1-0.3c1.2-0.5 2.4-0.9 3.7-1.5-0.4-1.6 1-3 0.4-4.7-1.7-0.2-3.2-0.4-4.8-0.6q-0.2 1.4-0.4 2.8c-0.5 2.9-1 3.4-4 3.5q0 1.1 0 2.3c1-0.1 1.8 0.2 2 1.2q0.3 2.4 0.5 4.8c0 1-0.6 1.8-1.6 2.1q-0.5 0.2-1 0.4c0 0.4 0 0.7 0.1 1.1 1.1-0.5 2.1-0.9 3.1-1.4q0.1 0.1 0.1 0.3-1.7 0.9-3.4 1.8 0.1 0.2 0.2 0.4 1-0.4 1.9-0.7 0.1 0.1 0.1 0.2c-0.7 0.4-1.4 0.9-2 1.2 0 3.8 0 7.4 0 11 0.9 0 1.9-0.1 2.3 0.9 0.3 0.1 0.6 0.1 1.1 0.3zm-3.5-0.4c0 1.2 0 2.4 0 3.7 1.5 0 2.9 0 4.4 0 0.4-1.5 0.8-2.9 1.3-4.6-1.9 0.8-1.9 1-1.2 2.2-1.2 0.4-1.5-0.5-2-1.2-0.9 0.1-1.6-1.1-2.5-0.1zm-32.2-16.5c-0.3 2.3-0.5 4.5-0.8 6.9 3.1 0 5.8 0.1 8.5 0 0.4 0 0.8-0.1 1.1-0.3 2.4-2.1 5.1-4 4.4-8-0.1-0.8 0-1.6 0.1-2.5q0-1.5 0.1-3.1 0.2 0 0.3 0c0 2.7 0 5.4 0 8.4 2-2 3.8-3.8 5.6-5.6 0.6-0.6 0.9-1.2 1-2.1 0.2-2.1 0.6-4.2 1-6.2 0.2-1 0.6-1.9 2.1-1.6-0.1 0.6-0.1 1.1-0.2 1.7-0.3 1.5-0.6 3.1-0.9 4.7-0.1 0.6 0.2 1.3 0.2 1.9 0 0.6-0.1 1.1-0.2 1.7-0.1 0.4-0.3 0.9-0.4 1.4 0 0.3 0.1 0.6 0 0.9-1 2.6-0.7 5.3-0.7 8.2 3.1-0.5 6.1 0 8.7-1.7 0-2 0-3.8 0-5.6 0-0.7-0.2-1.4-0.1-2.2 0.2-1.9 0-3.8 0-5.8 0-0.2 0-0.4-0.2-0.5-0.9-0.8-0.8-1.9-0.8-3 0.1-1.6 0-3.1 0-4.5-1.3 0-2.7 0-4.4 0-1.3 1-4.4 0.7-6.2-1-1.1 0.4-2.2 0.8-3.3 1.3 0 5.4 0 10.6 0 15.8q-0.2 0-0.4 0 0-7.7 0-15.3-0.3-0.1-0.6-0.1c0 2.8 0.5 5.6-0.1 8.3q-0.1 0-0.3 0c0-2.6 0-5.2 0-8.1-1.4 0.6-2.5 1.2-3.7 1.7q0-0.2-0.1-0.3c1.2-0.6 2.4-1.3 3.7-1.9 0-0.4-0.1-0.7-0.2-1.2-1.5 0-2.9 0-4.3 0-0.9-0.1-1.6 0.1-2.1 0.8-0.3 0.3-0.8 0.6-1.2 0.6-1.5 0.1-2.3 0.9-2.7 2.1q-1.2 3.7-2.2 7.5c-0.3 1.2-0.3 2.5-0.5 4 2.7-1.6 5-3.1 7.3-4.5q0.1 0.2 0.2 0.3-2.7 1.7-5.4 3.4c-0.6 0.4-1.3 0.8-1.8 1.3-0.3 0.3-1.1 0.9 0.1 1.2q4.4-2.9 8.9-5.8 0.1 0.2 0.3 0.4-4.5 2.8-9.1 5.6c-0.2 0.3-0.6 0.5-0.7 0.8zm5.1 70.4c1.6 0.1 1.7-1.4 2.6-2-0.3 0.6-0.5 1.3-0.9 2 1.8 0.1 1.4-1.6 2.3-2.3-0.2 0.7-0.3 1.4-0.5 2.2 1.4-0.4 1.5-1.7 2.4-2.5-0.3 0.7-0.5 1.4-0.8 2.2 2.2-0.3 2.1-2.4 3.2-3.5-0.3 0.8-0.5 1.7-1 2.9 2.8-1.7 2.2-4.3 2.5-6.5q0.2 0 0.5 0.1c-0.2 1.6-0.3 3.2-0.5 4.9 2-1.4 1.6-3.6 2-5.5q0 1.8 0 3.5 0.2 0.1 0.3 0.1c0.3-0.6 0.7-1.2 0.8-1.9 0.1-0.7 0-1.4 0-2q-0.1-1-0.2-2 0.2 0 0.3-0.1c0.2 1.3 0.4 2.5 0.6 3.8 1.6-1.9 0.5-4 1.1-5.9 0.1 1 0.2 2 0.3 3.2 1.4-1.8 1.2-3.6 0.7-5.4q0.1 0 0.3 0 0.3 0.7 0.6 1.4 0.1 0 0.3 0 0.1-2.1 0.2-4.1 0.1 0 0.7 0.2c-0.2-1.3-0.3-2.5-0.5-3.7 0.2 0.1 0.4 0.1 1 0.3-0.3-1.3-0.9-2.4-0.6-3.3 0.4-1.3 0-2.5-0.1-3.7-0.5-4.2-2-8.1-5.1-11.2-1.7-1.8-4-2.1-6.2-2.6-0.1 0.3-0.1 0.4-0.1 0.5-0.1 0.8-0.1 1.6-1 1.9-1.1 0.3-1.4-0.6-1.8-1.3-0.5-0.9-1.4-1.3-2.4-1.4 1.1 0.9 1.7 1.9 1.5 3.3-0.1 0.4-0.6 0.9-0.9 0.9-0.3 0.1-0.8-0.3-1.1-0.6-0.3-0.2-0.3-0.7-0.5-1-0.7-1.7-2.4-2.1-4-0.9 0.7 0.4 1.4 0.8 2.1 1.2 0.9 0.5 1.5 1.3 1.6 2.4 0.1 0.3-0.1 0.7-0.4 0.9-0.2 0.2-0.6 0.1-0.9 0-1.3-0.9-2.5-1.7-3.8-2.6-0.1 0-0.3-0.1-0.5-0.1-0.3 0.3-0.6 0.6-0.9 1 0.5 0.4 1 0.7 1.4 1.1 0.8 0.6 1.6 1.1 2.3 1.8 0.3 0.3 0.6 1.1 0.4 1.3-0.3 0.4-0.9 0.5-1.5 0.6-0.3 0.1-0.7-0.2-1-0.3q-1.7-1.1-3.4-2.1c-0.1 0-0.2 0-0.4 0-0.2 0.2-0.4 0.5-0.7 0.9 0.6 0.5 1.2 0.9 1.7 1.3 0.7 0.5 1.6 1 2.3 1.5 0.6 0.5 1.1 1.2 0.6 2.1-0.5 0.8-1.4 0.9-2.1 0.5-1.4-0.7-2.7-1.5-4.1-2.3-0.7 0.4-0.8 1.1-0.1 1.8 0.5 0.6 1.2 1.1 2 1.5 1 0.5 2.2 0.9 3.4 1.4-0.4 0.8-0.6 1.4-0.9 1.8-2.2 0.3-4.2-0.1-5.5-1.8-1.3 1-1.4 1.5-0.5 2.4 0.9 0.9 1.9 1.4 3.1 1.4 0.5 0 1 0 1.5 0.1 1 0.1 1.4 1.1 0.8 1.9-0.4 0.4-1.1 0.9-1.6 0.8-1.3-0.1-2.5-0.5-3.7-0.7-0.4-0.1-0.8-0.2-1.3-0.3 0.1 0.5 0 0.7 0.1 0.9 0.9 1.4 3.1 2.5 4.9 2.2 0.8-0.2 1.6-0.2 2 0.8 0.2 0.7-0.3 1.5-1.3 1.9-1.2 0.4-2.3 0.4-3.4-0.1-0.6-0.3-1.2-0.6-1.9-0.9-0.2 0.5-0.3 0.9-0.5 1.4 1.1 0.5 2.2 1 3.2 1.4 0.3 0.2 0.7 0.3 1 0.3 0.7 0 1.3-0.3 1.9-0.4 0.7-0.1 1.5-0.2 1.8 0.7 0.3 0.9-0.4 1.4-1.1 1.7-1.1 0.5-2.4 0.6-3.6 0.1q-0.8-0.4-1.8-0.8c-0.5 1-0.4 1.6 0.5 2.1 1.7 0.8 3.4 1.8 5.4 0.5 0.5-0.4 1.3-0.5 1.7 0.3 0.4 0.6 0 1.2-0.5 1.6-1.3 1-2.7 1.5-4.3 0.8-0.4-0.2-0.8-0.2-1.5-0.4 0.4 0.4 0.4 0.7 0.6 0.7 1.8 0.8 3.7 1.5 5.7 0.5 0.8-0.4 1.7-0.7 2.4 0.6-1 2.2-3 2.1-5.2 2 0.8 0.8 1.7 1 2.5 0.9 1.2-0.1 2.3-0.3 3.5-0.5 0.8-0.1 1.5-0.2 1.8 0.9q-0.5 0.6-0.9 1.2 0.1 0.1 0.2 0.2 0.6-0.6 1.2-1.1 0.3-0.6 0.6-1.1 0.2 0.1 0.3 0.2-0.4 0.5-0.8 1c-0.1 0.3-0.2 0.6-0.4 0.9zm-76.6-6.7c0.1 0 0.3 0 0.4 0 2.3-0.8 4.4-1.7 6.9-1 0.3 0.2 0.8-0.2 1.2-0.2 0.4 0 0.8 0.2 1.5 0.4-2.2 1.2-3.9 2.2-5.7 3.2 1.4 0.3 2.5-0.5 3.5-1.2 1.5-1.1 3.1-1.3 4.9-0.7 1 0.4 2.1 0.6 3.2 0.2 0.6-0.2 1.3-0.3 1.5 0.9-2.6 0.3-4.7 1.7-7.1 3.2 1.6 0.3 2.6-0.1 3.5-0.7 3-1.9 6.2-2.2 9.7-0.8-1.6 0.9-3.5 1.5-5.2 2.8 1.4 0.1 2.7 0.1 4 0.3 1.4 0.2 2.6-0.1 3.5-1 0.2-1.9 0.5-3.7 0.7-5.5-0.8 0.2-1.8 0.3-2.7 0.5q-0.1-0.2-0.1-0.3c0.8-0.2 1.5-0.4 2.3-0.6 1-0.1 1.6-0.5 1.9-1.4q-0.1 0-0.1 0 0.1 0 0.1 0c2.6-4.3 5.2-8.5 7.8-12.8 0.3-0.5 0.5-1.3 0.5-1.9-0.1-1.7-0.3-3.4-0.4-5.1q0.2 0 0.3-0.1 0.3 2.5 0.7 5 0.1 0 0.3 0c0.1-0.5 0.3-1.1 0.3-1.6-0.1-1.1-0.3-2.2-0.4-3.3q-0.3-2.1-0.7-4.2 0.2-0.1 0.4-0.1 0.6 3.7 1.2 7.4c0.5-0.5 0.9-1 1-1.5q0.3-1.6 0.2-3.2c0-2.5-0.1-5.1 0.9-7.6-0.7-0.2-1.3-0.3-1.9-0.4q-4.2-0.7-8.3-1.3c-1.9-0.3-3.8-0.7-5.7-0.8q-7.6-0.5-15.2-0.7c-4-0.1-8.1-0.1-12.1-0.2-0.4 0-0.8 0.1-1.4 0.1 0.4 0.6 0.7 1.1 1 1.5 1.7 2.6 3.5 5.3 5.3 7.9 2.4 3.7 3 7.8 2.4 12.1q-0.1 0.5-0.3 1.1c-1 2.6-3.5 4-5.6 5.4-1.5 0.9-3.6 1-5.5 1-2.2-0.1-3.9 0.9-5.7 1.8-0.5 0.2-0.8 0.6-1.2 0.9q0.1 0.2 0.2 0.4c1.2-0.6 2.3-1.2 3.6-1.6 1.3-0.3 2.7-0.4 4.1-0.4 1.3 0 2.6 0.3 3.9 0.5q0 0.2 0.1 0.4-1.5 0.5-3 1.1c1 0 1.9-0.4 2.8-0.4 1 0 2 0.3 3.1 0.6 1.9-0.7 1.9-0.7 2.2 0.2q-1.5 0.9-2.9 1.7-1 0.5-2 0.9 0.1 0.3 0.3 0.5 0.9-0.7 1.8-1.4zm43.5-26.2c1.7 0.7 2.6 1.9 3.4 3.2q0.7 1.5-0.2 2.9c-0.7 0.9-1.5 1.9-2 2.9-2.2 4.9-5.5 9.2-8.4 13.7q-0.9 1.2-1.6 2.5c-1.2 2-1.3 4.1-0.7 6.3 1.6 0.2 3.2 0.4 4.8 0.4 1.5 0 3-0.2 4.4-0.5 0.9-0.1 1.5-0.7 1.7-1.7q0.4-1.8 0.7-3.6 0.2 0 0.3 0.1c-0.1 1.3-0.3 2.6-0.5 4.2 2.4-2.3 1.5-5.2 2-7.7q0.3 1.4 0.2 2.8c0 1-0.2 2-0.4 3.2 3.2-3.3 4.8-6.9 4.3-11.3-0.4-3.3-0.1-6.6 0.3-9.9 0.3-2.3-0.3-4.2-1.7-6-1.2-1.6-2.4-3.3-3.7-4.9-0.6-0.7-1.2-1.4-2-1.9-1.1-0.8-2.3-0.5-3 0.7-0.3 0.5-0.6 1.1-0.7 1.7-0.7 2.4-0.4 4.7-0.1 7.2 1-1.4 1.9-2.8 2.9-4.3zm36.4-25.7q-0.2 0.1-0.3 0.1-0.1-1.1-0.2-2.2-0.2 0-0.3 0-0.1 0.8-0.1 1.7-0.1 0-0.3 0c-0.1-0.5-0.2-0.9-0.3-1.6-3.3 2-6.5 4-9.7 6-3.5 2.2-6.9 4.5-10.4 6.6-2.1 1.3-3.5 2.8-3.8 5.3-0.1 0.7-0.3 1.5-0.5 2.2-0.8 2.9-1.7 5.8-2.6 8.8 2.5 3.3 1.3 7 1.3 10.5 2.1-2.8 4.8-5.2 4.2-9.2q0.4 0.8 0.7 1.6 0.1-0.1 0.3-0.1-0.4-2.2-0.8-4.3 0.1-0.1 0.3-0.1c0.2 0.9 0.5 1.8 0.8 2.8 0.5-1 0.9-1.9 1.4-2.8 0.6-1.3 1.3-2.6 1.8-4 1.6-4 4.1-7.1 7.5-9.7 1.2-1 2.3-2 3.5-2.9 0.1-0.5 0.1-0.9 0.2-1.5 0.2 0.3 0.3 0.5 0.5 0.8 0-1.2 0-2.2 0-3.2q0.1 0 0.2 0c0.1 0.8 0.2 1.7 0.3 2.6 0.4-0.1 0.6-0.1 0.7-0.2q4.1-3 8.1-6c0.4-0.3 0.8-0.8 0.9-1.3 0.6-1.5 1-3 1.6-4.9-1.9 0.9-3.4 1.6-5 2.4 0 1 0 1.8 0 2.6zm-94.4 41.4q0.1-0.2 0.3-0.4c0.4 0.2 0.7 0.4 1 0.6q2.1 1.8 4.3 3.7c1 0.8 1.3 0.9 2.7 0.3-1.1-0.8-2.3-1.7-3.3-2.6-2.6-2.2-2.5-2.2-2.5-3.3 0.4 0.4 0.8 0.8 1.2 1.1q2.7 2.2 5.4 4.3c0.6 0.5 1.1 0.7 1.9 0q-3.7-3.4-7.4-6.8 0.1-0.1 0.2-0.3c1.2 0.3 1.9 1.3 2.8 2 0.9 0.8 1.8 1.6 2.7 2.5q1.3 1.2 2.7 2.4c0.5-0.3 0.8-0.5 1.2-0.7-1.3-1.2-2.5-2.3-3.7-3.4-1.2-1.1-2.3-2.2-3.5-3.3q0.2-0.2 0.4-0.4c0.4 0.3 0.9 0.6 1.3 1 1.6 1.4 3.2 2.9 4.8 4.4 0.4 0.4 1 0.7 1.5 0.9 0.2 0.1 0.6-0.1 0.9-0.1q0.1-0.2 0.1-0.4-2.2-2.2-4.3-4.4c-0.3-0.2-0.6-0.6-0.8-0.9q0.2-0.1 0.3-0.3c2.2 1.3 3.8 3.2 5.5 5.4 0.4-0.4 0.7-0.6 1-1-1.8-2-3.4-3.7-5.1-5.5q0.2-0.2 0.4-0.4c1.9 1.4 3.3 3.4 5 4.9 0.6-0.6 0.6-1.1 0.1-1.7q-1.2-1.5-2.4-3c-0.3-0.3-0.6-0.7-0.9-1.1q0.2-0.2 0.4-0.4c1.4 1.1 2.3 2.7 3.6 3.8 0.8-2-1.5-2.9-1.6-4.5q0.2-0.1 0.3-0.2c0.4 0.5 0.9 1 1.4 1.6 0-2.2-0.3-4.1-1.3-5.7-2.2-3.5-4.5-6.9-6.8-10.4 0-0.1-0.2-0.1-0.4-0.1q-0.2 1.9-0.4 3.9c-0.4 3.4-1 6.7-3.4 9.5-3 3.4-5.7 7.1-8.5 10.6-0.5 0.7-0.8 1.3-0.4 2.2q0.8 0 1.6 0c-0.2-0.4-0.4-0.8-0.5-1.2q0.1-0.1 0.2-0.2c0.5 0.3 0.9 0.7 1.4 1 0.5 0.3 1.1 0.6 1.9 1-0.7-1.5-2.3-1.7-2.6-3.2 2.3 0.8 3.2 3.6 6.3 3.2-1.8-1.6-3.4-3-5-4.4zm47.1 16.2c0-0.7 0.1-1.2 0-1.6-0.3-2.4 0.3-4.5 1.6-6.5q1.6-2.3 3.1-4.7c2-3.2 3.9-6.5 5.9-9.8 0.7-1.1 1.3-2.2 2.1-3.2 1-1.5 1.1-1.7 0-3.2-0.3-0.5-0.8-1-1.3-1.5-2.2 3.2-4.4 6.1-6.4 9.3-2.8 4.3-5.3 8.7-8 13-0.7 1.2-1.4 2.3-1.9 3.5-0.4 0.8-0.4 1.7-0.5 2.6-0.2 1-0.3 2-0.4 3.1 1.8-0.3 3.7-0.6 5.8-1zm73.9-22.5c0-0.7-0.1-1.3 0-1.9 0.2-1.9 0.4-3.8 0.7-5.7 0.2-1.3-0.2-2.3-1.1-3.1-1.9-0.3-3.8-0.5-5.8-0.7 0.1-1 0.1-1.7 0.2-2.6q-0.3-0.6-0.7-1.3c-0.5-0.1-1-0.3-1.7-0.5 1.2 3.3 2.3 6.4 3.5 9.5-0.4 0.3-0.8 0.5-1.2 0.7-0.1 2.6-0.7 5.1-1.8 7.5-0.3 0.6-0.2 1.4-0.4 2.4 3.7-0.7 7-1.3 10.4-1.9 0-0.7 0-1.4 0-2-0.8-0.2-1.4-0.3-2.1-0.4zm-52.7-33.7q0.5 1.1 0.9 2.3 0.2-0.1 0.4-0.1-0.3-1.3-0.7-2.5 0.2 0 0.3-0.1c0.3 0.7 0.6 1.4 1 2.3 1.1-1.2-0.1-2-0.2-3.2-1.2 0-2.3 0-3.4 0-0.5 0.1-1.1 0.1-1.5 0.3-2 1-3.9 2-5.8 3.1-1.5 0.9-3 2-4.5 2.9 0.2 1.4 0.4 2.6 0.6 3.9 0.6-0.3 1.1-0.5 1.6-0.7 0-0.3 0-0.6-0.1-1.2 0.6 0.6 0.9 1 1.2 1.4q0.1-0.1 0.3-0.1-0.3-0.9-0.6-1.9c1.2 0.1 0.6 2 2 1.8-0.3-1-0.6-2-0.9-3 1.4 0.6 0.7 2.9 2.9 3-0.5-1.3-0.9-2.4-1.3-3.4q0.2-0.1 0.3-0.1c0.5 0.9 0.9 1.9 1.5 3.1 1.1-1.5-0.3-2.6-0.1-3.7q0.6 1.2 1.2 2.5 0.3-0.1 0.5-0.2-0.7-1.7-1.3-3.4 0.1 0 0.3-0.1c0.4 1 0.9 2 1.5 3.2 1-1.5-0.9-2.5-0.4-3.9 0.5 1 0.9 1.9 1.3 2.8 1.3-0.5 0.6-1.2 0.3-1.8q-0.4-1-0.9-1.9 0.2-0.1 0.3-0.2c0.5 1 1.1 1.9 1.7 3q0.5-0.4 0.9-0.8c-0.5-1-0.9-2-1.4-2.9q0.2-0.1 0.3-0.1c0.6 0.9 1.1 1.8 1.7 2.9 0.9-1.3-0.2-2.2 0.1-3.2zm-19.1-6.6c-0.2 1.1-0.4 1.9-0.4 2.8 0 1.7 0 3.3 0.1 4.9 0.2 3.7 0.3 7.3-0.4 10.9 0 0.3 0.1 0.5 0.1 0.8 0.7-1 1.2-2.2 2.1-2.8 0.9-0.7 2.2-0.8 3.4-1.2-0.2-2.1-0.3-4.2-0.6-6.2q-0.5-3-1.3-5.8c-0.4-1.4-1.1-2.7-3-3.4zm15.5 16.7c-0.6-0.2-1.1-0.5-1.7-0.6-3.6-0.4-7.1 0.3-10.6 1-1 0.2-2 0.9-1.9 2 1.6 1.1 3.1 2.1 4.5 3.1 0.9 0.6 1.6 1.3 2.5 1.7 1.1 0.6 2.3 1 3.8 1.6 0.7-0.3 2 0.1 3-1-3.6-0.3-5-1.1-5-2.9 0-1 0.3-2.1 0.8-3 0.9-1.7 2.9-1.3 4.6-1.9zm58-1.2c-4.5 0-8.7 0-12.8 0 0.4 1.1 0.7 2.2 1.2 3.5 1.3 0.6 2.7 1.4 4.2 1.7 1.7 0.3 3.4 0.3 5.1 0.4 0.6 0 1.2-0.1 2-0.1 0.1-1.8 0.2-3.5 0.3-5.5zm8.2-12.7c0-1 0-1.7 0-2.3q-0.2-8.5-0.4-16.9 0-1.2-0.2-2.3c-0.1-0.7-0.5-1.2-1.3-1.2-0.8 1.4-1 2.8-1 4.3q0.1 8.1 0.2 16.2c0 0.4 0 0.9 0.1 1.3 0.8 0.3 1.5 0.6 2.6 0.9zm-63.1 1.3q0.2 0.2 0.4 0.3c0.4-0.5 0.8-1 1.5-1.7-0.2 0.7-0.3 1.1-0.5 1.5q0.2 0.1 0.3 0.2c0.4-0.4 0.7-0.8 1.1-1.2 0 0.4 0.1 0.7 0.1 1q0.2 0.2 0.4 0.3 0.4-0.7 0.9-1.4 0.1 0 0.2 0.1-0.1 0.5-0.2 1 0.1 0.1 0.2 0.2c0.3-0.4 0.6-0.8 1-1.4-0.1 0.7-0.1 0.9-0.1 1.2q0.1 0.1 0.2 0.1c0.3-0.4 0.6-0.8 1.1-1.3-0.1 0.6-0.1 1-0.1 1.4q0.1 0 0.2 0.1c0.3-0.4 0.5-0.8 0.8-1.3 0.1 0.6 0.1 0.9 0.2 1.6 0.3-0.7 0.5-1.1 0.8-1.8 0.1 0.7 0.1 1.1 0.2 1.5q0.1 0 0.2 0 0.3-0.7 0.5-1.4 0.1 0.1 0.2 0.1c0.1 0.4 0.1 0.9 0.2 1.6 0.8-2.3 0.2-3.4-1.7-3.7-0.5 0-1 0-1.5-0.1q-6-0.3-12-0.5c-1-0.1-2.1 0-3.4 0 1 1.1 1 2.1-0.1 3q0.2 0.1 0.3 0.2c0.7-0.3 1.4-0.6 2.3-0.9-0.4 0.4-0.6 0.7-0.9 1q0.1 0.1 0.3 0.2c0.4-0.3 0.8-0.6 1.3-1 0 0.3 0 0.6 0 0.9q0.1 0.1 0.3 0.2c0.3-0.4 0.7-0.9 1.4-1.6-0.3 0.7-0.4 1-0.6 1.4q0.2 0.1 0.3 0.2 0.7-0.8 1.4-1.6 0 0.1 0.1 0.2c-0.2 0.4-0.4 0.9-0.6 1.4 1.2 0.2 1.4-0.7 2-1.6-0.1 0.8-0.2 1.2-0.3 2 0.8-0.6 1.4-1 2.2-1.5-0.3 0.5-0.4 0.8-0.6 1.1zm32.8-2.6q-0.2-0.1-0.3-0.2c-0.4 1.2-0.7 2.4-1.1 3.4-1.1 2.4-1 4.6 0.6 6.9 1.4 0.1 3 0.2 4.8 0.3 0-2.8 0-5.3 0-7.8 0-0.9 0-1.9-0.9-2.6 0 0.7 0 1.3 0 1.9 0 2.1-1 2.8-3.1 2.1q0-2 0-4zm29.6 22.1c1.3-3.1 2.5-6.2 3.8-9.5-1.2 0-2.3-0.1-3.3 0.1-0.5 0-1.1 0.4-1.4 0.8-0.3 0.5-0.3 1.2-0.4 1.8-0.2 0.9 0 1.9-0.5 2.5-1.1 1.3-0.8 2.9-1.6 4.3 1.3 0 2.3 0 3.4 0zm-3.6 21c0.1-0.4 0.1-0.6 0.1-0.8q-0.1-4.9-0.3-9.7c0-0.3-0.1-0.7-0.2-1-0.6-1.2-1.3-2.3-1.9-3.4q-0.9 0-1.8 0c0.5 2.2 1.1 4.2 1.7 6.4 0.1 0 0.4 0.1 0.7 0.2-1.4 2.6-0.2 5.3-0.7 7.9 0.9 0.2 1.6 0.3 2.4 0.4zm1.4-69c-2.4-0.6-4.6-1.1-6.9-1.7-2.2-0.5-4.5-1.2-6.8-1.6-2.7-0.5-5.4 0.2-8 1-3.1 0.9-6.2 1.1-9.4 0.9-2.2-0.2-4.5 0-6.8 0 0.3 0.6 0.6 1.2 0.9 1.8 0.3-0.1 0.7 0 0.8-0.2 1-1.3 2.3-1.2 3.7-1.2 3 0 5.9-0.1 8.9-0.1 0.4 0 0.9 0.2 1.4 0.3q-0.1-0.1-0.2-0.3c0.6-0.4 1.2-1 1.9-1.1q3-0.6 6-1c1.2-0.1 2.2 0.4 2.9 1.3 2-1 2.2 1.6 3.6 1.8q0.2-0.2 0.5-0.5 0.2 0.1 0.4 0.3 0.1-0.4 0.2-0.8 0.1 0 0.2 0c0 0.5 0 0.9 0.1 1.8 0.2-0.8 0.3-1.1 0.4-1.5q0.1 0 0.2 0.1 0.2 0.8 0.3 1.6 0.1 0 0.2 0 0.1-0.7 0.2-1.3 0.1 0 0.2 0c0.1 0.5 0.3 1 0.5 1.8 0.1-0.6 0.2-1 0.3-1.7 0.2 0.9 0.4 1.4 0.5 1.9q0.2 0 0.3 0 0.1-0.7 0.2-1.5 0.1 0 0.2 0 0.2 0.9 0.5 1.7 0.1 0 0.2-0.1c0.1-0.4 0.2-0.9 0.3-1.6 0.3 0.7 0.4 1.2 0.6 1.7q0.1 0 0.3 0c0.1-0.4 0.3-0.8 0.5-1.3 0.1 0.5 0.2 0.9 0.2 1.3q0.2 0 0.3 0c0-0.5 0.1-1 0.2-1.8zm-74.4 27.9c0.4 2.4 0.8 4.5 1.1 6.6 2.8-1.6 5.5-3.1 8.4-4.8-2.3-0.3-4.4-0.1-5.9-1.8-0.1-0.1-0.5-0.1-0.8-0.1-0.9 0-1.8 0.1-2.8 0.1zm79.7 6.2c0.1 0.4 0.3 0.7 0.4 1.2 0.3-0.5 0.4-0.8 0.6-1.2 0.1 0.5 0.2 0.8 0.3 1.3 0.2-0.5 0.3-0.8 0.5-1.2 0.2 0.3 0.3 0.6 0.5 0.9 0.1-0.3 0.2-0.4 0.3-0.7 0.2 0.4 0.3 0.7 0.5 1.1 0.2-0.4 0.4-0.6 0.5-0.8 0.9 0.9 2 0.7 3.1 0.7q0-1.3 0-2.3c-2.8-0.9-5.5-1.8-8.5-2.8 0.1 1.8 0.2 3.3 0.3 4.7q0.2 0 0.4 0 0-0.7 0.1-1.4 0.1 0 0.1 0c0.2 0.5 0.3 0.9 0.5 1.6 0.2-0.4 0.3-0.7 0.4-1.1zm-23.5 3.7c0.4-1.1 0.7-2.2 1-3.3q0.2 0.1 0.4 0.1c-0.2 0.5-0.3 1-0.4 1.5-0.1 0.5 0 1.1 0 1.6 1.3 0 1.7-0.8 1.7-3.8-3.5-0.6-5.2-0.6-6.9 0 0 0.9 0 1.9 0 2.6 1.2 1.6 2.7 1.2 4.2 1.3zm1.8 26c-0.4 0.2-0.6 0.3-0.8 0.4 0.3 0.1 0.5 0.2 0.8 0.3-0.5 0.1-0.8 0.2-1.1 0.3q0 0.1 0 0.2 0.6 0.1 1.3 0.2 0 0.3 0 0.5 0 0.2-0.1 0.5 0.3 0 0.5 0.1c1.2-2.2 1.8-4.6 1.9-7.3-1.9 0.2-2.7-2.2-4.8-1.7q0.3 1.5 0.5 2.8c0.5 0.1 0.9 0.2 1.5 0.3-0.5 0.3-0.8 0.4-1.3 0.6 0.7 0.1 1.2 0.2 1.7 0.2q0 0.1 0 0.2-0.8 0.1-1.5 0.2 0 0.1 0 0.2 0.8 0.1 1.6 0.3 0 0.1 0 0.2-0.8 0.1-1.5 0.2 0 0.1 0 0.2 0.6 0.1 1.3 0.2 0 0.1-0.1 0.2c-0.3 0.1-0.7 0.2-1.4 0.4 0.6 0.1 0.9 0.2 1.5 0.3zm8.5-55.9c0.4-0.7 0.7-1.3 0.9-1.8 0.2-0.7 0.2-1.5 0.3-2.2 0.4-1.9 0-2.5-1.9-2.9-0.5 0-1 0-1.7 0 0.1 1.6 0.2 3.1 0.3 4.7q0.4-0.1 1.1-0.3c0.2 1.5-1.4 1.1-1.8 2 1-0.1 2-1.2 2.8 0.5zm-32.7 32.3q-1.3 2.5-2.6 4.8 2.2-0.5 4.5-0.9c0.4-0.9 0.8-1.7 1.2-2.6q0.8 1.2 1.5 2.3 0.2-0.1 0.4-0.2c-0.6-1-1.2-2-1.8-2.9-1.1-0.2-2.1-0.3-3.2-0.5zm43 25.7q0.3-0.1 0.5-0.2c-0.1-1.7-0.2-3.4-0.3-5.2-1.2 0-2.2-0.1-3.4-0.2 0.2 2.4 0.3 4.5 0.4 6.7q0 0 0.1 0 0-2.1 0-4.2 0.2 0 0.3 0 0 2.2 0 4.5 0.2 0 0.4 0 0-2 0-4 0.1 0 0.2 0 0.1 1.6 0.2 3.2 0 0 0.1 0c0.1-0.7 0.1-1.5 0.2-2.5 0.5 0.8 0.9 1.4 1.3 1.9zm10-7.5q0 0.2 0 0.4c1.7 0.2 2 1.4 2.2 2.7q0.1 1 0.1 2c-0.1 1.1-0.2 2.1-0.2 3.3-0.1 0-0.4 0.1-0.6 0.2q0.1 0.4 0.2 0.7c-0.4 0.2-1.2 0-0.7 0.9-0.5 0.1-0.9 0.1-1.3 0.1q-0.1 0.1-0.1 0.2c0.4 0.1 0.7 0.2 1.2 0.3-0.4 0.2-0.6 0.4-0.9 0.6 1.3 0.3 1.9 0 2.4-1.4 1.2-3 0.9-6 0.9-9.1 0-0.1-0.1-0.2-0.1-0.3-0.5-0.4-1-1.1-1.5-1.2-0.5-0.1-1.1 0.3-1.6 0.6zm-102.7-11.5c0.6-0.9 1.1-1.5 1.6-2.2-3.1-1-7.7-0.1-8.4 1.8q3.4 0.2 6.8 0.4zm62.8-23.5c1.7 0 3.3 1.5 5 0.6 0-1.7 0-3.4 0-5.3-1.2 1.1-2.6 1.9-2.6 3.6-0.2-0.2-0.3-0.4-0.4-0.8q-1.1 1-2 1.9zm-19.6 43.7c-1.4-0.9-2.6-1.6-3.7-2.2-0.1 0.4 0 1.1-0.3 1.4-1.6 1.7-1.2 3.3-0.1 5q0.1 0.1 0.2 0.2c1.3 0.1 2.2 1.7 3.8 1.4 0-0.4 0-0.7-0.1-1q-0.1 0.1-0.3 0.3c-1.2-1-2.5-1.9-3.7-2.9-0.5-0.5-0.7-1.2-0.2-1.9 0.5-0.6 1.1-0.6 1.8-0.3 0.7 0.3 1.5 0.5 2.2 0.8 0.1 0 0.2 0 0.4-0.1 0-0.3 0-0.6 0-0.7zm2.7-64.6c0.2 2.6 1.2 4.8 1.8 7q0.3 0 0.5 0c0.3-2 0.6-4.1 0.9-6.2-1.1-0.3-2-0.5-3.2-0.8zm-4.7 31.2c2.1-1.4 4.2-2.8 6.4-4.2-1-0.7-2-1.4-3-2.1-0.2 1.2-0.2 2.1-0.5 2.9-0.2 0.5-0.8 1-1.3 1.2-0.8 0.2-1-0.5-1.1-1.1q-0.1-0.4-0.2-0.9-0.2 0-0.3 0c0 1.3 0 2.7 0 4.2zm62 33.4c1.4-2.8 1.3-6.2-0.3-7.6-0.6 0.5-1.2 0.8-0.2 1.4-0.3 0.3-0.5 0.6-1 1.2 0.7-0.1 1-0.2 1.4-0.3-0.5 0.6-0.9 1-1.3 1.5q0.1 0.1 0.2 0.2 0.8-0.5 1.5-0.9 0.1 0.1 0.1 0.3-0.7 0.6-1.4 1.2 0.1 0.1 0.2 0.2 0.5-0.2 1-0.5 0.1 0.1 0.2 0.2c-0.6 0.5-1.3 0.9-1.9 1.4 0.5 0.4 0.6 0.5 0.8 0.7-0.2 0.3-0.4 0.7-0.6 1.1 0.6 0 0.9-0.1 1.3-0.1zm-18.5-40.6c0 2.4 0 4.6 0 7 0.6-0.3 0.9-0.6 1.4-0.9 0-2 0-4.1 0-6.1-0.6 0-1 0-1.4 0zm-43.8 30.8c-1 0.4-1.3 1-1 1.9 0.5 1 0.1 1.9-0.7 2.7-0.5 0.4-0.8 0.9-0.3 1.7 0.2-0.5 0.3-0.9 0.5-1.2 0.6-1.1 1.7-1.6 2.7-0.4 0.3 0.3 0.7 0.6 1.1 0.9 0.1 0 0.3 0 0.5 0q0-0.8 0.1-1.4c-1.8-0.9-3.3-1.8-2.9-4.2zm51.6-22.3q0.1 0 0.3-0.1c0.1-1.6 0.2-3.2 0.3-4.8-1-0.2-1.7-0.4-2.6-0.6 0.1 1.9 0.2 3.5 0.3 5.2q0.2 0 0.3 0-0.1-1.9-0.2-3.8 0.2 0 0.3 0 0.2 1.9 0.5 3.8 0.1 0 0.2 0-0.1-1.5-0.1-3 0.1 0 0.3 0 0.2 1.6 0.4 3.3zm18.1 22.6c1.4-1.3 2.2-2.8 2.5-4.7 0.1-0.8-0.4-1.4-1.2-1.6-0.6-0.2-1.3-0.3-1.9-0.4 1.9 1.4 2.1 3.8 0.6 6.7zm-23.9-11.6c0.5-0.5 1.1-0.8 1.2-1.1 0.3-1.5 0.4-2.9 0.6-4.5-0.7 0-1.2 0-1.8 0 0 1.8 0 3.5 0 5.6zm-40.8-3.4c-2.6 1.8-4.1 4.1-5.5 6.4 2.9-1.9 4.8-4.2 5.5-6.4zm55.8-10.6q0.1-0.2 0.2-0.4c-0.5-0.4-1-0.8-1.6-1-1.5-0.5-2.9-0.9-4.4-1.3-0.6-0.2-1.3-0.4-2.1-0.7 0.1 0.5 0.1 0.8 0.2 0.8 2.5 0.9 5 2.2 7.7 2.6zm-12.2 25.6q0.2 0.1 0.4 0.1 0-1 0.1-2.1c0.6 0.7 1.2 1.4 1.7 2.1 0.2-0.3 0.6-0.6 0.5-0.7-1-2-2.5-3.7-4.2-5.3 0 0.5 0 1 0.3 1.3 1.1 1.4 1.7 2.8 1.2 4.6zm-44.1-1c-2.4-1.7-2.4-1.8-2.1-3.7-1.2 0.2-1.2 0.2-1 2.6 0.8 1.1 1.5 2 2.3 3.1 0.4-1 0.6-1.4 0.8-2zm46-18.7q2.6 0 5.3 0c0.2-0.6 0.4-1 0.6-1.4-3.2-0.4-5.4 0.2-5.9 1.4zm-10.4 13.3c0.1 0.6 0.1 0.9 0.2 1.6 0.3-0.6 0.5-0.9 0.7-1.4 0.1 0.5 0.1 0.9 0.1 1.3 0.3-0.2 0.5-0.3 0.7-0.5 0.2 0.2 0.3 0.4 0.6 0.7 0.1-0.9 0.1-1.5 0.2-2.2-1.5 0-2.8 0-4.2 0q-0.2 0.8-0.4 1.5 0.2 0 0.3 0.1c0.2-0.4 0.5-0.8 0.8-1.4 0 0.7 0.1 1.1 0.1 1.6q0.1 0 0.2 0c0.2-0.4 0.4-0.7 0.7-1.3zm17.6 10.1c-1.1-0.4-1.9-0.6-2.6-1.1-0.7-0.4-1.2-1-1.8-1.5 0 1.1 0 2.2 0 3.7 1.2-1.9 2.8-0.1 4.4-1.1zm-4.9 12.4c0.7-1.1 1.5-0.9 2.4-0.6 0.5 0.2 1 0.3 1.4 0.3 0.4-0.1 0.8-0.4 1.1-0.5-2.6 0.2-5-0.9-5.3-3q-0.6 0.1-1.2 0.2c1.9 0.6 0.4 2.5 1.6 3.6zm-54.7-38.7c1.4-0.7 1.7-2.2 1-4.8-0.2 0-0.4-0.1-0.6-0.1-0.1 0-0.3 0.2-0.4 0.2 0 1.6 0 3.1 0 4.7zm13.1-7.7q-0.1-0.1-0.1-0.2-2.1-0.2-4.2-0.3c-0.2 1.2 0.1 1.8 1.2 2q1.5-0.7 3.1-1.5zm33.3 36.9c-0.2-2.2-0.3-4.1-0.5-6q-0.2 0-0.3 0.1c-0.3 1.8-0.5 3.7-0.7 5.7 0.5 0 0.9 0.1 1.5 0.2zm-6.7-16.6c1.9 0 3.6 0 5.5 0 0-0.6-0.1-0.9-0.1-1.5-0.6 0.4-0.9 0.7-1.4 1 0-0.3 0-0.5 0-0.9-0.4 0.4-0.6 0.7-1 1 0-0.4 0-0.7-0.1-1.2-0.5 0.6-0.8 0.9-1.1 1.3q-0.6-0.3-1.4-0.6c-0.1 0.3-0.3 0.6-0.4 0.9zm-57.9-20.9q0-0.3 0-0.6c-1.9-0.4-3.8-0.2-6-0.2 0.4 0.4 0.5 0.8 0.7 0.8 1.8 0 3.5 0 5.3 0zm52.6-27.6c1.4 1.4 2.9 1.2 3.7-0.5-1.4-0.6-2.7-0.5-3.7 0.5zm2.8 34.8q-0.2 0-0.4-0.1c-0.8 1.2-1 2.4-0.8 3.9 0.5 0.1 0.9 0.1 1.5 0.1-0.1-1.4-0.2-2.7-0.3-3.9zm19.7 42.9c0.4 1 1.5 1.5 2.7 1.4 0.9-0.1 1.5-0.6 1.6-1.4-1.5 0-2.8 0-4.3 0zm-61.7-43.8c-1.3 0.9-2.7 1.8-4.3 2.8 2.7 0.6 3.4-1.2 4.3-2.8zm43.8 15.9c1 0.6 4.8 0.9 5.5 0.5 0.1 0 0.2-0.3 0.2-0.5-1.9 0-3.8 0-5.7 0zm24 2.5c0.3-1-0.1-1.8-0.7-2.4-0.3-0.3-0.8-0.3-1.3-0.5q-0.4 0.8-0.5 1.2c0.8 0.6 1.6 1.1 2.5 1.7zm-32.6-52.5c0.9 1.6 0.9 1.6 2.4 1.2 0-0.5 0-1 0-1.7-0.9 0.2-1.6 0.4-2.4 0.5zm21.1 52c-0.6 1.2-0.6 1.2 1.4 2.3 0.2-0.4 0.5-0.7 0.8-1.2-0.8-0.4-1.4-0.7-2.2-1.1zm-1.2-8.4c-0.6 2.2-1.2 4.5-1.8 6.9 1.2-2.2 2.1-4.5 1.8-6.9zm-44.5 5.1c0 0.6 0.1 1 0.2 1.5 1.7-0.7 1.8-0.9 1.9-2.5-0.7 0.3-1.4 0.6-2.1 1zm44.6-15.2c-0.8 0.6-1.8 0.5-1.8 1.7 0.7 0.2 1.3 0.4 2.1 0.7-0.1-0.8-0.2-1.5-0.3-2.4zm8.4 20.4c0.9 0.2 1.9 0.4 3 0.6-0.1-1-0.6-1.3-1.2-1.5q-1.2-0.3-1.8 0.9zm-52.3 5.7c0.8 0.4 1.4 1 2.3 0-0.5-0.5-0.9-1-1.6-1.7-0.3 0.7-0.5 1.1-0.7 1.7zm52.6 6.8c-1.4-0.5-2.5-0.9-3.7-1.3 0.2 1.2 1.9 1.8 3.7 1.3zm-9.5-15.5c1.2 0 2.4 0 3.6 0-0.6-0.8-1.9-0.9-3.6 0zm-27.6-6.5c-0.9 0.3-1.6 0.5-2.3 0.7q0 0.2 0 0.3c0.9 0.3 1.8 0.5 2.9 0.9-0.3-0.8-0.4-1.2-0.6-1.9zm-7.4-6.9q0.1 0.1 0.2 0.3c0.9-0.3 1.8-0.5 2.9-0.8-0.4-0.5-0.7-0.8-1-1.2-0.8 0.6-1.4 1.2-2.1 1.7zm-95.8 41.3c1.7-0.6 3.4-1.1 5.3-1.8-2.3-0.5-3.8 0.9-5.3 1.8zm93.3-75.9c0.4-0.6 0.7-1.1 0.7-1.5 0.1-0.3-0.4-0.6-0.8-1-0.7 0.9-0.9 1.5 0.1 2.5zm-13.7 55.9c1.2-1.5 1.2-1.6 0.1-2.4-0.3 0.7-1.4 1.5-0.1 2.4zm-2 9.6c0.4-1.6 0.4-1.6-0.9-2.1 0.2 0.7-0.6 1.7 0.9 2.1zm0.3-7.1c-0.6 1.3-0.4 2.1 0.5 2.1q0.3-0.4 0.8-0.9c-0.5-0.5-0.9-0.8-1.3-1.2zm7.6 17q0.1-0.3 0.2-0.6-1.8-0.7-3.7-1.5-0.1 0.3-0.2 0.5 1.8 0.8 3.7 1.6zm49.4-48q0.2-0.2 0.3-0.4c-0.4-1-1.5-0.8-2.4-1.2 0 0.4-0.1 0.7-0.1 1 0.8 0.2 1.5 0.4 2.2 0.6zm-58.1 41.5c0.1 1 0 1.8 1.2 2.1q0.2-0.6 0.5-1.3c-0.6-0.3-1-0.5-1.7-0.8zm9.8-7.5c0.8 0 1.6 0.4 1.9-0.7-0.5-0.2-1-0.4-1.6-0.7-0.1 0.5-0.2 0.8-0.3 1.4zm53.8 6c-1.2-0.1-2.2-0.2-3.6-0.3 1 0.6 1.7 0.9 2.5 1.4 0.4-0.4 0.7-0.7 1.1-1.1zm-56.8 10.9c1.9 1.4 2.5 1.6 3.7 1.2-1.1-0.4-2.2-0.7-3.7-1.2zm-32.2-53.6c0.2-1 0.4-1.7 0.5-2.4-1.2 0.3-1.8 0.9-1.5 1.4q0.3-0.1 0.5-0.2c0.1 0.3 0.2 0.6 0.5 1.2zm45.8 14c0.7 2.5 1.1 3.1 2 3.3-0.7-1.1-1.3-2.2-2-3.3zm9.6-2.9q-0.2-0.2-0.3-0.4c-1.1 0.7-2.2 1.4-3.7 2.3 2 0.1 2.6-1.5 4-1.9zm30.7 38.3c-0.4-0.3-0.8-0.7-1.3-1q-0.1 0.1-0.3 0.2c0.2 0.4 0.4 0.8 0.6 1.2 0.2 0.4 0.5 0.8 0.8 1.3 0-0.6 0.1-1.1 0.2-1.7zm-67-35.6c0.5-1.2 0.2-1.7-1.1-2.5 0.4 1 0.8 1.8 1.1 2.5zm19.5 13.9c0.7 0.6 1.3 1.1 2.5 0.7-0.8-0.6-1.3-1-1.8-1.5-0.3 0.3-0.5 0.5-0.7 0.8zm17.8-34.5q-0.1-0.1-0.2-0.1c-1 1-1.9 2-2.4 2.5 0.5-0.5 1.5-1.4 2.6-2.4zm24.1 39.4q0 0.2 0 0.4c1 0 2 0.3 3 0q0-0.2 0-0.4-1.5 0-3 0zm-45.2-55.7c-0.6 0-0.9 0-1.3 0 0.9 0.4-0.4 2 1.2 1.9 0-0.6 0.1-1.1 0.1-1.9zm-0.5 69.6c0.8-0.3 1.5-0.3 1.4-1.2 0-0.1-0.1-0.1-0.2-0.3q-0.6 0.1-1.3 0.2c0 0.5 0 0.7 0.1 1.3zm45.9 0.2c0.4-0.5 0.8-0.9 1.2-1.3q-0.1-0.1-0.2-0.3c-0.4 0.1-0.8 0.1-1.2 0.2-0.3 0.2-0.5 0.5-0.7 0.8 0.3 0.3 0.5 0.4 0.9 0.6zm-42.3 14.1q0 0.2-0.1 0.4 1.6 0.1 3.1 0.2 0-0.2 0-0.4c-0.9-0.6-2-0.1-3-0.2zm-3.3-10.9q0.1 0.3 0.1 0.6c0.8 0.1 1.5 0 1.9-0.7q-0.1-0.2-0.1-0.4-1 0.2-1.9 0.5zm11-32.4q0.3-0.2 0.5-0.3-0.9-1.6-1.8-3.1-0.2 0.1-0.4 0.2 0.9 1.6 1.7 3.2zm-29.2 10.1q0.2 0 0.4-0.1-0.5-1.6-0.9-3.1-0.3 0.1-0.5 0.1 0.5 1.6 1 3.1zm31.4-7.4q-0.1 0.2-0.2 0.4 0.4 0.7 0.8 1.4 0.3 0 0.5-0.1c0-0.5 0.1-1-0.1-1.3-0.1-0.3-0.6-0.3-1-0.4zm32.4 21.9q0 0.2 0 0.5 1.4-0.2 2.8-0.3 0-0.1 0-0.2-1.4 0-2.8 0zm-2.4-22c-1.2-0.1-1.4 0.5-1.6 1.4 0.4 0 0.8 0 1.1 0 0.2-0.5 0.3-0.9 0.5-1.4zm-54.5 22.7q0.2-0.1 0.4-0.1-0.7-1.5-1.4-3-0.2 0.1-0.4 0.2 0.7 1.4 1.4 2.9zm63-15.5c0.4-0.9 0.1-1.2-0.7-1.1-0.2 0-0.3 0.1-0.7 0.1 0.5 0.2 0.8 0.4 1.3 0.6-0.6 0.1-0.9 0.2-1.6 0.3 0.7 0 1.2 0.1 1.7 0.1zm12.9 8.5c-0.7-0.7 0.5-1.9-0.8-2.4-0.2 1.9-0.2 1.9 0.8 2.4zm-61.9 22.6q0-0.2 0-0.5-1.5-0.1-3-0.3 0 0.2 0 0.4 1.5 0.2 3 0.4zm27.9-32.3c-1.4 0.7-1.4 0.7-1.4 1.5 1.3-0.5 1.3-0.5 1.4-1.5zm-29.2 28.6q0.2 0.2 0.4 0.4 0.7-0.6 1.5-1.2-0.1-0.2-0.3-0.4c-0.6 0.3-1.5 0.2-1.6 1.2zm-12.2-49.3c0.7-1 0.5-1.4-0.6-1.9 0.2 0.7 0.4 1.3 0.6 1.9zm21.1 18c0.6-1.5 0.4-1.9-0.7-1.8q0.4 1 0.7 1.8zm-28 0.7q-0.3 0.1-0.5 0.1 0.2 1.1 0.5 2.1 0.2-0.1 0.5-0.1-0.3-1.1-0.5-2.1zm20.9 33.4c1.3 0.7 1.4 0.7 2-0.6-0.6 0.2-1.1 0.4-2 0.6zm38.6-41.4q-0.2 0-0.4 0-0.1 1.2-0.2 2.4 0.2 0 0.4 0 0.1-1.2 0.2-2.4zm-26-3.9q0.1 0.2 0.1 0.3 1.3-0.7 2.5-1.5-0.1-0.1-0.2-0.3-1.2 0.8-2.4 1.5zm10.9 9.5q0.2 0.3 0.4 0.5 0.9-0.6 1.8-1.1-0.1-0.3-0.2-0.5-1 0.6-2 1.1zm-26.8 18.5c0 0.5 0 0.9 0 1.3q0.2 0 0.3 0.1c0.3-0.3 0.6-0.6 1.1-1.2-0.6-0.1-1-0.2-1.4-0.2zm-10.1-30.6q0.9-0.1 1.8-0.3 0-0.2 0-0.4c-0.6-0.1-1.3-0.5-1.8 0.7zm-4.9 3.3c0.5-0.9 0-1.4-0.7-1.8q0.3 0.9 0.7 1.8zm58.3-7q0.2 0.2 0.4 0.5c0.3-0.7 1.5-0.3 1.4-1.7-0.7 0.5-1.2 0.8-1.8 1.2zm6.8 45.3c-0.8-1.1-1.3-0.9-1.8 0 0.6 0 1.1 0 1.8 0zm-50.8-70.9c0 0.1 0.1 0.1 0.1 0.2q-0.2 0.3-0.4 0.5c0.8-0.1 1.2-0.8 0.7-1.4-0.3 0.1-0.6 0.3-1.1 0.5 0.4 0.1 0.5 0.2 0.7 0.2zm-11.4 62.8q0.2-0.1 0.5-0.3-0.6-1.1-1.2-2.2-0.2 0.1-0.3 0.2 0.5 1.2 1 2.3zm24.8-26.9q0.2-0.1 0.3-0.2-0.5-1-1.1-1.9-0.2 0.1-0.4 0.2 0.6 0.9 1.2 1.9zm5.9 0.8q-0.2 0.1-0.4 0.1 0.3 1.1 0.6 2.1 0.2-0.1 0.4-0.1-0.3-1.1-0.6-2.1zm23.2 7.6c-0.9 0.6-0.7 1.1-0.4 1.7q0.2 0 0.4 0 0-0.9 0-1.7zm-27.3-13.2q-0.1-0.1-0.2-0.2-1.2 0.8-2.3 1.6 0.1 0.1 0.2 0.3 1.2-0.8 2.3-1.7zm29-1.1c-0.3 0.5-0.5 0.9-0.7 1.3 0.6 0 0.9 0 1.5 0-0.3-0.5-0.5-0.8-0.8-1.3zm-47.2 15.8c-0.2-0.4-0.3-0.7-0.7-1.3-0.2 0.7-0.4 1.2-0.7 2 0.7-0.4 1-0.5 1.4-0.7zm35.3-7q-0.2 0-0.3 0 0.1 1.3 0.3 2.5 0.1 0 0.3-0.1-0.1-1.2-0.3-2.4zm-2.2 3q-0.1-0.3-0.3-0.5-0.9 0.5-1.8 1.1 0 0.2 0.1 0.3 1-0.5 2-0.9zm7.4-34.5q-0.2 0-0.3 0 0 1.6 0 3.2 0.1 0 0.3 0 0-1.6 0-3.2zm-10.1 27.9q-0.1-0.1-0.2-0.3-0.8 0.5-1.6 1 0.1 0.1 0.2 0.3 0.8-0.5 1.6-1zm-26.8 6.5q-0.1-0.2-0.3-0.4-0.8 0.5-1.5 1.1 0.1 0.1 0.2 0.3 0.8-0.5 1.6-1zm8 3.3q0.1 0 0.2-0.1c-0.2-0.5-0.5-0.9-0.9-1.5-0.2 0.3-0.4 0.5-0.6 0.7 0.5 0.3 0.9 0.6 1.3 0.9zm34.8-19q-0.1 0-0.3 0-0.1 0.9-0.1 1.8 0.2 0 0.4 0 0-0.9 0-1.8zm15.4 11.5q-0.2 0-0.4 0c-0.2 0.5-0.3 1-0.6 1.7 1.4-0.4 0.8-1.1 1-1.7zm-74 8.6q-0.1 0-0.2 0-0.4 1.1-0.7 2.3 0.1 0 0.3 0.1 0.3-1.2 0.6-2.4zm80 10.9q-0.2 0.1-0.4 0.2 0.4 0.8 0.8 1.6 0.2-0.1 0.4-0.2-0.4-0.8-0.8-1.6zm-29.1-38.3q0.2-0.1 0.4-0.1c-0.1-0.3-0.2-0.7-0.4-0.9-0.1-0.1-0.4-0.1-0.7-0.1 0.3 0.5 0.5 0.8 0.7 1.1zm-44 11.5q0-0.2 0-0.4-0.8-0.1-1.7-0.2 0 0.2 0 0.4 0.8 0.1 1.7 0.2zm-54.2 45.2q0.3 0.1 0.6 0.2 0.1-0.7 0.2-1.3-0.2 0-0.4-0.1-0.2 0.6-0.4 1.2zm119.9-45.2q0-0.2 0.1-0.4-1.1-0.1-2.2-0.2 0 0.1 0 0.2 1 0.2 2.1 0.4zm-106.8 47.9c-0.9 0.6-0.9 0.6-0.3 1.5 0.2-0.6 0.2-0.9 0.3-1.5zm99-10.2c-0.7-0.8-0.7-0.8-1.5 0.3 0.7-0.2 1.1-0.2 1.5-0.3zm1-24.1q0.1-0.2 0.2-0.3-0.6-0.4-1.1-0.9-0.2 0.2-0.3 0.4 0.6 0.4 1.2 0.8zm-4.6 20.8q-0.3-0.2-0.5-0.4-0.4 0.5-0.9 1 0.2 0.2 0.4 0.3 0.5-0.4 1-0.9zm-56.5-34.2q0 0.2 0 0.3 0.9 0.2 1.8 0.3 0-0.2 0.1-0.4-1-0.1-1.9-0.2zm73.3 35.7q-0.1 0-0.1-0.1 0 1.1 0 2.2 0 0 0.1 0 0-1.1 0-2.1zm-34.1-16.9q0.1-0.2 0.2-0.4-0.6-0.2-1.2-0.4-0.1 0.2-0.2 0.4 0.6 0.2 1.2 0.4zm0.6-9.5q-0.2-0.2-0.3-0.3-0.7 0.5-1.4 1 0.1 0.1 0.1 0.2 0.8-0.5 1.6-0.9zm-28.1 40.3q0.2-0.1 0.3-0.2-0.5-0.6-1-1.1-0.1 0.1-0.3 0.2 0.5 0.5 1 1.1zm4-85.4q0.2-0.1 0.5-0.1-0.1-0.6-0.2-1.2-0.2 0-0.4 0 0 0.7 0.1 1.3zm35.5 51.1q0.1 0.1 0.3 0.1 0-1 0-2.1-0.1 0-0.2 0 0 1-0.1 2zm-42-24.2q0.1 0.2 0.3 0.3 0.6-0.6 1.3-1.2-0.1-0.2-0.3-0.3-0.6 0.6-1.3 1.2zm32.9 28.9q0.1 0.2 0.3 0.4 0.6-0.5 1.1-0.9-0.1-0.2-0.3-0.4-0.6 0.5-1.1 0.9zm-104.6 23q-0.1-0.2-0.2-0.4-0.7 0.4-1.5 0.8 0.1 0.2 0.2 0.4 0.8-0.4 1.5-0.8zm62-42.3q0 0.2 0 0.4 0.7 0.1 1.4 0.2 0-0.2 0-0.3-0.7-0.2-1.4-0.3zm35.1-20.6q0.1 0.1 0.2 0.2 0.6-0.5 1.2-1-0.1-0.1-0.2-0.3-0.6 0.6-1.2 1.1zm37.5 21.1q0.1-0.1 0.2-0.3-0.8-0.5-1.5-0.9-0.1 0.1-0.2 0.3 0.7 0.4 1.5 0.9zm-18.7 11.5q0-0.3 0.1-0.6-0.4 0-0.9-0.1-0.1 0.2-0.1 0.4 0.4 0.2 0.9 0.3zm-17.6-36.4q0.1 0.2 0.3 0.3 0.5-0.5 1-1-0.1-0.1-0.3-0.3-0.5 0.5-1 1zm-32.3 64.4c0.5-0.9 0.3-1.3-0.4-1.5 0 0-0.1 0.1-0.3 0.2 0.2 0.3 0.4 0.7 0.7 1.3zm56.9-23.3q0-0.2 0-0.5-0.7 0.1-1.3 0.1 0 0.2 0 0.4 0.7 0 1.3 0zm-107.6 29q0.2 0.1 0.4 0.2 0.2-0.4 0.3-0.9c0 0-0.1 0-0.4-0.2q-0.2 0.5-0.3 0.9zm56.5-54.1q0.2 0.1 0.4 0.3 0.4-0.6 0.8-1.1-0.1-0.1-0.2-0.2-0.5 0.5-1 1zm61.1 18q-0.1 0.1-0.2 0.2 0.3 0.5 0.7 1 0.1-0.1 0.2-0.1-0.3-0.6-0.7-1.1zm-122.8 33.9q-0.2 0-0.4-0.1-0.1 0.5-0.2 1.1 0.2 0 0.4 0.1 0.1-0.6 0.2-1.1zm96.1-34.4c0.2 0.1 0.4 0.2 0.4 0.1q0.4-0.5 0.8-1-0.1-0.1-0.2-0.2-0.5 0.5-1 1.1zm-9.7-7.6q0.1 0.1 0.2 0.3 0.7-0.4 1.3-0.8-0.1-0.2-0.2-0.3-0.6 0.4-1.3 0.8zm-35 0.4q-0.1-0.1-0.1-0.2c-0.2 0-0.4-0.1-0.5 0-0.2 0-0.4 0.2-0.5 0.3q0 0.1 0.1 0.2 0.5-0.2 1-0.3zm26.4 1.6q-0.1 0-0.3 0 0 0.7-0.1 1.4 0 0 0.1 0 0.1-0.7 0.3-1.4zm-71.2 42.3q0.2-0.1 0.5-0.1-0.1-0.6-0.2-1.1-0.2 0-0.4 0 0 0.6 0.1 1.2zm-32-7.4q-0.1-0.1-0.1-0.3-0.8 0.4-1.5 0.8 0.1 0.2 0.1 0.3 0.8-0.4 1.5-0.8zm122.7-52.4q-0.3-0.1-0.6-0.1 0.1 0.5 0.1 1 0.2-0.1 0.5-0.1 0-0.4 0-0.8zm1.8-8.1q-0.2 0-0.5-0.1-0.1 0.5-0.1 1 0.2 0.1 0.5 0.1 0-0.5 0.1-1zm-48.7 25q-0.1-0.2-0.2-0.4-0.5 0.2-1 0.3 0.1 0.2 0.1 0.4 0.6-0.1 1.1-0.3zm28-1.9q-0.1-0.2-0.2-0.3-0.5 0.3-0.9 0.7 0 0.1 0.1 0.2 0.5-0.3 1-0.6zm0.8-1q0 0.1 0.1 0.2 0.5-0.3 0.9-0.6-0.1-0.1-0.1-0.2-0.5 0.3-0.9 0.6zm-64.4 47.8q0.2 0.1 0.4 0.1 0.1-0.5 0.2-1-0.2 0-0.4-0.1-0.1 0.5-0.2 1zm39.6-51.4q0 0.2 0 0.3 0.6 0 1.2 0 0-0.1 0-0.2-0.6-0.1-1.2-0.1zm43.9-2.5q0.2 0 0.4 0-0.1-0.5-0.1-1-0.2 0-0.3 0 0 0.5 0 1zm-30.8-1.1q0 0.1 0.1 0.2 0.6-0.3 1.2-0.7-0.1-0.1-0.1-0.2-0.6 0.3-1.2 0.7zm15.9-1.6q0.2 0.2 0.4 0.4 0.4-0.4 0.8-0.9-0.1-0.1-0.3-0.2-0.4 0.4-0.9 0.7zm44.3 33.4q-0.2 0.2-0.3 0.4 0.3 0.3 0.7 0.7 0.1-0.2 0.3-0.3-0.4-0.4-0.7-0.8zm-3.3-14q-0.1 0.1-0.3 0.2 0.3 0.3 0.6 0.6 0.1-0.1 0.3-0.3-0.3-0.3-0.6-0.5zm-33.6-23.7q-0.1 0.2-0.1 0.5 0.5 0.1 1 0.2 0-0.2 0.1-0.4-0.5-0.2-1-0.3zm6 22.8q0.3 0.1 0.5 0.2 0.3-0.5 0.6-1.1-0.2-0.1-0.3-0.2-0.4 0.5-0.8 1.1zm-7.4-22.8q-0.1 0.2-0.2 0.4 0.4 0.2 0.8 0.4 0.1-0.2 0.2-0.3-0.4-0.3-0.8-0.5zm8.6-1.5q-0.1 0.2-0.1 0.4 0.5 0.1 1 0.2 0.1-0.1 0.1-0.3-0.5-0.2-1-0.3zm31.1 30.7q0.2 0.2 0.4 0.3 0.3-0.3 0.6-0.7-0.2-0.1-0.3-0.2-0.3 0.3-0.7 0.6zm-78.7 15.2q0.1-0.1 0.3-0.1-0.2-0.6-0.5-1.2-0.1 0.1-0.2 0.1 0.2 0.6 0.4 1.2zm34.1-28.5q-0.2 0.2-0.4 0.4 0.5 0.4 1 0.8 0.1-0.1 0.2-0.2-0.4-0.5-0.8-1zm-16.6 0q-0.1-0.1-0.2-0.2-0.3 0.7-0.6 1.3 0.1 0.1 0.2 0.1 0.3-0.6 0.6-1.2zm26 16q0.1 0.1 0.2 0.2 0.4-0.3 0.7-0.7-0.1-0.1-0.1-0.2-0.4 0.4-0.8 0.7zm-47.4-17.6q-0.1 0-0.2 0.1 0.2 0.4 0.5 0.8 0.1-0.1 0.2-0.1-0.3-0.4-0.5-0.8zm52.2-12q-0.2 0-0.5 0.1 0.1 0.4 0.2 0.8 0.1 0 0.3-0.1 0-0.4 0-0.8zm-5.2 17.4q-0.2 0-0.4 0.1 0.2 0.4 0.4 0.8 0.1 0 0.2 0-0.1-0.5-0.2-0.9zm-4.6-3q-0.1-0.2-0.2-0.3-0.3 0.3-0.6 0.6 0.1 0.1 0.2 0.2 0.3-0.3 0.6-0.5zm41 11.2q0-0.1-0.1-0.2c-0.1 0-0.4-0.1-0.5 0-0.2 0.1-0.3 0.3-0.4 0.5q0.1 0.1 0.2 0.2 0.4-0.3 0.8-0.5zm-92.2-3.8q-0.2-0.2-0.4-0.4-0.3 0.4-0.6 0.8 0.2 0.1 0.3 0.3 0.4-0.4 0.7-0.7zm61.3-22.7c-0.2-0.1-0.4-0.2-0.5-0.3-0.1 0-0.2 0.2-0.3 0.3 0.1 0.1 0.3 0.3 0.4 0.3 0.1 0.1 0.2-0.1 0.4-0.3zm15.8 29.4q0-0.2 0-0.5-0.5 0.1-0.9 0.2 0 0.1 0 0.3 0.5 0 0.9 0zm4.9-4.4q0-0.1 0-0.2-0.5-0.1-1.1-0.3 0 0.2 0 0.3 0.5 0.1 1.1 0.2zm-105.4 33.7q-0.1 0-0.3 0 0.1 0.5 0.1 1 0.1 0 0.2 0 0-0.5 0-1zm80.8-60.5q-0.2 0-0.4 0.1 0.2 0.4 0.4 0.7 0.1 0 0.2-0.1-0.1-0.3-0.2-0.7zm-41.1 6.7q0.2 0 0.3 0-0.2-0.6-0.4-1c0-0.1-0.1 0-0.4 0q0.3 0.6 0.5 1zm8-0.6q0.1 0.1 0.2 0.2 0.3-0.3 0.6-0.6-0.1-0.1-0.2-0.2-0.3 0.3-0.6 0.6zm-34.3 4.1c0.4 0.1 0.5 0.2 0.5 0.2q0.3-0.4 0.6-0.7-0.1-0.1-0.2-0.1c-0.2 0.2-0.5 0.4-0.9 0.6zm84.4 20.6q0 0.1-0.1 0.3 0.5 0 0.9 0.1 0-0.2 0-0.4-0.4 0-0.8 0zm-83.2-16.9q-0.1-0.1-0.2-0.2-0.4 0.4-0.7 0.7 0.1 0.1 0.1 0.1 0.4-0.3 0.8-0.6zm52.4 3.3q0.1-0.2 0.2-0.3-0.3-0.3-0.6-0.6-0.1 0.1-0.2 0.2 0.3 0.4 0.6 0.7zm17.3-9.3q-0.2 0-0.3 0 0 0.3 0 0.6 0.1 0 0.3 0 0-0.3 0-0.6zm-0.2-22.6q0 0.2 0 0.4 0.3 0 0.6-0.1c0 0 0-0.2 0-0.2q-0.3-0.1-0.6-0.1zm-96 68.9c2.5-1 5.1-1.8 8-0.9q-4 0.7-8 1.3 0-0.2 0-0.4zm0.3-23.5c1 3.1 1.2 6.3 0.8 9.6q-0.4-4.8-0.8-9.6zm9.3 15.7c-0.1-3-0.2-6.1-0.3-9 0.6 1 1 6.8 0.3 9zm-1.4-9.6c0.4 1.2 0.6 8.6 0 10.6 0-3.6 0-7.2 0-10.6zm-4.6 15.7c-2.3 0.4-4.5 1.6-6.9 1.2q3.4-0.8 6.8-1.5 0 0.2 0.1 0.3zm14.4 1.5c-2.1 0.6-4.3 1.3-6.6 2 1.1-1 4-1.9 6.6-2zm-2.7 3.4q-0.1-0.1-0.1-0.2c0.2-0.1 0.4-0.3 0.6-0.4 1.6-0.6 3.2-1.2 4.8-1.7 0.3-0.1 0.7 0 1 0.1q-3.1 1.1-6.3 2.2zm6.6-6.5q0.7-3 1.5-5.9c0.2 2.1-0.5 4-1.5 5.9zm-1 0q0.5-3.4 0.9-6.8c0.3 2.3 0.2 4.6-0.9 6.8zm-7.5 5.7c2-0.8 3.8-1.8 6-1.9q-2.9 1.1-5.8 2.2-0.1-0.2-0.2-0.3zm2.3-3.3q0 0.1 0.1 0.3-2.4 0.8-4.7 1.6-0.1-0.1-0.1-0.2 1-0.5 2-1.1 0 0 0 0 0 0 0 0v0.1q1.3-0.4 2.7-0.7zm-7.1 1.6q0-0.2-0.1-0.3c1.5-0.4 3.1-0.9 4.8-1.4-0.2 0.4-0.3 0.6-0.3 0.7q-2.2 0.5-4.4 1zm-9-2.4q-2.3 0.5-4.6 0.9-0.1-0.2-0.1-0.3 2.3-0.5 4.7-1 0 0.2 0 0.4zm10.8 1q-1.9 0.6-3.9 1.3 0-0.2-0.1-0.4 2-0.6 3.9-1.2 0 0.2 0.1 0.3zm9-2.8q-1.5 0.4-3.1 0.7 0-0.1-0.1-0.3 1.6-0.4 3.1-0.8 0.1 0.2 0.1 0.4zm-23.3 1.6q-1.7 0.2-3.3 0.4-0.1-0.2-0.1-0.3 1.7-0.3 3.3-0.5 0.1 0.2 0.1 0.4zm0.6-2.9q1.3-0.2 2.5-0.3 0.1 0.1 0.1 0.3-1.3 0.2-2.6 0.4 0-0.2 0-0.4zm7 0.3q-1.2 0.8-2.3 1.6-0.1-0.2-0.2-0.3 1.1-0.8 2.2-1.6 0.2 0.2 0.3 0.3zm-4.3-12.5q-0.2-1-0.4-2 0.2-0.1 0.3-0.1 0.3 1 0.5 2.1-0.2 0-0.4 0zm12.2 13.2q-0.2 0-0.4 0.1-0.5 0.5-1.1 1-0.1-0.1-0.2-0.3 0.5-0.4 1.1-0.9c0.5-0.4 1-0.9 1.6-1.3 0.1 0 0.4 0.2 0.7 0.3q0.1 0.1 0.3 0.2-0.5 0.4-0.9 0.8 0.2-0.4 0.4-0.9-0.8 0.5-1.5 1zm8.8 2q-0.7 0-1.4 0.1 0-0.2-0.1-0.4 0.8 0 1.5-0.1 0 0.2 0 0.4zm-20.9-1.8q-0.8 0.3-1.7 0.5 0-0.1-0.1-0.3 0.8-0.2 1.7-0.5 0 0.2 0.1 0.3zm84.8-8.5c0 2.7-0.5 5.1-1.6 7.3-0.4 0.9-0.9 1.7-1.5 2.5-3.2 4.1-7.9 4-11.1-0.1q-1.8-2.4-2.1-5.4c-0.4-4.3 0.6-8.2 3.1-11.7 1.4-1.9 3.2-3 5.6-3.1 2.1-0.2 3.7 0.5 4.9 2.3 1.8 2.5 2.8 5.3 2.7 8.2zm-6.1 8.4q0 0 0.1 0 0 0-0.1 0 0 0 0 0 0 0 0 0zm3.1-9.2c-0.2-2.2-1-4.2-2.9-5.6-1.5-1-3.1-0.8-4.4 0.6 2.4-0.2 3.7 1 4.4 2.9 0.3 0.8 0.5 1.7 0.7 2.6 0.1 0.5 0.3 0.9 0.4 1.4 0.1 0.7 0 1.4 0 2.1q-0.1 0-0.3 0c0.2 0.2 0.4 0.4 0.6 0.7-0.4 0.2-0.6 0.3-0.8 0.4q0.3 0.2 0.6 0.4c-0.2 0.5-0.3 0.9-0.4 1.4q-0.6 0-1.1 0.1c0.2 0.3 0.3 0.5 0.4 0.8-0.9 0.2-1.7 0.3-2.5 0.5q0 0 0 0.1 1 0 2 0c0.1 0.3 0.2 0.6 0.2 0.8 2.6-2.6 3.3-5.7 3.1-9.2zm-8.4 9.2q0 0.1 0 0.2 1.6 0 3.3 0c0 0.4 0.1 0.6 0.1 0.9q1-0.5 1.9-1.1-2.6 0-5.3 0zm5.7-7.2c-0.2-1.9-0.5-3.6-1.6-5.1-1.3-1.8-4-1.6-4.9 0.4-0.7 1.5-1 3.1-1.5 4.7-0.5 1.8 0.2 3.4 1.4 4.8 0.9 1.1 1.9 1.4 3.1 0.9 0.9-0.4 1.8-1.1 2.3-1.8 0.6-1.2 0.8-2.6 1.2-3.9zm-8.3 7q0.2-0.1 0.4-0.1c-1-2-1.1-4.1-0.9-6.2 0.3-3.1 1.2-6 3.5-8.3 1.7-1.8 3.9-1.9 5.9-0.4 1.2 1 2.1 2.3 2.5 3.9 0.8 3.3 0.5 6.6-1.2 9.7-2 3.4-5 4.4-8.6 2.9 1.7 2.1 4 2.6 6.2 1.3 1-0.6 1.9-1.5 2.6-2.5 2.1-2.9 2.7-6.2 2.4-9.7q-0.3-3.7-2.6-6.7c-1-1.2-2.3-1.7-3.8-1.5q-3.3 0.4-5 3.1c-2.2 3.4-3 7.1-2.4 11.1 0.1 1.1 0.7 2.2 1 3.4zm13.6-17.6c-0.6 0.3-0.9 0.4-1.3 0.6q-0.3-0.5-0.6-1 0-0.1 0.1-0.3c0.5 0.2 1 0.4 1.8 0.7zm-11.7 25.3q-0.5-0.5-1-1 0.1-0.1 0.2-0.2 0.5 0.5 1.1 1-0.1 0.1-0.3 0.2zm8.6-80.9c0.6 2.5 0.6 11.7 0 14.2q0-7.1 0-14.2zm12.4 21.2c-0.6-2-0.3-5.8 0.4-6.9 0 2.2 0 4.5 0 6.9q-0.2 0-0.4 0zm-4.7-8.1c1.7-0.3 3.4-0.9 5.1 0q-2.6 0-5.1 0zm-31.8 30.2q-1.8 0.4-3.5 0.9 0-0.2-0.1-0.5 1.7-0.4 3.5-0.8 0 0.2 0.1 0.4zm0.3 0.8q-1 0.2-2 0.5-0.1-0.2-0.1-0.4 1-0.2 2-0.5 0.1 0.2 0.1 0.4zm61.2 32.8c0.1-1.1 0.3-2.3 0.6-3.4q0 2 0 3.9c-0.2-0.1-0.6-0.3-0.6-0.5zm1.5-2.4q0 0.9 0 1.8-0.2 0-0.3 0 0-0.9 0-1.8 0.1 0 0.3 0zm-20.6-10.1c-0.6 0-1-0.1-1.4-0.1q0-0.8 0-1.6 0.2-0.1 0.3-0.1c0.3 0.5 0.6 1.1 1.1 1.8zm-5.6-39.1q-0.2 2.4-0.3 4.8-0.1 0-0.2 0 0-2.4 0-4.8 0.3 0 0.5 0zm21.9 18.4q-1.2-0.8-2.3-1.6 1.1 0.8 2.3 1.6zm-0.7 4.5q-1.1-1.1-2.3-2.3 1.2 1.2 2.3 2.3z"/></svg>