<svg version="1.2" xmlns="http://www.w3.org/2000/svg" viewBox="0 0 136 73" width="136" height="73"><style>.a{fill:#ffd600}</style><path class="a" d="m95 20c-21.8 3-19 8-19 8-19.8-0.5-19 7-19 7 0 0 1.5-2.8-2 1-3.5 3.7-2.3-1-2-2 0.2-1-0.3-3.5-17-4-16.8-0.5-19 4-19 4 0 0-2 5.5-1-1 1-6.5-5-8-5-8 6.2-4.3 25-6 25-6 7-2 59 1 59 1z"/><path fill-rule="evenodd" d="m90 73c-2.5 0-4.7-0.3-6.8-0.9-2-0.6-3.3-1.8-4-3.8q-0.9-2.2-1.2-4.6l-0.2-1.3q-0.9 0.1-1.7 0.3c-1.4 0.2-2.6 0.3-3.7 0.3q-0.1 0-0.1 0c-1.6 0-2.9-0.3-4-0.9-0.7-0.3-1.4-0.4-2.3-0.5h-0.6c-1.6-0.1-3.2-0.3-4.8-0.5-2.5-0.3-5.2-0.4-8.2-0.2-6.4 0.4-12.8 0-18.7-0.4-5-0.4-9.4-0.9-13.4-1.8l0.3 0.4c1.4 1.5 3 3.2 5.5 3.4q3.3 0.3 6.2-1.9l0.4 0.4q-2.5 2.7-5.5 2.7-0.1 0-0.3 0-0.8 0-1.7-0.1c-1.2 0-2.5 0-3.8-0.2-4.4-0.6-7.3-2.7-8.7-6.5l0.5-0.2q-0.5-0.3-0.9-0.6c-1.4-0.9-2.7-1.4-4.2-1.5-1.5-0.1-2.7-0.6-3.6-1.6-1.3-1.4-2.3-3-2.5-4.4l0.6-0.2c0.6 1.8 1.7 3.2 3.3 4.5 0.5 0.4 0.9 0.6 1.4 0.6q0.1 0 0.1 0c2.2 0 3.8 0.5 5.2 1.6 1.6 1.2 3.6 1.6 5.5 2q0.4 0.1 0.8 0.2c5.4 1.1 11 1.7 18.5 2.1h0.1c4.1 0.2 8.2 0.4 12.3 0.3 1.4-0.1 2.8-0.1 4.5-0.3 1.8-0.1 3.7 0 5.7 0.3 1.2 0.2 2.5 0.3 3.8 0.4q1 0.1 2 0.2 0.2 0 0.4 0c0.9 0.1 1.7 0.2 2.5 0.6 1.3 0.7 2.8 1 4.8 0.8 1.6-0.1 3-0.3 4.2-0.5v-0.2l0.1 0.2c1.3-0.3 2.5-0.5 3.6-0.9 1.6-0.5 2.5-1.6 2.8-3.3 0.3-1.9 1.1-3.6 1.8-5.3 1.2-2.8 2.1-4.9 2.9-6.9q0-0.1 0.1-0.2c0.1-0.5 0.3-0.9 0.3-1.5v-0.2q-0.4 0.3-1 0.4 0 0 0 0c0.2 2.3-0.7 4.3-1.6 5.8-0.9 1.6-2.5 2.6-5 3-4.7 0.8-9.8 1.1-14.9 1.1q0 0 0.1 0.1c0.8 0.6 1.1 2 0.5 2.9-0.3 0.6-1 0.9-1.7 0.9q-0.5 0-1-0.2c-1.1-0.5-1.1-1.3-1-1.8l0.2-0.8-0.6 0.1 0.8-0.8q0.4-0.3 0.7-0.5-0.4 0-0.8 0c-3.3-0.1-6.7-0.3-9.6-0.5-0.3 0-0.3 0.1-0.3 0.1q-0.1 0-0.1 0.2 0 0.1 0 0.2-0.1 0.1-0.1 0.1c-0.5 2.2-1.3 2.9-3.5 3q-1.4 0-3.1 0c-0.7 0-1.3-0.1-1.7-0.5l-0.1 0.3c-0.4 0.8-0.9 1.6-1.6 2.2q0.8 0 1.8 0c1.6 0 3.1-0.2 4.4-0.6 1.5-0.4 2.5-1.1 3.2-2.1l0.9-1.3-0.4 1.5c-0.1 0.5-0.1 0.5-0.4 0.9-1.1 1.3-2.7 1.8-3.9 2.1-1.4 0.3-2.8 0.4-4 0.5q-2.4 0-5.3 0c-4.5 0-9.7-0.2-14.9-1.1-4.2-0.7-8.4-1.8-12.6-3.3-1.1-0.5-2.3-1.1-2.8-2.5l0.6-0.3c0.7 1.4 2.1 1.8 3.5 2.3q0.4 0.1 0.8 0.2c0.1-0.4-0.1-1.4-0.3-2.3q-0.1 0.1-0.3 0.2-0.3 0.2-0.6 0.2c-0.4 0-0.8-0.2-1-0.6q-0.2-0.3-0.5-0.6c-0.8-1-1.6-2.1-1.5-3.7v-0.3c0-0.7 0-1.4 0.1-2.1l0.4-2.7 0.2 2.7q0 0.4 0 0.8 0.1 0.8 0.2 1.7c0 0.5 0.1 1 0.5 1.4 0.2 0.2 0.3 0.2 0.3 0.2 0.1 0 0.1-0.1 0.1-0.3v-0.1q0.1-0.3 0.1-0.6-0.2-2.7 0.3-5.4v-0.1c0.1-0.4 0.1-0.5-0.2-0.6-0.5-0.3-0.7-0.1-0.9 0.1l-0.2 0.4-0.3-0.3q0-0.1 0-0.1-0.1 0-0.1-0.1l-0.6 0.1c-0.4 0.2-0.8 0.2-1.2 0.2q-0.2 0-0.5 0c-1.6-0.1-3.4-0.4-5.4-0.8q-1-0.2-2.1-0.8c-0.6 0.8-0.4 1.8-0.2 2.8q0 0.4 0.1 0.7c0.1 0.5 0.4 0.7 1.2 0.8 1.4 0.3 2.6 0.5 3.7 0.8l0.7 0.2c1.1 0.3 2.2 0.6 3.3 0.9l-0.1 0.6q-1.7-0.2-3.3-0.5c0.7 0.4 1.1 1.1 1 1.7-0.2 0.7-0.7 1.1-1.4 1.1q0 0 0 0-1.2 0-1.4-1.2l-0.1-0.5-0.4 0.2 0.4-0.8c0.2-0.4 0.5-0.6 0.8-0.7q-1.9-0.4-3.7-0.8c-1.2-0.2-1.7-0.8-1.8-2.2q0-0.3 0-0.5-0.1-0.7-0.1-1.3c0-0.4 0-1.4 1-1.9l0.1-0.1 0.1-0.1h0.1q0-0.1 0-0.2c0.1-0.2 0.2-0.5 0.4-0.7l0.1-0.1c0.3-0.2 0.6-0.4 1.1-0.4l0.9-0.1q-0.1-0.2-0.2-0.4c-0.2-1.1 0.6-1.8 1.3-2.2l0.7-0.5q-0.1-0.5 0.2-1.2l0.6-1.3v1.4c0 1.4 0 1.4 1.5 1.9q0.1 0 0.2 0.1 0 0 0 0l0.2-0.6q0.5 0.1 1 0.3c0.7 0.2 1.5 0.3 2.3 0.4 1.5 0.2 2.2-0.4 2.4-1.8q0.5-3.2-1.3-5.8-0.5-0.6-1.1-1-1-0.7-1.8-0.6-0.7 0.2-1.3 1.3-0.4 0.6-0.6 1.3-0.2 0.3-0.3 0.6l-0.9 2 0.3-2.2q0.2-1.6 1.5-3.2h-0.1l0.2-0.2q0-0.1 0.1-0.1 0.1-0.1 0.2-0.2l0.3-0.3q0.5-0.4 0.9-0.5l-0.5-0.2 1.6-0.1c1.3-0.1 2.2 0.3 3 1.3q1.1 1.4 1.3 3.2 0.4 2.4 0.4 4.3h0.4c0.2-0.4 0.4-0.9 0.9-1.2l0.5-0.4v0.1l0.3-0.3q-0.1 0-0.3 0c-0.5-0.1-0.7 0.1-0.8 0.6h-0.6c0-0.4 0-0.9 0.3-1.2 0.3-0.2 0.7-0.3 1-0.2q0.6 0 1.3 0l0.2-0.7v0.7q0.2 0 0.5 0l0.2-0.4-0.1 0.4q0.2 0 0.4 0 0.1 0 0.1 0l0.2-0.3-0.1 0.3q0.3 0 0.6 0v-0.1 0.1q0.3 0.1 0.7 0.1l0.1-0.3-0.1 0.3q0.2 0 0.5 0l0.1-0.5q-1.3 0-2.7-0.1v-0.6c3.1-0.1 6.2 0 9.1 0.1l0.9 0.1c6.6 0.3 11.8 0.6 16.6 1.1l0.4 0.1c1.6 0.1 3.2 0.3 4.8 0.7q1.2 0.3 1.7 1.1 0.4 0.8 0 1.9c-0.7 1.9-1.8 3.6-3 5.3q-0.4 0.7-1.5 1-0.1 0-0.2 0.1c0.5 0.2 1 0.6 1.3 1.3 0.3 0.7 0.2 1.5 0.1 2.2q0 0.1 0 0.2c0.9-0.4 1.8-0.7 2.8-0.6q0.1-0.3 0.2-0.5l-0.5 0.1 1.7-1c1-0.7 2.1-0.7 3.2-0.7h0.2c6.1 0 12.2 0 18.2 0h0.5q0 0 0.1 0c3.4 0 7-0.2 10.6-0.7 1.2-0.2 2-0.6 2.6-1.3l-0.1-0.7 0.2 0.5q0.1-0.1 0.2-0.3 1.2-2.3 3.2-4.2c1.7-1.6 3.3-2.3 5.2-2.4 2.1-0.2 3.5 0.9 4 2.9v0.2l-0.3 0.1c-0.1 0-0.4 0.1-0.5-0.3-0.9-1.8-1.8-2.3-3.8-2-1.2 0.2-2.5 0.9-3.3 1.7q0.2 0 0.3 0.1 1 0.1 2 0.2c1.5 0.1 2.6 0.9 3.4 2.2 0.8 1.4 1.3 2.8 1.6 4.3q0.1-1.6 0.3-3 0.1-0.9 0.9-0.9 1.1 0 1.7 0.4 0.7 0.5 0.7 1.3c0 1.2 0.1 2.4 0.2 3.5 0.2 3.1 0.4 6.3-0.2 9.4-0.1 0.9-0.4 2-1.2 2.8l-0.1 0.1c-0.1 0.1-0.3 0.3-0.7 0.3q0 0-0.1 0l-0.7-0.1 0.5-0.5c1.1-0.8 1.3-1.8 1.5-3 0.3-2.4 0.1-4.8-0.1-7.1v-0.2c-0.1-1.3-0.1-2.7-0.1-4q0-0.3 0-0.6c0-0.4 0-0.7-0.2-0.9-0.4-0.3-0.8-0.4-1.2-0.3-0.1 0-0.1 0-0.1 0.4q0 0.1 0 0.3-0.1 0.7-0.2 1.3-0.1 0.9-0.3 1.8l-0.2 1q0 0 0 0.1 0.1 0.5 0.2 1.1l0.1 2.7-0.6-2.2v0.1-0.2l-0.1-0.3q-0.2-0.8-0.4-1.6c-0.3-1-0.5-2.1-0.9-3.1-0.3-0.9-0.7-1.9-1.4-2.7-1-1.3-2.2-1.5-3.6-0.7-1.1 0.6-2 1.6-2.7 3.1-1.1 2-1.7 4.2-2.2 7.3-0.9 6-0.9 11.6 0.1 17 0.3 1.6 0.7 2.8 1.2 3.8q0.8 1.5 1.9 1.7 1.1 0.2 2.4-0.8c1.2-0.9 2.1-2.2 2.9-4.1 1.7-4 2.6-8.6 2.8-13.9q0-0.4 0-0.7 0-0.7 0.1-1.5h0.6c0.3 6.9-0.6 12.4-2.8 17.3-0.7 1.6-1.6 2.8-2.6 3.7-1.3 1-2.5 1.5-3.8 1.3-0.4-0.1-0.8 0-1.3 0q-0.4 0.1-0.8 0.1-0.5 0-0.9 0zm-67.2-41.1l0.2-0.5q-0.3 0-0.7 0v0.5q0.2 0 0.5 0zm0.8 0.1l0.1-0.2-0.1 0.2q0.3 0 0.5 0l0.2-0.5q-0.7 0-1.3-0.1v0.5q0.3 0.1 0.6 0.1zm1.3 0.2l0.2-0.7q-0.4 0-0.8 0v0.6q0.3 0 0.6 0.1zm0.4 0q0.6 0.2 1.1 0.3l0.3-0.8-0.1 0.9c1 0.4 1.2 1.1 1.1 2.7-0.1 1.5-0.2 3.2-0.7 4.9-0.4 1.1-0.7 1.6-1.4 1.8l-0.1 0.3q0.9 0.1 1.9 0.1 0.9 0.1 1.9 0.1c-0.6-0.1-0.9-0.3-1.2-0.5-0.4-0.4-0.5-1-0.5-2.1 0.1-2 0.7-3.9 1.9-6 0.4-0.7 1.1-0.9 1.6-1q0.2 0 0.5 0l0.1-0.2-0.1 0.2q1.5-0.2 2.8-0.2 0.5 0 0.9 0.1l0.2-0.4-0.1 0.4q0.7 0 1.3 0 0.3 0 0.6 0.1l0.4-0.6q-6.3-0.5-12.5-0.8l-0.1 0.7q0.1 0 0.2 0zm21 1.3q0.1 0 0.1 0l0.2-0.3-0.1 0.3q0.6 0.1 1.1 0.1l0.2-0.3-0.1 0.3q0.6 0.1 1.3 0.1 0.1 0 0.2 0c0.3 0.1 0.7 0.1 1 0.4l0.9 0.6-1.1-0.1q-0.5 0-1.1 0l-2.1 5.8q0.6-0.2 1-0.4l1.1-0.5-0.7 1c-0.4 0.5-0.9 0.6-1.4 0.7h-0.1q-0.1 0-0.2 0.1v0.1-0.1q-0.7 0.1-1.4 0.2v0.1q1-0.1 2-0.3c1.4-0.3 2.2-0.9 2.8-2q0.4-0.9 0.9-1.6 0.3-0.5 0.6-1 0.3-0.5 0.5-1 0.3-0.9 0-1.3-0.2-0.4-1-0.6c-1.8-0.4-3.5-0.6-5.1-0.7q-0.8-0.1-1.6-0.2l-0.1 0.4q0.5 0.1 1 0.1l0.2-0.2v0.2q0.5 0.1 1 0.1zm1.2 1l-2.1 6.1q0.4 0 0.7-0.1 0.2 0 0.3 0v-0.6q-0.2-2.8 1.8-5l0.3-0.4q-0.5 0-1 0zm-1.2-0.1l-0.7 2.1q0.5-1 1.2-2l0.1-0.1q-0.3 0-0.6 0zm-2.1 6.4q0.4-0.1 0.7-0.1v-0.4q0-1.2 0.2-2.2zm-0.3 0.9v0.1q0.5-0.1 1.1-0.2l-0.1-0.1q-0.5 0.1-1 0.2zm1.6-7.4q-0.2 0-0.5 0l-2 6.6q0.4-0.1 0.7-0.1v-0.5q-0.1-3.3 1.9-5.8l0.1-0.1q-0.1 0-0.2-0.1zm-2.8 7.6q0.5 0 1.1-0.1v-0.1q-0.6 0.1-1.1 0.2zm-5.1-9.6l-0.1 0.6q0.4 0 0.7 0l0.3-0.5-0.1 0.5q0.6 0.1 1.1 0.1l0.2-0.2-0.1 0.2q0.5 0 1 0.1l0.1-0.1-0.1 0.1q1.1 0.1 2.1 0.1l0.3-0.4q-2.7-0.3-5.4-0.5zm6.2 1l0.3-0.4q-0.5-0.1-1.1-0.1l-0.1 0.4q0.5 0.1 0.9 0.1zm-4.5 0.7l-0.5 1.8q0.4-0.7 0.9-1.4l0.2-0.4q-0.3 0-0.6 0zm-2 7.3q0.4 0 0.8 0l-0.1-0.9q0-0.9 0-1.7zm1.9-0.1v-0.6q-0.1-1.3 0.1-2.4l-0.9 3q0.4 0 0.8 0zm1.6-6.6l0.3-0.5q-0.3-0.1-0.7-0.1l-0.6 2.3q0.4-0.9 1-1.7zm1.7 6.3v-0.4q0-1 0.1-1.9l-0.7 2.4q0.3 0 0.6-0.1zm1.9-6.6q-0.3-0.1-0.6-0.1l-0.5 1.8q0.4-1 1.1-1.7zm-2.9-0.2l-0.5 1.8q0.4-0.9 1-1.7l0.1-0.1q-0.3 0-0.6 0zm-1.8 7.1q0.3-0.1 0.7-0.1l-0.1-0.7q-0.1-0.7-0.1-1.4zm1.9-0.2l-0.1-0.6q-0.1-1.4 0.2-2.7l-0.9 3.4q0.4 0 0.8-0.1zm1.6-6.7l0.1-0.1q-0.3 0-0.6 0l-0.7 2.6q0.4-1.3 1.2-2.5zm-4.9 8q-0.6 0-1.2 0v0.1-0.1q-1 0.1-2 0.2 2.1 0 4.3-0.2l-0.1-0.1q-0.5 0-1 0.1zm4.3-0.3v-0.1q-0.4 0-0.9 0.1v0.1q0.4-0.1 0.9-0.1zm-3.1 0.2l-0.1 0.1q1.2-0.1 2.3-0.2v-0.1q-1.1 0.1-2.2 0.2zm-1.3-8.3l-0.5 2.2q0.4-1.1 1.1-1.9l0.1-0.2q-0.3 0-0.7-0.1zm-1.8 7.5q0.3 0 0.6-0.1l-0.1-0.4q-0.1-0.7 0-1.5zm0.9-7.5q0 0 0 0l-0.3 1.3q0.3-0.6 0.6-1.1l0.1-0.2q-0.2 0-0.4 0zm-1.9 7.5q0.3 0 0.7 0l-0.1-0.9q-0.1-0.7 0-1.4zm-5.1-6.4c-0.7 1.7-1.4 3.3-1.5 5.1 0 0.6 0.1 0.9 0.2 1.1q0.1 0.1 0.2 0.2v-0.5q-0.2-3.7 1.5-6.5l0.1-0.1q-0.3 0.3-0.5 0.7zm-0.4 6.5v-0.6q0-0.2 0-0.4l-0.2 0.9q0.1 0.1 0.2 0.1zm1.7-7.3l0.1-0.2q-0.2 0-0.3 0l-0.1 0.6q0.1-0.2 0.3-0.4zm0.3 7.3v-0.5q0-0.9 0-1.7-0.2 0.9-0.5 1.7l-0.2 0.5q0.4 0 0.7 0zm1.6-7.1l0.3-0.5q-0.4 0-0.7 0l-0.2 0.8q-0.1 0.6-0.2 1.1 0.4-0.7 0.8-1.4zm-1.3-0.4l-0.1 0.4q-0.1 0.6-0.2 1.2 0.2-0.6 0.5-1.1l0.3-0.6q-0.3 0-0.5 0.1zm-1.7 7l-0.2 0.5q0.3 0 0.5 0v-0.6q0-0.7 0.1-1.3-0.2 0.7-0.4 1.4zm4.4 0.4v-0.5q-0.1-0.8 0-1.6l-0.5 2.2q0.2-0.1 0.5-0.1zm1.8-7.3l0.1-0.2q-0.3 0-0.5 0l-0.5 1.8q0.4-0.8 0.9-1.6zm-2.5-0.2l-0.3 1.5q0.3-0.6 0.6-1.3l0.2-0.2q-0.3 0-0.5 0zm-1.8 7.6q0.3 0 0.6 0l-0.1-0.8q0-0.6 0-1.2zm1.5 0v-0.7q-0.1-0.8 0-1.7l-0.6 2.4q0.3 0 0.6 0zm1.6-7l0.4-0.6q-0.4 0-0.7 0l-0.5 2q0.3-0.7 0.8-1.4zm-2.8 8.1q0.7 0 1.3 0v-0.1q-0.6 0.1-1.3 0.1zm2.3-0.1q-0.5 0-0.9 0l-0.1 0.1q0.5 0 1-0.1zm-14.8-2.5q0 0 0 0l-0.1-0.7v0.7q0 0 0.1 0zm1.3 0.4l-0.1-0.8q0-0.1 0-0.2l-0.1 1q0.1 0 0.2 0zm0.7-6.6l0.3-0.9q-0.2 0-0.3 0l-0.1 0.8q0 0.2 0 0.5 0-0.2 0.1-0.4zm-0.6-1q0 0-0.1 0l-0.1 1q0.1-0.1 0.1-0.2l0.3-0.7zm-1 7.3q0.2 0 0.3 0.1l-0.1-1.1q0-0.2 0-0.5zm0.2-7.3l-0.2 1.3q0.1-0.1 0.2-0.3l0.4-1q-0.2 0-0.4 0zm-1.1-0.1q-0.1 0-0.1 0v0.7l0.2-0.7q-0.1 0-0.1 0zm-0.7 0v0.7l0.3-0.7q-0.2 0-0.3 0zm0 6.9l-0.1-0.4v0.3q0 0.1 0.1 0.1zm0.6 0.2l-0.1-0.6q0-0.1 0-0.2l-0.1 0.7q0.1 0.1 0.2 0.1zm0.8-7q-0.1-0.1-0.2-0.1l-0.1 0.7zm4.2 8.3q0 0 0 0l-0.2-1.1q-0.1-0.3-0.2-0.7l-0.2 1.7q0.3 0 0.6 0.1zm0.8-0.2q0.2-0.1 0.2-0.7h-0.6q0-0.4 0-0.8l-0.2 1.7q0.5 0 0.6-0.2zm0.3-6.5l0.3-0.8q-0.1 0-0.2-0.1-0.1 0-0.2 0l-0.2 1.9q0.2-0.5 0.3-1zm-0.8-1.1l-0.2 1.7q0.1-0.2 0.2-0.4l0.5-1.2q-0.2 0-0.5-0.1zm1.6 1.5l0.1-0.1q0-0.2 0-0.4 0-0.3-0.2-0.4l-0.1 1q0.1-0.1 0.2-0.1zm-3-1.7l-0.1 1.1q0-0.1 0.1-0.3l0.2-0.8q-0.1 0-0.2 0zm-0.9 7.2h-0.6q0-0.3 0-0.7l-0.1 1q0.5 0.1 1 0.2l-0.1-0.8q0-0.4 0-0.7zm1 0.6l-0.1-1q-0.1-0.4-0.1-0.7l-0.1 1.6q0.1 0.1 0.3 0.1zm0.6-6.9l0.3-0.9q-0.2 0-0.4 0l-0.2 1.9q0.1-0.5 0.3-1zm-1.5 0.3l0.5-1.3q-0.2-0.1-0.4-0.1l-0.3 1.8q0.1-0.2 0.2-0.4zm-4.6-1.7v0.4-0.1 0.1l0.2-0.4q-0.1 0-0.2 0zm-0.7 6.2q0.1 0 0.1 0v-0.3zm-8.6 1.4c-1.1-0.2-2.2-0.5-3.5-0.7q-0.2-0.1-0.3-0.1c-0.5-0.1-1.1-0.2-1.4-0.7l-0.6 0.6q-0.1 0.1-0.2 0.1-0.2 0.2-0.3 0.3c-0.3 0.3-0.3 0.5-0.3 0.5 0 0.1 0.1 0.2 0.5 0.3 2.3 0.6 4.6 1 6.9 1.2q0.4 0.1 0.8 0.2l0.5 0.2c-0.1-1.1-0.8-1.7-2.1-1.9zm5.3-2.6q0.2 0 0.2 0 0.1-0.1 0.1-0.3 0.1-0.8 0.1-1.6-0.4 1.5-2 1.7 0.8 0.1 1.6 0.2zm31 16.3v-0.3q-0.9 0.1-2 0.1-0.5 0-1.2 0l0.1 0.7q0.2 0.8 0.3 1.6 0.1 0.3 0.1 0.5 0 0.2 0.1 0.4c0 0.5 0.1 0.6 0.2 0.6 0 0 0.1 0 0.5-0.2 0.4-0.3 0.7-0.6 1-1q0.3-0.3 0.6-0.6l0.4-0.4c-0.1-0.3-0.1-0.8-0.1-1.4zm-4-0.3q-0.5-0.1-0.8-0.3h-0.4c-3.5 0.1-7 0-10.4-0.3l0.1 0.1q0 0 0 0c0.1 0.1 0.2 0.1 0.2 0.3q0 0.5 0.2 0.8l0.1-0.1-0.1 0.2c0.4 0.6 1 0.8 2.2 0.9 2.4 0.1 4.9 0.3 7.3 0.4l1.4 0.1q0.2 0 0.3 0c0 0 0 0 0-0.2 0-0.5 0-1.1 0.2-1.7v-0.2q-0.1 0-0.3 0zm-15.3-0.9c0.4 0.8 0.7 1.7 0.9 2.9q0.1 0.5 0.1 1c0 0.3 0.2 0.5 0.6 0.7 0.2 0 0.4 0.1 0.7-0.2 0.3-0.3 0.5-0.7 0.7-1.1q0.2-0.3 0.5-0.7l0.1-0.2q-0.1-0.3-0.2-0.7-0.1-0.3-0.1-0.7 0-0.2 0-0.4l-0.1-0.3q-1.6-0.2-3.2-0.3zm3.2 4.8q0.4 0.1 0.8 0.1c0.9 0.1 1.8 0.2 2.7 0.3 2.8 0.2 5.8 0.3 9.1 0.3-0.1-0.2-0.3-0.5-0.3-1 0-0.5-0.1-0.6-0.7-0.5-2.8 0.1-5.8-0.1-9.7-0.7q-0.7-0.1-1.1-0.3c-0.1 0.7-0.4 1.3-0.8 1.8zm-10.1 1c-2-0.4-3.9-0.8-5.7-1.7 1.9 3.4 5 5.3 9.6 5.8q-0.6-0.4-1.2-1c-0.6-0.6-1.3-1.3-1.7-2.2l-0.3-0.8q-0.4-0.1-0.7-0.1zm-13.7-22q-0.1 0.1-0.2 0.3-0.2 0.2-0.4 0.5-0.2 0.4-0.1 0.6 0.1 0.2 0.5 0.3c1.7 0.3 3.3 0.7 4.9 1.2 0.7 0.2 1.6 0.7 1.6 1.9q0.1 0 0.1 0v-0.1c0.4-0.8 1.1-1.4 1.9-1.6 0.7-0.2 1.5-0.1 2.1 0.3 0.4 0.3 0.7 0.6 0.6 1 0 0.2-0.1 0.5-0.6 0.7-1.1 0.4-1.3 1.2-1.6 2.2q-0.1 0.3-0.2 0.7-0.1 0.2 0 0.5 0 0.1 0 0.2 0 0.5 0 1c0 0.9 0 1.9-0.2 2.9q0 0.5-0.3 0.8l0.6 0.2q0.1 0.1 0.1 0.1l0.1-0.2v0.2c1.3 0.5 2.7 0.5 4.1 0.6q0.7 0.1 1.5 0.1c4.7 0.5 9.6 0.9 14.2 1.2q2.9 0.3 5.7 0.5 0.1 0 0.2 0.1 0 0 0.1 0-0.1-0.4-0.1-0.8 0.1-1.6 0.3-3.1 0-0.6 0.1-1.3v-0.3l0.8 0.1v0.2q0 0.6 0 1.2c0 0.9 0 1.9 0 2.8 0 0.6 0.1 0.9 0.7 0.9 1 0.2 1.3-0.2 1.4-0.6 0.3-0.7 0.4-1.5 0.5-2.3q0-1 0.1-1.9 0-0.8 0-1.6c0.1-0.5-0.1-0.7-0.6-0.8q-0.2 0-0.4-0.1-0.3 0-0.6-0.1c-0.6 0-0.9 0.1-1 0.5l-0.7 1.5 0.1-1.7q0-1 1-1.5c0.2-0.3 0.5-0.5 0.8-0.7q-0.8 0.1-1.5 0.2c-6.8 0.5-12 0.4-16.8-0.3-1.6-0.2-3.7-0.6-5.7-1.5q-0.6-0.3-1.3-0.7-1.6-1.1-1.6-2.7c-0.2 0.4-0.5 0.6-1.1 0.6q-0.2 0-0.6-0.1c-2.3-0.2-4.1-0.6-5.8-1.1q-0.9-0.3-1.5-0.7-0.7-0.3-0.9-0.8zm8.4 14.1l-0.4-0.4q-0.3 0.2-0.7 0.3 0.3 0.4 0.6 0.6c0.3 0.2 0.4 0.3 0.4 0.3 0.1-0.1 0.2-0.2 0.3-0.5q-0.1-0.2-0.2-0.3zm64.9 12.9q0.4 1.1 0.8 2.2 0.2 0.8 0.5 1.6c0.7 2.1 2.1 3.3 4.3 3.9 2.4 0.6 4.8 0.9 7.4 0.9-2.1-2.2-2.6-5-3-7.9-0.9-6.8-0.4-13.5 1.4-19.8q0.3-1 0.9-2.2c0.7-1.7 1.8-3.5 3.7-4.6q-0.6-0.1-1.2-0.2c-0.1 0-0.1 0-0.3 0.2q0 0.1-0.1 0.1c-0.8 0.9-1.5 2-2.2 3q-0.2 0.4-0.5 0.7-0.1 0.2-0.2 0.4-0.2 0.3-0.4 0.6l0.2 0.6c0.2 0.7 0 1.3-0.1 1.8l-0.1 0.1c-0.7 2.2-1.6 4.3-2.4 6.4q-0.7 1.7-1.3 3.3c-0.4 1-0.8 2.1-0.9 3.2q-0.3 2.2-2.6 3.2c-1.4 0.6-2.9 1-4.3 1.3zm-33-9.9c0.3 0 0.3 0.2 0.3 0.3q0 0.5 0.2 0.7l0.1-0.1-0.1 0.2c0.3 0.2 0.7 0.3 1.4 0.4 1.1 0 2.1 0 3.1-0.1 1.3-0.1 2.1-0.6 2.4-1.8l0.1-0.2c0.1-0.1 0.1-0.3 0.1-0.4-0.1-0.1-0.3-0.1-0.6-0.1q-1.1-0.1-2.3-0.1-0.5-0.1-1.1-0.1h-0.8q0 0-0.1 0.1c-0.3 0.3-0.6 0.4-1 0.6q-0.9 0.3-1.9 0.5zm3.5-1.8c0.4-0.3 0.7-0.3 1-0.2q0.1 0 0.1 0c3.4-0.1 6.9 0 10.3 0.1 1.8 0 3.6 0 5.4 0.1 5.4 0 10.7-0.3 15.8-1 2.4-0.4 4-1.6 4.8-3.8q0-0.2 0.1-0.5c0.4-0.8 0.7-1.7 0.8-2.5 0-0.4 0-0.5 0-0.5 0 0-0.1 0-0.5 0q-0.8 0.2-1.7 0.3-0.3 0.1-0.5 0.1 0.2 0.6-0.2 1.2-0.4 0.6-1.1 0.9c-1.3 0.6-2.7 0.8-4 0.9-4.4 0.5-8.7 0.3-12.9 0.1-2.7-0.1-5.4-0.2-8-0.3l-1.5-0.1v-0.6q1.1 0 2.2 0c1.6 0 3.3 0 5 0 1.4 0 2.8 0 4.1 0.1 2.6 0 5.2 0.1 7.7 0 2-0.1 4-0.3 6.1-0.8 0.6-0.1 1-0.3 1.3-0.6 0.2-0.2 0.2-0.2 0.2-0.3 0 0-0.2 0-0.2 0q-0.1 0-0.1 0c-1.7-0.2-3.4-0.1-5 0h-0.2c-2.6 0.2-5.4 0.2-8 0.1q-1 0-1.9 0-0.8-0.1-1.5-0.1c-3.5 0-7.1-0.1-10.6 0.1-0.6 0.1-1.3 0.1-1.9 0.3l-0.4 0.1q0 0.1-0.1 0.1c-0.1 0.1-0.4 0.3-0.4 0.4 0 0.1 0.3 0.3 0.4 0.4l0.7 0.5h-0.9c-1.3 0-2.5 0.2-3.7 0.5-0.9 0.2-1.7 1.1-1.9 2-0.1 0.7-0.1 1.3-0.1 1.8v0.1c-0.1 0.4 0 0.5 0.3 0.6q0.3 0.1 0.4 0.3 0.1 0.3 0 0.5zm74.1-33.5l1-0.8q0.2-0.2 0.4-0.4l-0.3-0.6-0.4 0.1-2.8-7 0.2-0.1c-1.2-1.7-4.3-3.9-6.2-4.2q0.2 0.4 0.4 0.8c0.2 0.4 0.4 0.8 0.5 1.2l0.4 1.7h-0.1q0.4 0.8 0.7 1.7l0.6 1.8c0.9 0.1 1.8 0.4 2.6 0.8 0.9 0.5 2.2 1.2 2.1 2.9-0.1 1.5-1 2.6-2.5 3.1-1.3 0.4-2.5 0.6-3.6 0.6q-0.6 0-1.1-0.1c-1.7-0.1-3.4 0-5 0q-0.6 0-1.2 0c-1.1 0-1.8 0-2.1-0.4-0.4-0.4-0.4-1-0.4-2 0.1-1 0.1-2.1 0.3-3.1q0.1-0.4 0.3-0.8c0.1-0.3 0.3-0.5 0.7-0.5 0.2 0.1 0.5 0.2 0.5 0.7 0.1 0.7 0.4 1.3 0.9 1.8q0 0.1 0 0.1l0.4-0.1c0.8-0.3 1.4-0.7 1.7-1.2 1.1-1.7 2.6-2.3 4.7-2.1l-0.3-0.6q-0.1-0.1-0.2-0.2-0.1-0.4-0.3-0.7-0.2-0.5-0.4-1c-0.6-1.2-1.1-2.3-1.7-3.5-0.4-0.7-0.9-1-1.6-1q-0.3 0-0.5-0.1c-0.7 0-1.4 0-2.1 0.1-0.7 0.2-0.9 0.4-0.9 1 0 1.5-0.1 2.9-0.2 4.4v0.7h-0.6c-0.1-2.1-0.1-3.9 0-5.7q0.1-1.2 1.2-1.5c1.2-0.3 2.5-0.3 3.5-0.2q0 0-0.1 0h-0.1c-1-0.2-2.1-0.3-3.2-0.3-1.1 0.1-1.3 0.3-1.5 1.3-0.2 1.8-0.3 3.6-0.4 5.3q0 1.3-0.1 2.6c-0.2 2.1-0.4 3.6-0.8 5.1l-0.6-0.1q0.1-0.6 0.1-1.3 0.2-1.4 0.2-2.9 0.1-1.4 0.2-2.9c0-1.9 0.1-3.9 0.3-5.9 0.1-1.4 0.6-2 2-2.3-0.9 0-1.8 0-2.4 0.2-0.6 0.2-0.9 0.6-1.1 1.4v0.3c0.6 0.6 0.7 1.4 0.6 2.9-0.1 1-0.1 2.2-0.3 3.4-0.2 1.6-0.4 3.1-0.6 4.7q-0.1 0.9-0.2 1.9l-0.6-0.1q0-0.6 0-1.3 0 0.2 0 0.4l-0.6-0.1q0-0.6 0.1-1.1 0.1-1.3 0.2-2.5c0.2-2.2 0.4-4.1 0.5-5.8 0.1-1.1 0-1.3-1.1-1.6-2.5-0.8-5.2-1.1-7.8-1.3-6.5-0.6-13.3-0.7-20.7-0.3-2.6 0.1-5.1 0.4-8 0.8-2.6 0.4-5.3 1.4-8.4 3.3-3.2 1.9-6.2 4-9.7 6.6q-0.2 0.1-0.4 0.3l-0.5 0.4-0.2-0.3q0-0.1-0.1-0.2 0 0.1-0.1 0.1c-0.2 0.2-0.5 0.4-0.9 0.5l-1.2 0.3 0.9-0.8q0.1-0.1 0.2-0.1 0.1-0.3 0.4-0.4c0.4-0.3 0.5-0.5 0.2-1.2-0.1-0.3-0.3-0.4-0.8-0.3q-1.7 0.1-2.2 1-0.6 0.9-0.1 2.4 0 0.2 0.1 0.4l0.1 0.3 0.9-0.4q1.2-0.5 2.4-0.7v-0.5c4.4-0.4 8.7 0 12.6 1.1l0.1-0.2c0.2-0.5 0.6-0.4 0.8-0.4q0 0 0 0c2.1 0 4.3-0.1 6.4-0.1 2.7-0.1 5.5-0.2 8.2-0.1 4.7 0.2 8.7 0.7 12.5 1.5q0.1 0 0.1 0c0.3 0 0.6 0.1 0.8 0.4l0.3 0.5-2.1-0.2-0.1 0.4c1.5 0.1 3 0.2 4.5 0.2q1.2 0 2.4 0.1 1.1 0 2.3 0.1c1.3 0 2.7 0.1 4 0.1v0.6q-0.8 0-1.7 0c-1.3 0.1-2.6 0.1-3.8 0-11.9-0.3-23.8-0.5-35.5-0.6-1.5 0-3 0-4.5-0.1-3.7 0-7.4-0.1-11.1 0.1-6.9 0.2-14.3 0.8-21.6 2.9q-3.1 0.9-6 2.3-0.1 0-0.1 0.1c-0.2 0-0.5 0.2-0.9 0.2q0 0-0.1 0l-1.1-0.1 1-0.5c2.1-1.1 4.3-2 7-2.9 4.2-1.2 8.7-2.1 14.7-2.7 2.3-0.2 4.9-0.4 7.6-0.5l-0.5-0.4c-0.8-0.6-1.1-1.7-0.9-2.9q0.4-1.9 2.1-2.4 0.2 0 0.5 0v-0.1c1-0.1 1.6 0 2 0.3 0.3 0.3 0.5 0.7 0.6 1.4q0.1-0.1 0.1-0.1 0.1-0.1 0.2-0.2c3-2.4 6.3-4.7 9.7-6.9 4-2.5 8.5-4.1 13.6-4.8 11-1.5 22.4-1.6 33.9-0.3 4.5 0.6 8.3 1.4 11.7 2.6 2.1 0.7 3.8 1.8 5.4 3.2 1.9 1.8 3.7 3.8 5.5 6.2l-0.5 0.4q-0.7-0.8-1.4-1.5 0-0.1-0.1-0.2 0.8 1.2 1.4 2.4c0.3 0.7 0.6 1.6 0.7 2.5q0 0.7-0.5 0.9c-0.8 1-3.1 1.9-4.5 1.9q-0.1 0-0.2 0v-0.6q1.1-0.2 2.1-0.6zm-6.8-7.4q-0.2-0.4-0.4-0.8 0.1 0.7 0.2 1.4v0.7q0 0 0 0 0.5 0.1 1.1 0.2zm-56.7 6.1q-0.6-0.1-1.2-0.2 0 0 0 0 0.6 0.2 1.1 0.4l0.5 0.1 4.7 0.1-3-0.2v-0.6q0 0 0 0-1-0.1-2-0.2zm44-12.9c-0.1-0.9 0.1-1.4 1-1.9q-0.2-0.1-0.3-0.1-1.2-0.1-2.3-0.2c-7.7-0.7-15.6-0.9-23.7-0.3-3.9 0.2-7.6 0.7-11.2 1.3q-1.5 0.3-2.9 0.8c1.9-0.5 3.7-0.7 5.4-0.9 3.9-0.4 8.1-0.5 13.7-0.5 1.2 0.1 2.5 0.1 3.7 0 2.4 0 4.9 0 7.4 0.2 2.4 0.2 4.7 0.4 6.9 0.9q0.4 0.1 0.8 0.2 0.9 0.3 1.5 0.6zm20.2 9c0.4 0.9 0.7 1.9 0.8 2.9l0.1 1q0.4-0.2 0.9-0.3c0.2 0 0.3-0.1 0.3-0.1 0 0 0 0-0.1-0.3-0.4-0.9-0.9-1.7-1.5-2.5l-0.1-0.1q-0.2-0.3-0.4-0.6zm-10.3-9.3q0.3 0.4 0.6 0.9 0-0.1 0.1-0.1c0.2-0.2 0.5-0.2 1-0.2q-0.8-0.3-1.7-0.6zm-71.2 40.3c1.1 0 1.8 0.2 2.2 0.6 0.4 0.5 0.5 1.2 0.4 2.2q0 0.7 0 1.4c0 1.5 0 3-0.6 4.5q1.4-0.1 2.6-0.8 0 0 0.1-0.1c-0.8-0.9-0.6-1.8-0.4-2.7q0-0.4 0.1-0.8c0-0.6 0.4-1.2 0.9-1.5 0.7-0.4 0.8-1.1 1-1.9 0.1-0.5 0-0.9-0.3-1.2-0.2-0.4-0.6-0.6-1.1-0.7-1.7-0.3-3.3 0-4.9 1zm-25.5-4.6q0 0 0.1 0 0 0.1 0.1 0.2v-0.1q-0.1 0-0.2-0.1zm2.9 1.7q0.2 0 0.4 0.1v-0.2q-0.2 0-0.3-0.1l-0.1 0.2q0 0 0 0zm1.7 0.5v-0.2q-0.2 0-0.4-0.1v0.2q0.2 0 0.4 0.1zm-1.1-0.5v0.1q0.3 0.1 0.6 0.2v-0.1q-0.3-0.1-0.6-0.2zm-2.1-0.9q-0.2-0.1-0.4-0.2v0.2q0.3 0.2 0.7 0.4v-0.2q-0.2-0.1-0.3-0.2zm0.8 0.6l-0.1-0.2q-0.1-0.1-0.2-0.1l-0.1 0.1q0.2 0.1 0.4 0.2zm0.7 0.3v-0.2q-0.3-0.1-0.6-0.2v0.1q0.3 0.2 0.6 0.3zm5.6 1.1v-0.2q-0.5 0.1-1.5-0.1 0 0 0 0v0.1q0.7 0.1 1.5 0.2zm-3.7-0.7v0.1q0.6 0.2 1.3 0.3v-0.1q-0.7-0.1-1.3-0.3zm2.1 0.5l-0.1-0.1q-0.2 0-0.5-0.1v0.1q0.3 0.1 0.6 0.1zm-6.5-2.3v0.1q0.3 0.2 0.5 0.3v-0.1q-0.3-0.2-0.5-0.3zm26.3-22.5c0.2 0 0.4-0.2 0.6-0.4h-1.1l0.2 0.4q0.1 0 0.3 0zm64 33.1q-0.2 0-0.4-0.2c-0.3-0.2-0.2-0.7-0.1-1.5 0.3-1.4 0.6-2.7 0.9-4.1q0.1-0.7 0.3-1.4l-1.6 0.2 1-0.7q0.2-0.1 0.4-0.2c0.4-0.2 0.5-0.2 0.5-0.5q0-0.5 0.1-0.9 0-0.3 0-0.5 0 0 0 0-0.3 0-0.5 0.1-0.3 0-0.6 0c-0.2 0-0.5 0.1-0.7-0.1q-0.2-0.2-0.2-0.6l0.1-0.5 0.4 0.3c0.3 0.2 0.6 0.1 1 0q0.2-0.1 0.4-0.2 0-0.2 0-0.4-0.1-0.1-0.1-0.2l-0.3 0.1 0.3-0.2q-0.1-0.4-0.1-0.8 0 0 0 0-0.1 0-0.2 0c-1.4 0.3-2.7 0.7-3.8 0.9-1 0.3-1.4 0-1.7-0.9q-0.1-0.4-0.2-0.8-0.2-0.9-0.5-1.7c-1.1-3-2.9-4.1-6.1-3.7-1.9 0.3-3.3 1.1-4.5 2.5-0.8 1-1.5 2.1-2.2 3.2l-0.3 0.5c-0.8 1.2-1.7 1.7-2.9 1.7q-0.3 0-0.5 0-0.5 0.1-0.9 0l-2.2-0.2 2.2-0.4q0.1 0 0.3 0 0.3-0.1 0.7-0.1 0.1 0 0.1 0c1.2 0 2-0.6 2.7-1.8q1.1-1.9 2.5-3.6c1.9-2.2 4.4-3 7.6-2.6q2.2 0.3 3.5 2.4c0.8 1.2 1.1 2.6 1.5 3.9 0.1 0.3 0.2 0.7 0.2 0.7 0.1 0 0.4 0 0.7-0.1q0.7-0.1 1.3-0.3 1.2-0.2 2.5-0.5c0.3 0 0.3-0.1 0.2-0.4-0.3-2.1-0.3-6.3 0.2-8.8l-0.7-5.3 0.9 2q0.6 1.4 0.4 2.8l-0.1 0.6h0.1q0 1-0.1 1.9c0 1.6-0.1 3-0.2 4.5 0 0.6 0.1 1.2 0.3 1.9q0 0.2 0.1 0.5 0 0.1 0 0.1c0.1 0 0.1-0.1 0.2-0.1q0.1 0 0.2-0.1c2.5-0.6 5-1.2 7.9-1.9q1.1-0.3 2-0.5 1-0.3 2-0.6c0.3 0 0.3-0.1 0.3-0.3-0.4-1.7-0.3-3.4-0.1-5.1q0-0.4 0-0.7v-0.1q0.1-0.9 0.1-1.8-0.2 0.3-0.5 0.4c-0.6 0.2-1.3 0.1-1.6-0.4-0.2-0.3-0.5-0.5-0.8-0.7q-0.2-0.1-0.4-0.3l-0.9-0.8 1.1 0.2v-0.5c-0.2-1 0.4-1.5 0.9-1.7 0.6-0.2 1.2 0 1.7 0.6q0.1 0.2 0.2 0.4 0.4-0.1 0.6 0.1c0.3 0.2 0.4 0.6 0.4 1 0.1 1.6 0 3.2 0 4.7q-0.1 1.1-0.1 2.1 0 0.1 0 0.2 0 0.2 0 0.4c-0.1 0.9 0 1.6 0.3 1.9 0.1 0.2 0.4 0.1 0.9-0.1 0.3-0.1 0.5-0.2 0.8-0.2q0.1 0 0.1 0c0.2-0.1 0.3-0.1 0.6 0l0.8 0.3-0.8 0.3q-0.3 0.1-0.6 0.2-0.8 0.2-1.5 0.4c-0.2 0-0.3 0.1-0.2 0.3q0 0 0 0 0 0 0.1 0 0.1 0 0.2-0.1c1.5-0.4 3-0.9 4.5-1.4 0.4-0.1 0.8-0.2 1.2 0q0 0 0 0 0 0 0-0.1 0.2-1 0.5-2c0.2-0.8 0.5-1.7 1.4-2.2q0 0 0-0.1c0.1-0.1 0.2-0.2 0.3-0.2 0.8-0.3 0.9-1 1.1-1.8q0-0.1 0.1-0.3c0.3-1.6-0.2-2.9-0.9-4.2q-0.1 0.2-0.2 0.5 0 0 0 0.1 0 0 0 0.1c0 0.6-0.3 1.1-0.9 1.2q-0.2 0.1-0.3 0.1c-0.5 0-0.8-0.2-1.1-0.6-0.1-0.3-0.3-0.5-0.5-0.6l-1.1-0.4 1.1-0.1q0 0 0.1 0l-0.2-0.6q-0.1-0.6 0.1-1 0.3-0.4 0.8-0.5 0.6-0.1 1 0.2 0.2 0.2 0.3 0.5l0.2-0.1q-0.1-0.1-0.1-0.1l-0.1-0.1c-0.1-0.2-0.2-0.4-0.3-0.6l-0.4-1.4 0.9 1.1c1.4 1.5 2.6 3.2 2.5 5.5q-0.1 0.6-0.2 1.2 0 0.5-0.1 1.1c0 0.9-0.7 1.2-1.2 1.4q-0.3 0.1-0.5 0.2c-0.6 0.9-0.9 1.9-1.1 2.9q-0.2 0.5-0.3 1.1 0.2-0.5 0.4-1v-0.1c0.3-0.7 0.6-1.5 1.5-1.9l1.8-0.8-1.5 1.3c-0.8 0.7-1.1 1.8-1.3 2.8l-0.1 0.2q-0.4 1.3-0.7 2.6 0.2-0.4 0.5-0.7c0.3-0.5 0.7-0.7 1.1-0.7 0.4 0.1 0.8 0.4 1 0.9 0.4 0.9 0.6 2 0.6 3.4h-0.2l-0.4 0.8c-0.2 0.5-0.2 1.1-0.2 1.6 0 0.5 0.1 0.9 0 1.4-0.1 0.1-0.1 0.1 0.1 0.3q0.2 0.1 0.3 0.2l0.3-0.3v0.7l0.1 0.2h-0.1q0 0.7-0.1 1.3 0 0.8 0 1.6 0.7-4.7 0.3-9.1-0.1-0.5 0.1-0.9l0.4-1.4q-0.1-1.2-0.2-2.6 0-0.1 0-0.2 0-0.1 0-0.2 0 0 0 0 0 0-0.1 0 0 0.1 0 0.2 0.1 0.1 0 0.3 0 0.2 0 0.5 0 0.1 0 0.2l-0.1 1.2-0.5-1.1c-0.2-0.4-0.2-0.9-0.2-1.4 0.1-0.7 0.6-0.7 0.9-0.8q0.4 0 0.7 0.2c0.1 0.1 0.2 0.3 0.2 0.5q0.1 0.7 0.1 1.3 0.1 0.9 0.1 1.8c0.3-1.2 0.6-2.3 0.5-3.5q0-0.1 0-0.2-0.1-0.3-0.1-0.6c-0.2 0.3-0.5 0.5-1 0.5h-1l0.8-0.6c0.5-0.3 0.8-0.7 1.1-1.2l0.3-0.5 0.2 0.5c0.9 1.4 0.6 5.3-0.5 6.8l-0.3 0.3q-0.1 0.9-0.3 1.8l-0.2 0.6c0.1 3.6 0 7.4-0.8 11.2-0.2 0.6-0.4 1.2-0.6 1.7v0.1q-0.7 1.8-2.4 1.9l-0.1 0.1q-0.1 0-0.1 0-1.4 0.3-3 0.3-1.8 0-3.7-0.5c-1.4-0.3-1.7-1.4-2-2.4q-0.1-0.3-0.2-0.6l-0.2-0.6 0.6 0.3q0.1 0 0.1 0c0.1 0 0.3 0.1 0.3 0.2 0.4 1.6 1.4 2.3 3.2 2.5 1.5 0.2 2.8 0.2 4.1 0.2h-0.1 0.2c-0.9-1.2-1.2-2.6-1.5-3.9l-0.2-0.1 0.1-0.1 0.1-0.1q-0.4-2.5-0.2-4.9-0.3 0.7-0.7 1.3c-0.3 0.4-0.8 0.7-1.2 0.9h-0.1c-3.7 1.8-7.5 3.4-11.2 4.9q-1 0.4-2 0.8c-1.6 0.7-3.4 1.4-5.4 2.2q-0.1 0.1-0.1 0.1c-0.1 0-0.3 0.1-0.5 0.1q-0.2 0-0.4-0.1l-0.6-0.2 0.6-0.3q1.3-0.6 2.6-1.2c1.9-0.8 3.7-1.7 5.6-2.5q1.3-0.6 2.5-1.1c2.8-1.3 5.7-2.5 8.5-3.8 0.5-0.3 0.9-0.6 1.1-1.2 0.5-1 0.9-2.2 1.2-3.3q-0.9 1.4-2.6 2.1-0.3 0.2-0.6 0.3-0.8 0.4-1.6 0.7l-0.2-0.5c1.2-0.7 2.5-1.5 3.7-2.3 0.4-0.3 0.6-0.6 0.8-1.1 0.4-1.2 0.7-2.4 1-3.9-0.7 0.6-1.5 0.8-2.3 1q-0.4 0.1-0.7 0.2-0.4 0.2-0.8 0.3c-0.7 0.1-1.3 0.3-1.7 0.6-0.3 0.3-0.4 0.9-0.4 1.4q-0.1 0.5-0.2 1-0.2 0.6-0.4 1.3-0.4 1.2-0.7 2.4c-0.1 0.3-0.3 0.7-0.8 0.9-3.5 1.4-7.4 3.1-11.3 4.3-0.5 0.2-0.9 0.3-1.2 0.3zm21.4-28q0.1 0 0.2 0l0.2-0.5q0.1-0.1 0.1-0.2h-0.1l0.4-0.2c-0.2-0.3-0.3-0.3-0.3-0.3-0.1 0-0.3 0.1-0.6 0.8l-0.3 0.4q0.2 0 0.4 0zm-9.7 1.9l0.8-0.6c0.2-0.3 0.5-0.4 0.8-0.5q0 0 0 0c-0.3-0.2-0.6-0.4-0.7-0.4-0.2 0.1-0.5 0.5-0.9 1l-0.3 0.5q0.2 0 0.3 0zm9.5 26.1q0 0.1 0 0.2c0.2 0.7 0.4 1.4 0.8 2l0.1 0.1c0.3 0.5 0.6 0.8 1 0.8 0.4-0.1 0.6-0.4 0.8-0.9v-0.1c0.4-0.8 0.7-1.7 0.9-2.6q0 0 0 0-0.1 0.1-0.1 0.3-0.2 0.5-0.4 0.9v0.3l-0.1-0.1q-0.1 0.1-0.1 0.2c-0.4 0.6-0.8 0.7-1 0.7q-0.1 0-0.1 0c-0.2 0-0.6-0.2-0.8-0.7l-0.2 0.2 0.1-0.3q0 0 0 0c-0.5-0.9-0.6-1.9-0.7-2.8q-0.3-2-0.3-4l-0.2 0.2q0 0.1 0 0.2c-0.1 1.4-0.1 2.7 0 4h0.1c0 0.2 0 0.5-0.1 0.7 0.3 0.2 0.3 0.5 0.3 0.7zm0.2-9.9q-0.1 0.1-0.1 0.2-0.1 0.7-0.3 1.4-0.1 0.6-0.3 1.1h0.2q0 0.1 0 0.3 0.1 0.3 0 0.6 0 0.1 0 0.3l0.2-0.3q0-1.8 0.3-3.6zm-7.4-1.4l-1 0.3c-3.9 1.3-7.5 2.5-11.3 3.5-0.1 0-0.2 0.1-0.2 0.3q-0.2 1.2-0.5 2.4-0.3 1.7-0.6 3.5c0 0.1 0 0.2 0 0.3 0.1 0 0.2-0.1 0.3-0.1 2.8-1 5.6-2.1 8.3-3.1l2.9-1.1c0.3-0.1 0.4-0.2 0.4-0.4 0.7-1.9 1.2-3.7 1.7-5.6zm-12 1.3q0 0 0 0.1c0 0.5-0.1 1-0.2 1.6q0.2-0.1 0.4-0.1c3.6-1.1 7.2-2.3 11.5-3.8 0.7-0.2 0.8-0.4 0.8-0.9q-0.2 0-0.4 0.1c-3.4 1-7.4 2.2-11.7 3q-0.1 0-0.2 0c0 0-0.1 0-0.2 0zm0-1.5c-0.1 0-0.2 0.1-0.2 0.1q-0.1 0.1 0 0.3c0.1 0.2 0.1 0.2 0.1 0.2 0 0 0.2-0.1 0.2-0.1q0.1 0 0.3-0.1 2.8-0.6 5.5-1.3 1.6-0.5 3.2-0.9 1.6-0.5 3.1-0.9 0.4-0.1 0.4-0.2c0.1 0 0-0.1 0-0.2q0-0.1 0-0.1-0.1 0-0.1 0.1-0.2 0-0.3 0.1-1.1 0.3-2.1 0.6-0.9 0.2-1.8 0.5-0.5 0.1-1 0.2c-2.4 0.7-4.8 1.3-7.2 1.7zm12.4-4.4q0 0.1-0.1 0.1-0.1 0-0.2 0.1c-4.7 1.3-8.5 2.3-12.1 3.1-0.3 0.1-0.4 0.2-0.4 0.5q0 0 0.1 0 0 0 0 0 0.1-0.1 0.3-0.1c0.4-0.2 0.7-0.2 1.1-0.3q0.2 0 0.4-0.1c3.6-0.8 7.1-1.8 10.7-2.9 0.2 0 0.2-0.1 0.2-0.1q0.1 0 0-0.2 0 0 0-0.1zm5.6 0l0.2 0.6c-1.3 0.6-2.6 1.1-3.7 1.5-0.7 0.2-1.1 0.4-1.2 1.1q0.4-0.2 0.9-0.4 1.5-0.5 3.1-1.1 1.3-0.5 1.3-2 0-0.2 0-0.2-0.1 0-0.2 0.1c-1.8 0.5-3.3 0.9-4.8 1.3-0.2 0.1-0.2 0.1-0.2 0.4q0 0.1 0 0.1 0.1 0 0.1-0.1 0.1 0 0.2 0 1.7-0.5 3.3-1 0.5-0.1 1-0.3zm-7.3-9.3c0.3 0.2 0.5 0.2 0.8 0.1q0.2-0.1 0.3-0.3-0.5 0.1-1.1 0.2zm-0.8-0.9q0.9 0.1 2-0.3 0.2-0.1 0.2-0.1 0 0-0.1 0 0 0 0 0 0 0-0.1 0-0.4 0.1-0.8 0.2-0.2 0-0.4 0.1zm-59.2 17.1q-3.2 0-6.3-0.2c-0.4-0.1-0.8-0.1-1.3-0.3l-1.6-0.6h1.7q2.9 0.1 5.7 0.1c-0.9 0-2-0.1-2.9-0.5-1.3-0.4-1.6-1-1.3-2.3l0.1-0.4q-0.2 0.2-0.3 0.4l-0.3 0.3-0.2-0.3c-0.3-0.4-0.1-0.7 0-0.8q0.1-0.1 0.1-0.1c2.2-3.9 5.4-6.4 9.8-7.6 3.6-1.1 6.7-1.7 9.9-1.6q0.3 0 0.4-0.2c4-3.2 8.7-4.8 12.8-6 3.3-0.9 6.9-1.6 11-2.2q0.3 0 0.7 0.1l1.1 0.4-1.1 0.2q-0.8 0.1-1.5 0.3-1.6 0.3-3.3 0.6c-4.4 1-10.3 2.5-15.7 5.2l-0.2 0.2c-1.1 0.5-2.1 1.1-2.9 2q0 0.1 0 0.1 0.3 0 0.6 0.1c3.3 0.9 4.6 3.1 3.9 6.4-0.8 3.7-2.7 5.4-6.7 6.1-1.2 0.3-2.5 0.4-3.9 0.4h-1.4c-2.3 0.1-4.6 0.2-6.9 0.2zm14-2.4c3-1.2 3.8-4.3 3.6-6.5q-0.2-1.6-1.7-2.4-1.2-0.7-2.6-0.8c2.2 0.3 3.5 1.2 3.9 2.8 0.5 2.1 0 4-1.6 5.7-0.8 0.7-1.7 1.1-2.5 1.4q-1.4 0.5-3 0.7 2.1-0.2 3.9-0.9zm-19.2-2.9q-0.2 0.2-0.3 0.4l0.1 1.1c0.1 1.3 0.2 1.4 1.4 1.7 0.5 0.1 1 0.2 1.5 0.2 4.4 0.1 9-0.2 13.6-0.9 0.7-0.1 1.5-0.4 2.4-0.8 1.8-0.9 2.7-2.4 2.7-4.5q0-1.8-1.8-2.6-1.2-0.5-2.9-0.6c-2.6 0-5.4 0.3-8.4 1-2.1 0.5-4 1.5-5.9 3l-0.3-0.4q-1.1 1.1-2.1 2.4zm-38.4 19c2.9 0.8 5.9 1.5 9.1 1.9q0-0.2 0-0.4c-0.1-0.4-0.1-0.9-0.3-1.1-0.1-0.2-0.6-0.2-1-0.2q-0.4 0.1-0.7 0-0.6 0-1.1-0.1-0.9 0-1.9-0.2c-1.8-0.2-2.7-0.8-3.2-2.4l-0.1 0.6c0 0.7-0.4 1.3-0.8 1.9zm-1.7-3.9c0.5 1 1 2 0.9 3.2q0 0 0.1 0l0.1-0.3q0.4-0.6 0.9-1.2l0.5-0.6q0-0.2-0.1-0.4v-0.1-0.1q0.1-0.1 0.1-0.1-1.2-0.2-2.5-0.4zm3.1 0.4q0 0.1 0 0.1c0.5 1.5 1.5 2.2 3.3 2.3 1.1 0 2.3 0.1 3.3 0.3h0.5q0.2 0 0.3 0 0 0-0.1-0.2 0-0.1 0-0.3c-0.1-0.3-0.2-0.7-0.1-1.2v-0.1q-3.6-0.4-7.2-0.9zm76.4 16.7q-0.2 0-0.4 0-0.6-0.1-1.1-0.5l-0.4 0.4 0.3-0.5q-0.5-0.3-0.8-0.9-0.5-0.8-0.8-1.7h-0.4l0.3-0.2c-0.4-1.1-0.6-2.2-0.7-3.3-0.8-5.1-0.3-10.3 1.6-15.9 0.4-1.2 0.9-2.2 1.6-3.1q0.3-0.3 0.6-0.5v-0.1 0.1q0.5-0.4 0.9-0.6l0.2-0.8v0.7q0.5-0.1 1.1-0.1c1 0.1 1.8 0.7 2.5 1.7 1 1.8 1.3 3.7 1.4 5.2l-0.6 0.1q0 0 0 0l-0.1 0.1c-0.6 1-1.2 2.1-1.6 3.3-0.1 0 0 0.1 0 0.3q0.1 0 0.1 0.1 0.3 1 0 1.8c-0.1 0.5-0.1 0.6 0.2 0.7q0.1 0.1 0.2 0.2c0.3 0.2 0.4 0.3 0.7 0l-0.2-0.5 0.3 0.3 0.7-0.8q0 0 0-0.1l0.4-2.4 0.1 1.8 0.3-0.4-0.3 0.6 0.1 0.5c0.1 1.6-0.2 3.3-0.4 4.7-0.4 2.2-1 4.8-2.2 7.1-0.4 0.8-0.9 1.3-1.4 1.8v0.3l-0.1-0.2q0 0 0 0-1 0.8-2.1 0.8zm5.2-20.6l-0.2 0.1q-0.1 0.1-0.2 0.1 0.1 0 0.2 0l0.2 0.1q0-0.1 0-0.3zm-1.7-0.2l-0.1 0.4q-0.5 1-0.9 2v0.1q-0.1 0.3-0.3 0.7-0.1 0.1-0.2 0.3 0.1 0.1 0.3 0.3c0 0.1 0.1 0.3 0 0.4 0 0.2-0.2 0.2-0.3 0.3q0 0-0.1 0 0 0 0 0c0 0 0 0.2 0 0.2q0 0.1 0 0.1 0 0 0 0c0 0 0.1 0.1 0.2 0.2 0.2-0.7 0.5-1.3 0.8-1.9l0.1-0.2c0.4-0.7 0.7-1.3 0.9-1.8 0.1-0.1 0.2-0.4 0.4-0.5-0.2 0-0.5-0.2-0.8-0.6zm-2.9 4.6q0 0 0 0 0 0 0 0.1c-0.1 0.2 0 0.5 0.2 0.6l0.1 0.1q0.1-0.1 0.2-0.1-0.1-0.1-0.2-0.2c0-0.1-0.1-0.3-0.1-0.4q0 0 0 0l-0.1-0.1q0 0-0.1 0zm4.8 3q0 0 0 0 0 0 0 0zm-3.6-1c-0.2-0.1-0.3-0.2-0.4-0.4q0 0 0-0.1c-0.1 0.1-0.1 0.3-0.1 0.4q0 0.1 0 0.2-0.1 0.6 0 1.2 0 0.1 0 0.2 0 0.1 0.1 0.1 0 0 0-0.1 0.1-0.1 0.1-0.1 0-0.1 0-0.1c0.1-0.1 0.1-0.4 0.4-0.5l0.4-0.3q-0.1-0.1-0.2-0.4zm0.5 1c0 0.5 0 1-0.4 1.4-0.2 0.1-0.4 0.3-0.7 0.3q0.2 0.1 0.1 0.3c1.1-0.3 1.8 0.4 2.5 1q0 0 0.1 0.1c0-0.8 0.1-1.6 0.7-2.3q-0.1 0.1-0.2 0.1c-0.2 0-0.4-0.2-0.7-0.3-0.3-0.2-0.8-0.4-1.1-0.8q-0.2-0.1-0.3-0.2zm2.7-7.9c-0.2-0.8-0.5-1.6-0.8-2.4q-0.1-0.4-0.4-0.9l0.1 0.3c0.1 0.4 0.1 0.7 0.1 1.1 0 1 0.1 1.6 0.9 1.9l0.1 0.1q0-0.1 0-0.1zm-1.7-4.2q-0.7-0.7-1.5-0.8-0.5 0-0.9 0.2v1.1q0 0.3 0 0.7c0.8 0 1.3 0.4 1.4 1.2 0.2 1.1-0.1 2.2-0.8 3.3l-0.3 0.5q0 0.2 0 0.5 0.3-0.6 0.6-1.1c0.5-1 1-2 0.9-3.1 0-0.4 0-0.8 0.1-1.2q0-0.2 0-0.5v-0.3l0.7 0.1v0.3l0.2-0.2q-0.2-0.4-0.4-0.7zm-2.3 2.1q0 1.2 0 2.5 0.1-0.2 0.1-0.3 0.1-0.1 0.1-0.2c0.3-1.2 0.3-1.4-0.3-2.1q0 0 0.1 0.1zm-0.8-2.3q-0.1 0.2-0.2 0.3l0.1 0.5q0.1 0.2 0.1 0.4 0-0.3 0.1-0.5l0.1-0.8q-0.1 0-0.2 0.1zm-1.4 2.3q-0.4 0.8-0.6 1.8c0.4 0 0.7 0 0.8-0.1 0.1-0.1 0.2-0.4 0.2-0.8 0.1-0.5 0.1-1 0.2-1.5q0-0.4 0.1-0.8-0.4 0.6-0.7 1.4zm-0.9 2.6q0.3 0 0.5 0-0.2-0.1-0.4-0.3-0.1 0.2-0.1 0.3zm1.9 1.1c0.1 0.5 0.2 1 0.3 1.6q0 0.1 0.1 0.3 0 0.1 0 0.2 0 0 0 0.1 0 0 0.1 0 0 0 0.1 0c-0.3-0.3-0.3-0.6-0.3-0.8q-0.2-1.3-0.2-2.6-0.1 0.2-0.4 0.3-0.1 0.1-0.2 0.1 0.3 0.2 0.5 0.8zm-2.8 3.8q-0.1 0.7-0.1 1.4l0.5 0.6c0.6-1.1 0.4-2.2 0.3-3.4q-0.1-0.7-0.2-1.4 0-0.1 0-0.3-0.3 1.6-0.5 3.1zm1 2.5c0.1 0 0.2-0.1 0.2-0.1l0.1-0.1c0.4-0.1 0.5-0.5 0.7-1.1 0.3-1.6 0.1-3.1-0.2-4.9-0.1-0.3-0.3-0.4-0.7-0.5q-0.1 0-0.1 0c0.4 0.6 0.5 1.2 0.6 1.8q0.1 0.1 0.1 0.2c0.2 1 0.2 1.9 0.1 2.7q0 1.2-0.8 2zm-1.3-0.1q0 0.1 0 0.1 0-0.1 0.1-0.1 0.1-0.2 0.2-0.3l-0.2-0.5q0 0.4-0.1 0.8zm1.6 2.9q0.1-0.1 0.1-0.2c0.5-0.5 1.1-0.5 1.4-0.4q0.1 0 0.1 0.1c0.1-0.5 0.6-0.7 0.8-0.8q-0.1-0.1-0.3-0.3c-0.4 0.2-0.7 0.4-1 0.4q-0.1 0-0.2 0c-0.3-0.2-0.5-0.4-0.6-0.8q-0.1 0-0.2 0l0.4 0.7-0.7-0.6q-0.2 0-0.4 0 0.6 0.8 0.6 1.9zm-0.1 7.9q0.2 0.5 0.5 0.8v-0.2q0.2-0.3 0.2-0.6c0.1-0.4 0.1-0.8 0.4-1.2 0.3-0.3 0.3-0.7 0.3-1.1q0-0.5-0.1-0.9 0 0.6-0.2 1.1c-0.1 0.6-0.4 1.3-1.5 1.4q0.2 0.4 0.4 0.7zm1.5 1.4c0.6 0.1 1.2-0.2 1.9-0.8l-0.3-0.6q-0.2-0.4-0.4-0.8 0-0.1-0.1-0.2 0 0-0.1 0.2c-0.4 0.5-0.9 1.1-1.4 1.7l-0.2 0.2q0.3 0.3 0.6 0.3zm3.6-3.6q0.5-1.2 0.8-2.5l-0.1-0.2q-0.3-0.3-0.3-0.8c0-0.6-0.2-1-0.5-1.3 0.3 0.5 0.3 1.1 0.1 1.6-0.2 0.6-0.7 0.9-1.3 0.7h-0.1q0 2.3 0.1 4.8c0.5-0.6 0.9-1.4 1.3-2.3zm-6.6-7.4q-0.1 1.7 0.1 3.2 0.1-0.3 0.2-0.6 0.5-1.4-0.3-2.6zm39.1-5.3c0.1 0.2 0.2 0.2 0.3 0.2 0.1 0 0.2-0.1 0.3-0.3l0.1-0.1q0 0 0-0.1-0.1-0.2-0.2-0.4c-0.1 0.2-0.2 0.5-0.5 0.7zm1.2-3.3q0 0.8 0.1 1.6 0.3-1.2 0.3-2.1-0.1 0.1-0.1 0.1zm-1.8-0.1q0 0.3 0 0.7 0.1-0.3 0-0.7zm0.3-3q0 0.2 0.1 0.4 0.1-0.2 0.2-0.2v-0.1q-0.1 0-0.3-0.1zm1.2 0q0.3 0.1 0.6 0.3c0.1-0.3 0.2-0.5 0.3-0.8q-0.3-0.1-0.5-0.3 0 0.1 0 0.2c0 0.2-0.1 0.4-0.3 0.6q0 0-0.1 0zm0-1.2q0.1 0 0.1 0 0-0.1-0.1-0.2 0 0 0-0.1 0 0.1 0 0.2 0 0.1 0 0.1 0 0 0 0zm-1-4.4l-0.2 0.7q0 0 0.1 0.2 0-0.5 0.2-0.9 0 0 0 0-0.1 0-0.1 0zm1.9 0q-0.1 0.1-0.1 0.1 0 0.3-0.1 0.6l0.6-0.5h-0.1c0-0.1 0-0.1-0.3-0.2q0 0 0 0zm-1.2-2.4q0.4 0 0.6 0.2 0-0.1 0-0.2l0.1-0.5q0-0.1-0.1-0.2c-0.1-0.2-0.2-0.2-0.2-0.2-0.2 0.1-0.4 0.3-0.5 0.6q-0.1 0.1 0 0.1zm-61-20.1q0.5 0.1 1 0.1-0.5 0-1-0.1zm22.8 47.4c0.3-1.2 0.2-2.5 0-3.7q-0.2 0.6-0.4 1.2-0.2 0.5-0.4 0.9l-0.2 0.6q0.2 0.9 0.4 1.7c0.4-0.2 0.5-0.4 0.6-0.7zm2.3-5.5q0 0.1 0 0.2l0.1 0.4c0 1.6 0.1 3.2-0.2 4.8q0.3-0.1 0.6 0c-0.3-2-0.2-3.7-0.2-5.2q0-0.1 0-0.1 0 0 0 0-0.1 0-0.3-0.1zm-1.1 0.2q-0.1 0.1-0.1 0.1l-0.1 0.1c-0.3 0.3-0.4 0.4-0.2 0.8q0.3 0.7 0.5 1.5-0.1-0.6-0.1-1.3v-1.1q0 0 0-0.1zm2.6 0.7q-0.1 0.6-0.1 1.3c0.5-0.7 0.5-0.9 0.1-1.3zm14.3-42.4q0.9 0 1.5 0.9c0.3 0.5 0.9 0.7 1.5 0.8q2.7 0.6 5.4-0.3c0.6-0.2 1-0.5 1.3-0.8 0.4-0.5 0.5-1.1 0.5-1.6q-0.2-0.7-0.8-1.1-2.9-2.1-6.1-1.7c-1 0.2-1.7 0.9-2.3 1.6-0.5 0.5-1 1-1.7 1.3-0.2 0.1-0.5 0.2-0.8 0h-0.1q0.2 0.3 0.4 0.7c0.1 0.2 0.2 0.4 0.6 0.3q0.3-0.1 0.6-0.1zm0.7 1.7h0.3q-0.1-0.1-0.2-0.2c-0.2-0.5-0.5-0.6-1.1-0.5-0.3 0.1-1.3 0.2-1.7-0.7-0.2-0.5-0.4-0.9-0.7-1.3q-0.4-0.5-0.7-1.1l-0.2 2.3q-0.1 1 0.2 1.2 0.2 0.2 1.2 0 0.1 0 0.2 0c0.6-0.1 1.3-0.3 2 0l0.7 0.3zm-99.1 22.7c0.3 0.1 0.6 0.2 0.9 0.4 0.2-0.4 0.5-0.5 0.8-0.6q0.2-0.1 0.4-0.2 0.1-0.1 0.3-0.2 0 0 0.1 0 0-0.1-0.3-0.1-0.1 0-0.2 0c-0.9-0.2-1.4 0.2-2 0.7zm22.7 5c-6.1 0-13.4-0.3-20.6-2l0.1-0.6c5.8 0.8 11.6 1.1 17.3 1.5 2.5 0.1 5 0.3 7.6 0.5l-0.1 0.6q-2 0-4.3 0zm59.3 9c-0.1 0.1-0.1 0.1-0.1 0.4q0 0.1 0 0.1 0 0 0.1-0.3 0 0 0 0 0-0.1 0-0.1 0 0 0-0.1zm-35.7-24.3l-0.3-0.5c8.7-6.4 19.2-8.3 28.4-10l0.1 0.5q-1.3 0.3-2.5 0.6c-1.9 0.4-3.8 0.9-5.7 1.3-5.8 1.5-10.5 2.9-15 5.2-1.8 0.9-3.4 1.9-5 2.9zm-45.6-2.8q0.1 0.2 0.2 0.3c-0.6-0.9-1.2-1.4-1.9-1.6q0.9 0.4 1.7 1.3zm20.4-1.6l1.7-1.6c2.3-2.2 14.7-6.2 18.4-6.1l2.3 0.1-2.4 0.6c-6.3 1.4-12.4 2.8-17.9 5.9zm-13.9 1l-0.4-0.5c4.9-4.5 11.2-6.1 17.7-7.5l0.1 0.6q-0.5 0.1-1.1 0.3c-5.7 1.6-11.6 3.2-16.3 7.1zm115.7 1.7l-0.6-0.4c-0.5-0.3-0.5-0.7-0.5-1q0-0.1 0-0.1 0-1.1-0.1-2.2 0-0.6 0-1.3c-0.1-2.5-1.7-4.3-3.4-6.1-0.1-0.1-0.3-0.1-0.6-0.2q-0.1 0-0.2 0-0.6-0.1-1.3-0.1-0.2-0.1-0.5-0.1l-1.4-0.1 1.4-0.5c1.6-0.5 2.9-0.1 4.2 1.3 1.8 2 2.7 4.3 2.8 7.1q0 0.4-0.1 0.9c0 0.7 0 1.4 0.2 2.1zm-71.6 24.9l0.3 0.7c0.5 1.2 0.9 1.3 1.5 1.1 0.6-0.2 0.9-1 0.8-1.6-0.1-0.4-0.4-0.7-2.2-0.3zm-47-16.4l-0.1-0.1q0 0 0 0l-0.1 0.2q0.1 0.2 0.3 0.4zm1.5-4.9l0.1-0.3q-0.1 0-0.1 0zm-0.5 5.6l-0.1 0.4q0.2 0.1 0.4 0.2zm-13.1 9.7l0.3 0.2q0.2 0.2 0.4 0.4c0.3 0.3 0.4 0.3 0.6 0.2 0.1-0.1 0.3-0.2 0-0.8-0.1-0.4-0.3-0.4-1.1-0.1zm125.8-27q0 0 0.1 0 0-0.1-0.1-0.2zm-0.9 1.9c0.1 0.1 0.2 0.1 0.2 0.1 0 0 0.1 0 0.2-0.2zm0.2-0.9q0 0-0.1 0 0 0 0.1 0z"/></svg>