<svg version="1.2" xmlns="http://www.w3.org/2000/svg" viewBox="0 0 763 716" width="763" height="716">
    <style>.a{fill:rgba(0,0,0,0.05)}</style>
    <path class="a" d="m541.3 84.1c-6.1 0.1-11.1-4.7-11.3-10.8l-1.4-50.8-50.7 1.3c-3.1 0-5.9-1.1-7.9-3.1-2.1-1.9-3.4-4.7-3.5-7.7-0.1-6.1 4.7-11.2 10.8-11.3l61.8-1.6c6.1-0.1 11.2 4.7 11.3 10.8l1.7 61.8c0.2 6.1-4.7 11.2-10.8 11.4zm-38.8 40.9c-3.1 0.1-5.9-1.1-7.9-3.1-2.1-1.9-3.4-4.6-3.5-7.7l-1.3-50.8-50.8 1.3c-6.1 0.1-11.2-4.7-11.3-10.8-0.2-6.1 4.6-11.1 10.7-11.3l61.8-1.5c3-0.1 5.8 1 7.9 3 2.2 2 3.4 4.8 3.5 7.7l1.6 61.9c0.2 6.1-4.6 11.1-10.7 11.3zm-38.9 40.9c-6.1 0.1-11.2-4.7-11.3-10.8l-1.4-50.8-50.8 1.3c-3 0.1-5.8-1.1-7.9-3-2-2-3.3-4.7-3.4-7.8-0.2-6.1 4.6-11.1 10.7-11.3l61.9-1.5c6.1-0.2 11.2 4.6 11.3 10.7l1.7 61.9c0.1 6.1-4.7 11.1-10.8 11.3zm-38.8 40.9c-6.1 0.2-11.2-4.7-11.4-10.8l-1.3-50.7-50.8 1.2c-3.1 0.1-5.9-1.1-7.9-3-2.1-2-3.4-4.7-3.5-7.7-0.1-6.1 4.7-11.2 10.8-11.4l61.8-1.5c6.1-0.2 11.2 4.7 11.4 10.8l1.6 61.8c0.2 6.1-4.6 11.2-10.7 11.3zm-38.9 40.9c-3 0.1-5.8-1.1-7.9-3-2-2-3.4-4.7-3.4-7.7l-1.4-50.8-50.8 1.2c-6.1 0.2-11.2-4.6-11.3-10.7-0.2-6.1 4.6-11.2 10.7-11.3l61.9-1.6c2.9-0.1 5.7 1 7.9 3.1 2.1 2 3.3 4.8 3.4 7.7l1.6 61.8c0.2 6.1-4.6 11.2-10.7 11.3zm-38.9 41c-6.1 0.1-11.1-4.7-11.3-10.8l-1.3-50.8-50.8 1.3c-3.1 0-5.9-1.1-7.9-3.1-2.1-1.9-3.4-4.6-3.5-7.7-0.1-6.1 4.7-11.2 10.8-11.3l61.8-1.6c6.1-0.1 11.2 4.7 11.3 10.8l1.7 61.8c0.2 6.1-4.7 11.2-10.8 11.4zm-38.8 40.9c-3.1 0.1-5.9-1.1-7.9-3.1-2.1-1.9-3.4-4.6-3.5-7.7l-1.3-50.8-50.8 1.3c-6.1 0.1-11.2-4.7-11.3-10.8-0.2-6.1 4.6-11.1 10.7-11.3l61.8-1.5c3-0.1 5.8 1 7.9 3 2.2 2 3.4 4.8 3.5 7.7l1.6 61.9c0.2 6.1-4.6 11.1-10.7 11.3zm-38.9 40.9c-6.1 0.2-11.2-4.7-11.3-10.8l-1.4-50.8-50.8 1.3c-3 0.1-5.8-1.1-7.9-3-2-2-3.3-4.7-3.4-7.8-0.2-6.1 4.7-11.1 10.8-11.3l61.8-1.5c6.1-0.2 11.2 4.6 11.3 10.7l1.7 61.9c0.1 6.1-4.7 11.1-10.8 11.3zm-38.8 40.9c-3.1 0.1-5.9-1.1-7.9-3-2.1-2-3.4-4.7-3.5-7.7l-1.3-50.8-50.8 1.2c-6.1 0.2-11.2-4.6-11.4-10.7-0.1-6.1 4.7-11.2 10.8-11.4l61.8-1.5c3-0.1 5.8 1 7.9 3 2.1 2.1 3.4 4.8 3.5 7.8l1.6 61.8c0.2 6.1-4.6 11.2-10.7 11.3zm-38.9 40.9c-6.1 0.2-11.2-4.6-11.3-10.7l-1.4-50.8-50.8 1.3c-3 0-5.8-1.1-7.9-3.1-2-1.9-3.3-4.7-3.4-7.7-0.2-6.1 4.6-11.2 10.7-11.3l61.9-1.6c6.1-0.1 11.1 4.7 11.3 10.8l1.7 61.8c0.1 6.1-4.7 11.2-10.8 11.3zm-38.9 41c-6.1 0.1-11.1-4.7-11.3-10.8l-1.3-50.8-50.8 1.3c-3.1 0-5.9-1.1-7.9-3.1-2.1-1.9-3.4-4.6-3.5-7.7-0.1-6.1 4.7-11.2 10.8-11.3l61.8-1.6c6.1-0.1 11.2 4.7 11.3 10.8l1.7 61.8c0.2 6.1-4.7 11.2-10.8 11.4zm-38.8 40.9c-3.1 0.1-5.9-1.1-7.9-3.1-2.1-1.9-3.4-4.6-3.5-7.7l-1.3-50.8-50.8 1.3c-6.1 0.1-11.2-4.7-11.3-10.8-0.2-6.1 4.6-11.1 10.7-11.3l61.9-1.5c2.9-0.1 5.7 1 7.8 3 2.2 2 3.4 4.8 3.5 7.7l1.6 61.9c0.2 6.1-4.6 11.1-10.7 11.3zm-38.9 40.9c-6.1 0.2-11.2-4.7-11.3-10.8l-1.4-50.8-50.8 1.3c-3 0.1-5.8-1.1-7.9-3-2-2-3.3-4.7-3.4-7.8-0.2-6.1 4.7-11.1 10.8-11.3l61.8-1.5c6.1-0.2 11.2 4.6 11.3 10.7l1.7 61.9c0.1 6.1-4.7 11.1-10.8 11.3zm210.1 139.2l-61.8 1.6c-3.1 0.1-5.9-1.1-7.9-3.1-2.1-1.9-3.4-4.6-3.5-7.7l-1.6-61.8c-0.2-6.1 4.6-11.2 10.7-11.3 6.1-0.2 11.2 4.6 11.4 10.7l1.3 50.8 50.8-1.3c6.1-0.1 11.2 4.7 11.3 10.8 0.2 6.1-4.6 11.2-10.7 11.3zm38.9-40.9l-61.9 1.6c-2.9 0-5.7-1.1-7.9-3.1-2.1-2-3.3-4.8-3.4-7.7l-1.7-61.8c-0.1-6.1 4.7-11.2 10.8-11.4 6.1-0.1 11.2 4.7 11.3 10.8l1.4 50.8 50.8-1.3c6.1-0.1 11.1 4.7 11.3 10.8 0.2 6.1-4.6 11.2-10.7 11.3zm38.8-40.9l-61.8 1.5c-3.1 0.1-5.9-1-7.9-3-2.1-1.9-3.4-4.7-3.5-7.7l-1.6-61.9c-0.2-6.1 4.6-11.1 10.7-11.3 6.1-0.1 11.2 4.7 11.4 10.8l1.3 50.8 50.8-1.3c6.1-0.1 11.2 4.7 11.4 10.8 0.1 6.1-4.7 11.1-10.8 11.3zm38.9-40.9l-61.9 1.5c-3 0.1-5.8-1.1-7.9-3-2-2-3.3-4.7-3.4-7.7l-1.6-61.9c-0.2-6.1 4.6-11.1 10.7-11.3 6.1-0.2 11.2 4.7 11.3 10.8l1.4 50.8 50.8-1.3c6.1-0.2 11.2 4.7 11.3 10.8 0.2 6-4.6 11.1-10.7 11.3zm38.8-40.9l-61.8 1.5c-2.9 0.1-5.8-1-7.9-3-2.1-2.1-3.4-4.8-3.4-7.8l-1.7-61.8c-0.1-6.1 4.7-11.2 10.8-11.3 6.1-0.2 11.1 4.6 11.3 10.7l1.4 50.8 50.7-1.2c6.1-0.2 11.2 4.6 11.4 10.7 0.1 6.1-4.7 11.2-10.8 11.4zm38.9-41l-61.8 1.6c-3.1 0.1-5.9-1.1-7.9-3.1-2.1-1.9-3.4-4.6-3.5-7.7l-1.6-61.8c-0.2-6.1 4.6-11.2 10.7-11.3 6.1-0.2 11.2 4.6 11.4 10.7l1.3 50.8 50.8-1.3c6.1-0.1 11.2 4.7 11.3 10.8 0.2 6.1-4.6 11.2-10.7 11.3zm38.9-40.9l-61.9 1.6c-2.9 0-5.7-1.1-7.9-3.1-2.1-2-3.3-4.8-3.4-7.7l-1.7-61.8c-0.1-6.1 4.7-11.2 10.8-11.4 6.1-0.1 11.2 4.7 11.3 10.8l1.4 50.8 50.8-1.3c6.1-0.1 11.1 4.7 11.3 10.8 0.2 6.1-4.6 11.2-10.7 11.3zm38.8-40.9l-61.8 1.5c-3.1 0.1-5.9-1.1-7.9-3-2.1-2-3.4-4.7-3.5-7.7l-1.6-61.9c-0.2-6.1 4.6-11.1 10.7-11.3 6.1-0.1 11.2 4.7 11.4 10.8l1.3 50.8 50.8-1.3c6.1-0.1 11.2 4.7 11.4 10.8 0.1 6.1-4.7 11.1-10.8 11.3zm38.9-40.9l-61.9 1.5c-2.9 0.1-5.7-1-7.9-3-2.1-2-3.3-4.8-3.4-7.7l-1.6-61.9c-0.2-6.1 4.6-11.2 10.7-11.3 6.1-0.2 11.2 4.7 11.3 10.8l1.4 50.8 50.8-1.3c6.1-0.2 11.2 4.7 11.3 10.7 0.2 6.1-4.6 11.2-10.7 11.4zm38.8-41l-61.8 1.6c-3.1 0.1-5.8-1.1-7.9-3-2-2-3.4-4.7-3.4-7.8l-1.7-61.8c-0.1-6.1 4.7-11.2 10.8-11.3 6.1-0.2 11.1 4.6 11.3 10.7l1.4 50.8 50.7-1.2c6.1-0.2 11.2 4.6 11.4 10.7 0.1 6.1-4.7 11.2-10.8 11.3zm38.9-40.9l-61.8 1.6c-3.1 0.1-5.9-1.1-7.9-3.1-2.1-1.9-3.4-4.6-3.5-7.7l-1.6-61.8c-0.2-6.1 4.6-11.2 10.7-11.3 6.1-0.2 11.2 4.6 11.4 10.7l1.3 50.8 50.8-1.3c6.1-0.1 11.2 4.7 11.3 10.8 0.2 6.1-4.6 11.2-10.7 11.3zm38.9-40.9l-61.9 1.6c-2.9 0-5.8-1.1-7.9-3.1-2.1-2-3.3-4.8-3.4-7.7l-1.7-61.8c-0.1-6.1 4.7-11.2 10.8-11.4 6.1-0.1 11.2 4.7 11.3 10.8l1.4 50.8 50.8-1.3c6.1-0.1 11.1 4.7 11.3 10.8 0.2 6.1-4.6 11.2-10.7 11.3zm38.8-40.9l-61.8 1.5c-3.1 0.1-5.9-1.1-7.9-3-2.1-2-3.4-4.7-3.5-7.7l-1.6-61.9c-0.2-6.1 4.6-11.1 10.7-11.3 6.1-0.1 11.2 4.7 11.4 10.8l1.3 50.8 50.8-1.3c6.1-0.2 11.2 4.7 11.4 10.8 0.1 6.1-4.7 11.1-10.8 11.3zm-140.8-144.8l-496.5 522.9c-4.2 4.4-11.2 4.6-15.7 0.4-4.4-4.2-4.6-11.2-0.4-15.6l496.6-522.9c4.2-4.5 11.2-4.6 15.6-0.4 4.5 4.2 4.6 11.2 0.4 15.6zm-325.6 397l-143.9 151.5c-4.2 4.5-11.2 4.6-15.7 0.4-4.4-4.2-4.6-11.2-0.4-15.6l143.9-151.5c4.2-4.4 11.2-4.6 15.6-0.4 4.5 4.2 4.7 11.2 0.5 15.6zm352.6-371.4l-319.2 336.2c-4.2 4.4-11.2 4.6-15.6 0.4-4.4-4.2-4.6-11.2-0.4-15.6l319.2-336.2c4.2-4.4 11.2-4.6 15.6-0.4 4.4 4.2 4.6 11.2 0.4 15.6zm-97.6 156.9l-372 391.7c-4.2 4.4-11.2 4.6-15.6 0.4-4.4-4.2-4.6-11.2-0.4-15.7l371.9-391.6c4.2-4.4 11.2-4.6 15.6-0.4 4.5 4.2 4.7 11.2 0.5 15.6zm124.6-131.2l-95.8 100.8c-4.2 4.4-11.2 4.6-15.6 0.4-4.4-4.2-4.6-11.2-0.4-15.6l95.8-100.9c4.2-4.4 11.2-4.6 15.6-0.4 4.4 4.2 4.6 11.2 0.4 15.7z" />
</svg>