<svg version="1.2" xmlns="http://www.w3.org/2000/svg" viewBox="0 0 201 92" width="201" height="92"><style>.a{fill:#ffd600}</style><path class="a" d="m13.2 23.2l148.6-23.2c0.7 0 1.2 0.5 1.2 1.2v48.6c0 0.7-0.5 1.2-1.2 1.2l-148.6 4c-0.6 0-1.2-0.5-1.2-1.2v-29.4c0-0.7 0.6-1.2 1.2-1.2z"/><path fill-rule="evenodd" d="m4.2 64.8c-0.4 0-0.7-0.3-1.2-0.3q-0.5 0.1-1.1-0.1 0.3 0 0.6-0.1 41.1 0 82.2 0c3.1 0.5 6.3 0.2 9.5 0.2 3.2 0.1 6.4 0.1 9.6 0.1q4.8 0 9.5 0 4.8 0 9.6 0 4.8 0 9.6 0 0.5 0 1.1 0 0-25 0-49.7-0.8 0-1.4 0.1c-0.4 0.1-0.7 0.1-1.1 0.2-0.3 0.1-0.7-0.1-1 0.2 0 0.1-0.3 0-0.4 0-0.4 0-0.9 0.1-1.3 0.2-0.4 0.1-0.8 0-1.3 0.2-0.4 0.2-1 0.1-1.6 0.2-0.7 0.2-1.5 0.2-2.2 0.3-0.4 0-0.7 0.2-1.1 0.2q-0.6 0-1.2 0.2c-0.3 0.1-0.7-0.1-1 0.2-0.1 0-0.2 0-0.3 0-0.5 0.1-1-0.1-1.4 0.2-0.4 0.2-0.9-0.1-1.3 0.2-0.7-0.1-1.4 0.3-2 0.2-0.5 0-0.9 0.1-1.3 0.2-0.4 0.2-0.9 0-1.3 0.2-0.6 0.3-1.3 0.2-1.9 0.3-0.8 0.1-1.6 0.1-2.3 0.4-0.1 0-0.2 0-0.3 0-0.5 0.1-0.9-0.1-1.4 0.2-0.4 0.2-0.9 0-1.4 0.2-0.7 0.2-1.5 0.1-2.3 0.2-0.7 0.1-1.3 0.1-2 0.4-0.1 0-0.2 0-0.3 0-0.7 0.1-1.5 0.1-2.2 0.3-0.5 0.1-1.1 0.1-1.6 0.2-0.5 0.2-1 0-1.5 0.2-0.5 0.2-1 0.1-1.4 0.2-0.5 0.2-0.9 0.1-1.4 0.2q-1.5 0.3-3.1 0.5c-0.5 0-1 0-1.5 0.2-0.4 0.1-0.9 0-1.4 0.2-0.5 0.1-1 0-1.4 0.2-0.6 0.1-1.1 0.1-1.6 0.2-0.9 0.2-1.9 0.3-2.8 0.4-0.6 0.1-1.1 0.1-1.6 0.2-0.5 0.2-1.1 0-1.5 0.2-0.5 0.2-1 0.1-1.4 0.2-0.5 0.2-1 0.2-1.4 0.2q-1.6 0.3-3.1 0.5c-0.5 0-1 0-1.4 0.2-0.5 0.1-0.9 0.1-1.4 0.2-0.4 0-0.7 0.1-1.1 0.2q-0.5 0-0.9 0.2c-0.6 0.1-1.2 0-1.8 0.2-0.7 0.2-1.6 0.2-2.4 0.2-0.3 0-0.6 0.3-1 0.2-0.3 0-0.6-0.1-0.9 0.2-0.1 0.1-0.3 0.1-0.4 0-0.5 0-0.9 0.1-1.3 0.2-0.5 0.1-0.9 0-1.3 0.2-0.5 0.2-1.2 0.1-1.7 0.2-0.8 0.2-1.7 0.2-2.5 0.3-0.3 0-0.6 0.2-0.9 0.2-0.4 0-0.7-0.1-1 0.2-0.1 0-0.2 0-0.3 0-0.9 0.1-1.8 0.1-2.7 0.4-0.2 0.1-0.3 0-0.5 0-0.4 0-0.8 0-1.2 0.2-0.4 0.2-0.8-0.2-1.2 0.2 0 0.1-0.2 0-0.3 0-0.8 0.1-1.7 0.1-2.4 0.3-0.5 0.1-1.1 0-1.5 0.2-0.5 0.2-1 0.1-1.5 0.2-1.1 0.2-2.1 0.2-3.1 0.4-0.6 0.1-1.1 0.1-1.6 0.2-0.5 0.2-1.1 0.1-1.5 0.2-0.5 0.2-1 0.2-1.4 0.2-0.3 0.1-0.7 0.2-1 0.2-0.3 0.1-0.6-0.1-0.9 0.2 0 0.1-0.2 0-0.3 0.1-0.8 0-1.6 0.1-2.4 0.2-0.4 0-0.7 0.2-1.1 0.2-0.3 0-0.6-0.1-1 0.1-0.3 0.1-0.8 0-1.1 0.1-0.5 0.2-1 0.1-1.5 0.2-0.5 0.2-1 0.1-1.5 0.2-1 0.2-1.9 0.3-2.9 0.5-0.5 0-1.1 0-1.6 0.2-0.5 0.2-1 0-1.5 0.2-0.5 0.2-0.9 0.1-1.4 0.2-0.3 0-0.7 0.1-1.1 0.2-0.3 0-0.7-0.2-0.9 0.2-0.1 0-0.2 0-0.2 0-0.8 0.1-1.5 0.1-2.3 0.2-0.5 0.1-1.1 0.1-1.6 0.2-0.5 0.2-1.1 0.1-1.6 0.2-0.5 0.2-1 0.1-1.5 0.3-0.4 0.2-0.9 0.1-1.4 0.1-0.5 0.1-1.1 0.4-1.9 0.1 0.4 0 0.6 0 0.8-0.1 0.2 0 0.4-0.2 0.6-0.2 1.2 0.1 2.4-0.4 3.6-0.4 0.9-0.1 1.8-0.3 2.8-0.5 0.4 0 0.9 0 1.4-0.2 0.4-0.1 0.8 0 1.2-0.2 1.1-0.3 2.2-0.2 3.3-0.5 0.5-0.2 1.2-0.2 1.8-0.3 1.2 0 2.3-0.4 3.5-0.5 0.8 0 1.7-0.1 2.6-0.4 0.6-0.2 1.2 0 1.8-0.3 0.4-0.2 1 0 1.5-0.2 0.6-0.2 1.3-0.2 2-0.3 0.3 0 0.7-0.1 1-0.2 0.3 0 0.6 0.2 0.9-0.1 0-0.1 0.1-0.1 0.2-0.1 0.7-0.1 1.5-0.1 2.2-0.2 0.6-0.1 1.2-0.1 1.7-0.3 0.5-0.3 1.2 0.2 1.6-0.3 0.5 0 1-0.2 1.5-0.2 1.2-0.1 2.4-0.6 3.6-0.5 0.5-0.3 1 0 1.4-0.2 0.5-0.3 0.9-0.1 1.3-0.2 1.1-0.4 2.2-0.3 3.2-0.6 0.7-0.2 1.4-0.1 2.1-0.3 0.6-0.1 1.3 0 1.9-0.3 0.1-0.1 0.3-0.1 0.4-0.1 0.4 0 0.8 0 1.2-0.1 0.4-0.2 0.8-0.1 1.2-0.2 0.5-0.2 1.1-0.2 1.7-0.2 1.1-0.1 2.2-0.5 3.4-0.5 0.4-0.3 0.9-0.1 1.4-0.2 0.4-0.2 0.9-0.1 1.3-0.3 0.5-0.1 1 0 1.5-0.2 0.5-0.1 1-0.1 1.5-0.2 0.9-0.2 1.8-0.3 2.7-0.4 0.5-0.1 1 0 1.4-0.2 0.5-0.3 0.9-0.1 1.3-0.2 0.9-0.2 1.9-0.3 2.8-0.5 0.5 0 1 0 1.5-0.2 0.5-0.1 0.9 0 1.4-0.2 1-0.3 2.1-0.3 3.2-0.5 0.6-0.2 1.2-0.2 1.8-0.3 1.2 0 2.3-0.5 3.5-0.4 0.5-0.3 1-0.1 1.4-0.2 0.5-0.2 0.9-0.2 1.4-0.2 0.3-0.1 0.6-0.2 0.9-0.2 0.3-0.1 0.6 0.1 0.9-0.2 0-0.1 0.2 0 0.4 0 0.7-0.1 1.5-0.1 2.2-0.3 1.1-0.3 2.2-0.2 3.2-0.6 0.5-0.1 1.1-0.1 1.6-0.2 1.2 0 2.4-0.5 3.6-0.4 0.5-0.3 1.1-0.1 1.5-0.3 0.5-0.2 1 0 1.4-0.2 0.6-0.3 1.2-0.1 1.8-0.3 0.5-0.2 1.2-0.2 1.8-0.2 1.2-0.1 2.3-0.6 3.5-0.5 0.4-0.3 0.9-0.1 1.4-0.2 0.4-0.2 0.9-0.2 1.4-0.2 0.3-0.1 0.5-0.2 0.8-0.2 0.3-0.1 0.6 0.1 0.9-0.2 0.1-0.1 0.3 0 0.4 0 0.6-0.1 1.2-0.2 1.8-0.2 0.6-0.1 1.1-0.4 1.7-0.3 0.5-0.3 1-0.1 1.4-0.2 0.5-0.2 1-0.1 1.4-0.2 1.2-0.3 2.4-0.3 3.6-0.6 0.6-0.2 1.4-0.1 2.1-0.2 0.3-0.1 0.7-0.2 1.1-0.2 0.3-0.1 0.6-0.1 0.9-0.2 0.7-0.2 1.4-0.2 2-0.3 0.4 0 0.8-0.1 1.1-0.2 0.4 0 0.8 0.1 1.1-0.2 0.1-0.1 0.5 0 0.7 0 0.5 0.1 0.9-0.2 1.3-0.3 0 0 0-0.1 0-0.3-0.1 0-0.3 0-0.4 0-0.7 0.2-1.4 0.1-2 0.4-0.1 0-0.2 0-0.3 0-0.7 0.1-1.5 0.1-2.2 0.2-0.4 0.1-0.7 0.3-1.1 0.2-0.4 0-0.7 0.2-1.1 0.2-0.3 0.1-0.7 0.1-1.1 0.2-0.6 0.2-1.2 0.1-1.9 0.3-0.7 0.1-1.5 0-2.2 0.4-0.2 0-0.3 0-0.4 0-0.4 0-0.8 0-1.2 0.2-0.4 0.1-0.9-0.2-1.2 0.2-0.1 0.1-0.3 0-0.4 0-1.2 0-2.4 0.4-3.5 0.4-0.5 0.4-1 0.1-1.4 0.3-0.5 0.1-0.9 0.1-1.3 0.2-0.3 0-0.7 0.1-1 0.2-0.3 0-0.6-0.1-0.9 0.2 0 0-0.2 0-0.4 0-1.2 0-2.3 0.4-3.5 0.4-0.4 0.4-0.9 0.1-1.3 0.2-0.4 0.1-0.8 0.2-1.3 0.2-0.3 0-0.6 0.1-0.9 0.2-0.3 0.1-0.7-0.1-0.9 0.2-0.1 0-0.3 0-0.4 0-0.9 0.1-1.8 0.2-2.7 0.4-0.5 0.2-1 0-1.5 0.2-0.6 0.2-1.3 0.2-2 0.3-0.3 0-0.7 0.1-1 0.2-0.3 0.1-0.6-0.2-0.9 0.1 0 0.1-0.2 0.1-0.4 0.1-0.9 0.1-1.8 0.2-2.6 0.4-0.7 0.2-1.4 0.1-2.1 0.2-0.3 0.1-0.7 0.2-1 0.2-0.4 0.1-0.7 0-1.1 0.2-0.4 0.2-0.9 0.1-1.4 0.2-0.7 0.2-1.5 0.2-2.2 0.3-0.4 0-0.7 0.1-1.1 0.2-0.4 0-0.7 0-1.1 0.2-0.4 0.1-0.9 0.1-1.4 0.2-0.7 0.2-1.4 0.1-2.1 0.2-0.5 0.2-1 0.1-1.5 0.3-0.5 0.1-1 0-1.5 0.2-0.5 0.1-1 0-1.5 0.2-0.5 0.2-1 0-1.5 0.2-1 0.3-2.1 0.3-3.2 0.6-0.5 0.1-1.1 0-1.6 0.2-0.8 0.2-1.7 0.3-2.6 0.4-0.7 0.1-1.4 0.3-2.1 0.2-0.4 0-0.8 0.2-1.2 0.2-0.3 0.1-0.7 0.1-1.1 0.2-0.5 0.2-1.1 0.1-1.7 0.2-0.8 0.3-1.7 0.3-2.5 0.4-0.7 0.1-1.4 0.3-2.2 0.3-0.3 0-0.7 0.2-1.1 0.2-0.4 0.1-0.7 0-1.1 0.2-0.5 0.2-1.1 0.1-1.6 0.2-0.7 0.2-1.5 0.2-2.2 0.3-0.4 0-0.7 0.1-1 0.2-0.3 0-0.6-0.2-0.9 0.2 0 0-0.1 0-0.2 0q-0.7-0.1-1.5 0.2c-0.4 0.1-0.9 0-1.4 0.2-0.7 0.1-1.5 0.1-2.2 0.2-0.4 0-0.7 0.1-1.1 0.2-0.3 0.1-0.7-0.1-1 0.2 0 0.1-0.2 0-0.3 0-0.4 0-0.9 0-1.4 0.2-0.4 0.1-0.9 0.1-1.4 0.2-0.6 0.2-1.4 0.2-2.1 0.3-0.3 0-0.7 0.1-1 0.2-0.4 0-0.7-0.1-1 0.2-0.7-0.2-1.3 0.2-1.9 0.2-0.5-0.1-0.9 0.2-1.3 0.2-0.4 0-0.8 0-1.2 0.2-0.5 0.2-1.1 0-1.6 0.2-0.7 0.2-1.5 0.1-2.2 0.2-0.4 0.1-0.7 0.2-1 0.2-0.3 0.1-0.6-0.1-0.9 0.2 0 0.1-0.2 0-0.4 0.1-0.4 0-0.8-0.2-1.3 0.1-0.3 0.3-0.8 0-1.3 0.2-0.4 0.2-1 0.1-1.6 0.3-0.7 0.2-1.4 0.1-2.2 0.2-0.3 0-0.6 0.1-1 0.2-0.3 0.1-0.6-0.1-0.8 0.2-0.1 0-0.2 0-0.2 0-0.5 0-1 0-1.5 0.2-0.5 0.1-1 0.1-1.4 0.2-0.7 0.2-1.5 0.2-2.3 0.3-0.3 0-0.6 0.1-0.9 0.2-0.3 0-0.7-0.2-0.9 0.2 0 0-0.1 0-0.2 0-1-0.1-1.9 0.3-2.9 0.2 0.1-0.1 0.1-0.2 0.1-0.2 1.1 0 2.1-0.3 3.2-0.5 1.1-0.2 2.2-0.2 3.3-0.6 0.5-0.1 1-0.1 1.5-0.2 1.2-0.1 2.3-0.3 3.4-0.5 1.1-0.1 2.2-0.2 3.3-0.5 0.5-0.1 1-0.2 1.6-0.2 0.3 0 0.7-0.2 1-0.3 0.4-0.1 0.8 0.2 1.1-0.2 0.1 0 0.3 0 0.4 0 0.4 0 0.8 0 1.2-0.2 0.4-0.1 0.8 0.2 1.2-0.2 0.6 0.1 1.2-0.2 1.8-0.2 0.4 0 0.7-0.2 1.1-0.2 0.3-0.1 0.7 0 1.1-0.2 0.3-0.2 0.9 0 1.3-0.2 0.6-0.2 1.3-0.1 1.9-0.3 1.1-0.3 2.3-0.2 3.4-0.6 0.6-0.2 1.3-0.1 1.9-0.2 0.4-0.1 0.7-0.2 1.1-0.2q0.6 0 1.1-0.2c0.4-0.1 0.8 0.1 1.1-0.2 0.6 0.1 1.2-0.2 1.8-0.3 0.4 0 0.7-0.1 1.1-0.2 0.4 0 0.7 0.1 1.1-0.1 0.4-0.2 0.9-0.1 1.4-0.2 0.6-0.3 1.3-0.2 2-0.3 0.3 0 0.6-0.1 1-0.2 0.3-0.1 0.5 0 0.9-0.1 0.4-0.3 1 0 1.4-0.3 1.2 0 2.3-0.3 3.4-0.5 1-0.1 2.1-0.2 3-0.5 0.5-0.2 1.1-0.2 1.6-0.2 1.2-0.2 2.3-0.4 3.4-0.6 1-0.1 2.1-0.2 3.1-0.5 0.5-0.2 1-0.2 1.6-0.2 1-0.1 2.1-0.3 3.2-0.5 1-0.2 2.1-0.2 3.2-0.6 0.5-0.1 1.1-0.1 1.6-0.2 1.1-0.1 2.3-0.3 3.4-0.5 1.1-0.2 2.2-0.2 3.2-0.5 0.7-0.2 1.4-0.2 2-0.3 0.4 0 0.7-0.1 1-0.2 0.3-0.1 0.7 0.1 1-0.2 0 0 0.2 0 0.3 0 0.4 0 0.9 0 1.3-0.2 0.3-0.1 0.8 0 1.2-0.2 0.6-0.2 1.3-0.1 2-0.3 0.6-0.1 1.3 0 1.9-0.3 0.1-0.1 0.3-0.1 0.4-0.1 0.4 0 0.8 0 1.2-0.1 0.4-0.2 0.9 0.1 1.2-0.3 0.6 0.1 1.2 0 1.8-0.2 0.8-0.2 1.7-0.1 2.5-0.4 0.6-0.2 1.3-0.1 1.9-0.2 0.4-0.1 0.7-0.2 1.1-0.2 0.4 0 0.8-0.1 1.1-0.2 0.4-0.1 0.8-0.1 1.1-0.2 0.6-0.2 1.2-0.1 1.7-0.2 0.9-0.3 1.7-0.2 2.6-0.5 0.6-0.1 1.3-0.1 2-0.2 0.3 0 0.7-0.1 1-0.2 0.3-0.1 0.6 0 0.9-0.2 0.4-0.2 1 0.1 1.4-0.2 0.7 0.1 1.4-0.3 2.1-0.3 0.3 0.1 0.7-0.1 1-0.1q0.6-0.1 1.2-0.2c0.4-0.2 0.7-0.1 1.1-0.2 0.5-0.2 1.1-0.2 1.6-0.2 1.1-0.1 2.2-0.5 3.4-0.5 0.3 0 0.7-0.2 1.1-0.2 0.3 0 0.7-0.2 1.1-0.2 0.3-0.1 0.7 0.1 1-0.2 0.6 0.1 1.2-0.2 1.7-0.2 0.4-0.1 0.8 0 1.2-0.2 0.3-0.2 0.8 0.1 1.1-0.3 0.1 0 0.3 0 0.4 0 0.4 0 0.8 0 1.2-0.2 0.3-0.1 0.8 0.1 1.2-0.2 0.2-0.1 0.6 0 0.9 0 0.3 0 0.5-0.2 0.8-0.2 0.2 0.1 0.5 0 0.7 0.1 0.2 0.2 0.6 0 0.7 0.3 1 0 1.9 0.5 2.8 0.7 1 0.1 1.9 0.4 2.8 0.6 1.1 0.2 2.1 0.6 3.1 0.9 1.4 0.4 2.8 0.9 4.3 1.2 0.6 0.1 1.1 0.4 1.7 0.6 0.5 0.1 0.9 0.3 1.4 0.2 0.5 0 0.9 0.1 1.2 0.5q0 0.5-0.1 0.9c1.3 0.2 2.5 0.5 3.8 0.7q1.3 0.3 2.6 0.5c1.1 0.2 2.2 0.5 3.3 0.9q2.7 0.9 5.3 2.2c0.9 0.5 1.7 1.2 2.6 1.7q0.9 0.6 1.7 1.3c0.5 0.5 1 1 1.6 1.7 0.5 0 1.2-0.1 1.8 0 1.1 0 2.2 0 3.2 0.2 0.6 0.1 1.2 0.1 1.7 0.2 0.5 0.2 1.1 0.1 1.6 0.2 0.6 0.2 1.1 0.2 1.7 0.2 0.4 0.5 1.1-0.1 1.5 0.4 0.5 0 1 0.2 1.5 0.2 1.1 0.1 2 0.4 3 0.8 1.6 0.5 3.1 1.3 4.5 2.5 0.2 0.1 0.5 0.3 0.7 0.3 0.7 0 1.3 0.4 2 0.5 0.4 0.1 0.8 0.4 0.9 0.9 0.1 0.3 0.3 0.4 0.3 0.5 0.2 1 0.3 1.8 0.4 2.6-0.1 0.2-0.4 0.4-0.8 0.8-0.4 0.1-1 0.2-1.6 0.3q0 0.2 0.1 0.5c0.2 0.8 0.4 1.6 0.5 2.4q0.1 0.6 0.2 1.1c0.1 0.4-0.1 0.8 0.2 1.1 0.1 0 0 0.1 0 0.2q0.1 1.2 0.3 2.4c0 0.5 0.2 0.9 0.2 1.3-0.1 0.4 0 0.9 0.1 1.3 0.2 0.5 0.1 1 0.1 1.4q0.6 0.7 1.3 1.3c0.2 0.8 0.1 1.7 0.2 2.5 0 1.5 0.1 3.1 0.2 4.6 0 1.6 0 3.1 0 4.7 0 1.6 0 3.1 0 4.8-0.3 0-0.5 0-0.8 0.1-0.1 0.1-0.3 0.3-0.5 0.5 0 0.1 0 0.2 0.1 0.3q0.5 0.3 1 0.7c-0.1 0.5 0.3 0.9 0.2 1.4-0.3 1-0.4 2.1-0.5 3.1 0 0.2-0.2 0.4-0.4 0.6 0.4 0.2 0.4 0.2 0.9 1.1-0.1 0.2-0.2 0.5-0.2 0.7-0.1 0.8-0.1 1.6 0 2.4 0 0.6-0.3 1.1-0.6 1.5-0.4 0.5-0.8 1.1-1.4 1.4-0.4 0.2-0.6 0.7-1.1 0.8-0.6 0.7-1.5 1.1-2.2 1.6q-1.6 1-3.2 1.9-1.4 0.7-2.9 0.7c-0.8 0-1.6 0.2-2.4 0.2-0.7 0-1.5 0-2.3 0q-0.2 0-0.5 0c-0.5 0-0.8-0.6-1.4-0.3-0.4 0.2-0.9 0.1-1.4 0.1-0.5 0-1.1 0-1.6 0q-0.8 0-1.6 0c-0.2 0-0.5 0-0.8 0.2-0.1 0.1-0.6 0.1-0.7 0-0.5-0.4-1.1-0.1-1.6-0.2q-0.2 0.2-0.4 0.5-1-0.1-1.9-0.3-0.4 1.2-1.1 2.2c-1.4 1.8-3.2 3-5.1 4q-0.1 0.1-0.2 0.2c-0.3-0.1-0.5-0.4-0.9-0.2-0.9 0.5-1.9 0.7-3 0.6-0.3-0.1-0.7 0-1 0-2.1-0.1-3.9-0.9-5.6-2.1-1.2-0.9-2-2-2.7-3.2-0.6-1-1.1-2-1.2-3.2 0-0.1-0.2-0.3-0.5-0.6-0.1 0.3-0.1 0.4-0.2 0.6q-0.6 0.1-1.2 0.3c0.1 1.5-0.3 2.8-0.2 4.3q1.2-0.4 2.4-0.9c0.1-0.2 0.2-0.4 0.4-0.9 0.2 0.5 0.3 0.8 0.4 1-0.7 1-2.7 1.8-3.9 2.1-0.4-0.3-0.3-0.7-0.4-1.1-0.2-1.4-0.2-2.7-0.2-4.1 0-0.3 0.1-0.5 0.1-0.9q-0.6 0-1.4 0.2c-1.6 0.5-3.1 1-4.7 1.4q-1.1 0.3-2.2 0.5c-0.3 0.1-0.6 0.2-0.9 0.2q-0.3 0.1-0.8 0.1c0 0 0-0.1-0.1-0.2-0.1 0-0.2 0.1-0.3 0.2-0.4-0.2-0.7-0.5-1.1-0.7q0-0.4 0-0.8c0.4-0.2 0.4 0.2 0.5 0.4q0.2 0 0.5 0 0-0.4 0-0.7-0.7 0-1.7 0.1c0.1-0.5 0.2-0.9 0.3-1.3q-1 0-2.1 0c0 0.1 0 0.2-0.1 0.5-0.1-0.2-0.2-0.4-0.2-0.4-1-0.1-1.8-0.3-2.7-0.3-0.8-0.1-1.6 0-2.5 0-0.4-0.1-0.8-0.2-1.2-0.3 0 0.2-0.1 0.4-0.2 0.6-0.2-0.2-0.4-0.3-0.7-0.5-0.3 0-0.6 0-1 0q-2.1-0.1-4.3-0.2-0.3-0.1-0.5 0c-0.1 0.1-0.3 0.2-0.3 0.2 0 0.6-0.4 1.1-0.7 1.5-0.9 1.2-2.1 2.2-3.6 2.7-0.6 0.2-1.3 0.5-2 0.4-0.1 0-0.2 0.2-0.4 0.2-0.4 0.2-0.8 0.2-1.1 0.5-0.3 0.2-0.7-0.2-1 0.1-0.5-0.1-1 0.3-1.5 0.3-1-0.2-2-0.3-3-0.7q-3.2-1.4-4.5-4.6c-0.2-0.4-0.3-0.8-0.5-1.3-0.1 0-0.3 0-0.3 0.1-0.4 1.2-1.3 2-2.3 2.7-0.8 0.5-1.7 0.9-2.7 1.2-0.1-0.1-0.2-0.1-0.3-0.2-0.6 0.3-1.3 0.7-2 0.7-0.2 0-0.4 0.1-0.6 0.2-0.3 0-0.6 0.2-0.8 0.2-0.3 0-0.6-0.2-0.9-0.2q-0.6-0.1-1.2 0c-1.1 0-2.1-0.3-3-0.9q-0.4-0.2-0.7-0.5c-0.5-0.4-0.8-0.8-1.3-1.2-0.3 0.1-0.7 0.1-1 0.3q-1.2 0.5-2.5 0.6c-0.4-0.4-0.3-0.9-0.3-1.3 0-0.7 0.1-1.4-0.1-2-0.2-0.7-0.1-1.3-0.2-1.9q0-0.1 0.1-0.3c0.1 0 0.3 0 0.6 0 0-0.7 0-1.5 0-2.2-0.1-1.1 0.2-2.1 0.2-3.2q-0.4-0.1-0.8-0.1c-1.6 0-3.2-0.3-4.8-0.2-0.3 0-0.7-0.2-1.1-0.2-0.4 0-0.8 0.1-1.3-0.2-0.3-0.2-0.8 0-1.2 0-0.3 0-0.6-0.3-1-0.2-0.3 0-0.6 0-1 0 0 1 0 2.1-0.5 3.1q0.7 0 1.2 0c0.5 0.5-0.4 0.9 0.1 1.4-2.3 0.7-2.9 0.8-5.5-0.2 0.1-0.3 0.2-0.5 0.4-0.9 0.1 0.3 0.1 0.4 0.2 0.7 0.1-0.4 0.1-0.6 0.1-0.9q0.2-0.1 0.4-0.1c-0.3-0.5-0.3-1-0.4-1.6 0-0.5 0.2-1.1 0.3-1.6-0.6 0-1 0.1-1.5 0.1-0.1-0.8-0.3-1.7-0.4-2.5q-0.2 0-0.5 0c0 0.6 0.1 1.4-0.9 1.7 0.1 0.6-0.1 1.1-0.6 1.5q0 0.4 0 0.9 0.6 0 1.2 0c0.1 0.2 0.1 0.2 0.3 0.4 0 0.4 0 0.9 0.2 1.4 0.2 0.5-0.1 1.2-0.5 1.9-0.8-0.2-1.7 0.1-2.5-0.2-0.5-0.2-1 0-1.5-0.1-0.5 0-1.1 0.2-1.6-0.2-0.1 0-0.2 0-0.3 0-0.9 0.5-1.8 0.3-2.7-0.1q-0.2-0.1-0.3-0.1-2-0.1-4-0.2c-0.7 0-1.3-0.2-1.9-0.2-0.6 0-1.2 0.1-1.7 0-0.8-0.3-1.5-0.2-2.3-0.2q-1.2-0.1-2.4-0.4c0.1 0 0.2 0 0.4 0 1.1-0.1 2.1-0.1 3.2 0 0.7 0 1.4 0.1 2.1 0.2 0.7 0 1.4 0 2.1 0 0.7 0 1.4-0.2 2.1 0 1.5 0.3 3.1 0 4.6 0.2 1.5 0.2 3 0.1 4.5 0.2 0.5 0 1 0.3 1.6 0.1 0-0.5 0-1.1 0-1.8q-0.6 0-1.2 0c-3 0-5.9-0.4-8.9-0.2-1.9-0.5-3.8-0.1-5.7-0.2-0.7 0-1.4-0.3-2.1-0.3-0.8 0.1-1.5 0.1-2.3 0.1q-0.3 0-0.6 0c-0.2 0.5-0.4 1.1-0.3 1.6q-0.5 0-1 0c0-0.1 0-0.2-0.1-0.4-0.6 0-1.1 0.2-1.6 0.5-0.1 1.5-0.7 2.7-1.5 4q1-0.3 1.8-0.5c1.1-0.9 2-2 2.4-3.6 0.1 0.1 0.2 0.2 0.2 0.2q-0.1 0.8-0.3 1.6c-0.3 1.1-1 1.9-2 2.5-0.6 0.4-1.5 0.6-2.2 0.9-0.6 0.2-1.3-0.1-1.9 0.3 0 0-0.2-0.1-0.3-0.2-0.5-0.1-1.1-0.2-1.6-0.4-1.2-0.5-2-1.5-2.5-2.7-0.9 1.3-2 2.1-3.6 2.3-0.5 0.1-1 0.2-1.5 0.2-1.3-0.2-2.5-0.5-3.4-1.5-0.3-0.4-0.6-0.8-0.9-1.3q-0.5 0.6-1.1 1.1c-0.4 0.3-0.9 0.5-1.3 0.6-0.9 0.1-1.8 0.6-2.7 0.1-0.2-0.2-0.6-0.1-0.9-0.2-0.9-0.2-1.5-0.9-2.2-1.6-0.8 0-1.6 0.6-2.6 0.6-0.1-0.2-0.4-0.6-0.3-0.8 0.1-0.4-0.2-0.6-0.1-0.9 0-0.4 0-0.8 0-1.2q0-0.5 0-1c0-0.4-0.1-0.8 0.3-1.2q-0.3-0.1-0.6-0.1 0.1-0.1 0.2-0.2-2 0.1-3.9 0.2-0.4 0-0.7-0.1c-0.5-0.2-0.7-0.6-0.8-0.9-0.1-0.4-0.3-0.8-0.2-1.2 0-0.3-0.2-0.6-0.3-0.9-0.4 0.1-0.9-0.3-1.3 0.2 0 0-0.1 0-0.2 0q-1.4 0.1-2.9 0.2c-0.2 0-0.4 0.1-0.7 0.2-0.1-0.1-0.4-0.3-0.7-0.5q0-1.1 0-2.2c0.4-0.7 0.8-0.9 1.6-0.9 0.2 0 0.5 0.1 0.8-0.2 0.1-0.1 0.4 0 0.7-0.1q0-1.1 0-2.2 0.4 0 0.9 0 0 1 0 2 0.8 0 1.6 0c0-0.7 0-1.3 0-2q-0.8 0-1.6 0c-0.3-0.3-0.6-0.3-0.9 0zm165.9 3.8q-0.1-0.1-0.2-0.2 0 0 0 0 0.1 0.1 0.2 0.2zm-0.1-0.3q-0.1-0.1-0.2-0.1 0 0-0.1 0 0.1 0.1 0.2 0.2 0 0 0 0 0-0.1 0.1-0.1zm2.7 3.6c0 0.1 0 0 0 0-0.1-0.1 0.1-0.4-0.2-0.4 0 0.1 0 0.2 0 0.2 0 0.1 0 0.2 0.2 0.2zm0.2 0.5c0 0 0-0.1 0 0 0-0.2 0.1-0.3-0.2-0.3 0 0.1 0 0.2 0.2 0.3zm0.4 0.8c0 0 0-0.1 0 0 0-0.2 0.1-0.2-0.2-0.3 0 0.2 0 0.3 0.2 0.3zm0.4 1c0-0.2 0.2-0.5-0.2-0.6 0 0 0 0.1 0 0 0.1 0.2-0.1 0.5 0.2 0.6zm-0.4-0.8c0 0.1 0 0.1 0.2 0.1 0-0.1 0-0.1-0.2-0.1zm0.4 0.8q0 0 0 0.1 0 0 0 0 0.1-0.1 0.2-0.1-0.1 0-0.2 0zm0 0.1q0.1 0.8 0.3 1.6 0.2 0 0.3 0c0.2-0.6-0.5-1-0.6-1.6q0 0 0 0zm-86.7-5.5q0 0 0 0 0 0 0 0 0.1-0.1 0.2-0.2-0.1 0-0.1 0-0.1 0.1-0.1 0.2zm-1.1 1q-0.1 0.1-0.2 0.2 0 0 0 0.1 0.1-0.2 0.2-0.3zm-0.2 0.2q-0.1 0.1-0.2 0.2 0 0 0.1 0 0.1-0.1 0.1-0.2 0 0 0 0 0 0 0 0zm1.1-1q0.1-0.1 0.2-0.2 0 0 0 0-0.1 0.1-0.2 0.2zm86.9 1.7q0 0 0.1 0-0.1-0.1-0.2-0.2 0 0-0.1 0 0.1 0.1 0.3 0.1-0.1 0.1-0.1 0.1 0.1 0.1 0.2 0.2 0-0.1 0-0.1-0.1-0.1-0.2-0.1zm-69.2 0.6q0 0 0 0-0.1 0.1-0.2 0.1 0 0.1 0.1 0.1 0.1-0.1 0.1-0.2 0 0 0 0 0.1 0 0.2-0.1 0-0.1-0.1-0.1-0.1 0.1-0.1 0.2zm11.8 13.3q0 0 0 0 0 0 0 0-0.1 0-0.2 0.1 0.1 0 0.1 0.1 0.1-0.1 0.1-0.2zm0.3-0.3c1-0.7 1.5-1.5 2.1-2.4-0.3 0.1-0.9 0.1-1.1 0q-0.5 1.1-0.9 2.3-0.1 0.1-0.2 0.2c0.1-0.1 0.2-0.2 0.1-0.1zm-0.1 0.1q-0.1 0.1-0.2 0.2 0 0 0 0 0.1-0.1 0.2-0.2zm-100.6-17.2q0 0-0.1 0.1 0 0 0.1 0 0 0 0-0.1zm-0.1 0.1q-0.1 0-0.2 0.1 0.1 0.1 0.1 0.1 0.1-0.1 0.1-0.2 0 0 0 0 0 0 0 0zm0.2-0.1c0.6-0.5 1.1-0.9 1.8-1.1 0.3 0 0.7 0 1.1-0.1 1.4-0.3 1.7-0.3 2.6 0 0.8 0.3 1.7 0.6 2.1 1.5 0.1 0.3 0.3 0.5 0.6 0.8 0.2-0.3 0.3-0.5 0.5-0.7q0.9-1 2.1-1.3c0.7-0.1 1.4 0.1 2-0.3 0.1 0 0.2 0 0.2 0q0.1 0 0.1 0c0.5 0.4 1.1 0.2 1.6 0.3 1.3 0.5 2.3 1.3 2.7 2.8 0.4-0.8 0.9-1.4 1.6-1.9 0.9-0.6 1.9-0.6 2.9-0.7 0.1-0.1 0.2 0 0.2 0 0.4 0.3 0.8 0.2 1.2 0.1-0.4-0.5-0.7-1-1.1-1.5-1.4 0.3-2.9-0.1-4.4-0.1-2.3 0-4.6 0-6.9 0-2.4-0.1-4.7 0.1-7-0.2-0.9-0.2-1.9 0-2.8 0-0.1 0-0.2 0-0.2 0.1q0.1 0.1 0.2 0.3c-0.4 0.6-0.9 1.1-1.1 1.9q0 0-0.1 0.1 0.1 0 0.1 0zm181.4 8.3q0 0 0 0 0 0 0 0 0.1 0 0.2-0.1-0.1 0-0.1-0.1-0.1 0.1-0.1 0.2zm-0.4 0.2c-0.4 0-0.6 0.1-0.7 0.5-0.1 0-0.3-0.1-0.3 0.2 0.1 0 0.3 0 0.3-0.2 0.3 0 0.6-0.1 0.7-0.5 0.1 0 0.3 0.1 0.4-0.2-0.2 0-0.4-0.1-0.4 0.2zm-1 0.7q-0.1 0-0.1 0 0.1 0 0.1 0.1 0-0.1 0-0.1zm-0.1 0q-0.2 0-0.4 0 0 0.2 0 0.4c0.2-0.1 0.4-0.2 0.4-0.4q0 0 0 0 0 0 0 0zm1.5-0.9q0 0 0 0 0 0 0 0 0 0 0 0zm-1.5-4.4q0 0 0 0 0 0 0 0 0.1-0.1 0.2-0.1 0-0.1-0.1-0.1-0.1 0.1-0.1 0.2zm-0.4 0.2q0 0 0 0-0.1 0-0.1 0.1 0.1-0.1 0.1-0.1zm0-0.1q-1.2 0.4-2.3 0.8c0 0.3-0.5 0.6-0.2 0.9 0.8-0.5 1.6-1 2.5-1.6q0 0 0-0.1zm0 0.1c0.1 0 0.4 0.1 0.4-0.2-0.2 0-0.4-0.1-0.4 0.2q0 0 0 0zm0.4-0.2q0 0 0 0 0 0 0 0 0 0 0 0zm2.3 6.3q0 0 0 0 0 0 0 0 0-0.1 0-0.1 0 0 0 0.1zm0 0q0 0 0 0 0 0 0 0 0 0 0 0zm0.4 0q0-0.1 0-0.2c-0.1 0-0.2 0-0.4 0.2q0.2 0 0.4 0zm-0.4 0q0 0 0 0 0 0 0 0 0 0 0 0zm-0.2 0.1q0.1 0.1 0.1 0.1c0 0 0.1-0.1 0.1-0.2q-0.1 0.1-0.2 0.1zm0.4-10.8c-0.1 0-0.4-0.1-0.4 0.2-0.2 0-0.4-0.1-0.4 0.2-0.2 0.1-0.5-0.2-0.6 0.2-0.2 0-0.5-0.1-0.5 0.2-0.2 0.1-0.5-0.2-0.6 0.2-0.2 0.1-0.5-0.1-0.6 0.2 0.2 0 0.5 0.2 0.6-0.2 0.2-0.1 0.5 0.2 0.6-0.2 0.2 0 0.4 0.1 0.5-0.2 0.2-0.1 0.5 0.2 0.6-0.2 0.1 0 0.4 0.1 0.4-0.2 0.2-0.1 0.4 0.1 0.4-0.2 0.2-0.1 0.4 0 0.4-0.2-0.1 0-0.4-0.1-0.4 0.2zm-3.1 1.2q0 0 0 0 0 0 0 0 0 0.1 0 0.1 0 0 0-0.1zm0 0q-1.1 0.1-2.2 0.3 0.1 0.3 0.1 0.5c0.7-0.2 1.4-0.4 2.1-0.8q0 0 0 0zm3.5-1.4q0 0 0.1 0 0 0 0-0.1 0 0 0 0-0.1 0-0.1 0.1zm0.1 0q0.3-0.1 0.6-0.1c0-0.2 0-0.3-0.1-0.4-0.2 0.2-0.4 0.3-0.5 0.4q0 0.1 0 0.1zm-159 1.4q-0.1-0.1-0.2-0.2 0 0 0 0 0 0.1 0 0.1c0.1 0 0.1 0.1 0.2 0.1zm-1.1-0.7c0.1 0.1 0.3 0 0.3 0.1 0.2 0.1 0.4 0.3 0.6 0.4-0.2-0.6-0.2-0.6-0.9-0.5zm1.3 1.1q0 0 0 0 0 0 0 0 0 0 0 0zm0 0.1q0.1 0.1 0.1 0.1 0.1 0 0.1 0-0.1-0.1-0.2-0.1 0-0.1 0-0.1 0 0.1 0 0.1zm110.6 5.1c0.2-0.1 0.2-0.2 0.2-0.2q0-0.1 0-0.2 0-0.1 0-0.1c0.2 0 0.2-0.2 0.2-0.3q0-0.1 0-0.1c-0.2 0-0.2 0.1-0.3 0.4q0 0 0 0c0 0.1 0 0.1 0 0.1q0 0.2-0.1 0.4zm0.6-1.4c-0.2 0.1-0.2 0.3-0.2 0.5 0.3-0.1 0.2-0.3 0.2-0.5zm-0.2 0.5q0 0 0 0 0.1 0 0 0.1 0 0 0 0 0.1 0 0-0.1zm0.2-0.5q0 0 0 0 0 0 0 0 0 0 0 0zm0.1 0.1q0.5-0.7 1-1.3 1.1-1.4 2.6-2.3 0.6-0.4 1.3-0.6c0.4-0.1 0.9-0.2 1.3-0.3 2.3-0.2 4.5 0.2 6.8 0.2 0.4 0.4 0.8 0.2 1.2 0.3 0.7 0.2 2.3 1.2 2.9 1.8 1.2 1.1 2.1 2.4 2.8 3.9 0.4 0.7 0.8 1.5 1.1 2.3 0.4 0.9 0.5 1.8 0.7 2.7 0.1 0.5 0 1.1 0 1.6 0 0.5 0.2 1.1 0.2 1.6 0 0.9 0 1.7 0 2.6 0.7 0.3 0.7 0.3 1.5 0.2-0.7-0.8-0.8-1-0.5-2.1 0.1-0.2 0.1-0.4 0.1-0.6-0.3-0.7-0.4-1.5-0.5-2.3 0-0.5-0.1-1-0.3-1.4-0.2-0.3 0-0.7-0.3-1-0.1-0.3 0-0.8 0-1.2 0 0 0.1-0.1 0.1-0.1q0.2-0.1 0.3-0.1-0.1-0.4-0.2-0.7c-0.4-1.2-0.9-2.3-1.6-3.3-0.6-0.8-1.2-1.6-1.8-2.5-0.5-0.8-1.3-1.2-1.9-1.8-0.3-0.3-0.7-0.4-1.1-0.5-1.1-0.2-2.3-0.4-3.5-0.4-1.1-0.1-2.2 0-3.3-0.2-1.1-0.1-2.2-0.2-3.4 0.1-1 0.3-2 0.8-2.8 1.4-1.1 0.9-1.8 2.1-2.5 3.3-0.1 0.2-0.2 0.4-0.2 0.6q-0.1 0-0.1 0 0.1 0.1 0.1 0.1zm-45.9-3.2c-0.1 0-0.3-0.1-0.4 0.2 0.2 0 0.4 0.1 0.4-0.2 0.2 0 0.5 0.1 0.3-0.2q0 0 0 0c-0.1 0-0.2 0-0.3 0.2zm-0.4 0.2q0 0 0 0 0 0 0 0 0 0 0 0zm0 0q-0.1 0-0.2 0.1 0.1 0.1 0.1 0.1 0.1-0.1 0.1-0.2 0 0 0 0 0 0 0 0zm1.3-0.4c0.3-0.3 0.7-0.2 1.1-0.2 0.4-0.1 0.8-0.2 1.1-0.2 0.9-0.1 1.7 0.2 2.5 0.2 0.7 0 1.4 0.3 2 0.7 0.8 0.6 1.8 1.1 2.3 2 0.5 0.8 1 1.6 1.3 2.5 0.6 1.6 0.9 3.3 0.9 5q0.2 0.2 0.4 0.4c0.2 0.8-0.5 1.5-0.1 2.2q0.5 0 1.2 0c0-0.2 0-0.4-0.1-0.5-0.2-0.6-0.1-1.2-0.2-1.8 0-0.5 0.1-0.9-0.1-1.5-0.2-0.4-0.1-0.9-0.2-1.5-0.5-1.4-0.8-2.5-1.6-3.8q-1-1.6-2.5-2.7c-0.7-0.4-1.3-0.7-2-1.1-0.7-0.3-1.5-0.4-2.2-0.5-1.4-0.2-2.9-0.1-4.2 0.8q0 0-0.1 0c0.3 0 0.4 0 0.5 0zm59.3-10.5q0 0 0-0.1 0.1 0 0.2 0-0.1 0-0.2 0 0 0 0 0-0.1 0-0.2 0 0.1 0.1 0.2 0.1zm-0.1-0.5q0 0-0.1 0c0 0.1 0 0.3 0.2 0.4q0-0.2-0.1-0.4zm0.2 1.1c0.1 0 0.2-0.1 0.3-0.1 0-0.1-0.1-0.2-0.1-0.2-0.1-0.1-0.1-0.2-0.3-0.3q0 0.3 0.1 0.6zm4.6 28.4q0 0 0 0-0.1 0-0.1 0-0.1 0.1-0.1 0.2 0 0 0 0 0.1-0.1 0.2-0.2zm0.4-0.5c0.9-0.9 1.3-2 1.9-3-0.1-0.7 0-1.4-0.2-2.1-0.2-0.7 0-1.5-0.2-2.3-0.2-0.6-0.2-1.3-0.3-1.9-0.1-0.6-0.4-1.2-0.7-1.7-0.8-1.8-1.7-3.5-3.2-4.7-0.5-0.4-1-0.9-1.6-1.3-1-0.5-2-0.7-3-0.8-1.5-0.1-3.1 0-4.6 0-0.7 0-1.3 0-2 0.2-1.1 0.3-2.1 0.9-2.9 1.7-0.5 0.6-0.9 1.2-1.3 1.9-0.9 1.5-1.5 3-1.6 4.7 0 0.2 0.1 0.5 0 0.7-0.4 0.4-0.1 0.9-0.1 1.3q0.3-1.1 0.6-2.3c0.1-0.8 0.4-1.6 0.8-2.3 0.7-1.3 1.6-2.4 2.9-3.2 0.9-0.6 1.9-1.2 3-1.5 0.5-0.2 0.9-0.4 1.4-0.4 1.6 0.1 3.2-0.2 4.9 0.4 0.7 0.3 1.5 0.6 2.2 1 1 0.8 1.9 1.6 2.7 2.7 0.6 0.9 1.3 2.1 1.7 3.3 0.4 1.3 0.7 2.6 0.6 3.9 0 1.8-0.2 3.5-1 5.1-0.1 0.1 0 0.3 0 0.5q-0.5 0.1-0.4 0.6c0.3-0.1 0.4-0.3 0.4-0.5zm-0.4 0.5q0 0 0 0 0 0 0 0 0 0 0 0zm12-39.2q0 0 0 0 0 0 0 0 0.1 0 0.2-0.1-0.1 0-0.2 0 0 0 0 0 0 0 0 0.1zm0.8-0.1q0 0 0 0c-0.2 0-0.4 0-0.6 0q0.3 0 0.6 0zm-1 0.2q0 0.1 0.1 0.1c0 0 0-0.1 0.1-0.2q-0.1 0.1-0.2 0.1zm15 7.6q-0.1 0-0.2 0 0 0 0 0-0.2 0.1-0.3 0.1 0.1 0.1 0.3 0.2 0.1-0.2 0.2-0.3zm-1.3 0.3c0.3 0 0.5 0 0.8-0.2q-0.4 0-0.8 0.2zm1.9-0.3q0 0 0 0c-0.2 0-0.4 0-0.6 0q0.3 0 0.6 0zm-7.1 17.2q0 0-0.1 0 0 0.1 0 0.1 0.1 0 0.1-0.1zm-0.1 0q-0.3 0-0.6 0-0.3 0-0.6 0 0 0.1 0 0.1c0.4 0 0.8 0 1.2-0.1q0 0 0 0 0 0 0 0zm0.6 0q0.1 0 0.1-0.2-0.2 0-0.4 0-0.1 0-0.2 0.2 0.3 0 0.5 0zm0.1-0.2q0.1 0 0.2 0 0 0 0-0.1-0.1 0-0.2 0 0 0 0 0.1zm1.2 0.2c0-0.3 0-0.4 0-0.6-0.3 0.1-0.7 0.2-1 0.3 0.4 0.1 0.7 0.2 1 0.3zm-146.3-1.3q0 0-0.1 0-0.1 0.8-0.3 1.7 0.2 0 0.4 0 0-0.9 0.1-1.6c0.3-0.3 0.1-0.6 0.1-0.8 0 0-0.1-0.1-0.1-0.1q0 0.4-0.1 0.8zm-5.5-4.1q0.1 0.2 0.1 0.4 0-0.1 0.1-0.1-0.1-0.1-0.1-0.2 0-0.1-0.1-0.1zm1.2 3.5c0.1-0.3 0.2-0.7 0.1-0.9-0.2-0.8-0.6-1.5-0.9-2.2 0-0.1-0.1-0.2-0.2-0.1 0.3 1.1 0.8 2.1 1 3.2zm-2.4-5.6c0.1-0.1 0.1-0.2 0.2-0.3-0.4 0-0.7 0-1 0 0.6 0.9 1.3 1.7 2 2.4-0.3-0.9-0.9-1.4-1.2-2.1zm157.9-6q-0.1 0-0.2 0.1 0-0.1 0-0.2-0.4 0.1-0.8 0.3 0.4-0.1 0.8 0 0.1-0.1 0.2-0.2zm-4.3 0.4c0.1 0.3 0.1 0.5 0.1 0.7 1.1-0.3 2.2-0.5 3.2-0.9-1 0-2.1 0.3-3.3 0.2zm6.4-0.9q0-0.2 0-0.3c-0.8 0.2-1.4 0.4-2.1 0.8q1-0.2 2.1-0.5zm-23.5 19.5q0 0 0 0 0 0 0 0 0.1 0 0.1-0.1-0.1 0.1-0.1 0.1zm0 0q0.1 0.1 0.2 0.2 0-0.1 0-0.1 0-0.1-0.2-0.1 0 0 0 0zm0.2-1.1c-0.3 0-0.6 0-0.8 0-0.3 0-0.5-0.1-0.8-0.2 0 0.4 0 0.7 0 1q0.2 0.1 0.3 0.3 0.5 0 1.1 0 0.1-0.6 0.2-1.1zm19-3.7c0.9-0.6 1.7-1.1 2.5-1.6q-0.1-0.2-0.2-0.5c-0.5 0.3-0.9 0.7-1.3 0.7-0.9 0.1-0.9 0.7-0.9 1.3q0 0-0.1 0 0 0.1-0.1 0.1 0 0.1 0 0.1c0.1 0 0.1-0.1 0.1-0.1zm-0.1-10.8c1-0.7 1.9-0.8 2.6-1.3q-0.1-0.6-0.2-1-1 0.4-2 0.9c-0.1 0.4-0.2 0.8-0.2 1.2q0 0-0.1-0.1 0 0.1-0.1 0.2 0 0 0 0c0.1 0 0.1-0.1 0 0.1zm-140.3 9.7q0.1 0.1 0.1 0.1c-0.1 0.4 0.2 0.7 0.5 1.2 0.1-0.6 0.3-1 0.5-1.3q0 0 0 0-0.5 0-1 0 0-0.1 0-0.1 0 0.1-0.1 0.1zm2.4 1.2c1.2 0.1 2.6-0.6 3.1-2.3-1-0.1-2.1 0.2-3.1-0.2-2.4 0.2-4.8-0.2-7.1-0.2q-0.7 0-1.3 0c-0.2 0-0.4 0.1-0.5 0-0.4-0.4-0.9-0.2-1.5-0.2 0.1 0.7 0.2 1.4 0.3 2.1 0.2 0 0.4 0 0.5 0 1-0.1 2-0.5 3.1-0.4q0 0 0.1-0.1c0.7-0.2 1.4-0.3 2.2-0.3 0.8-0.1 1.6-0.4 2.5-0.3 0.1 0 0.2-0.1 0.3-0.1q0.8-0.2 1.6 0.1c-0.5 0.1-1.1 0.2-1.5 0.7 0.2 0.7 0.7 0.9 1.3 1.2zm-2.7-1.2c0.2 0.4 0 1.1 0.3 0 0 0-0.2 0-0.3 0zm113.5-15.6q0 0 0.1-0.1-0.1 0-0.2-0.1 0 0-0.1 0 0.1 0.1 0.2 0.2 0.4 1 0.9 2.1 0 0.4 0 1c-0.3 0.2-0.6 0.4-0.9 0.4-0.8 0.1-1.7 0.2-2.4 0-0.9-0.2-1.7-0.1-2.6-0.2 0 0.7 0 1.3 0 1.9q3.8 0 7.4 0c0.4 0 0.7 0.1 1.1 0.2 0.3-0.4 1 0.1 1.2-0.6-1.1-1.6-2-3.5-3.5-4.8q-0.6 0-1.2 0zm-17.3-0.5q0 0 0 0 0 0 0-0.1 0 0.1 0 0.1zm0 3.3c0 0.5 0 1 0.2 1.2 0.9 0.5 1.8 0.4 2.6 0.4q2 0 3.9 0c0.5 0 0.9-0.1 1.4-0.2 0-0.5 0.1-0.8 0.2-1.2 0.1-1-0.3-2-0.3-3q-0.1-0.1-0.2-0.2c-0.9-0.1-1.8-0.4-2.7-0.3q-0.5 0.1-1 0c-0.7 0-1.5 0.2-2.2-0.1-0.3-0.1-0.6-0.2-0.9 0.1-0.2 0.2-0.4 0.2-0.6 0.3-0.1-0.1-0.2-0.2-0.4-0.3 0 1.1 0 2.2 0 3.3zm0-3.3c-0.1-0.3-0.3-0.5-0.3-0.6 0.1-0.7 0.1-1.1 0.2-1.7 0.2 0 0.5-0.1 0.6 0 0.3 0.3 0.6 0.2 0.8 0.2 1 0.1 2.1-0.1 3.1 0.2 1.5-0.1 3 0.2 4.6 0.3 0.4 0 0.9-0.2 1.2 0 0.5 0.2 0.9 0.1 1.4 0.2 0-2.5 0-5 0-7.4-0.4 0-0.9 0.1-1.2 0-1-0.3-2.1-0.4-3.1-0.6-1.2-0.3-2.3-0.5-3.3-1.1-0.5-0.3-1.2-0.6-1.2-1.3-0.7-1-0.8-2.2-0.8-3.4-0.1-1.2-0.2-2.4 0.1-3.7 0.2-0.6 0-1.2 0-1.7 0.2-0.4 0.4-0.7 0.5-1 0.5-0.5 1.2-0.6 1.8-0.7 0.7-0.1 1.4-0.1 2.1-0.2 1.3-0.2 2.6-0.2 4-0.2q0.1 0 0.3 0c0.1 0 0.1-0.1 0.2-0.1-1 0-2-0.2-3 0-1 0.3-2.1 0-3.2 0.3-0.9 0.1-1.9 0-2.9 0.2-1.1 0.1-2.2-0.1-3.3 0.3-0.1 0.4-0.2 0.8-0.3 1.2 0 1.1 0.1 2.2-0.1 3.3-0.3 1.3 0 2.6-0.3 3.9-0.2 1.5 0.2 3.1-0.2 4.6-0.1 0.7 0 1.5 0 2.2 0 0.7 0 1.4 0 2.1 0 0.7-0.2 1.4-0.2 2.1q0 4.5 0 8.9 0 0.4 0 0.9c2.5-0.2 4.8 0.3 7.2 0.2 2.3 0 4.7 0 7.1 0 0-0.2 0-0.4 0-0.5-0.4-0.1-0.8-0.3-1.3-0.3-1.9-0.1-3.9 0.1-5.9-0.2-1.7-0.2-3.4 0.1-5.1-0.2-0.5-0.1-1-0.1-1.3-0.5-0.1-0.4-0.2-0.8-0.3-1.1 0.1-0.1 0.2-0.2 0.2-0.3 0-0.7 0-1.4 0-2.1 0.1-0.7 0.2-1.4 0.2-2.1 0.1-0.4 0-0.8 0-1.2 0.3-0.2 0.5-0.4 0.8-0.7 0 0.3 0.1 0.4 0.1 0.5-0.2 0.1-0.3 0.1-0.4 0.2 0 1-0.1 2.1 0 3.1 0.1 1-0.3 2-0.2 3q0.3 0.3 0.4 0.5 0.6 0 1.2 0 0-0.1 0-0.1-0.1-0.1-0.2-0.2c-0.6-0.6-0.6-1.4-0.6-2.1 0.3-0.3 0.2-0.6 0.2-1 0-0.5 0-1 0-1.5 0.1-0.2 0.2-0.4 0.4-0.6q0 0 0 0zm0-26.3q0 0 0 0 0 0-0.1 0 0.1 0 0.1 0 0 0 0 0zm-1.7 0.2c-0.5 0.1-1.1 0.1-1.7 0.2-0.6 0.1-1.2 0.1-1.8 0.2-1.3 0.2-2.7 0.2-4 0.2q-0.1 0-0.2 0.1 0 16.3 0 32.6 2.7 0 5.4 0c0-1.5 0-2.8 0-4.2 0-1.4 0-2.7 0.2-4.1 0.2-1.8-0.1-3.6 0.2-5.4 0.2-1.4-0.1-2.9 0.2-4.4 0.2-1.1-0.1-2.2 0.2-3.3 0.2-0.6 0-1.2 0.1-1.8 0-0.6 0.1-1.2 0.2-1.7 0.1-1.3 0.1-2.6 0.2-3.9 0-0.3 0.1-0.5 0-0.7-0.1-0.1-0.1-0.4 0-0.5 0.2-1 1.6-2.7 2.6-3.5-0.5 0-1 0-1.6 0.2zm1.7-0.2q0.1-0.1 0.2-0.1 0-0.1-0.1-0.1 0 0.1-0.1 0.2 0 0 0 0zm28.2 19.8q-0.8 0-1.7 0-0.4-0.4-0.8-0.8c-0.3 0-0.6 0-0.9 0-0.3-0.1-0.6-0.2-0.9-0.2-0.8-0.1-1.6 0-2.5-0.2-0.6-0.2-1.2-0.1-1.9-0.2-0.6-0.2-1.2-0.1-1.9-0.3-1-0.1-2-0.1-3-0.2-0.1 0-0.2 0.1-0.3 0-0.5-0.4-1-0.1-1.7-0.2 0.3 2.4-0.2 4.8-0.1 7.1 0.4 0.1 0.7 0.2 1.1 0.3 0.5 0 1-0.1 1.5 0 0.6 0 1.1 0.1 1.6 0.2 0.7 0.1 1.3 0.1 2 0.2 0.1 0 0.3 0.1 0.5 0.3 0.6 0.5 1.2 1 1.7 1.7 0.7 1 1.2 2 1.8 3q0.4 0.7 0.3 1.3c-0.3 0.7-0.5 1.3-1.3 1.5-1.4-0.1-3 0.1-4.6-0.2-1.5-0.2-3.2 0-4.8 0q0 0.4 0 0.6c0.6 0 1.2 0.1 1.8 0 0.5-0.1 1 0.3 1.6 0.2 0.5 0 1.1 0.2 1.6 0.4 1.1 0.2 1.9 0.9 2.7 1.6 1 0.8 1.8 1.8 2.8 2.5 0.7 0.6 1.5 0.9 2.3 1 0.9 0.1 1.8 0 2.6 0 0.9 0.1 1.8 0.2 2.7 0.2 0.7 0 1.4-0.2 2.1-0.3q0-0.4 0-0.8c0-1.4 0-2.7 0-4.1 0.1-1.4-0.2-2.7-0.2-4 0-1.8 0-3.5 0-5.3 0.1-1.5-0.3-2.9-0.2-4.5-0.8 0.6-1.2 0.7-2.7 0.7-0.4-0.5-0.8-0.9-1.2-1.5zm-45.1-35.1c0.1 0.4 0.2 0.9 0.2 1.3 0.2 2.7-0.1 5.4 0.2 8.1 0.3 2.1 0 4.3 0.2 6.4 0.3 2.5 0 5 0.2 7.5 0.2 1.5 0.1 3.1 0.1 4.7 0 1.6-0.1 3.1 0.2 4.7 0.1 1.3 0 2.7 0 4.1 0 1.3 0 2.7 0 4 0 1.3 0.2 2.7 0.2 4 0 1.5 0 3 0 4.6q0 0.4 0 0.8c1 0.3 1.9-0.2 2.8-0.4 0.8-0.1 1.7-0.1 2.5-0.6-0.1-0.7-0.2-1.2-0.2-1.8q-0.1-0.6 0-1.2c0-0.4 0.2-0.7 0.2-1.1 0-2.5 0-5 0-7.4-0.1-2.5 0.2-4.9 0.2-7.4 0-2.1 0-4.2 0-6.2q0.1-4 0.2-8.1c0-0.1 0.1-0.3 0.2-0.4q-0.2-0.1-0.3-0.2c-0.6-0.7-0.3-1.3 0.3-1.9 0.1-1.8-0.2-3.6 0.3-5.4q0.2 0 0.4-0.1c-0.1-0.9 0.1-1.7 0.4-2.5q0.3-1.1 0.8-2.2c0.3-0.7 0.6-1.4 1.3-1.8 0-0.1 0-0.2 0-0.2-2.5-0.5-5-1-7.6-1.4 0 0.4 0 0.7 0 1.1q0 1.8 0 3.6 0 1.7 0 3.4c0 1.2 0 2.4 0 3.6-0.1 1.2 0.2 2.4 0.2 3.5 0 2.3 0 4.7 0 7 0 2.3 0 4.6 0 6.8-0.1 2.3 0.2 4.6-0.2 6.9q0 6.6 0 13.3 0 0.4-0.1 0.8-0.2-1-0.1-1.9c0.1-0.7-0.2-1.3-0.2-1.9 0-1.3 0-2.6 0-3.9-0.1-1.3-0.1-2.6-0.2-3.8-0.3-2.1 0-4.3-0.2-6.4-0.3-2.4 0-4.8-0.2-7.3-0.2-1.6 0-3.4-0.1-5 0-1.7 0-3.3-0.1-5-0.2-1.9-0.1-3.7-0.1-5.6 0-1.8 0.1-3.7-0.2-5.5-0.1-1.3 0-2.6 0-3.9-0.4 0.1-0.8 0.2-1.3 0.3zm31.5 32.3c1.9 0.4 3.8 0.5 5.7 0.8q2.7 0.4 5.5 0.9 0-0.6 0-1.2c0-1.1 0-2.2 0-3.4-0.1-1.1 0.3-2.2 0.4-3.2q0-0.2 0.1-0.4c0.1 0.5 0.1 1 0.1 1.4-0.1 2.3 0.3 4.5 0.2 6.7 0.4 0.4 0.9 0.4 1.3 0.4 0.6-0.1 1.1-0.2 1.7-0.2 0.3-0.1 0.6 0 0.8 0 0-0.9 0-1.6 0-2.3 0.2-1.9-0.3-3.8-0.2-5.7q-0.2-0.1-0.3-0.3c-0.4 0-0.7 0-1.1 0-0.3 0.1-0.6-0.1-1 0.2-0.2 0.1-0.6 0.1-0.9 0.2-0.2-0.4-0.3-0.9-0.5-1.3q0.2-0.2 0.3-0.3c0.9 0 1.8-0.4 2.7-0.2 0.2-0.2 0.4-0.3 0.6-0.4 0-0.8 0.1-1.6 0-2.5-0.1-0.7-0.2-1.4-0.8-2-0.3 0-0.7 0.2-1.1 0.2-1.6 0.1-3.2-0.1-4.8 0.2-1.6 0.2-3.2-0.1-4.8 0.2-0.6 0.1-1.3 0-2 0-0.6 0.1-1.2 0.2-1.9 0.3q0 5.9 0 11.9zm19.1-12.3c0.1 0.6 0.3 1.1 0.3 1.5 0.1 0.8 0 1.5 0.2 2.3 0.2 0.7 0 1.4 0 2 0.1 0.7 0.2 1.4 0.2 2q0 3.3 0 6.6 0.2 0.1 0.3 0.3c0.4 0.1 0.8-0.1 1.1 0.2 0.3 0.2 0.7-0.1 1 0.1 0.3 0.3 0.8-0.1 1.1 0.3 1.1 0.1 2.2 0.5 3.3 0q0.1 0 0.2-0.1c-0.1-0.2-0.1-0.4-0.3-0.6 0.2-0.1 0.3-0.2 0.4-0.3 1.7-0.1 3.4-0.2 5-0.2 0.3-0.1 0.5-0.1 0.9-0.1-0.1-0.5-0.3-1-0.3-1.4-0.1-1.1 0.1-2.2-0.2-3.2-0.2-0.9-0.1-1.8-0.2-2.7-0.2-1.5-0.2-3-0.2-4.5 0-0.3 0-0.5 0-0.8-0.1-0.1-0.2-0.2-0.2-0.3 0.1-0.1 0.1-0.2 0.2-0.3-0.7-0.1-1.3 0.1-1.8-0.2-1.1 0.1-2.2-0.2-3.3-0.2-1.3-0.1-2.7 0-4-0.1-1.2 0-2.4 0.2-3.7-0.3zm-41.7-11.7q0.6 0.2 1.2 0.4c0.9 0.5 2 0.5 2.9 0.6 1.3 0.3 2.5 0.4 3.8 0.7 0.6 0.1 1.2 0 1.8 0.3 0.5 0.2 1.2-0.1 1.7 0.3 1-0.1 2 0.5 3 0.5 0.2 0 0.5 0.1 0.7 0.2 0.3 0 0.6-0.1 0.9 0q1 0.3 2.1 0.4c0.9 0 1.8 0 2.7-0.2 1-0.2 2-0.2 3-0.2q0.1 0 0.2 0c1.2-0.3 1.2-0.3 2.5 0 0.2 0 0.4 0 0.4-0.1 0.3-0.3 0.7-0.1 1-0.1 0.4-0.1 0.9 0 1.3 0 0.4 0 0.8 0 1.4-0.1-0.6-0.4-1-0.7-1.5-1.1-1-0.9-2.1-1.7-3.4-2.3-0.8-0.4-1.6-0.9-2.5-1.2-1.4-0.4-2.8-0.9-4.2-1.3-1.1-0.4-2.2-0.6-3.4-1q-0.9-0.2-1.9-0.4c-0.7-0.1-1.4-0.4-2-0.4-1.1 0-2.1-0.5-3.2-0.5-0.6 0-1.2 0-1.6-0.2-0.5-0.2-0.9-0.1-1.3-0.2q-0.7-0.1-1.3-0.2c-0.8-0.1-1.6 0.1-2.4 0.3-0.3 0.3-0.7 0.6-0.8 1.1-0.4 1.5-1.1 3-1.1 4.7zm9.2 57.8c0.1 0.5 0.2 1 0.3 1.4 0.2 1 0.5 1.9 0.8 2.8 0.7 1.6 1.7 2.9 3 3.9 1.6 1.2 3.5 1.9 5.5 2 0.8 0.1 1.5 0 2.3-0.2 0.7-0.2 1.6-0.1 2.2-0.8 0.1-0.1 0.3-0.1 0.4-0.2 1.2-0.6 2.2-1.7 2.9-2.9 0.5-0.8 0.8-1.7 1.2-2.6 0.2-0.5 0-1 0.2-1.5 0.3-0.5 0.1-3.3-0.2-3.9-0.4-1.2-0.7-2.4-1.4-3.4-0.7-1.1-1.4-2.2-2.5-2.9-0.6-0.4-1.2-0.7-2-1-0.7-0.3-1.4-0.4-2.2-0.6-0.6-0.1-1.3 0-2 0-0.4 0-0.9 0.1-1.3 0.2-0.6 0.2-1.3 0.3-1.7 0.7-0.6 0.4-1.3 0.6-1.7 1.2-1.1 0.5-1.6 1.6-2.1 2.5-0.6 1.3-0.9 2.6-1 3.9q-0.1 0.2-0.3 0.4-0.7-0.1-1.4-0.3c0.4 0.7 0.1 1.5 0.3 2.1 0.1 0 0.2 0 0.4 0 0-0.3 0-0.7 0-1.1q0.2 0.3 0.3 0.3zm9.6-52.2c-0.4 0.2-0.7 0.3-1 0.3-0.5 0.1-1.1-0.1-1.7 0.2-1.2-0.1-2.4 0.3-3.6 0.3-1.5-0.1-2.8 0.5-3.9 1.6-0.6 0.6-1.1 1.2-1.7 1.9 0.2 0 0.4 0 0.5 0 0.8 0 1.7 0 2.5-0.1 1.2-0.2 2.4 0 3.6-0.2 1.4-0.3 2.8-0.1 4.2-0.3 1.5-0.2 3 0 4.5-0.2 2-0.2 4 0.2 6-0.2q5.2 0 10.4 0c0.3 0 0.6-0.1 0.9 0.2 0 0 0.1 0 0.2-0.1q-0.1-0.1-0.2-0.3c0.3-0.4 0.1-1.1 0.9-1.2-0.4-0.2-0.8-0.4-1.1-0.5q-0.6-0.2-1.2-0.4c-0.4-0.2-0.9-0.2-1.3-0.2-0.4-0.1-0.9-0.3-1.3-0.2-0.5 0-0.9-0.3-1.3-0.3q-1.4 0-2.7 0c-0.9 0.1-1.8-0.3-2.7-0.2-0.7 0.1-1.5 0-2.3 0q-3.5-0.1-7.1-0.2c0 0-0.1 0-0.2-0.1q0-0.1 0-0.3c1.9 0.1 3.7-0.3 5.5-0.2q4.7 0.1 9.4 0c1-0.1 2 0.2 3 0.2 0.1 0 0.2 0 0.2 0 0.3 0.4 0.8 0 1.2 0.3 0.3 0.2 0.7 0.2 1.1 0.3 0.7 0.3 1.4 0.4 2 1 0 0.2-0.1 0.5-0.2 0.9 1-0.6 1.9-0.4 2.8-0.4 1.6 0 3.2 0 4.8 0 0.2 0 0.4 0 0.8 0-1.1-0.6-2-1-3-1.3-1.5-0.4-3.1-0.8-4.7-1.1-0.5 0-1.1 0-1.6-0.2-1-0.3-2-0.3-3-0.5-0.5-0.2-1.1-0.2-1.7-0.3-0.6 0-1.2 0.1-1.7-0.2-1.4 0.2-2.7-0.3-4-0.2-1.2 0-2.4 0-3.5 0-0.3-0.2-0.6-0.3-0.8-0.4-0.1 0.1-0.1 0.2-0.2 0.2-0.8 0.1-1.5 0-2.2 0.2-0.6 0.2-1.1 0-1.5 0.3-0.5 0.2-1-0.1-1.3 0.2-0.5 0.3-0.9 0.1-1.3 0.1-0.4 0.1-0.8 0-1.2 0 0 0.4 0 0.7 0 1-1.6 0.2-3.3 0-4.9 0.3-1 0.1-2 0-3 0-1.1 0.1-2.1-0.1-3.1 0.2-1 0.2-2 0-3.1 0q-2.2 0-4.4 0c-0.1 0.2-0.2 0.4-0.3 0.6 0.3-0.1 0.5-0.2 0.7-0.2 1.3 0 2.6 0.1 3.9-0.1 1-0.2 2.2-0.1 3.3-0.1 1.1 0.1 2.2-0.3 3.3-0.2 0.7 0.1 1.5-0.1 2.2 0 1 0.1 1.9-0.2 2.8-0.2 0.9 0 1.9 0 2.8 0q0.3-0.6 0.6-1.1 0.2 0.1 0.3 0.1-0.2 0.7-0.4 1.3zm-44.6 50c0-0.4 0.2-0.8 0-1-0.3-0.4 0-0.9-0.3-1.3-0.2-0.3-0.2-0.8-0.3-1.2q-0.2-0.6-0.4-1.2c-0.4-1.1-1-2-1.8-2.8-0.7-0.6-1.6-1-2.5-1.3-0.4-0.1-0.9-0.1-1.3-0.2-0.6-0.3-1.1-0.1-1.7-0.2-0.5-0.1-1 0.2-1.6 0.4-0.7 0.3-1.2 0.9-1.7 1.5-1.4 1.3-1.9 3-2.1 4.9 0 0.6 0.1 1.3 0 1.9-0.1 0.9 0.2 1.8 0.4 2.6 0.4 1.2 0.9 2.3 1.7 3.3 1.2 1.4 2.8 2.3 4.8 2.3q0.6 0 1.3 0 0.2 0 0.4-0.1c1.8-0.6 2.8-1.4 3.7-3.1 0.7-1.3 0.8-2.7 1.1-4.2q0.1-0.1 0.3-0.3zm-24.9-9.4c-0.3 0-0.6 0-0.8 0-0.9-0.1-1.6 0.3-2.2 0.7-1.5 1.1-2.5 2.7-2.9 4.5-0.3 1.8-0.3 2.8 0 4.8 0.1 0.3 0.1 0.5 0.2 0.9 0.2 0.7 0.5 1.3 0.9 2 0.5 0.9 1.2 1.5 2 2.1 0.9 0.6 1.9 0.6 2.8 0.8 0.2 0 0.5 0 0.7-0.1 0.5-0.3 1.1-0.4 1.7-0.5 0.1 0 0.3 0 0.4-0.1 1.4-0.9 2.4-2.2 2.9-3.8 0.1-0.2 0.2-0.5 0.2-0.7q0.1-1 0-2.1c0-0.7 0-1.4-0.2-2-0.1-0.4-0.1-0.8-0.2-1.2-0.4-1.1-0.7-2.2-1.4-3.3-0.6-0.8-1.2-1.4-2.2-1.8-0.6-0.3-1.2-0.4-1.8-0.6 0 0.1-0.1 0.2-0.1 0.4zm100.1-8.6c-0.1-0.8-0.2-1.5-0.2-2.1q0-2.8 0-5.5c0-0.5 0-0.9-0.3-1.3q-1.5-0.1-3-0.2c-0.1 0-0.2 0-0.2-0.1-0.3-0.3-0.7 0-0.9-0.1q-0.4-0.2-0.9-0.2c-0.2 0-0.5-0.1-0.7-0.1-0.5-0.1-1-0.5-1.6-0.3q0 5 0 9.8 0.1 0 0.2-0.1c0 0.1 0 0.3 0.1 0.5 0.1-0.3 0.1-0.4 0.2-0.6 1.7 0.2 3.3-0.1 5 0.2 0.7 0.2 1.5 0.1 2.3 0.1zm-37.8-25.1c0.1 0.5-0.3 0.9-0.2 1.3 0.1 0.7 0 1.4 0 2 0 0.7 0 1.3 0 1.9q0.1 1 0.2 1.9c0.1 0.6 0.3 1.1 0.6 1.5 0.3 0.4 0.7 0.8 1.3 0.9 0.3 0 0.6 0.2 0.9 0.3 1.1 0.3 2.2 0.7 3.3 0.4q0-4.6 0-9.3c0-0.6-0.1-1.1-0.5-1.6-0.9 0.1-1.8 0.2-2.7 0.2-1 0-1.9 0.3-2.9 0.5zm-18.8 35.4q0-0.1 0-0.2c-0.8 0-1.6-0.1-2.3 0-0.8 0.1-1.5 0.4-2.2 0.6-0.7 0.3-1.5 0.2-2 0.7 0 0.7-0.1 1.3 0 2 0.1 0.6-0.2 1.1-0.2 1.8q0 2.6 0 5.3 0.1 0.2 0.3 0.3c0.5 0 1.1-0.1 1.7 0.1 0.5 0.1 0.9 0.1 1.5 0.2 0.5 0 1 0.1 1.7 0.2-0.5-0.6-0.4-1.1-0.3-1.6 0-0.2 0.1-0.4 0.1-0.7 0-1.2 0.1-2.5 0-3.8 0-1.2 0.2-2.5 0.3-3.9 0.2-0.3 0.6-0.7 0.8-1 0.3 0 0.5 0 0.6 0zm-102.6 2.7c0.1 0.3 0.2 0.6 0.2 0.8 0 0.8 0.3 1.5 0.5 2.3 0.2 0.9 0.7 1.7 1.2 2.4 0.3 0.6 1 0.8 1.5 1.1 0.4 0.2 0.9 0.3 1.2 0.2 0.6-0.2 1.2-0.2 1.7-0.6q0.1-0.2 0.3-0.4c0.7-1.2 1.1-2.5 1.2-3.8 0.2-1.8 0.1-3.6-0.6-5.3-0.3-0.8-0.6-1.6-1.3-2.1-0.6-0.5-1.3-0.8-2.1-0.7-0.7 0.1-1.3 0.4-1.7 0.9-0.8 0.9-1.2 2-1.4 3.1-0.1 0.4-0.1 0.8-0.4 1.1q-0.5-0.1-0.9-0.3c0.3-1.1 0.4-2.1 0.9-3-0.3-0.9-1.1-1.3-1.6-2-0.4 0-0.8 0-1-0.2-0.4-0.2-0.7-0.3-1-0.1 0.2 0.1 0.5 0.2 0.6 0.4 0.3 0.7 0.8 1.3 1.1 2.1 0.2 0.7 0.5 1.5 0.5 2.3 0.1 1.6 0.2 3.2-0.3 4.8-0.3 1-0.5 1.9-1.3 2.7 1.1 0 2.2-0.6 3.1-1.6-0.3-1.3-0.7-2.6-0.4-4.1zm160 3.6c-0.6 0.2-1 0.5-1.5 0.6-1.2 0.5-2.4 0.6-3.6 0.7-1.1 0-2.2 0-3.3 0.3q0 2.4 0 5 2.8 0 5.4-0.1 0.3 0 0.5-0.1c0.9-0.3 1.7-0.5 2.5-1.1 0.9-0.6 1.9-0.9 2.8-1.5 1.3-0.8 2.7-1.6 3.7-2.8 0.3-0.2 0.5-0.4 0.7-0.6 0.1-0.9 0.1-1.8 0.2-2.8-0.4 0.5-0.8 0.8-1.2 1.2 0 0.1 0.1 0.2 0.1 0.3 0 0.4-0.1 0.7-0.2 1.1-0.9 1-2.2 1.6-3.4 2.4-0.2-0.3-0.4-0.5-0.6-0.8q0-0.4 0-1c-0.5 0.1-1 0.3-1.5 0.5-0.2-0.2-0.4-0.4-0.5-0.5-0.1-0.3-0.1-0.6-0.1-0.8zm-70.4-5.5c-0.2 1 0.1 2-0.3 2.9 0 2 0 4 0 5.9 0.2 0.1 0.2 0.2 0.3 0.3 0.7 0.1 1.4 0 2.1 0.2 0.7 0.2 1.5-0.1 2.3 0.2-0.2-1.4 0.2-2.7 0.2-4 0-2-0.2-3.9 0.2-5.8q0.5-0.5 0.9-0.9 0.5 0 1-0.1c-1.2 0-2.4-0.6-3.6-0.3q0.1 0.2 0.3 0.5c-1.1 0.5-2.4 0.5-3.4 1.1zm-59.8-6.5c-1.9 0-3.6 0-5.4 0-1.7 0-3.5 0-5.3 0-1.7 0.1-3.4-0.5-5.1-0.1q0.1 1.3 0.2 2.6 2.2 0 4.5 0c1.4 0 2.9 0 4.4 0.2 1.5 0.2 3 0 4.4 0q1.1 0 2.1 0 0.3 0 0.6 0c-0.3-0.9-0.5-1.7-0.4-2.7zm-18.4 5.2c0.5-0.4 0.9 0.1 1.3 0.1 0.4-0.1 0.9-0.3 1.2-0.2 0.6 0.2 1.2 0.2 1.8 0.2q6.8 0 13.6 0c0.2 0 0.5-0.1 0.7 0 0.7 0.4 1.4 0.1 2.1 0.2 0-0.6 0-1.1 0-1.6q-0.1-0.1-0.2-0.1c-6.1 0.1-12.1-0.4-18.2-0.2q-0.7 0-1.5 0-0.5 0-1 0c0 0.6 0 1.2 0 1.8q-0.5 0-1 0-0.1-0.3-0.1-0.5c-0.1 0.5-0.3 1 0.1 1.5 0.1 0.2 0 0.5-0.1 0.7-0.3 0.6 0 1.3-0.1 2 0.2-0.5 0.3-1 0.8-1.3q0.8 0 1.8 0c-0.1-0.3-0.2-0.4-0.4-0.7 0-0.4 0-1 0-1.6q-0.4 0-0.8-0.1 0-0.2 0-0.2zm-23.1 8.1c1.1-0.1 1.9-0.5 2.7-1-0.3-1.5-0.9-2.9-0.6-4.7 0.2 0.5 0.3 0.7 0.3 1 0 0.8 0.2 1.6 0.5 2.4 0.4 1.2 0.9 2.4 2.2 3.2 1 0.6 2.7 0.2 3.2-0.4 0.3-0.3 0.7-0.8 0.8-1.2q0.5-1.3 0.7-2.6c0.2-0.7 0.1-3.5-0.2-4.2-0.3-0.8-0.5-1.6-1-2.3-0.5-0.9-1.3-1.3-2.3-1.4-0.3 0-0.7 0-0.9 0-1.9 0.9-2.3 2.7-2.6 4.5q-0.5 0.1-1 0.2c0 0.5 0 1 0 1.4 0.1 0.5-0.2 0.9-0.2 1.4-0.1 1.3-0.6 2.5-1.6 3.7zm113.9-12.8c-0.3 0-0.5 0-0.8 0q-0.2 0.2-0.3 0.3c-1.1 0-2.1 0-3 0.1-1 0-2-0.3-2.9-0.3-6.3 0-12.6 0-18.9 0.1-0.6 0-1.3-0.5-1.9-0.1-1-0.4-2-0.1-3.1-0.2 0.5 0.6 1.3 0.4 1.8 0.8-0.8 0.4-1.7 0.1-2.4 0.3-0.8 0.2-1.7 0.1-2.5 0.2q0.9 1.2 1.8 2.3c1.6-1.6 3.4-2.6 5.6-2.6 0-0.1 0-0.2 0.1-0.3q3.8 0 7.6-0.1c0.7 0 1.4 0.3 2.1 0.6 0.9 0.5 1.6 1.2 2.3 2 0.5-0.1 0.9 0.1 1.4-0.2-0.3 0-0.7-0.1-1.1-0.1 0.1-0.1 0.1-0.1 0.2-0.1q6.4 0 12.8 0 0.1-0.1 0.1-0.1 0 0 0-0.1c-1.9-0.2-3.8 0.2-5.7-0.3-2.4 0.2-4.8-0.2-7.2-0.2q-0.4 0-0.8 0 0-0.1 0-0.2 0.9 0 1.6 0 0.1-0.2 0.2-0.3c0.4-0.1 0.8-0.3 1.2-0.3 1.8-0.1 3.7 0.2 5.5-0.2q0.1 0 0.3 0c2.1 0.1 4.2-0.3 6.2-0.2 0.1 0 0.2-0.1 0.2-0.1q-0.3-0.2-0.6-0.4c0.1-0.1 0.1-0.2 0.2-0.3zm23-39c-0.6-0.1-1.2 0-1.8-0.3-0.4-0.2-0.8 0.1-1.3-0.2-0.4-0.2-0.9 0.1-1.4-0.2-1.2 0.1-2.3-0.5-3.6-0.4q-0.1 0-0.3-0.1c-0.6-0.2-1.3-0.2-1.9-0.4-0.8-0.1-1.6-0.1-2.4-0.2 0 0-0.1 0-0.1 0-0.9-0.3-1.8-0.6-2.8-0.8 0.2 1.4-0.4 2.8-0.2 4.2 0.2-0.1 0.4-0.2 0.5-0.2 1.3 0.1 2.5-0.3 3.7-0.2 0.1 0 0.2 0 0.2 0 0.4-0.4 0.9-0.3 1.4-0.2 0.5 0 0.9-0.2 1.4-0.2 0.8-0.1 1.6 0.1 2.4-0.3 1.5 0.2 2.9-0.3 4.4-0.2 0.6 0.1 1.2-0.2 1.8-0.3zm27.2 35.1c0 1.5 0 2.9 0.1 4.2 0 1.4-0.4 2.7-0.2 4 1.4 0.1 2.8 0 4.2-0.2-0.4-0.9-0.2-1.8-0.3-2.7 0-0.8-0.3-1.7-0.2-2.6 0.1-0.9-0.1-1.8 0.2-2.7-1.2 0-2.5 0-3.8 0zm-169.9 9.8q-0.5 0-0.8 0c0 0.5-0.5 1-0.1 1.7 0.1-0.3 0.1-0.5 0.1-0.7q0.3 0.2 0.4 0.3c0.1 1 0.3 1.9 0.6 2.8 0.3 1 0.8 1.9 1.6 2.5 0.6 0.5 1.3 0.9 2.2 0.6 0.5-0.1 1.1-0.2 1.3-0.7 0.3-0.5 0.7-0.9 0.9-1.5 0.3-1.1 0.4-2.4 0.6-3.6 0-0.5-0.3-0.9-0.2-1.4 0-1.1-0.4-2.1-0.9-3-0.3-0.5-0.8-0.9-1.3-1.3-0.4-0.2-0.9-0.5-1.4-0.4-0.7 0.2-1.5 0.5-1.9 1.2-0.6 1-1 2.2-1.1 3.5zm183.2-37.7c-0.8-0.3-1.6-0.4-2.4-0.5-1.2-0.1-2.4-0.3-3.7-0.3-2.2 0.1-4.3 0.1-6.5 0-1.1 0-2.1-0.1-3.3-0.2 0.4-0.2 0.8-0.4 1.1-0.4 1.4 0.1 2.7-0.3 4-0.2 0.9 0 1.8 0.2 2.7-0.2 0.1-0.1 0.3-0.1 0.4 0 0.4 0.3 0.8 0.2 1.2 0.2q1.7 0 3.5 0c0.2 0 0.4-0.1 0.6 0 0.4 0.4 0.9 0.1 1.5 0.2-0.5-0.4-0.9-0.3-1.3-0.5-1-0.4-2.1-0.3-3.1-0.5-0.5-0.1-1.1 0-1.6-0.2-0.4-0.2-1 0-1.5-0.1-0.5 0-1-0.1-1.5-0.2-1 0-2.1 0-3.1 0-0.9 0-1.7 0-2.5 0q-0.2 0.3-0.2 0.3c-0.1 0.8-0.2 1.5-0.3 2.3 0.3-0.1 0.4-0.1 0.7-0.2q0.1 0.5 0.2 1c0.5 0 1 0.1 1.4 0 0.7-0.3 1.4 0 2-0.2 0.7-0.2 1.5-0.2 2.2-0.2 2.3 0.1 4.5-0.2 6.8 0.2 0.7 0.1 1.4 0 2 0 0.2 0 0.4 0.1 0.6 0.2 0 0 0.1-0.1 0.1-0.1q0-0.2 0-0.4zm-33.3 31.3q0-0.1 0-0.2-0.4 0-0.8 0c-2.6 0-5.3 0-8 0-1.1 0-2.2 0-3.4-0.2-1.2-0.2-2.4 0-3.6 0-0.1 0.4-0.2 0.7-0.2 1q-0.1 1.3 0 2.5c0 0.2 0 0.4 0.1 0.5 0.3 0.8 0.6 1.7 0.8 2.4 0.3-0.4 0.6-0.9 0.8-1.3q0.6-1.2 1.6-2c0-0.5 0.5-0.4 0.7-0.7 0.1-0.3 0.4-0.6 0.7-0.7 1-0.6 2.1-1 3.2-1.1 1.8 0 3.6-0.1 5.3-0.2 0.9 0 1.8 0 2.8 0zm17.7 14.2q-3.4 0-6.6 0-0.3 1.5-0.5 3c0.5 0.1 0.9 0.2 1.4 0.3 0.5 0 1 0 1.6 0 0.5 0 1-0.2 1.4 0 0.5 0.3 1 0.2 1.5 0.2 0.5 0 1 0.1 1.5-0.1-0.5-1.1-0.1-2.3-0.3-3.4zm-35.8-1.7c-2.4-0.3-4.7-0.3-7-0.9 0 1.1 0 2.1-0.5 3q0.1 0.1 0.1 0.2c1.2-0.2 2.4 0.2 3.5 0.2 0.3 0 0.6 0.1 0.9 0.2 0.3 0 0.6 0 0.9 0.1 0.7 0.2 1.4 0.2 2.2 0.3 0.1-1.1-0.3-2.1-0.1-3.1zm-52-10.7c2.7 1.3 4.4 4.2 5 8.1 0.5-2.1 1.2-3.9 2.5-5.5q-0.7-0.7-1.4-1.4c-1.1-1-2.3-1.5-3.8-1.5-0.7 0-1.5 0.2-2.3 0.3zm-79-2.4c-3.1 0-5.9 0-8.8 0q0 0.7 0 1.4c0 0.4-0.1 0.9 0 1.3q3.4 0 6.6 0 0.7-1.2 1.3-2.3c0.2-0.1 0.5-0.2 0.9-0.4zm176.7-13.3c0.5 1.3 0.1 2.5 0.3 3.8 0.4-0.1 0.8-0.2 1.2-0.4 1.2-0.3 2.3-0.6 3.4-0.9 0.6-0.1 1.2-0.3 1.8-0.5-0.2-0.9-0.3-1.8-0.4-2.6-0.5-0.1-1 0.1-1.5 0.2q-0.8 0.1-1.5 0.2c-0.5 0-1.1 0.1-1.6 0.2-0.5 0-1.1 0-1.7 0zm-120.5 17.2q0.8-0.1 1.6-0.1c0.1 0 0.3 0 0.4 0 0.7-0.4 1.4-0.6 2.2-0.8 1-0.2 2.1-0.6 3.1-0.9 1.3-0.4 2.6-0.8 4-1.2-1.2-0.1-10.5-0.1-11.3 0q0 1.5 0 3zm103.5 6.6c0.7 0 1.4 0.2 1.9 0 0.7-0.3 1.3-0.1 1.9-0.2 0.8 0 1.6 0 2.5 0-0.2-1-0.4-2-0.1-3q-0.3 0-0.5 0c-1.2 0.1-2.3 0.2-3.5 0.2-1 0.1-1.9 0.1-2.9 0.1q-0.3 0-0.6 0c0.6 0.9 0.7 2 1.3 2.9zm-62.5-7.6c2.7 1.4 4.7 4.2 5.6 7.4 0.1-0.9 0-1.7 0.1-2.5 0.1-0.9 0.2-1.8 1.2-2.2 0.1-0.1 0.2-0.3 0.3-0.4-0.5-0.5-0.9-0.9-1.3-1.3-0.2-0.2-0.5-0.5-0.8-0.5-0.4 0-0.8-0.3-1.1-0.5-0.5-0.2-1-0.3-1.3-0.2-0.5 0.3-1 0.2-1.5 0.2q-0.6 0-1.2 0zm-34.9 0.6c-2 0.5-4 1.1-6.1 1 0.3 0.1 0.5 0.3 0.8 0.3 1.5 0 3 0 4.4 0.2 0.8 0.1 1.5 0 2.3 0.2 1.2 0.2 2.4 0.2 3.7 0.3 0.2 0 0.5 0 0.8 0.1 0.3-0.4 0.6-0.9 0.9-1.3q-0.3-0.5-0.5-1c-2.1 0.5-4.2 0.3-6.2 0.7 0-0.1-0.1-0.2-0.1-0.5zm80.6-6.1q1.6 0 3.2 0c0-2 0-3.9 0-5.9q-0.7 0-1.3 0c-0.4 0-0.8 0-1.2 0.1 0.4 0.8 0.2 1.5 0.2 2.3 0 0.8 0 1.6 0 2.4-0.3 0.4-0.5 0.7-0.9 1.1zm-94.4 6.2c0.4 0 0.8 0 1.1 0q0.2 0.7 0.3 1.2 1.3-0.4 2.5-0.8c0-1.1 0-2.1 0-3.2-0.8 0-1.5 0-2.3 0-0.7 0-1.4-0.2-2.1-0.2 0.1 0.9 0.2 1.8 0.3 2.7 0 0 0.1 0.1 0.2 0.3zm19.6 2.3c-0.7 0-1.2-0.1-1.7 0-0.4 0-0.9 0.2-1.3 0.2-3 0.1-5.9-0.2-8.8 0.3-0.1 0.2-0.5 0.5-0.2 0.9q0.3 0 0.7 0c1.9 0.2 3.8-0.2 5.7-0.2 1.8 0.1 3.5 0 5.3 0 0.1-0.4 0.2-0.8 0.3-1.2zm63.7-5.7c-0.8 0-1.5 0-2.1 0-0.7 0-1.3 0-1.9 0-0.7-0.1-1.3-0.2-1.9-0.3 0 0.3 0 0.5-0.1 0.6-0.3 0.1-0.6 0.3-0.8 0.3-1-0.1-1.8 0.3-2.8 0.2-0.6 0-1.2 0-1.8 0.4q0 0.2 0 0.5c0.6 0 1.1 0 1.6 0 0.6-0.1 1.1-0.2 1.6-0.2 1.4-0.1 2.7 0 4 0q2 0 3.9 0c0.1-0.2 0.2-0.3 0.3-0.3q0-0.6 0-1.2zm-141.3 2.7q-2 0.1-3.9 0.2c0 0-0.1 0-0.2 0-0.2 0.4-0.8 0.1-0.9 0.6-0.1 0.4-0.2 0.8-0.2 1.2 0.2 0.2 0.3 0.4 0.6 0.6 0.3-0.1 0.6-0.2 1-0.3 0.6 0 1.3 0.1 2 0 0.6 0 1.3-0.1 1.9-0.2q0.1 0 0.2-0.1 0-0.3 0-0.6c0.4-0.6 1-0.8 1.6-1q-1 0-2 0c0-0.1-0.1-0.2-0.1-0.4zm157.2-32.8c0 0-0.1 0.1-0.1 0.2 0.1 3.1-0.4 6.2-0.2 9.4 0 0.1 0.1 0.4 0 0.5-0.4 0.6-0.1 1.3-0.2 2 0.6 0.1 1.1 0.1 1.7 0.2 0-0.2 0-0.4 0-0.6-0.1-0.2-0.2-0.4-0.2-0.6-0.1-0.7 0-1.5-0.2-2.2-0.2-0.6-0.1-1.2 0-1.8 0.1-0.6-0.3-1.1-0.3-1.7q0.1-1.1 0-2.2c0-0.2 0.1-0.5 0-0.6-0.4-0.9-0.2-1.8 0-2.6q-0.2 0-0.5 0zm-26.4-21.5c0.2 0.1 0.5 0.3 0.9 0.3 0.8 0 1.5 0.4 2.3 0.5 0.6 0.1 1.1 0.3 1.7 0.4 0.6 0.1 1.2 0.4 1.9 0.4q0.6 0.1 1.1 0.3c0.7 0.2 1.4 0.3 2 0.6 0.7 0.3 1.4 0.1 2.2 0.3 0.7 0.3 1.5 0.2 2.3 0.3q0.1 0 0.3 0.1 0.1 0 0.2 0.1c0-0.3 0-0.6 0-0.8-0.7-0.2-1.3-0.3-2-0.5-0.5-0.1-1.2-0.1-1.8-0.2-0.5-0.2-1.2-0.1-1.7-0.4-1 0.1-1.9-0.4-2.9-0.4-0.4-0.4-1 0-1.4-0.4-1-0.2-2-0.4-3-0.7-0.7-0.2-1.4-0.2-2.1-0.4q0 0.3 0 0.5zm52.5 56c0.7 0 1.4 0 2.1 0-0.1-0.3-0.2-0.6-0.2-0.8 0-1.4-0.4-2.9-0.2-4.3 0-0.5 0-1-0.1-1.4-0.5 0-0.9 0-1.4 0-0.1 1.5 0.2 3-0.2 4.5-0.1 0.6 0 1.3 0 2zm-28.8-22.6q0.5 0 1.1 0 0-4.8 0-9.5c0-0.7-0.1-1.3 0.2-1.9 0.1-0.2 0-0.4 0-0.5-0.4 0-0.8 0-1.3 0 0.1 0.6 0.3 1.1 0.3 1.6q0 4.3 0 8.7c0 0.5-0.2 1-0.3 1.6zm-13.7 25.2c-1.5-0.2-2.6 0.3-3.8 0.2-1.2-0.1-2.3-0.1-3.5-0.1-0.2 0.4-0.3 0.7-0.4 1.1 0.4 0 0.8-0.1 1 0 0.4 0.2 0.7 0.2 1 0.2 0.4 0.1 0.7 0.2 1.1 0.2 0.6 0.1 1.3 0 1.9 0.3 0.7 0.2 1.3 0.1 1.9 0.2 0-0.9 0-1.6 0.8-2.1zm35.9-0.8c-1.4 0.4-2.8-0.3-4.1 0q1.3 0.2 2.7 0.3c0.1 0 0.2 0 0.3 0 0.3 0.4 0.7 0.2 1.1 0.2 0.3 0.1 0.7 0.2 1.1 0.2 1.1 0 2.2 0 3.4-0.2 0.5-0.1 1-0.1 1.5-0.2 0.5 0 0.9-0.2 1.4-0.2 1 0 1.9-0.4 2.8-0.7 0-0.1 0-0.2-0.1-0.4-0.4 0-0.9-0.1-1.3 0.1-0.3 0.1-0.5 0.1-0.8 0.2-0.4 0-0.7 0.1-1 0.2-0.9 0-1.8-0.1-2.7 0.2-1.1 0.2-2.2-0.2-3.3-0.3-0.2 0-0.6-0.2-0.9-0.1q-0.1 0.4-0.1 0.7zm-137.9-3.3c-0.7-1.1-1.3-2-2.1-2.7-0.9 0-1.7 0-2.6 0q0 0-0.1 0.1c0.9 1.5 1.7 3 2.1 4.7q0-0.7 0-1.3c0.2-0.3 0.4-0.5 0.6-0.8 0.7 0 1.3 0 2.1 0zm142.9 7c0.4 0.2 0.6 0.4 0.8 0.5-0.2 0.7-0.3 1.4-0.4 2 1.2-0.2 2.5-0.2 3.7-0.7 0-0.7 0-1.5 0-2.3-1.3 0.5-2.6 0.5-4.1 0.5zm-52.6-2.5c-0.1 0.7-0.2 1.4-0.3 2.1 0 0.7 0 1.4 0 2.2q0 1 0 2c0 0.2 0.1 0.4 0 0.6-0.4 0.9-0.1 1.8-0.2 2.6 0.2 0.2 0.2 0.3 0.3 0.3q0.6 0 1.1 0c-0.1-0.6-0.3-1.1-0.3-1.7 0.1-2.5-0.4-5-0.2-7.5q0-0.2 0-0.4-0.1-0.1-0.1-0.2-0.2 0-0.3 0zm3.1 4.4c0.2-0.1 0.2-0.2 0.3-0.2 1 0.1 2-0.2 3-0.2 1.5-0.1 3.1 0 4.7 0 0-0.2 0-0.3 0-0.4q-1.3-0.1-2.5-0.3-1.2-0.1-2.4-0.2 0 0 0 0c-0.4-0.4-1-0.1-1.4-0.3-0.4-0.1-0.9-0.1-1.3-0.1-0.2 0.1-0.3 0.2-0.4 0.3 0 0.4 0 0.8 0 1.4zm-68-11.2c0.1 0.7-0.1 1.2-0.2 1.7 0 1.2 0 2.4 0 3.6 0 1.1-0.3 2.3-0.2 3.5 0 0.2 0 0.4 0 0.7-0.3 0-0.5 0.1-0.3 0.4q0.6-0.4 1.4-0.7c0-0.3-0.1-0.6 0-0.8 0.1-1.1-0.3-2.1-0.2-3.2q0-1.6 0-3.3 0-0.8-0.1-1.7c0 0 0-0.1 0-0.2-0.2 0-0.2 0-0.4 0zm19.1 2c0.7 0.2 1.6 0.1 2.4 0.3q2 0.4 3.5 1.7c0.7 0.6 1.2 1.5 1.6 2.4 0.4 0.9 0.7 2 0.8 3 0.2 1.1 0.4 2.2 0.3 3.4-0.1 0.5 0 1 0 1.5 0.5 0 0.8 0 1.2 0q0-0.1 0-0.1-0.3 0-0.8 0c0-0.7 0-1.4 0-2 0-0.6-0.1-1.3-0.2-1.9 0-1.2-0.3-2.3-0.7-3.3-0.5-1.5-1.3-2.8-2.5-3.7-0.3-0.3-0.7-0.6-1.2-0.7-1.4-0.5-2.9-0.9-4.4-0.6zm-27.1 6.4q-0.1-1.2-0.3-2.4-1 0-2 0c0 0.9-0.3 1.7-1.1 2.4 1.1 0 2.2 0 3.4 0zm6.1-8.4c0.1 1.1 0 2 0.2 3 0.2 1 0 2 0.1 3 0 1 0.1 2 0.2 3.1q0.2 0.1 0.6 0.2c0-0.2 0-0.4 0-0.6 0.1-1.1-0.2-2.1-0.2-3.2-0.1-1.8 0.1-3.6-0.3-5.5q-0.2 0-0.6 0zm109.9 11.8c-0.1 0.5-0.2 1-0.3 1.4q2.2 0.2 4.4 0.3c0-0.5 0.1-1 0-1.5q-2 0-3.9 0c-0.1 0-0.1-0.1-0.2-0.2zm-92.6 5.7c-0.8-1.2-1.1-2.5-1.5-3.8q-0.4 0-0.7 0c-0.2 1.3 0.1 2.6-0.2 3.8q1.2 0 2.4 0zm1.5-17.2c-0.1 0.5-0.7 0.3-1.1 0.6-1.1-0.1-2.2 0.6-3.3 0.7 1.2 0.2 2.4-0.1 3.5 0.3 1.2-0.6 2.6-0.8 3.7-1.6-0.9 0-1.8 0-2.8 0zm-79.3 6.8q2.3 0 4.5 0c0-0.4 0-0.8 0-1-0.8 0.1-1.7-0.1-2.5 0.1-0.8 0.2-1.7 0-2.6 0.2q0.4 0.5 0.6 0.7zm135.3 8.9q0.7 0.1 1.5 0.2 0.9 0.2 1.7 0.3-0.1 0.1-0.2 0.1 0.3 0.1 0.6 0.2-0.1 0-0.1 0.1-1.1 0-2.3 0c0.4 0.2 0.7 0.2 1 0.2 0.3 0 0.6-0.1 0.8 0 0.5 0.4 1.2 0.1 1.7 0.2 0.1-0.1 0.1-0.2 0.1-0.2 0-0.5 0-1-0.2-1.5-0.1-0.6 0-1.3 0-1.9 0-0.1-0.1-0.1-0.1-0.2-0.1 0.1-0.2 0.2-0.3 0.4 0 0.8 0 1.6 0 2.2-0.2 0.4-0.3 0.5-0.3 0.6q-0.1 0-0.1-0.1 0-0.3 0-0.8c-1.4 0.1-2.6 0-3.8 0.2zm-120-12.8c-0.6-1-1.5-1.8-3-1.9 1.4 1.3 1.9 2.9 2.1 4.6 0.3-0.9 0.6-1.8 0.9-2.7zm-16 1.6c0.5 0.2 1-0.1 1.4-0.1 1.3-0.2 2.5-0.2 3.8-0.3q0.1 0 0.3 0c0.1-0.1 0.2-0.3 0.3-0.5-1.9 0-3.7 0-5.5 0q-0.2 0.4-0.3 0.9zm92 9.8q-0.7 0.2-1.4 0.4c-0.1 0.5-0.3 0.9-0.5 1.3q-0.2 0.6-0.6 1.1c-0.2 0.4-0.5 0.8-0.8 1.2 1.1-0.3 1.8-1 2.4-1.8 0.5-0.6 1.1-1.3 0.9-2.2zm-85.9-5.7c0 0.6 0.1 1.2 0 1.8 0 0.5-0.1 1-0.2 1.5 0.7-0.1 1.3-0.2 2-0.3-0.6-0.9-0.8-2-1-3-0.2 0-0.5 0-0.8 0zm174.1 1.5c-0.4 0.3-0.9 0.1-1.4 0.2q-0.7 0.1-1.5 0.2 0 0.5 0.1 1c1.1 0 2.1 0 3 0 0.2-0.6 0.1-1-0.2-1.4zm-67.3 4.9c0-0.3 0.1-0.6 0-0.7-0.3-0.3-0.3-0.8-0.1-0.9 0.2-0.4 0.1-0.8 0.1-1.1q0.1-2.3 0-4.6c0.1-0.6 0-1.2 0.3-1.8 0 0-0.1-0.2-0.1-0.4-0.4 0.7-0.6 1.3-0.6 2 0 2.3 0 4.7 0 7 0.2 0.2 0.2 0.3 0.4 0.5zm79.2-8.5c-1.1 0.6-2.2 1.3-3.3 1.8-1.1 0.6-2.4 0.9-3.7 1.2q0.1 0.3 0.1 0.5c0.2 0 0.3 0.1 0.4 0 2.2-0.8 4.3-2 6.5-3q0-0.3 0-0.5zm-79.2 9.5q-0.6-0.2-1.1-0.4c-0.2 0.1-0.4 0.2-0.5 0.2-0.2 1-0.6 2-1.2 2.9 1.3-0.7 2.1-1.7 2.8-2.7zm75.1-16.6q0 0 0 0c-0.2 0.2-0.4 0.3-0.4 0.3-0.2 0.5-0.2 0.7-0.3 1.1 1-0.5 1.9-0.8 2.7-1.4-0.1-0.3-0.2-0.5-0.3-0.8q-0.9 0.4-1.7 0.8zm-13.6-24.5c0 0.1-0.1 0.4 0 0.5 0.3 0.5 0.2 1 0.2 1.5q0 1.5 0 3c0 0 0 0.1 0.1 0.2q0.3 0 0.8-0.1c-0.4-1.7-0.7-3.4-0.8-5.2-0.1 0-0.2 0-0.3 0.1zm11 23.8c0.1 0 0.3 0 0.4 0 2-0.5 4-1.2 6.1-1.8q-0.2-0.2-0.3-0.4c-1.1 0.4-2.2 0.7-3.2 1.1-0.7 0.3-1.5 0.3-2.2 0.6-0.2 0.1-0.5-0.1-0.8-0.1q0 0.2 0 0.6zm2.2-5.9c0.8-0.4 1.7-0.5 2.4-1q-0.2-0.4-0.3-0.7-1 0.3-2 0.6c0 0.4-0.5 0.6-0.1 1.1zm-94.4 22.5c-0.2 0-0.4-0.1-0.7-0.3 0.1 0.7-0.3 1.2-0.5 1.8q-0.1 0.2-0.2 0.4c1.2-0.6 1.9-1.5 2.6-2.5-0.3 0-0.6 0-0.8 0q-0.2 0.3-0.4 0.6zm93.4-7.1c-0.1-0.4-0.3-0.8-0.4-1.2-0.4 0.5-1.2 0-1.3 0.8 0.1 0.2 0.2 0.4 0.2 0.6 0.1 0.3 0 0.5 0 0.8 0.6-0.3 1-0.7 1.5-1zm-181.3-3.2q-1.5 0-2.9 0c-0.3 0-0.6 0.1-0.8 0-0.5-0.4-1-0.1-1.6-0.2 0 0.1 0 0.2 0 0.4q1.2 0 2.4 0c0.3 0 0.6-0.1 0.9 0 0.6 0.4 1.3 0.1 2 0.2 0-0.2 0-0.3 0-0.4zm171.3-24.9c-0.4-0.8-0.1-1.7-0.4-2.4-0.3-0.8 0.1-1.7-0.2-2.5-0.2 1.3-0.2 4.7 0 4.9 0.1 0 0.2 0 0.6 0zm8.7 16.1c0.2 0.5-0.1 1 0.2 1.5 0.4-0.2 0.8-0.4 1.2-0.6-0.2-0.5-0.3-0.8-0.4-1.2-0.3 0.1-0.6 0.2-1 0.3zm-51.9 21.3c-0.7-0.1-1.2-0.2-1.8-0.3q0 0.6 0 1c0.4 0.1 0.7 0 1-0.1 0.3-0.2 0.7 0.1 1.1-0.2q-0.2-0.2-0.3-0.4zm52-17.3c0 0.5 0 0.9 0 1.5 0.4-0.3 1-0.2 1.2-0.7 0-0.2-0.1-0.3-0.2-0.5 0-0.2 0-0.4 0-0.5-0.4 0.1-0.7 0.1-1 0.2zm-44.1 4.8c-1-0.1-2 0.3-3 0.2-0.1 0-0.3 0-0.4 0.1 0.9-0.2 1.7 0.7 2.6 0q0.2 0.3 0.4 0.5c0.3-0.2 0.5-0.4 0.7-0.5q-0.1-0.2-0.3-0.3zm45.4-11.9c-0.1-0.4-0.2-0.7-0.4-1q-0.5 0-0.9 0.1c0 0.4 0 0.8 0 1.2 0.4-0.1 0.8-0.2 1.3-0.3zm-141.2 13.9q-1.3 0.3-2.6 0.6c1 0.1 2 0.2 3 0-0.1-0.2-0.2-0.3-0.4-0.6zm84.8 5q-0.1 0-0.2 0 0 1.9 0 3.9 0.3 0 0.5 0c0-0.5 0-1-0.2-1.3-0.3-0.4-0.1-0.9-0.1-1.3-0.1-0.4 0-0.9 0-1.3zm-17.1-7.9c0.8-0.2 1.5-0.3 2.4-0.5-0.9-0.1-1.8-0.2-2.6-0.4 0 0.3 0 0.5 0 0.6 0.1 0.1 0.2 0.2 0.2 0.3zm72.2-13.5c0.4 0 1 0.2 1.3 0 0.4-0.3 0.8 0 1.3-0.3-1 0-1.8 0-2.6 0 0 0.1 0 0.2 0 0.3zm-183.2 12.3q0.9 0 1.9 0c0.5-0.5 1.2 0 1.9-0.4-0.2 0-0.3 0-0.4 0-1.2-0.1-2.3 0.2-3.4 0.4zm57.8 2.1c0 0.4 0 0.7 0 1q0.3 0 0.6 0c0-0.4 0-0.8 0-1.2-0.2 0.1-0.4 0.1-0.6 0.2zm104.7-38.1q0 0 0 0.1 0.8 0 1.6 0c0.6 0 1.2 0.1 1.7-0.1q-1.6 0-3.3 0zm-46.9 36.9q0 0 0 0.1 0.8 0 1.6 0c0.5 0 1 0.1 1.5-0.1q-1.5 0-3.1 0zm39.7-36.5q0 0.1 0 0.1 0.7 0.1 1.4 0c0.4 0 0.9 0.1 1.3-0.1q-1.3 0-2.7 0zm14.5-0.5q0-0.1 0-0.2-0.6 0-1.3 0c-0.5 0-0.9-0.1-1.4 0.2q1.4 0 2.7 0zm-8 0.4q0-0.1 0-0.2-0.7 0-1.3 0c-0.5 0-0.9-0.1-1.4 0.2q1.4 0 2.7 0zm-33 47.3c0.1-0.1 0.3-0.2 0.5-0.4 0-0.2-0.1-0.4-0.2-0.6q0-0.2-0.1-0.5 0 0 0 0c-0.1 0.6-0.2 1.1-0.2 1.5zm26-22.4c-0.4 0.5-0.5 0.9-0.3 1.1q0.3-0.2 0.6-0.4-0.2-0.3-0.3-0.7zm29 19.9c0.3-0.2 0.4-0.4 0.7-0.7-0.9 0.1-1.1 0.2-1.1 0.6q0.2 0 0.4 0.1zm-49 5.6q0-0.1 0-0.2-0.5 0-0.9 0c-0.3 0-0.7-0.1-1.1 0.2 0.8 0 1.4 0 2 0zm53.9-22.3q0.3-0.2 0.5-0.3c0-0.1-0.1-0.3-0.1-0.4q-0.1-0.3-0.1-0.6 0 0-0.1 0-0.1 0.6-0.2 1.3zm-156.3 11.8q-0.1 0-0.2 0 0 0.4 0 0.8c0.1 0.3-0.1 0.6 0.2 1 0-0.7 0-1.2 0-1.8zm56.4-7.1q0 0 0 0.1c0.2 0 0.4 0 0.5 0 0.2 0.1 0.3 0.2 0.5 0.3 0-0.2 0-0.3 0-0.4q-0.5 0-1 0zm100.2-9.5q-0.1 0-0.1 0c0 0.1 0 0.3-0.1 0.5 0 0.1-0.1 0.3-0.1 0.6q0.4-0.3 0.5-0.4c-0.1-0.3-0.1-0.5-0.2-0.7zm-156.8 14.9q-0.1 0-0.1 0 0 0.7 0 1.5 0 0 0.1 0 0-0.8 0-1.5zm139.3-37.3c0.1 0.4 0.2 0.7 0.4 1.2 0-0.5 0-0.9 0-1.2-0.1 0-0.2 0-0.4 0zm13.7 16c-0.4 0.1-0.7 0.2-1.2 0.4 0.6 0 0.9 0 1.2 0 0-0.1 0-0.2 0-0.4zm4 14.5c0-0.1-0.1-0.2-0.1-0.3-0.1-0.2-0.1-0.3-0.1-0.5q0 0-0.1 0 0 0.5 0 1.1c0.1-0.1 0.2-0.2 0.3-0.3zm-23.7 18.2c-0.2-0.4-0.3-0.6-0.5-1 0 0.4 0 0.7 0 1 0.2 0 0.3 0 0.5 0zm6.2-32.3c-0.6-0.4-0.6-0.4-1-0.3 0.4 0.1 0.6 0.5 1 0.3zm16.6 18c0.1-0.3 0.2-0.5 0.3-0.7-0.4 0-0.5 0.2-0.6 0.6 0.1 0 0.2 0 0.3 0.1zm-134.6 3.8c-0.1 0.3-0.2 0.7 0 1.2 0-0.6 0-0.9 0-1.2zm118.9-22.5c-0.1 0.1-0.1 0.1-0.3 0.3 0.3 0 0.4 0 0.5 0 0-0.2 0-0.4 0-0.6-0.2 0-0.3 0-0.5 0 0.2 0.1 0.2 0.2 0.3 0.3zm-0.2-11.5c-0.2 0.4-0.3 0.7 0 1.3 0-0.6 0-0.9 0-1.3zm-18.3-4.8q0 0.1 0 0.2 0.4-0.1 0.7-0.1 0-0.1 0-0.1-0.4 0-0.7 0zm33.9 22.1q0 0.1 0 0.2 0.4 0 0.8 0 0-0.1 0-0.2-0.4 0-0.8 0zm-108.3 12.4q0-0.1 0-0.2-0.4 0-0.8 0.1 0 0 0 0.1 0.4 0 0.8 0zm94.2 4.4q-0.1-0.1-0.1-0.2-0.2 0.1-0.4 0.1c0.1 0.1 0.1 0.3 0.1 0.5 0.2-0.2 0.3-0.3 0.4-0.4zm-0.4-37.2q0 0.1 0 0.2 0.3-0.1 0.6-0.1-0.1-0.1-0.1-0.1-0.2 0-0.5 0zm13.9 1.2q0.1 0 0.2 0 0-0.3-0.1-0.6 0 0-0.1 0 0 0.3 0 0.6zm-133.9 37.4q-0.1 0-0.2 0 0.1 0.2 0.1 0.5 0.1 0 0.1 0 0-0.3 0-0.5zm124.8-0.4q0 0 0 0.1 0.3 0 0.6 0 0-0.1 0-0.1-0.3 0-0.6 0zm-142.2-6.4q0 0 0.1 0 0-0.3 0-0.7-0.1 0-0.1 0 0 0.4 0 0.7zm0.2-1.1q0.1 0 0.2 0-0.1-0.3-0.1-0.6-0.1 0-0.1 0 0 0.3 0 0.6zm-1.5-0.6q0.1 0.2 0.2 0.4 0.1 0 0.1 0 0-0.2 0-0.4-0.1 0-0.3 0zm122.8-6.3q-0.1 0-0.2 0 0 0.3 0.1 0.6 0 0 0.1 0 0-0.3 0-0.6zm29.4 9.7q0 0.1 0 0.2 0.2-0.1 0.4-0.1-0.1-0.1-0.1-0.1-0.1 0-0.3 0zm-58.1 5q0.1 0 0.2 0 0-0.2-0.1-0.4 0 0-0.1 0 0 0.2 0 0.4zm10.4-0.2q0.1 0 0.1 0 0-0.2 0-0.4 0 0-0.1 0 0 0.2 0 0.4zm-60.6-5.3q0-0.1 0-0.1-0.2 0-0.5 0 0 0 0 0.1 0.3 0 0.5 0zm73.8-34.6q0-0.1 0-0.2-0.2 0.1-0.4 0.1 0.1 0.1 0.1 0.1 0.1 0 0.3 0zm-116.5 34q-0.1 0.1-0.2 0.1 0 0.1 0.1 0.3 0 0 0.1 0 0-0.2 0-0.4zm138.3-18.3q0 0.1 0 0.2 0.2-0.1 0.4-0.1 0-0.1 0-0.1-0.2 0-0.4 0zm15.1 6.3q0-0.1 0-0.2-0.1 0-0.3 0 0 0.1 0 0.2 0.2 0 0.3 0zm-35.8 3.1q0.1 0 0.2 0 0-0.2-0.1-0.4 0 0.1-0.1 0.1 0 0.1 0 0.3zm-76.2 9.8q0 0.1 0 0.1 0.1 0 0.2 0 0 0 0-0.1-0.1 0-0.2 0zm0.6-0.3q-0.1 0-0.1 0 0 0.1 0 0.3 0 0 0.1 0 0-0.2 0-0.3zm-17.3 7.7q0 0 0 0.1 0.1 0 0.2 0 0-0.1 0-0.1-0.1 0-0.2 0zm-56.9-7.7q0 0 0.1 0 0-0.1 0-0.2-0.1 0-0.1 0 0 0.1 0 0.2zm105.5 13q0 0 0 0 0.1 0 0.2 0 0 0 0 0-0.1 0-0.2 0zm31.2-7.4q0 0 0 0.1 0.1 0 0.2 0 0-0.1 0-0.1-0.1 0-0.2 0zm-86.6-2q0 0-0.1 0 0 0.1 0 0.2 0.1 0 0.1 0 0-0.1 0-0.2zm135-0.7q0 0 0 0 0.1 0 0.2 0 0 0 0 0-0.1 0-0.2 0zm-34.9-12q0 0 0-0.1-0.1 0-0.2 0 0 0.1 0 0.1 0.1 0 0.2 0zm32.5 9.8q0 0.1 0 0.1 0.1 0 0.2 0 0 0 0-0.1-0.1 0-0.2 0zm-13.1-21q0 0 0 0 0.1 0 0.3 0 0 0 0 0-0.2 0-0.3 0zm-1 0.9q0-0.1 0-0.1-0.1 0-0.2 0 0 0 0 0.1 0.1 0 0.2 0zm11.4 1.8q0 0 0 0.1 0.1 0 0.2 0 0-0.1 0-0.1-0.1 0-0.2 0zm-30.6 6.5q0.1 0 0.1 0 0-0.1 0-0.2 0 0-0.1 0 0 0.1 0 0.2zm9.7 15.5c0 0.1 0 0.1 0.2 0.1 0-0.1 0-0.1-0.2-0.1zm0.2 0.3c0 0 0-0.1 0 0zm-133.2-4.9c0 0.2-0.1 0.4 0.2 0.4 0-0.1 0.1-0.4-0.2-0.4zm111 5.2q-0.1 0-0.1 0 0 0 0-0.1 0.1 0.1 0.1 0.1zm-45-4.3q0 0-0.1 0 0.1 0 0.1 0zm-104.7-34.8c0.1 1 0.2 1.7 0.3 2.4 0 0.8 0 1.6 0 2.4q0 12.2 0 24.5 0 0.5 0 1c-0.3 0-0.4 0-0.7 0q0-0.4 0-0.7 0-9.2 0.1-18.4c0-0.9 0.2-1.8 0.2-2.7-0.1-0.9 0-1.8 0-2.7q0-1.3 0-2.7 0-1.3 0-2.7c0-0.1 0-0.1 0.1-0.4zm-1.2-1.7c0.2 0 0.3 0 0.4 0q0 15.3 0 30.5-0.1 0-0.1 0c0-0.1-0.1-0.2-0.1-0.3q0-1.5 0-3.1 0-1.6 0-3.2c0-1 0-2.1 0-3.1 0.1-1.1-0.2-2.1-0.2-3.1q0-1.5 0-3.1 0-1.5 0-3.1 0-1.6 0-3.2 0-1.6 0-3.1 0-2.4 0-4.7 0-0.2 0-0.5zm2.5-0.1q-0.4 0-0.8 0 0 0 0-0.1 0.4 0 0.8 0 0 0.1 0 0.1zm153.3 48.5c0.2 0.4 0.3 0.7 0.4 1 0.3-0.3 0.4-0.4 0.6-0.7 0-0.2-0.1-0.5-0.2-0.8q-0.9-0.1-1.8-0.3c-0.2-0.5 0-0.9 0.1-1.4 0.7-2 2.2-3.3 4.1-4.2 0.9 0 1.8-0.6 2.7-0.1 0.2 0.2 0.6 0.1 0.9 0.2 0.2 0.1 0.6-0.1 0.7 0.3 0.6 0 1 0.6 1.6 0.7 0.8 0.9 1.7 1.6 2.1 2.8 0.3 0.8 0.6 1.5 0.6 2.3 0 1.1 0 2.1-0.4 3.1-0.5 1.3-1.3 2.3-2.3 3.1-1.4 1.1-3 1.2-4.6 1-1.1-0.1-2-0.6-2.8-1.3-0.8-0.7-1.4-1.6-1.9-2.6-0.4-0.8-0.5-1.7-0.3-3.1 0.1 0.4 0.2 0.6 0.3 0.9 0 0.2-0.1 0.5 0.2 0.7q0 0 0 0 0 0.3 0 0.6 0.1 0 0.2 0c0-0.2 0-0.4-0.1-0.6q0 0 0 0c-0.1-0.5-0.1-1-0.1-1.6zm1.6-2.6q0-0.1 0.1-0.1 0 0 0 0.1 0-0.1 0-0.1 0 0-0.1 0 0 0 0 0.1zm0.4-0.8c-0.1 0.3-0.2 0.5-0.3 0.7 0.3-0.1 0.5-0.2 0.3-0.7zm-0.5 0.9q0 0 0.1 0c0 0 0-0.1 0-0.1q0 0-0.1 0.1zm7.8 3.4q0 0 0 0.1 0-0.1 0-0.1 0 0 0 0 0 0 0 0zm0.6 0c0-0.4 0-0.7 0-1.1-0.1 0.2-0.2 0.2-0.3 0.3q-0.2 0-0.3 0.1c0 0.2 0 0.5 0 0.7q0.3 0 0.6 0zm-0.6 0q-0.1 0.1-0.2 0.2 0 0 0.1 0 0 0 0.1-0.2 0 0 0 0zm-6.5 0q0.2-0.1 0.3-0.1c0.3 0.7 0.8 1.2 1.5 1.6 0.3 0 0.7 0 1.1 0 0.3-0.4 0.6-0.8 0.8-1.1 0.1-1.1-0.1-1.8-1.2-2.2-0.2 0-0.5 0-0.8 0q-0.4 0.3-0.7 0.7c0 0.1 0 0.3 0 0.5q-0.6 0-1 0c0 0.3 0 0.4 0 0.6zm5.4 2.5c0 0.3-0.1 0.7 0.4 0.9q0.5-0.6 0.9-1.2c-0.2-0.3-0.4-0.5-0.6-0.7q-0.3 0.5-0.7 1zm-1.1 0.9q-0.9 0.3-1.5 0.5c0.1 0.2 0.3 0.4 0.5 0.6q0.6-0.1 1.3-0.3c-0.1-0.3-0.2-0.5-0.3-0.8zm-6.3-1.8c0.3 0.5 0.6 1 1 1.4 0.5-0.7 0.3-1.2-0.2-1.6-0.2 0-0.5 0.1-0.8 0.2zm2.1 2.4c0.5 0.2 1 0.3 1.5 0.5 0-0.4 0-0.6 0-0.8-0.3-0.1-0.7-0.1-0.9-0.2-0.2 0.2-0.4 0.3-0.6 0.5zm5.8-7.8q-0.2 0.2-0.5 0.3c0.2 0.4 0.4 0.7 0.6 1.1q0.3-0.3 0.5-0.5c-0.2-0.3-0.4-0.6-0.6-0.9zm-2.9-1.7q-0.1 0.1-0.1 0.2c0.4 0.3 0.9 0.6 1.4 1 0-0.3 0-0.5 0-0.7q-0.6-0.2-1.3-0.5zm-1.5 0.1c-0.2 0.4-1.2-0.2-1.1 0.8q0.7-0.3 1.4-0.5c0-0.1-0.1-0.2-0.3-0.3zm2.5 8.1c-0.2-0.4-0.3-0.6-0.4-0.7-0.1 0.1-0.2 0.2-0.3 0.3 0.2 0.1 0.4 0.2 0.7 0.4zm-3.9-5.3q0.2 0 0.5 0c0-0.1-0.1-0.2-0.1-0.3q-0.2 0-0.4 0c0 0.2 0 0.2 0 0.3zm4.4 3.8c0.5 0 0.5 0 0.6-0.4-0.2 0.1-0.4 0.3-0.6 0.4zm-2.5 1.2q-0.1 0-0.2 0 0.1 0.3 0.1 0.6 0.1 0 0.1 0 0-0.3 0-0.6zm-0.1-5.7q0 0 0.1 0 0-0.2 0-0.5-0.1 0-0.1 0 0 0.3 0 0.5zm3.2 2.1q0 0 0 0 0-0.1 0-0.2 0 0 0 0 0 0.1 0 0.2zm-1.8-2.2q0 0 0-0.1-0.1 0-0.2 0 0 0.1 0 0.1 0.1 0 0.2 0zm-5.8 5.1q0 0 0 0 0-0.1 0-0.2 0 0 0 0 0 0.1 0 0.2zm6.4-4.7q0 0 0-0.1-0.1 0-0.2 0 0 0.1 0 0.1 0.1 0 0.2 0zm-6.7 3.7q0.1 0 0.1 0 0 0 0 0-0.1 0-0.1 0zm-49.6-1.9q-0.2-1.3-0.5-2.5c-0.1 0-0.7 0.1-0.9 0.2q-0.1-0.2-0.2-0.5c0-1.6 0.6-3.2 1.9-4.4 0.8-0.7 1.7-1.1 2.8-1.1 1.3 0 2.3 0.5 3.2 1.3 0.8 0.8 1.4 1.8 1.6 2.8 0.3 1.1 0.7 2.2 0.1 3.3 0 0.8-0.3 1.4-0.6 2.1-0.5 0.9-1.2 1.5-2 2.1-0.2 0.1-0.5-0.1-0.7 0.3-1-0.1-2.1 0.1-3.1-0.5-1.2-0.6-1.9-1.7-2.3-3.1-0.1-0.5-0.2-1-0.2-1.6 0-0.1-0.1-0.1-0.2-0.2q0.1-0.1 0.3-0.2c0.4 0.6 0.3 1.4 0.8 2 0.2 1 0.8 1.7 1.7 2.3 0 0 0.1 0 0.3 0.1q-0.1 0-0.1 0c0.1 0 0.2 0.1 0.2 0 0.2 0 0.1-0.1 0.1-0.1q-0.1 0-0.1 0c-0.8-0.8-1.5-1.4-1.9-2.3-0.1 0-0.2 0-0.2 0zm6.3 0.6q0 0 0 0 0.1 0 0.2-0.1 0-0.1-0.1-0.1 0 0.1-0.1 0.2 0 0 0 0-0.1 0.1-0.2 0.1 0.1 0.1 0.1 0.1 0.1-0.1 0.1-0.2zm-1-0.7c-0.3 0-0.6-0.1-1-0.2 0.2 0.3 0.2 0.5 0.3 0.6q-0.2 0.2-0.4 0.4 0.4 0.2 0.8 0.4c0.1-0.4 0.2-0.7 0.2-1.1q0.1 0 0.1 0 0.1-0.1 0.2-0.2-0.1 0-0.1 0c-0.1 0-0.1 0.1-0.1 0.1zm-3.2-5.6q0 0 0 0 0 0 0 0 0.1-0.1 0.2-0.1 0-0.1-0.1-0.1-0.1 0.1-0.1 0.2zm-1.1 1.5c-0.2 0.3-0.2 0.7-0.2 1q0 0.6 0 1.1c0 1 0.2 1.8 0.8 2.6 0.9 1.1 1.6 1.5 2.9 1.3-0.4-0.2-1.1-0.4-1.4-0.8-0.6-0.6-1.1-1.4-1.3-2.3-0.2-1-0.6-1.9-0.1-2.9-0.2-0.6 0.4-1 0.4-1.5-0.6 0.3-0.7 1-1.1 1.5zm1.1-1.5q0 0 0 0 0 0 0 0 0 0 0 0zm2.1 3c-0.4 0.1-0.4 0.5-0.6 0.7q0.5 0.5 1.2 0.9 0-0.2 0.1-0.4 0.3 0 0.5 0 0-0.7 0-1.4c-0.1-0.2-0.3-0.5-0.5-0.8q-0.4 0.2-0.7 0.3c0 0.3 0 0.5 0 0.7zm0.6-3.4q-0.3 0.1-0.4 0.2 0.2 0.3 0.3 0.5-0.5 0.2-0.9 0.4 0 0.1 0 0.1 0.9-0.1 1.9-0.3c-0.3-0.3-0.6-0.6-0.9-0.9zm1.8 3.1q0 0.7 0 1.5c0.1 0 0.2 0 0.3 0q0-0.7 0-1.5c-0.1 0-0.2 0-0.3 0zm0.3 2.2c-0.4 0.1-0.8 0.3-1.4 0.6 0.4 0 0.6-0.1 0.7 0 0.2 0 0.4 0.1 0.5 0.1 0.1-0.1 0.2-0.2 0.2-0.3 0.1-0.1 0-0.2 0-0.4zm-3.6 0.4c0.3-0.6 0.4-0.8 0.1-0.9-0.2 0.1-0.3 0.2-0.4 0.3 0.1 0.2 0.1 0.3 0.3 0.6zm-0.2 3.1q0-0.1 0-0.2-0.3 0-0.6 0.1 0 0 0.1 0.1 0.2 0 0.5 0zm3-6.9q0 0.1 0 0.1 0.1 0 0.2 0 0 0 0-0.1-0.1 0-0.2 0zm-2.7-1q0 0 0 0 0.1 0 0.2 0 0 0 0 0-0.1 0-0.2 0zm0.5 5.2q0 0 0 0 0 0.1 0 0.2 0 0 0 0 0-0.1 0-0.2zm-1.2-1.9q0 0.1 0 0.1 0.1 0 0.2 0 0 0 0-0.1-0.1 0-0.2 0zm0.5 0.2q0.1 0 0.1 0 0-0.1 0-0.2 0 0-0.1 0 0 0.1 0 0.2zm-1.1 4q0 0.1 0 0.1-0.1 0-0.1 0 0-0.1 0.1-0.1zm-17.7-1.1c-1.1-0.7-1.9-1.5-2.1-2.8q-0.3-1-0.5-2c-0.5 0.3-0.9 0.4-1.3-0.2 0.4-0.9 0.4-1.9 0.9-2.8 0.6-1 1.4-1.9 2.6-2.2 0.8-0.2 1.8-0.2 2.6 0.1 0.7 0.3 1.4 0.8 1.8 1.5 0.6 1.1 1.2 2.2 1 3.5q0 0.6 0 1.1c0.1 1.9-0.7 3.3-2.1 4.4-0.4 0.3-1 0.5-1.6 0.5-0.5 0-1 0-1.3 0-1.3-0.5-2-1.3-2.6-2.4-0.4-0.9-0.5-1.8-0.6-2.9 0.1 0 0.2 0 0.4 0 0 1.3 0.6 2.4 1.3 3.5 0.3 0.4 0.8 0.8 1.5 0.7 0.2 0.3 0.2 0.3 0.6 0.1q-0.4 0-0.6-0.1zm-0.1-7.7q0 0 0 0 0-0.1 0 0zm-1 1.3c-0.3 1.2-0.3 2.4 0 3.4 0.5 1.5 1.8 2.6 3.2 2.4 0.1 0 0.1-0.1 0.3-0.2-0.4-0.1-0.6-0.2-1-0.3-0.2-0.2-0.5-0.5-0.7-0.8-0.2-0.2-0.4-0.5-0.5-0.7-0.4-0.8-0.7-1.5-0.7-2.4 0.1-0.8 0-1.5 0.3-2.6q0 0 0 0 0.1-0.1 0.1-0.1 0 0 0 0 0-0.2 0.1-0.4c-0.2 0.2-0.2 0.2-0.2 0.2q0 0.1 0 0.2c-0.5 0.5-0.8 0.8-0.9 1.3zm2.5 2.5c0.1 0.1 0.2 0.3 0.4 0.3 0 0.1 0.2 0.1 0.3 0 0.3-0.1 0.5-0.3 0.9-0.4q-0.2-0.8-0.3-1.4-0.4 0-0.7 0-0.2 0.4-0.3 0.7-0.2 0.4-0.3 0.8zm1 2.5q0.2-0.4 0.3-0.7c-0.2-0.2-0.3-0.5-0.6-0.3q0.1 0.2 0.2 0.3-0.1 0.2-0.2 0.4 0.1 0.1 0.3 0.3zm0-6.4c-0.1 0.2-0.2 0.4-0.3 0.6 0.1 0.1 0.2 0 0.4 0.1 0.1 0 0.2 0.1 0.4 0.2 0-0.5-0.3-0.6-0.5-0.9zm-1.2 4.3q-0.1 0-0.2 0 0 0.3 0.1 0.6 0 0 0.1-0.1 0-0.2 0-0.5zm2.7-0.5q0 0-0.1 0 0 0.2 0 0.5 0.1 0 0.1 0 0-0.3 0-0.5zm-2.2 1.8q0 0 0 0.1 0.1 0 0.2 0 0-0.1 0-0.1-0.1 0-0.2 0zm1.9-3.8q0 0 0 0.1 0.1 0 0.2 0 0-0.1 0-0.1-0.1 0-0.2 0zm-1.8-1.1q0 0-0.1 0 0 0.1 0 0.2 0.1 0 0.1 0 0-0.1 0-0.2zm-0.5 0q0 0 0.1 0 0-0.1 0-0.2-0.1 0-0.1 0 0 0.1 0 0.2zm-1.5-0.5q0 0 0-0.1 0 0 0.1 0-0.1 0-0.1 0.1zm-56.2-0.1c-0.2-0.1-0.4-0.1-0.6-0.1 0.2-0.8 0.4-1.6 0.6-2.3 0.3-0.9 0.9-1.5 1.6-2.1 0.2 0 0.4-0.1 0.7-0.1q0.4 0 0.7 0.1c0.3 0.1 0.6 0.1 0.7 0.3 0.8 0.6 1.4 1.4 1.6 2.5q0.2 1.2 0.2 2.3c-0.1 1.2-0.5 2.3-1.1 3.2-0.2 0.3-0.6 0.5-0.9 0.7q-0.7 0-1.4 0c-2.1-0.8-2.2-2.6-2.1-4.5zm2.6 3.1q0.7 0 1.4 0c0-0.6 0.6-0.9 0.4-1.4q-0.6-0.2-1-0.4c-0.6-0.7-0.4-1.4-0.4-2.1 0.3-0.5 0.5-1 0.7-1.3q-0.4-0.5-0.7-0.8-0.5 0.4-1.1 1c-0.5 1.3-0.6 2.7-0.1 4.2 0.2 0.2 0.5 0.5 0.8 0.8zm1.7-2c0.1-0.2 0.2-0.3 0.3-0.5q0-0.7 0-1.5-0.3 0-0.5 0c-0.1 0.6-0.5 1-0.2 1.6 0.1 0.1 0.2 0.2 0.4 0.4zm154.1 3.6c0.3 0.7 0.3 1.3 0.4 1.8 0.1 0.6 0.1 1.2 0.2 1.8-0.9 0.6-1.8 1-2.9 0.9-0.3-0.4-0.3-0.8-0.3-1.2-0.1-0.7-0.2-1.4-0.3-2 0.8-1 2-0.8 2.9-1.3zm0 1.6c-0.6 0.1-1.1 0.3-1.6 0.4 0.1 0.5 0 1 0.2 1.6 0.3-0.4 0.9-0.2 1.1-0.7 0.1-0.4 0.2-0.8 0.3-1.3zm-166-11.2c0.4 0.1 0.9-0.1 1.5 0.2 1 0.5 1.5 1.7 1.7 2.4 0.3 0.9 0.3 1.9 0.1 2.9-0.1 1.3-0.5 2.6-1.8 3.3q0 0 0 0c0 0-0.1 0-0.2 0-0.8 0.5-1.5 0-2.1-0.5-0.8-0.5-1.1-1.4-1.1-2.3 0-0.3 0.1-0.6-0.1-0.8-0.1-0.1 0.1-0.5 0.2-0.7-0.3-0.1-0.5-0.1-0.7-0.1 0.1-0.7 0.4-1.3 0.4-2 0.5-0.9 0.9-2 2.1-2.4zm1.5 8.8q0 0 0 0 0 0 0 0zm-0.6-7.3c-0.2 0.1-0.5 0.2-0.6 0.4-0.3 0.6-0.7 1.2-0.7 1.8q-0.1 1 0 2c0.1 0.5 0.2 1 0.7 1.4 0.4 0.4 0.8 0.6 1.2 0.5 0.6-0.4 0.8-1 0.9-1.5q0.1-0.1 0.1-0.2-0.5 0-0.9 0c-1.1-0.9-0.8-2.6 0.3-3.5-0.4-0.3-0.5-0.8-1-0.9zm1.6 2c-0.3 0.1-0.4 0.2-0.6 0.3 0 0.5-0.1 1 0 1.4 0.3 0 0.4 0 0.6 0 0-0.6 0.1-1.1 0-1.7zm-11.4-3.9c0.4 0 0.8 0 1.2 0 0 0 0.1 0.1 0.1 0.1 1.2 0.3 1.5 1.2 1.9 2.2 0.3 0.8 0.2 1.7 0.2 2.5 0.1 0.8-0.3 1.6-0.5 2.3-0.3 0.7-0.6 0.9-1.4 1.5-0.8 0.2-1.5-0.1-2.1-0.5-0.7-0.5-1-1.3-1-2.2-0.1-0.5-0.1-1.1-0.1-1.7q-0.3 0-0.6-0.1c0.4-1.6 0.7-3.2 2.3-4.1zm0.7 7.1c0.5 0 0.8 0 1.3 0 0.2-0.5 0.4-0.9 0.6-1.5-0.4 0-0.7 0-1 0q-0.3-0.4-0.5-0.7c-0.1-1-0.1-1.9 0.8-2.5q-0.3-0.5-0.7-1c-1.1 0.5-1.3 1.4-1.4 2.4 0 0.6 0 1.2 0 1.7q0 0.7 0.5 1.1 0.2 0.3 0.4 0.5zm1.9-2.1c-0.1-0.5 0.1-1-0.2-1.6q-0.3 0.3-0.4 0.4c0 0.5 0 0.8 0 1.2 0.2 0 0.3 0 0.6 0z"/></svg>